<?xml version="1.0" encoding="UTF-8"?>
<svg xmlns="http://www.w3.org/2000/svg" xmlns:xlink="http://www.w3.org/1999/xlink" width="595.276pt" height="576.002pt" viewBox="0 0 595.276 576.002" version="1.1">
<g id="surface1">
<path style=" stroke:none;fill-rule:nonzero;fill:rgb(13.725281%,12.156677%,12.548828%);fill-opacity:1;" d="M 534.609375 328.398438 C 528.671875 331.253906 524.894531 325.8125 524.738281 325.582031 C 524.296875 324.921875 523.425781 324.699219 522.726562 325.070312 C 522.019531 325.445312 521.714844 326.289062 522.015625 327.027344 C 522.496094 328.210938 524.519531 334.277344 517.046875 337.316406 C 510.140625 340.117188 506.078125 334.050781 505.910156 333.796875 C 505.515625 333.191406 504.757812 332.933594 504.082031 333.179688 C 503.398438 333.425781 502.980469 334.105469 503.070312 334.828125 C 503.683594 339.847656 498.65625 342.285156 498.375 342.421875 C 498.296875 342.460938 496.4375 343.394531 493.964844 342.539062 C 491.265625 341.613281 488.765625 338.832031 486.726562 334.496094 C 486.707031 334.425781 486.6875 334.355469 486.65625 334.285156 C 486.636719 334.234375 484.730469 329.664062 483.917969 324.609375 C 482.875 316.023438 485.234375 309.089844 485.265625 309.003906 C 485.546875 308.191406 485.121094 307.308594 484.3125 307.027344 C 483.503906 306.742188 482.625 307.167969 482.335938 307.972656 C 482.277344 308.152344 481.707031 309.804688 481.226562 312.441406 C 477.8125 314.5 474.695312 316.652344 472.019531 318.78125 C 472.242188 315.660156 473.058594 312.007812 474.703125 307.84375 C 477.335938 301.210938 481.070312 296.109375 485.804688 292.671875 C 487.699219 291.289062 489.503906 290.375 491.011719 289.769531 C 493.4375 288.796875 495.109375 288.621094 495.171875 288.617188 C 496.023438 288.546875 496.660156 287.800781 496.589844 286.949219 C 496.519531 286.09375 495.773438 285.476562 494.917969 285.527344 C 494.792969 285.539062 492.9375 285.710938 490.242188 286.738281 C 488.589844 287.371094 486.613281 288.332031 484.53125 289.773438 C 483.84375 289.589844 482.617188 289.058594 482.011719 287.570312 C 481.445312 286.175781 482.449219 283.269531 488.304688 279.796875 C 490.105469 278.726562 492.363281 277.605469 495.175781 276.453125 C 498.160156 275.226562 500.707031 274.59375 502.832031 274.382812 C 506.433594 274.019531 508.8125 274.867188 510.007812 276.121094 C 510.949219 277.109375 511.246094 278.429688 510.863281 279.835938 C 508.875 279.867188 506.828125 280.222656 504.753906 280.894531 C 504.460938 280.988281 504.175781 281.089844 503.886719 281.195312 C 503.085938 281.488281 502.667969 282.375 502.960938 283.179688 C 503.253906 283.988281 504.144531 284.398438 504.953125 284.105469 C 505.132812 284.042969 505.3125 283.976562 505.492188 283.921875 C 507.691406 283.179688 509.832031 282.855469 511.871094 282.945312 C 511.890625 282.945312 511.914062 282.945312 511.933594 282.949219 C 526.890625 283.699219 534.835938 306.699219 537.558594 316.566406 C 537.65625 316.933594 537.726562 317.1875 537.765625 317.3125 L 537.832031 317.507812 C 539.054688 321.277344 539.789062 325.921875 534.609375 328.398438 M 477.546875 335.0625 C 475.871094 335.339844 474.300781 335.511719 472.886719 335.578125 C 472.863281 335.582031 472.835938 335.582031 472.8125 335.582031 C 472.777344 335.582031 472.738281 335.589844 472.703125 335.589844 C 471.582031 335.621094 470.554688 335.597656 469.644531 335.511719 C 467.277344 335.265625 465.699219 334.558594 465.199219 333.515625 C 464.707031 332.472656 465.15625 330.808594 466.457031 328.828125 C 466.992188 328.019531 467.644531 327.179688 468.398438 326.332031 C 468.40625 326.324219 468.417969 326.308594 468.425781 326.296875 C 468.707031 325.980469 469.007812 325.667969 469.324219 325.347656 C 469.738281 324.90625 470.195312 324.464844 470.671875 324.019531 C 471.109375 323.605469 471.578125 323.1875 472.0625 322.769531 C 474.472656 320.675781 477.398438 318.523438 480.675781 316.433594 C 480.46875 318.640625 480.355469 321.664062 480.785156 324.621094 C 480.785156 324.640625 480.792969 324.660156 480.792969 324.679688 C 481.042969 326.859375 481.492188 329.140625 482.226562 331.46875 C 482.367188 331.933594 482.527344 332.402344 482.699219 332.875 C 482.707031 332.898438 482.714844 332.921875 482.722656 332.945312 C 482.839844 333.253906 482.957031 333.566406 483.082031 333.867188 C 481.140625 334.371094 479.285156 334.773438 477.546875 335.0625 M 471.953125 358.496094 C 471.761719 359.808594 471.460938 360.945312 471.101562 361.929688 C 470.753906 362.871094 470.355469 363.679688 469.933594 364.359375 C 468.472656 366.738281 466.808594 367.613281 466.640625 367.699219 C 462.316406 369.753906 456.355469 371.308594 449.488281 372.246094 C 448.964844 372.324219 448.433594 372.386719 447.898438 372.453125 C 447.355469 372.523438 446.808594 372.582031 446.253906 372.636719 C 443.539062 372.929688 440.710938 373.128906 437.8125 373.230469 C 434.160156 373.355469 430.386719 373.328125 426.578125 373.144531 C 425.050781 373.070312 423.558594 372.96875 422.113281 372.84375 C 421.019531 372.753906 419.957031 372.644531 418.914062 372.523438 C 407.851562 371.242188 399.738281 368.5 398.222656 365.304688 C 397.304688 363.382812 398.042969 359.699219 400.082031 355.019531 C 402.171875 350.242188 405.625 344.425781 410.085938 338.386719 C 410.683594 337.570312 411.296875 336.769531 411.910156 335.972656 C 413.003906 334.5625 414.113281 333.179688 415.238281 331.839844 C 416.660156 330.136719 418.109375 328.5 419.558594 326.9375 C 426.53125 319.429688 433.6875 313.613281 439.632812 310.796875 C 439.867188 310.691406 442.917969 309.398438 447.5 311.191406 C 448.261719 311.492188 449.0625 311.878906 449.902344 312.363281 C 450.597656 312.769531 451.320312 313.242188 452.058594 313.804688 C 455.152344 316.136719 458.628906 319.921875 462.242188 325.960938 L 455.9375 328.957031 C 452.636719 330.515625 451.003906 334.191406 451.878906 337.621094 C 451.914062 337.769531 451.953125 337.921875 452.007812 338.066406 L 450.074219 338.980469 L 447.003906 340.4375 L 435.332031 345.980469 L 432.441406 347.351562 L 430.070312 348.476562 L 430.066406 348.476562 L 419.554688 353.46875 C 418.785156 353.832031 418.453125 354.757812 418.816406 355.535156 C 419.085938 356.089844 419.640625 356.414062 420.21875 356.414062 C 420.445312 356.414062 420.671875 356.371094 420.886719 356.269531 L 422.664062 355.425781 L 430.070312 351.910156 L 432.410156 350.800781 L 432.808594 350.609375 L 435.800781 349.1875 L 453.097656 340.980469 L 453.332031 340.863281 C 453.371094 340.933594 453.417969 341 453.464844 341.0625 C 454.890625 343.125 457.242188 344.300781 459.671875 344.300781 C 459.902344 344.300781 460.132812 344.292969 460.367188 344.265625 C 461.007812 344.210938 461.648438 344.066406 462.28125 343.832031 C 462.484375 343.761719 462.6875 343.675781 462.886719 343.582031 L 463.828125 343.136719 L 468.4375 340.949219 L 469.183594 340.59375 C 469.363281 341.085938 469.527344 341.5625 469.683594 342.035156 C 472.144531 349.324219 472.511719 354.652344 471.953125 358.496094 M 474.035156 382.0625 C 474.023438 380.851562 474.007812 379.679688 474.007812 378.5625 C 474.007812 373.539062 473.726562 368.988281 473.167969 364.910156 C 474.8125 361.695312 475.945312 356.835938 474.808594 349.679688 C 478.289062 356.480469 481.042969 365.09375 482.0625 369.769531 C 482.421875 371.425781 482.617188 373.652344 481.515625 374.878906 C 480.359375 376.167969 478.199219 375.945312 478.1875 375.941406 C 477.667969 375.886719 477.152344 376.085938 476.8125 376.492188 C 476.476562 376.894531 476.367188 377.4375 476.519531 377.945312 C 476.5625 378.074219 480.539062 391.382812 474.679688 409.707031 C 468.941406 427.65625 454.128906 438.808594 436.003906 438.808594 C 429.789062 438.808594 425.179688 437.289062 422.292969 434.296875 C 421.105469 433.070312 420.359375 431.726562 419.894531 430.507812 C 424.085938 433.390625 429.128906 434.644531 434.351562 434.644531 C 442.113281 434.644531 450.277344 431.878906 456.675781 427.59375 C 471.582031 417.597656 473.785156 401.90625 474.035156 389.347656 C 474.035156 389.332031 474.039062 389.320312 474.039062 389.3125 C 474.089844 386.773438 474.058594 384.382812 474.035156 382.0625 M 446.171875 380.761719 C 447.234375 379.085938 448.070312 377.304688 448.675781 375.460938 C 455.816406 374.574219 462.679688 373.003906 467.96875 370.496094 C 468.117188 370.425781 469.1875 369.890625 470.464844 368.632812 C 470.761719 371.695312 470.910156 375.011719 470.910156 378.5625 C 470.910156 379.691406 470.925781 380.871094 470.933594 382.097656 C 470.949219 383.488281 470.964844 384.914062 470.964844 386.378906 C 460.660156 380.105469 447.160156 380.703125 446.171875 380.761719 M 418.660156 425.363281 C 415.929688 422.453125 414.484375 418.691406 414.484375 414.492188 C 414.484375 402.101562 420.226562 393.140625 431.53125 387.851562 L 431.539062 387.84375 C 435.925781 385.792969 440.191406 384.78125 442.996094 384.289062 C 443.015625 384.289062 443.03125 384.285156 443.050781 384.28125 C 445.046875 383.933594 446.304688 383.859375 446.3125 383.859375 C 446.34375 383.855469 446.855469 383.828125 447.734375 383.828125 C 451.679688 383.828125 462.984375 384.367188 470.921875 390.0625 C 470.605469 401.730469 468.367188 416.019531 454.949219 425.015625 C 440.367188 434.796875 425.414062 432.53125 418.71875 425.433594 C 418.703125 425.410156 418.679688 425.390625 418.660156 425.363281 M 424.992188 379.707031 C 428.445312 378.691406 431.3125 377.394531 433.265625 376.390625 C 437.128906 376.382812 441.207031 376.207031 445.261719 375.828125 C 444.507812 377.699219 443.410156 379.5625 441.914062 381.335938 C 439.148438 381.847656 435.269531 382.8125 431.199219 384.601562 C 428.644531 383.503906 426.546875 381.839844 424.992188 379.707031 M 406.691406 337.78125 C 404.910156 340.257812 402.226562 344.195312 399.851562 348.488281 C 400.4375 344.789062 402.058594 341.324219 403.617188 338.6875 C 404.648438 338.40625 405.675781 338.101562 406.691406 337.78125 M 387.414062 336.527344 C 384.195312 336.863281 381.003906 337.023438 377.855469 337.023438 C 373.238281 337.023438 368.71875 336.683594 364.347656 336.046875 C 357.59375 335.066406 351.195312 333.394531 345.347656 331.214844 C 334.925781 327.324219 326.261719 321.816406 320.488281 315.769531 C 316.664062 311.765625 313.746094 308.023438 311.527344 304.644531 C 321.796875 312.539062 334.640625 317.226562 348.5625 317.226562 C 382.167969 317.226562 409.503906 289.886719 409.503906 256.285156 C 409.503906 253.148438 409.261719 250.066406 408.800781 247.050781 C 408.800781 247.035156 408.796875 247.023438 408.796875 247.007812 C 408.738281 246.621094 408.675781 246.234375 408.605469 245.855469 C 408.546875 245.515625 408.488281 245.175781 408.421875 244.835938 C 408.40625 244.75 408.386719 244.660156 408.371094 244.574219 C 408.316406 244.277344 408.253906 243.976562 408.1875 243.683594 C 408.164062 243.546875 408.136719 243.414062 408.101562 243.28125 C 408.046875 243.003906 407.980469 242.722656 407.917969 242.445312 C 407.890625 242.328125 407.859375 242.207031 407.832031 242.089844 C 407.75 241.75 407.671875 241.410156 407.582031 241.074219 C 405.046875 231.167969 400.132812 222.261719 393.445312 214.992188 C 393.441406 215.015625 393.425781 215.042969 393.40625 215.066406 C 393.242188 215.382812 393.058594 215.691406 392.867188 215.992188 C 392.683594 216.273438 392.5 216.542969 392.300781 216.808594 C 392.289062 216.828125 392.273438 216.84375 392.253906 216.863281 C 392.160156 217.003906 392.050781 217.144531 391.945312 217.277344 C 391.625 217.679688 391.285156 218.066406 390.929688 218.4375 C 390.921875 218.4375 390.921875 218.4375 390.921875 218.441406 C 391.59375 219.195312 392.246094 219.964844 392.875 220.75 C 392.886719 220.765625 392.898438 220.78125 392.914062 220.796875 C 394.800781 223.164062 396.5 225.671875 397.992188 228.304688 C 397.996094 228.3125 398.003906 228.324219 398.007812 228.332031 C 398.503906 229.207031 398.972656 230.09375 399.421875 230.992188 C 399.425781 230.996094 399.425781 231 399.425781 231.003906 C 400.296875 232.746094 401.070312 234.539062 401.757812 236.367188 C 401.808594 236.507812 401.859375 236.644531 401.914062 236.785156 C 402.234375 237.660156 402.535156 238.542969 402.8125 239.433594 C 402.824219 239.46875 402.835938 239.503906 402.847656 239.535156 C 403.035156 240.144531 403.210938 240.757812 403.378906 241.371094 C 403.410156 241.492188 403.441406 241.617188 403.472656 241.742188 C 403.933594 243.472656 404.308594 245.230469 404.605469 247.011719 C 404.636719 247.21875 404.664062 247.425781 404.691406 247.632812 C 398.707031 245.90625 392.46875 244.398438 385.988281 243.128906 C 381.398438 242.214844 376.6875 241.429688 371.867188 240.773438 C 360.550781 239.238281 349.226562 238.476562 338.078125 238.441406 C 337.789062 238.4375 337.511719 238.4375 337.226562 238.4375 C 336.679688 238.4375 336.132812 238.4375 335.59375 238.445312 C 330.386719 238.476562 325.222656 238.664062 320.109375 239.003906 C 311.480469 239.578125 303.011719 240.585938 294.792969 241.992188 C 294.378906 242.0625 293.964844 242.132812 293.546875 242.207031 C 294.375 238.972656 295.472656 235.875 296.800781 232.925781 C 296.875 232.757812 296.949219 232.582031 297.027344 232.410156 C 298.058594 230.175781 299.230469 228.027344 300.523438 225.976562 C 300.578125 225.886719 300.632812 225.800781 300.691406 225.710938 C 301.09375 225.078125 301.507812 224.453125 301.9375 223.839844 C 301.984375 223.773438 302.03125 223.703125 302.078125 223.636719 C 302.265625 223.363281 302.460938 223.089844 302.664062 222.820312 C 303.351562 221.875 304.066406 220.957031 304.804688 220.0625 C 304.8125 220.054688 304.816406 220.050781 304.824219 220.042969 C 305.167969 219.628906 305.519531 219.214844 305.882812 218.816406 C 306.28125 218.351562 306.699219 217.894531 307.117188 217.445312 C 307.371094 217.164062 307.636719 216.882812 307.917969 216.609375 C 308.183594 216.328125 308.453125 216.054688 308.734375 215.789062 C 308.785156 215.742188 308.835938 215.691406 308.882812 215.644531 C 309.628906 214.917969 310.402344 214.207031 311.1875 213.519531 C 312.351562 212.503906 313.558594 211.53125 314.800781 210.613281 C 314.816406 210.601562 314.832031 210.589844 314.847656 210.578125 C 316.015625 209.714844 317.222656 208.902344 318.453125 208.132812 C 318.59375 208.042969 318.734375 207.953125 318.878906 207.863281 C 319.144531 207.695312 319.410156 207.535156 319.679688 207.378906 C 320.007812 207.183594 320.332031 206.988281 320.660156 206.8125 C 320.667969 206.808594 320.675781 206.804688 320.683594 206.800781 C 321.683594 206.230469 322.703125 205.695312 323.734375 205.195312 C 324.082031 205.019531 324.429688 204.855469 324.78125 204.699219 C 325.1875 204.511719 325.597656 204.328125 326.011719 204.148438 C 326.222656 204.054688 326.433594 203.964844 326.648438 203.878906 C 326.648438 203.878906 326.644531 203.878906 326.644531 203.875 C 326.644531 203.875 326.636719 203.871094 326.636719 203.863281 C 326.34375 203.402344 326.0625 202.945312 325.808594 202.476562 C 325.726562 202.347656 325.65625 202.214844 325.585938 202.082031 C 325.582031 202.074219 325.578125 202.066406 325.574219 202.058594 C 325.414062 201.761719 325.257812 201.46875 325.113281 201.171875 C 324.957031 200.855469 324.804688 200.539062 324.667969 200.226562 C 324.667969 200.222656 324.660156 200.210938 324.660156 200.207031 C 319.675781 202.328125 315.011719 205.105469 310.792969 208.449219 C 310.710938 206.285156 310.75 204.199219 310.929688 202.617188 C 312.472656 188.925781 324.636719 174.488281 339.542969 172.179688 C 340.589844 172.015625 341.628906 171.941406 342.660156 171.941406 C 344.371094 171.941406 346.042969 172.160156 347.636719 172.574219 C 348.292969 173.125 348.921875 173.703125 349.527344 174.304688 L 349.652344 174.214844 L 349.808594 174.207031 C 349.9375 172.886719 349.917969 171.566406 349.816406 170.238281 C 352.222656 157.113281 360.261719 139.566406 376.425781 139.265625 C 376.578125 139.261719 376.726562 139.261719 376.878906 139.261719 C 386.652344 139.261719 394.425781 145.152344 398.175781 153.101562 C 398.519531 155.152344 399.207031 157.144531 399.941406 158.636719 L 400.089844 158.585938 L 400.238281 158.636719 C 400.386719 158.363281 400.542969 158.09375 400.703125 157.828125 C 400.992188 157.351562 401.296875 156.878906 401.617188 156.421875 C 401.296875 156.878906 400.992188 157.351562 400.703125 157.828125 C 403.246094 155.652344 406.371094 154.300781 409.351562 154.300781 C 409.722656 154.300781 410.085938 154.320312 410.445312 154.359375 C 420.214844 155.488281 424.019531 167.265625 423.457031 175.359375 C 423.410156 176.023438 423.359375 176.695312 423.273438 177.339844 C 424.992188 176.601562 426.808594 176.148438 428.472656 176.148438 C 429.089844 176.148438 429.683594 176.210938 430.246094 176.34375 C 439.875 178.617188 443.945312 191.570312 444.761719 200.207031 C 444.976562 202.507812 444.941406 204.679688 444.710938 206.679688 C 444.714844 206.683594 444.726562 206.6875 444.730469 206.691406 C 444.535156 207.8125 444.40625 208.894531 444.339844 209.894531 L 444.496094 209.921875 L 444.605469 210.027344 C 445.296875 209.507812 446.003906 209.003906 446.730469 208.539062 C 456.804688 218.171875 461.664062 228.511719 463.460938 238.363281 C 449.207031 237.226562 437.347656 243.378906 436.703125 243.71875 C 432.933594 245.714844 431.503906 250.375 433.480469 254.152344 C 435.457031 257.933594 440.136719 259.394531 443.925781 257.433594 C 443.976562 257.40625 445.863281 256.453125 448.839844 255.511719 C 447.246094 257.441406 446.027344 259.832031 445.386719 261.742188 L 445.527344 261.8125 L 445.597656 261.949219 C 448.035156 261.238281 450.617188 260.890625 453.105469 260.976562 C 455.699219 261.425781 457.535156 261.808594 460.378906 261.816406 L 460.558594 261.566406 C 457.984375 256.070312 450.46875 258.46875 446.273438 261.121094 C 447.707031 259.425781 449.371094 257.902344 451.171875 256.6875 C 453.117188 255.730469 454.613281 255.046875 456.371094 253.910156 C 458.773438 253.652344 461.371094 253.625 464.011719 254.015625 C 462.253906 271.167969 453.617188 284.027344 453.429688 284.03125 C 457.460938 290.769531 455.054688 300.636719 449.433594 308.652344 C 443.105469 305.828125 438.636719 307.839844 438.3125 307.992188 C 429.535156 312.152344 420.003906 321.328125 412.617188 330.160156 C 411.179688 330.757812 409.738281 331.3125 408.296875 331.824219 C 401.320312 334.300781 394.300781 335.816406 387.414062 336.527344 M 343.507812 383.519531 C 347.660156 389.410156 347.125 393.339844 346.621094 394.898438 C 344.761719 393.472656 343.316406 392.699219 343.246094 392.664062 C 342.492188 392.265625 341.554688 392.554688 341.15625 393.304688 C 340.753906 394.0625 341.042969 395.003906 341.796875 395.402344 C 341.816406 395.414062 343.527344 396.328125 345.53125 397.984375 C 349.761719 401.5 354.0625 407.195312 350.964844 414.605469 C 348.503906 410.25 343.824219 406.234375 337.039062 402.640625 C 333.929688 401 331.136719 399.675781 328.441406 398.394531 C 323.789062 396.195312 319.722656 394.265625 315.53125 391.382812 C 318.28125 386.332031 318.382812 380.960938 317.601562 376.46875 C 323.144531 383.089844 328.675781 387.519531 328.925781 387.714844 C 329.207031 387.941406 329.546875 388.050781 329.886719 388.050781 C 330.34375 388.050781 330.792969 387.851562 331.101562 387.464844 C 331.632812 386.792969 331.523438 385.816406 330.851562 385.285156 C 330.828125 385.265625 329.917969 384.539062 328.484375 383.25 L 328.484375 383.246094 C 326.363281 381.34375 323.097656 378.214844 319.886719 374.363281 C 321.316406 373.46875 324.246094 372.066406 328.101562 372.476562 C 331.222656 372.808594 334.957031 374.339844 338.992188 378.300781 C 340.90625 380.175781 342.378906 381.921875 343.507812 383.519531 M 341.742188 411.941406 C 335.085938 408.085938 328.226562 406.289062 326.386719 405.855469 L 321.683594 401.070312 C 321.574219 400.960938 321.453125 400.867188 321.316406 400.800781 C 320.457031 400.332031 319.605469 399.886719 318.75 399.4375 C 314.832031 397.390625 311.136719 395.453125 307.039062 392.269531 C 303.808594 389.777344 300.359375 385.527344 296.710938 381.027344 C 292.441406 375.761719 287.601562 369.796875 282.179688 365.566406 C 274.796875 359.789062 266.527344 357.558594 260.054688 359.578125 C 258.878906 359.949219 257.574219 360.515625 256.257812 361.382812 C 259.640625 358.167969 264.226562 356.617188 269.175781 356.996094 C 275.148438 357.457031 284.4375 360.886719 294.753906 374.589844 C 301.097656 383 306.753906 388.882812 312.558594 393.089844 C 312.582031 393.105469 312.601562 393.125 312.628906 393.140625 C 317.441406 396.613281 321.921875 398.734375 327.109375 401.199219 C 329.78125 402.460938 332.539062 403.773438 335.59375 405.382812 C 342.316406 408.941406 346.730469 412.847656 348.71875 416.992188 C 349.054688 417.691406 349.316406 418.398438 349.511719 419.113281 C 347.925781 416.421875 345.328125 414.023438 341.742188 411.941406 M 346.042969 432.574219 C 346.039062 432.578125 346.039062 432.582031 346.039062 432.582031 C 346.007812 432.613281 345.988281 432.644531 345.972656 432.664062 C 342.996094 435.9375 337.878906 437.46875 329.886719 437.46875 C 318.015625 437.46875 311.253906 432.683594 308.933594 430.664062 L 326.199219 409.003906 C 328.449219 409.578125 334.476562 411.316406 340.183594 414.625 C 344.632812 417.199219 347.269531 420.238281 348.019531 423.652344 C 348.988281 428.019531 346.582031 431.800781 346.042969 432.574219 M 305.519531 423.332031 L 320.742188 404.527344 L 323.535156 407.371094 L 307.292969 427.753906 Z M 303.0625 421.449219 C 286.695312 420.042969 273.242188 415.050781 264.109375 406.976562 C 256.027344 399.828125 251.453125 390.261719 251.226562 380.046875 C 251.171875 377.703125 251.328125 375.40625 251.675781 373.222656 C 253.425781 367.589844 256.640625 363.894531 260.980469 362.535156 C 266.484375 360.820312 273.691406 362.863281 280.273438 368.007812 C 285.414062 372.015625 289.933594 377.589844 294.304688 382.980469 C 298.066406 387.617188 301.625 392.003906 305.136719 394.722656 C 309.457031 398.070312 313.449219 400.164062 317.308594 402.183594 C 317.625 402.351562 317.9375 402.515625 318.253906 402.679688 Z M 279.074219 348.601562 C 297.171875 346.804688 307.617188 361.265625 311.265625 367.5625 C 311.273438 367.566406 311.273438 367.574219 311.277344 367.578125 L 311.300781 367.617188 L 311.347656 367.703125 C 311.363281 367.734375 311.382812 367.761719 311.402344 367.804688 C 312.3125 369.46875 317.789062 380.210938 313 389.539062 C 307.917969 385.597656 302.867188 380.207031 297.226562 372.722656 C 286.21875 358.097656 276.023438 354.417969 269.417969 353.902344 C 267.269531 353.738281 265.183594 353.882812 263.199219 354.328125 C 267.640625 351.191406 273.101562 349.1875 279.074219 348.601562 M 307.441406 295.480469 C 307.121094 295.152344 306.816406 294.824219 306.515625 294.488281 C 306.515625 294.488281 306.507812 294.484375 306.507812 294.476562 C 306.339844 294.304688 306.179688 294.121094 306.019531 293.941406 C 305.917969 293.816406 305.804688 293.695312 305.707031 293.570312 C 305.503906 293.351562 305.316406 293.128906 305.128906 292.902344 C 304.933594 292.671875 304.746094 292.441406 304.558594 292.210938 C 304.105469 291.65625 303.660156 291.09375 303.226562 290.519531 C 302.957031 290.15625 302.6875 289.796875 302.425781 289.429688 C 302.273438 289.222656 302.121094 289.011719 301.980469 288.800781 C 301.980469 288.800781 301.976562 288.796875 301.976562 288.792969 C 301.902344 288.6875 301.832031 288.582031 301.757812 288.476562 C 301.5625 288.1875 301.367188 287.894531 301.175781 287.605469 C 301.167969 287.601562 301.160156 287.589844 301.15625 287.585938 C 300.074219 285.945312 299.074219 284.246094 298.167969 282.5 C 296.035156 278.40625 294.398438 274.050781 293.3125 269.527344 C 293.253906 269.289062 293.199219 269.0625 293.148438 268.824219 C 293.082031 268.546875 293.023438 268.269531 292.96875 267.988281 C 292.9375 267.867188 292.914062 267.75 292.890625 267.628906 C 292.824219 267.292969 292.757812 266.957031 292.695312 266.621094 C 292.660156 266.457031 292.632812 266.292969 292.605469 266.128906 C 291.785156 261.507812 291.539062 256.742188 291.921875 251.917969 C 291.953125 251.492188 291.992188 251.066406 292.035156 250.636719 C 292.042969 250.539062 292.050781 250.449219 292.066406 250.355469 C 292.089844 250.074219 292.125 249.800781 292.160156 249.519531 C 292.210938 249.074219 292.269531 248.621094 292.335938 248.179688 C 292.429688 247.53125 292.535156 246.886719 292.65625 246.242188 C 292.949219 246.304688 293.246094 246.339844 293.546875 246.339844 C 293.636719 246.339844 293.734375 246.335938 293.824219 246.332031 C 293.96875 246.320312 294.117188 246.304688 294.261719 246.277344 C 302.742188 244.785156 311.40625 243.738281 320.167969 243.148438 C 325.164062 242.808594 330.183594 242.617188 335.222656 242.582031 C 333.902344 244.917969 332.878906 247.480469 332.234375 250.230469 C 330.757812 256.488281 331.429688 262.75 333.769531 268.246094 C 337.265625 276.4375 344.472656 282.914062 353.804688 285.117188 C 366.9375 288.214844 380.097656 281.847656 386.113281 270.4375 C 385.832031 270.410156 385.550781 270.363281 385.273438 270.296875 C 381.6875 269.449219 379.472656 265.863281 380.316406 262.277344 C 381.164062 258.695312 384.75 256.476562 388.335938 257.324219 C 388.726562 257.417969 389.101562 257.542969 389.460938 257.699219 C 389.5625 254.265625 389.042969 250.902344 387.992188 247.746094 C 393.3125 248.863281 398.515625 250.148438 403.566406 251.613281 C 403.941406 251.71875 404.328125 251.773438 404.707031 251.773438 C 404.875 251.773438 405.035156 251.761719 405.195312 251.742188 L 405.203125 251.742188 C 405.4375 254.675781 405.445312 257.652344 405.210938 260.65625 C 405.179688 261.082031 405.136719 261.511719 405.09375 261.9375 C 405.089844 262.03125 405.078125 262.121094 405.0625 262.21875 C 405.039062 262.496094 405.003906 262.773438 404.96875 263.054688 C 404.921875 263.503906 404.863281 263.949219 404.792969 264.394531 C 404.660156 265.335938 404.488281 266.265625 404.308594 267.1875 C 404.203125 267.734375 404.082031 268.28125 403.960938 268.828125 C 403.871094 269.222656 403.777344 269.613281 403.679688 270.003906 C 403.476562 270.8125 403.257812 271.613281 403.023438 272.40625 C 402.890625 272.863281 402.757812 273.324219 402.609375 273.773438 C 402.46875 274.214844 402.320312 274.644531 402.167969 275.078125 C 401.871094 275.925781 401.570312 276.769531 401.234375 277.59375 C 400.78125 278.722656 400.289062 279.828125 399.773438 280.914062 C 399.59375 281.277344 399.414062 281.648438 399.226562 282.015625 C 399.132812 282.199219 399.042969 282.378906 398.941406 282.566406 C 398.800781 282.835938 398.660156 283.101562 398.515625 283.367188 C 398.3125 283.746094 398.101562 284.128906 397.886719 284.503906 C 397.855469 284.550781 397.828125 284.605469 397.789062 284.660156 C 397.585938 285.027344 397.371094 285.386719 397.148438 285.742188 C 394.53125 290.078125 391.359375 293.992188 387.761719 297.40625 C 387.429688 297.726562 387.097656 298.035156 386.765625 298.335938 C 386.453125 298.621094 386.136719 298.898438 385.824219 299.171875 C 385.597656 299.371094 385.371094 299.570312 385.136719 299.757812 C 384.921875 299.9375 384.707031 300.117188 384.484375 300.292969 C 383.984375 300.703125 383.476562 301.109375 382.960938 301.496094 C 382.53125 301.832031 382.09375 302.152344 381.652344 302.460938 C 381.359375 302.683594 381.058594 302.890625 380.753906 303.097656 C 380.433594 303.324219 380.109375 303.542969 379.78125 303.746094 C 376.207031 306.101562 372.367188 308.046875 368.34375 309.550781 C 367.976562 309.691406 367.613281 309.824219 367.242188 309.945312 C 366.878906 310.078125 366.503906 310.203125 366.132812 310.320312 C 365.796875 310.4375 365.464844 310.539062 365.125 310.640625 C 365.019531 310.671875 364.914062 310.699219 364.808594 310.730469 C 364.132812 310.941406 363.449219 311.125 362.761719 311.304688 C 362.757812 311.304688 362.753906 311.304688 362.742188 311.3125 C 362.296875 311.425781 361.839844 311.535156 361.390625 311.636719 C 357.246094 312.601562 352.960938 313.109375 348.613281 313.109375 C 346.207031 313.109375 343.773438 312.953125 341.328125 312.636719 C 340.90625 312.582031 340.476562 312.523438 340.054688 312.457031 C 339.832031 312.421875 339.613281 312.386719 339.390625 312.351562 C 338.640625 312.230469 337.898438 312.085938 337.160156 311.933594 C 336.710938 311.84375 336.261719 311.746094 335.8125 311.640625 C 335.632812 311.601562 335.453125 311.554688 335.273438 311.511719 C 334.230469 311.261719 333.203125 310.980469 332.1875 310.679688 C 332.042969 310.632812 331.890625 310.59375 331.746094 310.546875 C 330.617188 310.199219 329.503906 309.820312 328.414062 309.410156 C 328.40625 309.402344 328.390625 309.398438 328.375 309.394531 C 328 309.257812 327.628906 309.113281 327.257812 308.960938 C 326.878906 308.808594 326.503906 308.652344 326.132812 308.488281 C 325.761719 308.332031 325.390625 308.167969 325.019531 307.996094 C 324.160156 307.605469 323.316406 307.195312 322.484375 306.765625 C 321.738281 306.386719 321.007812 305.984375 320.285156 305.570312 C 315.679688 302.933594 311.527344 299.683594 307.910156 295.964844 C 307.742188 295.804688 307.589844 295.644531 307.441406 295.480469 M 349.289062 173.085938 C 349.316406 173.207031 349.339844 173.328125 349.359375 173.441406 C 349.269531 173.296875 349.171875 173.152344 349.074219 173.011719 C 349.148438 173.03125 349.21875 173.054688 349.289062 173.085938 C 348.917969 171.234375 348.390625 169.402344 347.710938 167.636719 C 348.390625 169.402344 348.917969 171.234375 349.289062 173.085938 M 397.945312 150.484375 C 397.941406 150.914062 397.964844 151.347656 398.003906 151.785156 C 397.964844 151.347656 397.941406 150.914062 397.945312 150.484375 M 405.335938 152.335938 L 405.339844 152.335938 C 406.5 151.527344 407.496094 150.839844 408.515625 150.011719 C 407.496094 150.839844 406.5 151.527344 405.339844 152.335938 L 405.335938 152.335938 C 405.1875 152.4375 405.039062 152.542969 404.882812 152.652344 C 405.039062 152.542969 405.1875 152.4375 405.335938 152.335938 M 445.523438 207.410156 C 445.875 206.507812 446.261719 205.621094 446.699219 204.765625 C 446.261719 205.621094 445.875 206.507812 445.523438 207.410156 C 445.71875 207.585938 445.902344 207.757812 446.09375 207.933594 C 445.65625 208.375 445.242188 208.816406 444.867188 209.25 C 445.066406 208.628906 445.289062 208.015625 445.523438 207.410156 M 462.402344 334.847656 C 462.769531 335.621094 463.316406 336.285156 464.039062 336.824219 C 464.824219 337.421875 465.8125 337.875 467.015625 338.191406 L 461.554688 340.777344 C 461.398438 340.851562 461.246094 340.914062 461.085938 340.96875 C 460.203125 341.269531 459.273438 341.273438 458.421875 341.027344 C 457.246094 340.6875 456.21875 339.871094 455.652344 338.695312 L 455.511719 338.394531 L 455.476562 338.332031 C 455.46875 338.304688 455.457031 338.285156 455.453125 338.265625 C 455.4375 338.230469 455.421875 338.199219 455.410156 338.164062 C 455.398438 338.152344 455.394531 338.132812 455.378906 338.117188 L 455.164062 337.65625 C 454.117188 335.449219 455.0625 332.800781 457.265625 331.753906 L 462.730469 329.160156 C 461.742188 331.316406 461.628906 333.226562 462.402344 334.847656 M 469.054688 255.300781 C 469.617188 255.511719 470.179688 255.746094 470.742188 256.011719 C 477.824219 259.335938 483.363281 266.332031 487.289062 276.863281 C 482.332031 279.753906 477.230469 284.027344 479.144531 288.738281 C 479.785156 290.3125 480.800781 291.300781 481.792969 291.921875 C 477.613281 295.59375 474.269531 300.554688 471.828125 306.695312 C 470.085938 311.097656 468.808594 316.46875 468.917969 321.421875 C 467.953125 322.308594 467.070312 323.183594 466.296875 324.039062 L 465.050781 324.632812 C 461.1875 318.105469 457.371094 313.933594 453.886719 311.316406 C 454.617188 310.246094 455.3125 309.132812 455.960938 307.984375 C 460.613281 299.699219 461.789062 291.171875 459.332031 284.46875 C 459.628906 283.945312 459.933594 283.390625 460.253906 282.804688 C 461.5 280.519531 463.347656 276.808594 465.050781 272.125 C 466.695312 267.585938 468.3125 261.8125 469.054688 255.300781 M 278.269531 291.304688 C 277.742188 294.0625 277.089844 296.449219 276.355469 298.421875 C 274.648438 303.003906 272.464844 305.355469 270.148438 304.894531 C 267.859375 304.453125 267.039062 303.222656 266.769531 302.617188 C 268.253906 298.546875 268.144531 295.09375 268.140625 294.9375 C 268.136719 294.773438 268.101562 294.609375 268.046875 294.457031 L 268.039062 294.453125 C 267.941406 294.296875 267.84375 294.132812 267.757812 293.96875 C 267.464844 293.621094 267.023438 293.40625 266.535156 293.453125 C 265.675781 293.480469 265.011719 294.199219 265.042969 295.054688 C 265.042969 295.089844 265.132812 298.316406 263.707031 301.964844 C 263.695312 301.992188 263.683594 302.011719 263.679688 302.035156 C 263.664062 302.070312 263.65625 302.109375 263.640625 302.148438 C 261.636719 307.128906 257.84375 310.351562 252.375 311.742188 C 248.597656 312.703125 244.5625 313.097656 240.378906 312.90625 C 239.765625 312.878906 239.164062 312.839844 238.5625 312.789062 C 238.117188 312.746094 237.671875 312.703125 237.226562 312.65625 L 237.117188 312.648438 L 237.011719 312.632812 C 243.402344 306.617188 248.3125 298.453125 250.996094 289.296875 C 251 289.28125 251.007812 289.269531 251.007812 289.253906 C 254.90625 286.023438 257.433594 279.828125 258.519531 270.796875 C 258.621094 269.945312 258.015625 269.175781 257.164062 269.074219 C 256.3125 268.96875 255.542969 269.574219 255.441406 270.425781 C 254.414062 278.976562 252.011719 284.796875 248.488281 287.269531 C 248.472656 287.285156 248.453125 287.300781 248.4375 287.308594 C 245.992188 289.011719 243.441406 288.808594 241.816406 288.386719 C 242.351562 287.421875 242.738281 286.3125 242.972656 285.074219 C 243.414062 282.726562 243.132812 279.597656 240.015625 276.847656 C 242.476562 275.824219 245.386719 273.699219 245.921875 269.335938 C 246.371094 265.695312 245.070312 262.660156 242.042969 260.277344 C 243.222656 259.101562 245.441406 257.402344 248.503906 257.1875 C 248.523438 257.1875 248.542969 257.1875 248.5625 257.183594 C 249.574219 257.132812 250.597656 257.222656 251.59375 257.457031 C 258.539062 259.101562 266.867188 263.945312 267.074219 277.691406 L 267.074219 277.714844 C 267.105469 279.683594 266.964844 281.792969 266.660156 283.996094 C 266.539062 284.84375 267.128906 285.628906 267.976562 285.742188 C 268.050781 285.753906 268.121094 285.757812 268.195312 285.757812 C 268.253906 285.757812 268.308594 285.753906 268.367188 285.75 C 269.050781 285.675781 269.625 285.144531 269.726562 284.425781 L 269.742188 284.308594 C 270.042969 282.144531 270.1875 280.054688 270.175781 278.085938 C 270.65625 277.28125 272.164062 275.132812 274.378906 275.554688 C 275.328125 275.738281 276.222656 276.417969 276.96875 277.519531 C 277.925781 278.921875 278.527344 280.832031 278.761719 283.097656 C 279.011719 285.492188 278.855469 288.285156 278.269531 291.304688 M 236.378906 292.625 C 237.636719 292.261719 238.742188 291.695312 239.675781 290.945312 C 240.648438 291.320312 242.230469 291.78125 244.09375 291.78125 C 245.023438 291.78125 246.03125 291.664062 247.0625 291.371094 C 245.53125 295.675781 243.464844 299.695312 240.96875 303.28125 C 240.980469 303.242188 240.984375 303.199219 240.996094 303.152344 C 241.617188 299.933594 241.15625 295.773438 236.378906 292.625 M 235.015625 307.191406 C 231.960938 309.25 226.425781 309.636719 219.417969 308.273438 L 219.28125 308.242188 C 217 307.792969 215.0625 307.257812 213.890625 306.898438 C 213.335938 306.726562 212.949219 306.597656 212.78125 306.53125 C 212.484375 306.421875 212.023438 306.242188 211.46875 305.960938 C 207.679688 304.117188 206.148438 301.148438 206.917969 297.140625 C 207.871094 292.210938 211.75 290.609375 211.90625 290.542969 C 212.445312 290.339844 212.820312 289.84375 212.886719 289.269531 C 212.949219 288.6875 212.679688 288.121094 212.199219 287.800781 C 212.023438 287.6875 208.003906 284.941406 209.160156 278.984375 C 209.992188 274.660156 213.023438 273.113281 213.140625 273.054688 C 213.589844 272.839844 213.90625 272.417969 213.996094 271.929688 C 214.085938 271.4375 213.925781 270.929688 213.582031 270.566406 C 213.46875 270.457031 210.964844 267.800781 212.199219 263.179688 C 213.136719 259.628906 215.777344 255.855469 227.984375 258.214844 C 229.316406 258.480469 230.378906 258.710938 231.335938 258.953125 C 231.34375 258.953125 231.351562 258.960938 231.359375 258.960938 C 231.375 258.964844 231.390625 258.96875 231.40625 258.96875 C 231.898438 259.101562 232.375 259.230469 232.835938 259.363281 C 235.371094 260.097656 237.371094 260.933594 238.933594 261.886719 C 241.972656 263.753906 243.214844 265.996094 242.847656 268.953125 C 242.308594 273.339844 238.164062 274.386719 236.605469 274.628906 C 236.511719 274.578125 236.414062 274.527344 236.320312 274.480469 C 229.707031 271.292969 220.386719 270.917969 219.980469 270.902344 C 219.128906 270.859375 218.410156 271.539062 218.375 272.394531 C 218.347656 273.25 219.015625 273.972656 219.867188 274 C 219.96875 274.007812 229.46875 274.386719 235.519531 277.546875 C 235.542969 277.558594 235.570312 277.570312 235.59375 277.585938 C 235.632812 277.605469 235.667969 277.625 235.710938 277.644531 C 235.859375 277.726562 236.003906 277.804688 236.144531 277.890625 C 239.191406 279.652344 240.429688 281.820312 239.925781 284.503906 C 239.644531 285.988281 239.09375 287.171875 238.265625 288.03125 C 238.261719 288.039062 238.253906 288.046875 238.246094 288.050781 C 236.796875 289.582031 234.625 289.992188 232.847656 290.027344 C 232.605469 290.039062 232.371094 290.03125 232.144531 290.027344 L 232.101562 290.027344 C 230.878906 289.988281 229.882812 289.808594 229.339844 289.691406 C 229.316406 289.6875 229.292969 289.683594 229.273438 289.679688 C 229.261719 289.671875 229.25 289.671875 229.238281 289.667969 C 229.074219 289.628906 228.949219 289.597656 228.878906 289.578125 C 228.832031 289.566406 228.808594 289.558594 228.800781 289.558594 C 228.78125 289.554688 228.765625 289.546875 228.746094 289.542969 C 223.511719 288.296875 218.542969 288.289062 218.332031 288.300781 C 217.476562 288.304688 216.785156 289.003906 216.785156 289.859375 C 216.789062 290.714844 217.480469 291.40625 218.335938 291.40625 L 218.339844 291.40625 C 218.375 291.375 223.132812 291.398438 227.976562 292.546875 C 227.976562 292.546875 228.007812 292.554688 228.0625 292.566406 C 228.140625 292.589844 228.285156 292.625 228.480469 292.671875 C 228.496094 292.675781 228.515625 292.679688 228.539062 292.6875 C 229.464844 292.929688 230.289062 293.183594 231.050781 293.460938 C 231.121094 293.480469 231.191406 293.507812 231.253906 293.53125 C 231.265625 293.535156 231.28125 293.542969 231.289062 293.546875 C 239.132812 296.46875 238.246094 301.058594 237.953125 302.566406 C 237.5625 304.609375 236.597656 306.121094 235.015625 307.191406 M 232.480469 312.472656 C 232.136719 312.753906 231.785156 313.023438 231.429688 313.289062 C 223.6875 319.089844 214.90625 321.207031 206.589844 319.25 C 203.628906 318.554688 200.816406 317.347656 198.214844 315.671875 L 199.9375 306.726562 C 201.414062 307.472656 202.953125 308.039062 204.546875 308.40625 C 206.492188 308.867188 208.492188 309.050781 210.488281 308.929688 C 210.992188 309.167969 211.417969 309.335938 211.703125 309.4375 C 212.394531 309.695312 215.140625 310.585938 218.632812 311.277344 C 218.675781 311.285156 218.714844 311.296875 218.761719 311.300781 L 218.761719 311.304688 C 221.199219 311.78125 224.03125 312.160156 226.851562 312.171875 L 226.945312 312.171875 C 229.449219 312.171875 231.941406 311.871094 234.125 311.070312 C 233.585938 311.5625 233.039062 312.023438 232.480469 312.472656 M 195.886719 311.355469 L 195.128906 315.277344 L 194.984375 316.078125 L 194.980469 316.101562 C 194.976562 316.121094 194.96875 316.140625 194.96875 316.160156 L 194.894531 316.53125 C 194.109375 320.652344 191.390625 324.058594 187.628906 325.640625 C 182.480469 327.800781 173.328125 330.078125 158.925781 328.660156 C 144.511719 327.242188 135.980469 323.222656 131.359375 320.105469 C 127.976562 317.820312 125.96875 313.949219 126 309.753906 L 126.125 291.328125 C 128.296875 292.621094 130.6875 293.261719 133.074219 293.261719 C 135.382812 293.261719 137.691406 292.660156 139.808594 291.464844 C 144.148438 289.007812 146.738281 284.5625 146.738281 279.53125 C 146.714844 274.785156 144.171875 270.320312 140.097656 267.878906 L 126.335938 259.636719 L 126.691406 207.339844 C 126.695312 206.78125 126.980469 206.296875 127.457031 206.03125 C 127.480469 206.023438 127.503906 206.011719 127.527344 205.992188 C 127.53125 205.992188 127.539062 205.992188 127.542969 205.988281 C 127.546875 205.988281 127.546875 205.988281 127.550781 205.980469 C 127.789062 205.871094 128.238281 205.742188 128.761719 205.972656 C 134.734375 208.59375 148.035156 213.320312 170.054688 215.492188 C 192.050781 217.648438 206.03125 215.609375 212.414062 214.199219 C 212.898438 214.089844 213.28125 214.242188 213.519531 214.394531 L 213.660156 214.5 C 214.089844 214.855469 214.285156 215.390625 214.175781 215.9375 L 210.472656 235.273438 Z M 125.582031 286.855469 L 124.609375 286.023438 L 102.617188 267.375 C 104.140625 266.003906 105.394531 264.410156 106.34375 262.613281 C 107.816406 259.816406 108.601562 256.480469 108.6875 252.667969 L 123.910156 261.789062 L 124.0625 261.882812 L 124.769531 262.304688 L 138.503906 270.535156 C 141.652344 272.425781 143.621094 275.878906 143.640625 279.582031 C 143.640625 283.429688 141.636719 286.863281 138.285156 288.765625 C 134.96875 290.644531 131.046875 290.617188 127.761719 288.703125 L 125.589844 286.859375 Z M 99.292969 266.082031 C 99.285156 266.085938 99.285156 266.09375 99.28125 266.09375 L 99.234375 266.121094 C 99.144531 266.1875 99.054688 266.253906 98.964844 266.3125 C 92.597656 270.703125 82.679688 270.941406 74.550781 269.582031 C 79.75 267.859375 85.054688 263.96875 89.519531 258.292969 C 89.53125 258.277344 89.542969 258.269531 89.550781 258.253906 C 91.238281 256.121094 92.765625 253.773438 94.078125 251.28125 C 95.347656 248.890625 96.382812 246.429688 97.175781 243.957031 C 97.214844 243.839844 97.253906 243.71875 97.289062 243.597656 C 98.875 238.5625 99.441406 233.695312 99.035156 229.378906 C 102.246094 235.242188 104.8125 242.363281 105.441406 248.914062 C 105.484375 249.273438 105.507812 249.632812 105.535156 249.996094 C 105.8125 254.445312 105.167969 258.203125 103.601562 261.167969 C 102.582031 263.089844 101.132812 264.75 99.292969 266.082031 M 64.113281 266.546875 L 64.082031 266.53125 C 63.894531 266.449219 63.6875 266.351562 63.476562 266.234375 C 59.582031 264.179688 57.171875 259.773438 56.679688 253.835938 C 56.171875 247.632812 57.804688 240.578125 61.289062 233.972656 C 66.992188 223.179688 76.195312 216.308594 83.886719 216.308594 C 85.753906 216.308594 87.523438 216.714844 89.140625 217.566406 C 89.335938 217.671875 89.535156 217.773438 89.726562 217.910156 C 89.769531 217.941406 89.820312 217.964844 89.867188 217.996094 C 90.011719 218.074219 90.140625 218.160156 90.257812 218.261719 C 90.316406 218.3125 90.378906 218.355469 90.441406 218.394531 C 90.597656 218.492188 90.761719 218.617188 90.933594 218.777344 C 90.96875 218.804688 91.007812 218.835938 91.042969 218.867188 C 91.203125 218.984375 91.363281 219.132812 91.519531 219.277344 C 91.535156 219.292969 91.542969 219.300781 91.558594 219.3125 C 96.226562 223.800781 97.347656 232.789062 94.441406 242.316406 C 94.40625 242.4375 94.367188 242.550781 94.332031 242.671875 C 94.332031 242.671875 94.328125 242.675781 94.328125 242.683594 C 93.582031 245.089844 92.574219 247.492188 91.339844 249.835938 C 90.121094 252.140625 88.714844 254.316406 87.152344 256.285156 C 87.144531 256.300781 87.132812 256.320312 87.117188 256.335938 C 80.109375 265.257812 70.660156 269.449219 64.113281 266.546875 M 171.5 200.804688 C 191.226562 202.742188 203.378906 208.175781 209.371094 211.648438 C 202.386719 212.933594 189.507812 214.285156 170.359375 212.402344 C 151.171875 210.511719 138.804688 206.671875 132.222656 204.054688 C 138.765625 201.804688 151.714844 198.855469 171.5 200.804688 M 210.277344 271.273438 C 208.84375 272.429688 206.839844 274.65625 206.117188 278.394531 C 205.109375 283.585938 207.121094 287.003906 208.742188 288.820312 C 207 290.078125 204.667969 292.464844 203.875 296.554688 C 203.089844 300.640625 204.21875 303.527344 205.882812 305.53125 C 205.671875 305.488281 205.46875 305.445312 205.257812 305.394531 C 203.617188 305.003906 202.035156 304.378906 200.542969 303.523438 L 205.386719 278.257812 L 208.210938 263.539062 L 210.957031 249.203125 C 213.503906 248.722656 216.035156 248.769531 218.484375 249.347656 C 222.136719 250.210938 225.367188 252.160156 228.007812 255.066406 C 217.175781 253.09375 211.023438 255.492188 209.203125 262.378906 C 209.082031 262.824219 208.992188 263.253906 208.921875 263.675781 C 208.34375 267.167969 209.382812 269.765625 210.277344 271.273438 M 226.070312 236.699219 C 234.730469 238.746094 241.996094 245.160156 246.230469 254.414062 C 242.851562 255.234375 240.535156 257.296875 239.371094 258.578125 C 237.574219 257.636719 235.375 256.828125 232.722656 256.117188 C 229.351562 251.007812 224.6875 247.628906 219.199219 246.332031 C 216.703125 245.746094 214.15625 245.621094 211.582031 245.964844 L 213.339844 236.816406 C 217.636719 235.765625 221.914062 235.71875 226.070312 236.699219 M 540.78125 316.550781 L 540.722656 316.367188 C 540.6875 316.261719 540.632812 316.046875 540.546875 315.742188 C 532.863281 287.9375 521.304688 281.265625 513.992188 280.0625 C 514.425781 277.816406 513.832031 275.644531 512.253906 273.984375 C 510.039062 271.65625 506.339844 270.792969 501.777344 271.40625 C 496.351562 256.878906 488.105469 246.980469 477.164062 241.90625 C 474.375 240.613281 471.578125 239.71875 468.828125 239.136719 C 467.207031 228.347656 462.3125 216.773438 451.488281 205.960938 C 450.753906 206.273438 450.027344 206.628906 449.300781 207.042969 C 449.214844 207.089844 449.132812 207.132812 449.046875 207.179688 C 448.652344 207.386719 448.261719 207.605469 447.875 207.832031 C 448.261719 207.605469 448.652344 207.386719 449.046875 207.179688 L 449.300781 207.042969 C 450.027344 206.628906 450.753906 206.273438 451.488281 205.960938 C 455.707031 204.183594 460.101562 204.023438 464.816406 203.3125 L 464.914062 203.019531 C 460.378906 199.324219 454.664062 201.253906 450.046875 204.550781 C 450.105469 202.972656 450.058594 201.371094 449.902344 199.746094 C 452.019531 197.226562 454.558594 195.109375 457.070312 192.636719 C 457.070312 192.636719 456.976562 192.347656 456.976562 192.34375 C 453.765625 192.15625 451.265625 193.570312 449.359375 195.777344 C 448.582031 191.386719 447.203125 187.085938 445.421875 183.5625 C 442.070312 176.921875 437.234375 172.6875 431.433594 171.3125 C 430.515625 171.097656 429.546875 170.988281 428.539062 170.984375 C 427.652344 161.523438 422.355469 150.53125 411.039062 149.230469 C 410.550781 149.175781 410.054688 149.140625 409.554688 149.128906 C 409.898438 148.824219 410.257812 148.488281 410.628906 148.117188 L 410.578125 147.8125 C 407.660156 146.761719 405.300781 148.054688 403.53125 150.222656 C 403.25 150.320312 402.980469 150.433594 402.707031 150.546875 C 402.316406 149.742188 401.890625 148.960938 401.429688 148.199219 C 401.144531 149.078125 400.828125 149.964844 400.484375 150.96875 C 400.4375 151.191406 400.398438 151.421875 400.363281 151.648438 C 400.203125 152.613281 400.105469 153.59375 400.070312 154.585938 C 400.105469 153.59375 400.203125 152.613281 400.363281 151.648438 C 400.398438 151.421875 400.4375 151.191406 400.484375 150.96875 C 400.828125 149.964844 401.144531 149.078125 401.429688 148.199219 C 401.851562 146.898438 402.199219 145.601562 402.480469 143.929688 L 402.261719 143.710938 C 401.078125 144.050781 400.1875 144.636719 399.53125 145.394531 C 394.1875 138.414062 385.96875 134.09375 376.878906 134.09375 C 376.691406 134.09375 376.511719 134.09375 376.332031 134.097656 C 366.855469 134.273438 358.679688 139.261719 352.675781 148.523438 C 350.148438 152.425781 348.351562 156.53125 347.082031 160.292969 C 345.488281 157.484375 343.089844 155.347656 339.558594 155.167969 L 339.421875 155.445312 C 341.824219 158.492188 343.871094 160.78125 345.960938 163.855469 L 345.972656 163.886719 C 346.304688 164.488281 346.617188 165.101562 346.90625 165.726562 C 346.617188 165.101562 346.304688 164.488281 345.972656 163.886719 C 345.6875 164.949219 345.4375 165.960938 345.226562 166.90625 C 344.546875 166.835938 343.863281 166.796875 343.175781 166.785156 C 339.402344 163.875 334.613281 161.917969 330.300781 164.722656 L 330.355469 165.027344 C 333.195312 165.828125 335.609375 166.398438 338.140625 167.179688 C 338.9375 167.425781 339.746094 167.695312 340.582031 167.996094 C 341.453125 168.40625 342.308594 168.863281 343.144531 169.363281 C 343.933594 169.828125 344.707031 170.335938 345.457031 170.871094 C 344.707031 170.335938 343.933594 169.828125 343.144531 169.363281 C 342.308594 168.863281 341.453125 168.40625 340.582031 167.996094 C 339.746094 167.695312 338.9375 167.425781 338.140625 167.179688 C 330.164062 168.566406 322.464844 172.980469 316.402344 179.652344 C 310.453125 186.207031 306.6875 194.152344 305.800781 202.042969 C 305.492188 204.789062 305.53125 208.933594 305.90625 212.753906 C 300.914062 217.644531 296.746094 223.421875 293.648438 229.878906 C 293.640625 229.886719 293.640625 229.894531 293.636719 229.902344 C 293.488281 230.21875 293.335938 230.527344 293.199219 230.84375 C 293.101562 231.050781 293.007812 231.253906 292.917969 231.460938 C 292.554688 232.273438 292.214844 233.097656 291.886719 233.929688 C 291.648438 234.527344 291.433594 235.132812 291.214844 235.738281 C 291.132812 235.960938 291.050781 236.183594 290.972656 236.410156 C 290.730469 237.109375 290.503906 237.816406 290.285156 238.53125 C 290.257812 238.628906 290.226562 238.730469 290.195312 238.832031 C 288.539062 244.367188 287.625 250.222656 287.625 256.285156 C 287.625 259.203125 287.832031 262.078125 288.238281 264.886719 C 288.261719 265.109375 288.296875 265.332031 288.332031 265.558594 C 288.558594 267.082031 288.84375 268.574219 289.1875 270.03125 C 289.292969 270.472656 289.398438 270.914062 289.511719 271.347656 C 290.558594 275.46875 292.03125 279.421875 293.878906 283.15625 C 293.078125 283.246094 292.296875 283.316406 291.546875 283.371094 C 289.878906 283.492188 288.277344 283.539062 286.769531 283.539062 C 284.988281 283.539062 283.339844 283.476562 281.90625 283.375 C 281.664062 280.339844 280.871094 277.746094 279.539062 275.777344 C 278.320312 273.980469 276.738281 272.855469 274.96875 272.507812 C 272.84375 272.097656 271.152344 272.808594 269.898438 273.78125 C 268.136719 260.261719 258.328125 255.867188 252.304688 254.445312 C 251.371094 254.222656 250.421875 254.097656 249.464844 254.074219 C 244.910156 243.433594 236.691406 236.023438 226.78125 233.683594 C 222.585938 232.691406 218.285156 232.632812 213.964844 233.503906 L 217.21875 216.527344 C 217.480469 215.207031 217.140625 213.855469 216.335938 212.828125 C 216.257812 212.6875 216.160156 212.558594 216.035156 212.445312 C 216.035156 212.445312 215.894531 212.3125 215.652344 212.128906 L 215.636719 212.113281 C 215.628906 212.105469 215.617188 212.097656 215.609375 212.09375 C 215.542969 212.035156 215.476562 211.988281 215.402344 211.933594 C 215.398438 211.925781 215.371094 211.910156 215.347656 211.894531 C 215.332031 211.878906 215.3125 211.867188 215.292969 211.847656 C 215.289062 211.847656 215.28125 211.84375 215.277344 211.839844 C 211.738281 209.089844 198.558594 200.347656 171.804688 197.722656 C 144.058594 194.988281 129.085938 201.722656 126.210938 203.1875 C 126.191406 203.199219 126.171875 203.210938 126.152344 203.21875 C 126.125 203.230469 126.109375 203.242188 126.085938 203.253906 L 126.082031 203.253906 C 126.078125 203.257812 126.066406 203.265625 126.054688 203.269531 C 126.050781 203.269531 126.046875 203.273438 126.042969 203.273438 C 125.714844 203.445312 125.550781 203.542969 125.550781 203.542969 C 125.410156 203.628906 125.289062 203.734375 125.199219 203.855469 C 124.199219 204.699219 123.601562 205.957031 123.59375 207.3125 L 123.253906 257.78125 L 108.5625 248.980469 C 107.484375 236.523438 100.082031 222.804688 93.648438 217.027344 C 93.628906 217.007812 93.609375 216.992188 93.589844 216.972656 C 93.390625 216.785156 93.175781 216.597656 92.964844 216.429688 C 92.699219 216.191406 92.4375 215.996094 92.179688 215.824219 C 91.941406 215.632812 91.691406 215.46875 91.421875 215.3125 C 91.164062 215.136719 90.886719 214.980469 90.601562 214.828125 C 80.804688 209.660156 66.429688 217.601562 58.550781 232.527344 C 54.792969 239.648438 53.03125 247.308594 53.585938 254.089844 C 54.167969 261.121094 57.167969 266.414062 62.011719 268.964844 C 62.25 269.101562 62.507812 269.222656 62.757812 269.335938 C 62.777344 269.347656 62.792969 269.351562 62.8125 269.359375 C 67.058594 271.382812 75.039062 273.410156 83.199219 273.410156 C 89.210938 273.410156 95.316406 272.308594 100.078125 269.285156 L 123.042969 288.761719 L 122.902344 309.734375 C 122.867188 314.96875 125.378906 319.804688 129.628906 322.675781 C 134.539062 325.996094 143.566406 330.265625 158.625 331.742188 C 161.824219 332.058594 164.785156 332.199219 167.507812 332.199219 C 177.597656 332.199219 184.515625 330.308594 188.824219 328.5 C 193.003906 326.742188 196.148438 323.21875 197.5 318.875 C 200.125 320.4375 202.933594 321.578125 205.878906 322.269531 C 208.144531 322.800781 210.441406 323.0625 212.742188 323.0625 C 220.019531 323.0625 227.316406 320.414062 233.878906 315.320312 C 233.917969 315.332031 233.957031 315.339844 234 315.347656 C 234.90625 315.492188 235.835938 315.621094 236.785156 315.726562 L 236.90625 315.742188 C 237.371094 315.785156 237.835938 315.835938 238.300781 315.875 C 238.941406 315.925781 239.578125 315.972656 240.234375 316.003906 C 240.957031 316.035156 241.675781 316.050781 242.390625 316.050781 C 246.121094 316.050781 249.726562 315.617188 253.132812 314.75 C 259.621094 313.101562 263.257812 309.363281 265.296875 305.808594 C 266.1875 306.699219 267.539062 307.542969 269.5625 307.9375 C 269.921875 308.007812 270.316406 308.054688 270.738281 308.054688 C 273.316406 308.054688 276.875 306.394531 279.53125 298.742188 C 281.542969 298.90625 283.953125 299.03125 286.621094 299.03125 C 291.148438 299.03125 296.429688 298.671875 301.855469 297.546875 C 304.179688 303.1875 308.542969 310.75 316.746094 319.339844 C 323.023438 325.902344 331.699219 331.371094 341.625 335.3125 C 335.894531 342.304688 332.617188 349.847656 330.742188 356.335938 C 329.386719 361.039062 328.671875 365.519531 328.316406 369.40625 C 323.445312 368.949219 319.695312 370.839844 317.960938 371.945312 C 316.496094 370.039062 315.210938 368.148438 314.117188 366.300781 C 314.09375 366.261719 314.074219 366.222656 314.054688 366.191406 L 313.972656 366.0625 C 313.96875 366.039062 313.960938 366.027344 313.949219 366.007812 C 302.085938 345.554688 285.394531 344.871094 278.765625 345.515625 C 268.234375 346.554688 259.121094 351.660156 253.769531 359.515625 C 253.769531 359.519531 253.765625 359.519531 253.765625 359.523438 C 251.179688 363.296875 249.46875 367.628906 248.675781 372.40625 L 248.675781 372.414062 C 248.675781 372.417969 248.667969 372.429688 248.667969 372.4375 C 248.648438 372.519531 248.632812 372.601562 248.625 372.6875 C 248.238281 375.070312 248.066406 377.574219 248.128906 380.117188 C 248.367188 391.203125 253.3125 401.570312 262.058594 409.296875 C 271.664062 417.792969 285.6875 423.054688 302.664062 424.527344 L 305.40625 431.382812 C 305.414062 431.410156 305.429688 431.4375 305.445312 431.46875 C 305.46875 431.527344 305.5 431.585938 305.539062 431.640625 C 305.566406 431.683594 305.59375 431.722656 305.625 431.761719 C 305.636719 431.78125 305.65625 431.800781 305.671875 431.820312 C 305.679688 431.832031 305.695312 431.851562 305.722656 431.878906 C 305.730469 431.882812 305.734375 431.890625 305.742188 431.898438 C 306.5625 432.808594 314.046875 440.566406 329.886719 440.566406 C 338.769531 440.566406 344.597656 438.734375 348.207031 434.804688 L 348.378906 434.625 C 348.386719 434.613281 348.398438 434.601562 348.40625 434.585938 L 348.457031 434.519531 C 348.476562 434.496094 348.496094 434.46875 348.542969 434.410156 C 350.484375 432.152344 351.445312 429.574219 352.191406 427.328125 C 353.308594 423.964844 353.332031 420.671875 352.265625 417.507812 C 352.761719 417.4375 353.21875 417.125 353.449219 416.636719 C 357.667969 407.765625 353.136719 400.929688 349.082031 397.007812 C 349.847656 395.511719 352.457031 388.734375 343.558594 378.609375 C 343.195312 372.476562 343.402344 353.148438 358.464844 340.257812 C 364.789062 341.519531 371.328125 342.191406 377.855469 342.191406 C 380.433594 342.191406 382.996094 342.089844 385.542969 341.878906 C 383.019531 350.910156 383.378906 361.347656 391.117188 370.539062 C 397.105469 377.648438 405.097656 381.355469 414.152344 381.355469 C 416.621094 381.355469 419.164062 381.082031 421.773438 380.523438 C 423.269531 382.894531 425.28125 384.851562 427.734375 386.3125 C 419.773438 390.726562 411.386719 399.050781 411.386719 414.492188 C 411.386719 419.300781 412.980469 423.632812 416.015625 427.0625 C 416.089844 428.667969 416.625 432.847656 420.015625 436.402344 C 423.503906 440.054688 428.882812 441.90625 436.003906 441.90625 C 455.523438 441.90625 471.476562 429.929688 477.632812 410.648438 C 482.550781 395.261719 480.921875 383.414062 479.964844 378.941406 C 481.171875 378.746094 482.660156 378.230469 483.792969 376.984375 C 485.40625 375.214844 485.839844 372.566406 485.089844 369.109375 C 485.035156 368.867188 480.242188 348.886719 472.410156 340.414062 C 472.28125 340.03125 472.140625 339.648438 472 339.257812 L 473.253906 338.664062 C 476.441406 338.496094 480.25 337.828125 484.371094 336.730469 C 486.746094 341.429688 489.664062 344.378906 493.054688 345.503906 C 494.136719 345.867188 495.152344 345.992188 496.042969 345.992188 C 498.246094 345.992188 499.726562 345.214844 499.75 345.199219 C 499.992188 345.089844 504.542969 342.914062 505.867188 338.296875 C 508.617188 340.558594 512.945312 342.324219 518.210938 340.1875 C 523.730469 337.945312 525.53125 334.105469 525.695312 330.683594 C 528.261719 332.292969 531.832031 333.175781 535.949219 331.199219 C 541.453125 328.566406 543.074219 323.636719 540.78125 316.550781 "/>
<path style=" stroke:none;fill-rule:nonzero;fill:rgb(13.725281%,12.156677%,12.548828%);fill-opacity:1;" d="M 420.316406 300.601562 C 427.292969 289.636719 429.582031 276.8125 426.792969 264.40625 C 428.824219 264.347656 430.921875 264.867188 432.820312 266.023438 C 434.035156 266.761719 435.628906 266.378906 436.367188 265.160156 C 437.109375 263.941406 436.722656 262.351562 435.5 261.613281 C 428.027344 257.058594 418.363281 259.238281 413.953125 266.472656 C 413.210938 267.6875 413.597656 269.28125 414.820312 270.023438 C 415.234375 270.277344 415.699219 270.402344 416.160156 270.402344 C 417.03125 270.402344 417.882812 269.957031 418.367188 269.160156 C 419.246094 267.730469 420.429688 266.597656 421.808594 265.800781 C 424.199219 276.777344 422.136719 288.109375 415.957031 297.828125 C 409.566406 307.863281 399.550781 314.972656 387.75 317.839844 C 386.363281 318.171875 385.511719 319.570312 385.847656 320.957031 C 386.136719 322.136719 387.195312 322.933594 388.359375 322.933594 C 388.5625 322.933594 388.765625 322.910156 388.972656 322.859375 C 402.074219 319.675781 413.207031 311.773438 420.316406 300.601562 "/>
<path style=" stroke:none;fill-rule:nonzero;fill:rgb(13.725281%,12.156677%,12.548828%);fill-opacity:1;" d="M 362.664062 180.789062 C 347.925781 177.800781 332.878906 190.664062 331.839844 195.777344 C 331.605469 196.941406 332.199219 197.183594 333.4375 196.898438 C 337.625 195.929688 349.167969 188.902344 360.550781 191.210938 C 369.375 193.003906 376.109375 200 380.308594 204.230469 C 380.351562 204.273438 380.390625 204.316406 380.4375 204.359375 C 381.632812 205.566406 382.625 206.53125 383.390625 207.070312 C 384.046875 207.527344 384.535156 207.667969 384.863281 207.363281 C 384.875 207.355469 384.890625 207.339844 384.90625 207.320312 C 385.042969 207.167969 385.148438 206.933594 385.210938 206.597656 C 386.25 201.480469 377.398438 183.777344 362.664062 180.789062 "/>
<path style=" stroke:none;fill-rule:nonzero;fill:rgb(13.725281%,12.156677%,12.548828%);fill-opacity:1;" d="M 91.882812 234.28125 C 91.34375 234.488281 90.859375 235.222656 90.789062 235.914062 C 90.722656 236.605469 91.117188 237 91.652344 236.796875 C 92.203125 236.585938 92.691406 235.855469 92.75 235.148438 C 92.808594 234.457031 92.429688 234.066406 91.882812 234.28125 "/>
<path style=" stroke:none;fill-rule:nonzero;fill:rgb(13.725281%,12.156677%,12.548828%);fill-opacity:1;" d="M 91.539062 229.261719 C 92.070312 228.796875 92.371094 227.972656 92.222656 227.410156 C 92.070312 226.84375 91.527344 226.757812 91.003906 227.226562 C 90.476562 227.679688 90.175781 228.515625 90.324219 229.078125 C 90.46875 229.632812 91.011719 229.71875 91.539062 229.261719 "/>
<path style=" stroke:none;fill-rule:nonzero;fill:rgb(13.725281%,12.156677%,12.548828%);fill-opacity:1;" d="M 89.382812 245.078125 C 89.855469 245.15625 90.46875 244.613281 90.722656 243.902344 C 90.992188 243.175781 90.816406 242.527344 90.34375 242.464844 C 89.867188 242.390625 89.265625 242.921875 89 243.640625 C 88.738281 244.359375 88.90625 245.007812 89.382812 245.078125 "/>
<path style=" stroke:none;fill-rule:nonzero;fill:rgb(13.725281%,12.156677%,12.548828%);fill-opacity:1;" d="M 89.050781 223.605469 C 89.476562 222.96875 89.546875 222.175781 89.207031 221.828125 C 88.875 221.488281 88.253906 221.730469 87.820312 222.371094 C 87.398438 223.011719 87.324219 223.804688 87.664062 224.148438 C 87.996094 224.488281 88.617188 224.246094 89.050781 223.605469 "/>
<path style=" stroke:none;fill-rule:nonzero;fill:rgb(13.725281%,12.156677%,12.548828%);fill-opacity:1;" d="M 88.019531 234.972656 C 88.566406 234.625 88.957031 233.816406 88.90625 233.1875 C 88.84375 232.554688 88.359375 232.332031 87.820312 232.679688 C 87.273438 233.042969 86.878906 233.835938 86.945312 234.476562 C 86.992188 235.109375 87.476562 235.324219 88.019531 234.972656 "/>
<path style=" stroke:none;fill-rule:nonzero;fill:rgb(13.725281%,12.156677%,12.548828%);fill-opacity:1;" d="M 88.226562 238.582031 L 88.058594 238.488281 C 87.964844 238.457031 87.875 238.449219 87.757812 238.46875 C 87.242188 238.550781 86.691406 239.214844 86.539062 239.921875 C 86.371094 240.648438 86.671875 241.164062 87.199219 241.070312 C 87.71875 240.992188 88.273438 240.339844 88.429688 239.613281 C 88.523438 239.160156 88.449219 238.796875 88.246094 238.601562 C 88.246094 238.59375 88.234375 238.59375 88.226562 238.582031 "/>
<path style=" stroke:none;fill-rule:nonzero;fill:rgb(13.725281%,12.156677%,12.548828%);fill-opacity:1;" d="M 87.003906 229.894531 C 87.488281 229.320312 87.664062 228.496094 87.410156 228.050781 C 87.148438 227.605469 86.546875 227.699219 86.0625 228.269531 C 85.585938 228.847656 85.410156 229.671875 85.671875 230.117188 C 85.933594 230.5625 86.527344 230.46875 87.003906 229.894531 "/>
<path style=" stroke:none;fill-rule:nonzero;fill:rgb(13.725281%,12.156677%,12.548828%);fill-opacity:1;" d="M 85.226562 251.0625 C 84.792969 251.703125 84.71875 252.5 85.0625 252.839844 C 85.402344 253.183594 86.023438 252.941406 86.449219 252.300781 C 86.878906 251.660156 86.953125 250.867188 86.613281 250.523438 C 86.273438 250.183594 85.652344 250.421875 85.226562 251.0625 "/>
<path style=" stroke:none;fill-rule:nonzero;fill:rgb(13.725281%,12.156677%,12.548828%);fill-opacity:1;" d="M 84.660156 247.273438 C 85.082031 247.46875 85.710938 247.050781 86.054688 246.359375 C 86.394531 245.660156 86.332031 244.933594 85.90625 244.738281 C 85.488281 244.542969 84.867188 244.945312 84.515625 245.648438 C 84.175781 246.351562 84.234375 247.078125 84.660156 247.273438 "/>
<path style=" stroke:none;fill-rule:nonzero;fill:rgb(13.725281%,12.156677%,12.548828%);fill-opacity:1;" d="M 83.214844 221.894531 C 83.699219 221.964844 84.296875 221.4375 84.554688 220.714844 C 84.828125 219.992188 84.660156 219.351562 84.183594 219.28125 C 83.699219 219.207031 83.097656 219.730469 82.828125 220.457031 C 82.574219 221.179688 82.738281 221.820312 83.214844 221.894531 "/>
<path style=" stroke:none;fill-rule:nonzero;fill:rgb(13.725281%,12.156677%,12.548828%);fill-opacity:1;" d="M 84.070312 236.96875 C 83.523438 237.207031 83.050781 237.953125 83.003906 238.644531 C 82.953125 239.324219 83.371094 239.699219 83.90625 239.457031 C 84.449219 239.222656 84.925781 238.476562 84.972656 237.796875 C 85.011719 237.105469 84.605469 236.742188 84.070312 236.96875 "/>
<path style=" stroke:none;fill-rule:nonzero;fill:rgb(13.725281%,12.156677%,12.548828%);fill-opacity:1;" d="M 83.574219 241.058594 C 83.089844 241.011719 82.488281 241.554688 82.242188 242.292969 C 81.992188 243.011719 82.1875 243.632812 82.671875 243.683594 C 83.160156 243.726562 83.75 243.175781 84 242.457031 C 84.253906 241.730469 84.0625 241.101562 83.574219 241.058594 "/>
<path style=" stroke:none;fill-rule:nonzero;fill:rgb(13.725281%,12.156677%,12.548828%);fill-opacity:1;" d="M 82.914062 227.527344 C 83.335938 227.71875 83.964844 227.308594 84.304688 226.613281 C 84.652344 225.914062 84.585938 225.1875 84.164062 224.992188 C 83.738281 224.796875 83.117188 225.199219 82.769531 225.902344 C 82.429688 226.605469 82.488281 227.332031 82.914062 227.527344 "/>
<path style=" stroke:none;fill-rule:nonzero;fill:rgb(13.725281%,12.156677%,12.548828%);fill-opacity:1;" d="M 83.324219 233.613281 C 82.859375 234.023438 82.59375 234.71875 82.644531 235.242188 C 82.652344 235.3125 82.664062 235.398438 82.683594 235.460938 C 82.820312 235.882812 83.179688 236.019531 83.585938 235.808594 C 83.699219 235.757812 83.808594 235.679688 83.925781 235.574219 C 84.441406 235.097656 84.730469 234.273438 84.566406 233.722656 C 84.402344 233.175781 83.84375 233.125 83.324219 233.613281 "/>
<path style=" stroke:none;fill-rule:nonzero;fill:rgb(13.725281%,12.156677%,12.548828%);fill-opacity:1;" d="M 81.507812 233.332031 C 81.867188 233.46875 82.375 233.1875 82.726562 232.628906 C 83.148438 231.980469 83.203125 231.195312 82.839844 230.875 C 82.488281 230.554688 81.867188 230.820312 81.457031 231.46875 C 81.03125 232.121094 80.992188 232.90625 81.34375 233.226562 C 81.390625 233.273438 81.449219 233.3125 81.507812 233.332031 "/>
<path style=" stroke:none;fill-rule:nonzero;fill:rgb(13.725281%,12.156677%,12.548828%);fill-opacity:1;" d="M 81.195312 250.765625 C 81.167969 250.804688 81.128906 250.84375 81.105469 250.894531 C 80.691406 251.457031 80.554688 252.1875 80.796875 252.613281 C 81.050781 253.058594 81.652344 252.953125 82.136719 252.386719 C 82.199219 252.3125 82.253906 252.242188 82.292969 252.167969 C 82.652344 251.621094 82.769531 250.941406 82.527344 250.546875 C 82.273438 250.089844 81.671875 250.195312 81.195312 250.765625 "/>
<path style=" stroke:none;fill-rule:nonzero;fill:rgb(13.725281%,12.156677%,12.548828%);fill-opacity:1;" d="M 80.410156 247.601562 C 80.597656 247.765625 80.847656 247.777344 81.09375 247.652344 C 81.351562 247.550781 81.601562 247.324219 81.808594 246.992188 C 82.21875 246.339844 82.273438 245.554688 81.921875 245.234375 C 81.703125 245.039062 81.390625 245.058594 81.082031 245.265625 C 80.886719 245.378906 80.691406 245.574219 80.527344 245.835938 C 80.109375 246.484375 80.0625 247.28125 80.410156 247.601562 "/>
<path style=" stroke:none;fill-rule:nonzero;fill:rgb(13.725281%,12.156677%,12.548828%);fill-opacity:1;" d="M 78.75 230.882812 C 78.675781 231.078125 78.644531 231.265625 78.632812 231.441406 C 78.613281 231.90625 78.820312 232.246094 79.167969 232.277344 C 79.59375 232.320312 80.109375 231.90625 80.402344 231.304688 C 80.441406 231.222656 80.476562 231.140625 80.507812 231.058594 C 80.75 230.324219 80.554688 229.703125 80.070312 229.664062 C 79.585938 229.613281 78.996094 230.15625 78.75 230.882812 "/>
<path style=" stroke:none;fill-rule:nonzero;fill:rgb(13.725281%,12.156677%,12.548828%);fill-opacity:1;" d="M 80.03125 257.058594 C 79.503906 257.523438 79.203125 258.347656 79.351562 258.90625 C 79.503906 259.476562 80.050781 259.554688 80.566406 259.089844 C 81.09375 258.625 81.402344 257.796875 81.246094 257.242188 C 81.105469 256.683594 80.558594 256.601562 80.03125 257.058594 "/>
<path style=" stroke:none;fill-rule:nonzero;fill:rgb(13.725281%,12.156677%,12.548828%);fill-opacity:1;" d="M 79.101562 227.078125 C 79.625 227 80.175781 226.347656 80.332031 225.621094 C 80.488281 224.902344 80.195312 224.382812 79.671875 224.476562 C 79.140625 224.558594 78.59375 225.222656 78.4375 225.933594 C 78.285156 226.65625 78.582031 227.175781 79.101562 227.078125 "/>
<path style=" stroke:none;fill-rule:nonzero;fill:rgb(13.725281%,12.156677%,12.548828%);fill-opacity:1;" d="M 79.359375 248.882812 C 79.195312 248.332031 78.632812 248.28125 78.121094 248.757812 C 77.59375 249.234375 77.3125 250.070312 77.476562 250.621094 C 77.5 250.691406 77.527344 250.75 77.574219 250.804688 C 77.796875 251.15625 78.273438 251.144531 78.71875 250.730469 C 79.128906 250.351562 79.410156 249.730469 79.410156 249.222656 C 79.410156 249.097656 79.390625 248.984375 79.359375 248.882812 "/>
<path style=" stroke:none;fill-rule:nonzero;fill:rgb(13.725281%,12.156677%,12.548828%);fill-opacity:1;" d="M 77.664062 222.648438 C 78.210938 222.441406 78.699219 221.710938 78.757812 221.011719 C 78.820312 220.320312 78.4375 219.933594 77.894531 220.136719 C 77.351562 220.34375 76.855469 221.078125 76.796875 221.777344 C 76.730469 222.46875 77.128906 222.863281 77.664062 222.648438 "/>
<path style=" stroke:none;fill-rule:nonzero;fill:rgb(13.725281%,12.156677%,12.548828%);fill-opacity:1;" d="M 77.074219 254.503906 C 76.527344 254.855469 76.136719 255.660156 76.195312 256.292969 C 76.246094 256.921875 76.734375 257.148438 77.28125 256.785156 C 77.820312 256.4375 78.207031 255.628906 78.160156 255 C 78.097656 254.371094 77.625 254.144531 77.074219 254.503906 "/>
<path style=" stroke:none;fill-rule:nonzero;fill:rgb(13.725281%,12.156677%,12.548828%);fill-opacity:1;" d="M 75.703125 232.507812 C 75.847656 232.804688 76.144531 232.914062 76.515625 232.761719 C 76.980469 232.566406 77.417969 231.953125 77.546875 231.359375 C 77.558594 231.273438 77.582031 231.183594 77.582031 231.101562 C 77.625 230.410156 77.21875 230.046875 76.671875 230.285156 C 76.136719 230.507812 75.652344 231.265625 75.605469 231.945312 C 75.597656 232.175781 75.625 232.359375 75.703125 232.507812 "/>
<path style=" stroke:none;fill-rule:nonzero;fill:rgb(13.725281%,12.156677%,12.548828%);fill-opacity:1;" d="M 76.175781 250.847656 C 76.03125 250.554688 75.730469 250.445312 75.371094 250.601562 C 74.820312 250.835938 74.34375 251.582031 74.304688 252.273438 C 74.265625 252.953125 74.664062 253.324219 75.207031 253.085938 C 75.75 252.851562 76.226562 252.105469 76.265625 251.425781 C 76.292969 251.195312 76.246094 251 76.175781 250.847656 "/>
<path style=" stroke:none;fill-rule:nonzero;fill:rgb(13.725281%,12.156677%,12.548828%);fill-opacity:1;" d="M 74.808594 228.867188 C 75.351562 228.515625 75.742188 227.710938 75.691406 227.078125 C 75.636719 226.449219 75.148438 226.222656 74.605469 226.574219 C 74.070312 226.933594 73.664062 227.730469 73.730469 228.371094 C 73.777344 229.003906 74.265625 229.226562 74.808594 228.867188 "/>
<path style=" stroke:none;fill-rule:nonzero;fill:rgb(13.725281%,12.156677%,12.548828%);fill-opacity:1;" d="M 74.214844 260.710938 C 73.671875 260.929688 73.1875 261.664062 73.117188 262.359375 C 73.054688 263.050781 73.449219 263.441406 73.984375 263.234375 C 74.535156 263.019531 75.019531 262.285156 75.082031 261.59375 C 75.140625 260.902344 74.761719 260.507812 74.214844 260.710938 "/>
<path style=" stroke:none;fill-rule:nonzero;fill:rgb(13.725281%,12.156677%,12.548828%);fill-opacity:1;" d="M 72.527344 234.488281 C 72.546875 234.5625 72.578125 234.632812 72.621094 234.683594 C 72.847656 235.039062 73.324219 235.027344 73.769531 234.613281 C 74.285156 234.128906 74.574219 233.300781 74.410156 232.75 C 74.390625 232.679688 74.359375 232.609375 74.316406 232.554688 C 74.089844 232.207031 73.613281 232.214844 73.160156 232.640625 C 72.644531 233.117188 72.363281 233.941406 72.527344 234.488281 "/>
<path style=" stroke:none;fill-rule:nonzero;fill:rgb(13.725281%,12.156677%,12.548828%);fill-opacity:1;" d="M 73.136719 252.488281 C 73.179688 252.386719 73.199219 252.273438 73.21875 252.167969 C 73.324219 251.582031 73.128906 251.125 72.714844 251.097656 C 72.34375 251.050781 71.90625 251.363281 71.605469 251.828125 C 71.515625 251.972656 71.441406 252.136719 71.382812 252.3125 C 71.132812 253.039062 71.320312 253.667969 71.808594 253.707031 C 72.292969 253.757812 72.886719 253.214844 73.136719 252.488281 "/>
<path style=" stroke:none;fill-rule:nonzero;fill:rgb(13.725281%,12.156677%,12.548828%);fill-opacity:1;" d="M 72.777344 256.28125 C 72.257812 256.371094 71.710938 257.027344 71.546875 257.75 C 71.390625 258.472656 71.691406 258.980469 72.21875 258.894531 C 72.734375 258.816406 73.292969 258.152344 73.449219 257.425781 C 73.605469 256.714844 73.304688 256.195312 72.777344 256.28125 "/>
<path style=" stroke:none;fill-rule:nonzero;fill:rgb(13.725281%,12.156677%,12.548828%);fill-opacity:1;" d="M 71.855469 226.304688 C 72.371094 225.847656 72.683594 225.023438 72.527344 224.457031 C 72.382812 223.894531 71.835938 223.816406 71.3125 224.28125 C 70.78125 224.738281 70.480469 225.5625 70.625 226.128906 C 70.78125 226.6875 71.332031 226.769531 71.855469 226.304688 "/>
<path style=" stroke:none;fill-rule:nonzero;fill:rgb(13.725281%,12.156677%,12.548828%);fill-opacity:1;" d="M 71.460938 235.769531 C 71.363281 235.679688 71.238281 235.632812 71.101562 235.632812 C 70.769531 235.632812 70.378906 235.90625 70.082031 236.371094 C 69.90625 236.640625 69.789062 236.933594 69.75 237.207031 C 69.683594 237.589844 69.757812 237.941406 69.964844 238.128906 C 70.316406 238.449219 70.933594 238.175781 71.351562 237.527344 C 71.773438 236.875 71.828125 236.089844 71.460938 235.769531 "/>
<path style=" stroke:none;fill-rule:nonzero;fill:rgb(13.725281%,12.156677%,12.548828%);fill-opacity:1;" d="M 70.691406 232.609375 C 71.167969 232.03125 71.339844 231.203125 71.082031 230.757812 C 70.824219 230.3125 70.226562 230.410156 69.75 230.972656 C 69.265625 231.554688 69.089844 232.382812 69.34375 232.824219 C 69.605469 233.273438 70.203125 233.175781 70.691406 232.609375 "/>
<path style=" stroke:none;fill-rule:nonzero;fill:rgb(13.725281%,12.156677%,12.548828%);fill-opacity:1;" d="M 69.148438 250.742188 C 68.738281 251.390625 68.683594 252.175781 69.035156 252.496094 C 69.390625 252.816406 70.015625 252.550781 70.429688 251.902344 C 70.488281 251.808594 70.535156 251.710938 70.585938 251.621094 C 70.855469 251.039062 70.847656 250.421875 70.546875 250.144531 C 70.195312 249.824219 69.5625 250.089844 69.148438 250.742188 "/>
<path style=" stroke:none;fill-rule:nonzero;fill:rgb(13.725281%,12.156677%,12.548828%);fill-opacity:1;" d="M 68.3125 242.3125 C 68.800781 242.351562 69.390625 241.804688 69.632812 241.082031 C 69.886719 240.359375 69.695312 239.738281 69.210938 239.6875 C 68.722656 239.644531 68.128906 240.195312 67.878906 240.914062 C 67.632812 241.640625 67.828125 242.273438 68.3125 242.3125 "/>
<path style=" stroke:none;fill-rule:nonzero;fill:rgb(13.725281%,12.156677%,12.548828%);fill-opacity:1;" d="M 68.664062 261.476562 C 68.1875 261.40625 67.585938 261.933594 67.324219 262.660156 C 67.050781 263.378906 67.226562 264.019531 67.703125 264.09375 C 68.179688 264.164062 68.777344 263.640625 69.042969 262.914062 C 69.316406 262.191406 69.140625 261.550781 68.664062 261.476562 "/>
<path style=" stroke:none;fill-rule:nonzero;fill:rgb(13.725281%,12.156677%,12.548828%);fill-opacity:1;" d="M 68.136719 247.640625 C 68.082031 247.683594 68.023438 247.738281 67.964844 247.789062 C 67.433594 248.261719 67.15625 249.097656 67.320312 249.648438 C 67.410156 249.933594 67.613281 250.082031 67.867188 250.082031 C 68.074219 250.082031 68.324219 249.980469 68.558594 249.757812 C 69.078125 249.285156 69.363281 248.449219 69.199219 247.914062 C 69.058594 247.425781 68.601562 247.332031 68.136719 247.640625 "/>
<path style=" stroke:none;fill-rule:nonzero;fill:rgb(13.725281%,12.156677%,12.548828%);fill-opacity:1;" d="M 68.964844 255.847656 C 68.539062 255.652344 67.917969 256.066406 67.578125 256.757812 C 67.226562 257.457031 67.300781 258.183594 67.722656 258.378906 C 68.148438 258.574219 68.769531 258.164062 69.109375 257.46875 C 69.449219 256.765625 69.390625 256.042969 68.964844 255.847656 "/>
<path style=" stroke:none;fill-rule:nonzero;fill:rgb(13.725281%,12.156677%,12.548828%);fill-opacity:1;" d="M 67.816406 246.390625 C 68.363281 246.15625 68.839844 245.410156 68.878906 244.730469 C 68.921875 244.039062 68.519531 243.671875 67.984375 243.902344 C 67.703125 244.019531 67.457031 244.265625 67.257812 244.574219 C 67.0625 244.875 66.9375 245.234375 66.917969 245.574219 C 66.875 246.117188 67.121094 246.464844 67.496094 246.464844 C 67.597656 246.464844 67.703125 246.445312 67.816406 246.390625 "/>
<path style=" stroke:none;fill-rule:nonzero;fill:rgb(13.725281%,12.156677%,12.548828%);fill-opacity:1;" d="M 67.578125 237.050781 C 67.632812 236.605469 67.507812 236.234375 67.21875 236.101562 C 66.792969 235.90625 66.175781 236.320312 65.832031 237.011719 C 65.546875 237.613281 65.546875 238.230469 65.820312 238.519531 C 65.867188 238.5625 65.914062 238.601562 65.976562 238.632812 C 66.402344 238.828125 67.019531 238.417969 67.363281 237.722656 C 67.476562 237.496094 67.546875 237.269531 67.578125 237.050781 "/>
<path style=" stroke:none;fill-rule:nonzero;fill:rgb(13.725281%,12.156677%,12.548828%);fill-opacity:1;" d="M 66.660156 232.3125 C 67.082031 231.667969 67.15625 230.875 66.828125 230.523438 C 66.480469 230.179688 65.867188 230.429688 65.429688 231.070312 C 65.003906 231.710938 64.933594 232.503906 65.273438 232.847656 C 65.617188 233.1875 66.238281 232.941406 66.660156 232.3125 "/>
<path style=" stroke:none;fill-rule:nonzero;fill:rgb(13.725281%,12.156677%,12.548828%);fill-opacity:1;" d="M 64.871094 253.46875 C 64.394531 254.039062 64.21875 254.867188 64.480469 255.320312 C 64.738281 255.765625 65.335938 255.671875 65.808594 255.089844 C 66.296875 254.523438 66.472656 253.699219 66.214844 253.253906 C 65.957031 252.796875 65.355469 252.902344 64.871094 253.46875 "/>
<path style=" stroke:none;fill-rule:nonzero;fill:rgb(13.725281%,12.156677%,12.548828%);fill-opacity:1;" d="M 64.117188 244.90625 C 64.375 244.863281 64.644531 244.679688 64.871094 244.410156 C 65.097656 244.136719 65.265625 243.796875 65.34375 243.4375 C 65.5 242.722656 65.203125 242.207031 64.683594 242.292969 C 64.417969 242.339844 64.148438 242.527344 63.933594 242.789062 C 63.714844 243.058594 63.527344 243.398438 63.457031 243.757812 C 63.300781 244.46875 63.601562 244.988281 64.117188 244.90625 "/>
<path style=" stroke:none;fill-rule:nonzero;fill:rgb(13.725281%,12.156677%,12.548828%);fill-opacity:1;" d="M 63.859375 248.398438 C 63.324219 248.75 62.917969 249.554688 62.980469 250.183594 C 63.03125 250.816406 63.519531 251.042969 64.0625 250.679688 C 64.605469 250.332031 64.996094 249.523438 64.945312 248.894531 C 64.894531 248.261719 64.410156 248.039062 63.859375 248.398438 "/>
<path style=" stroke:none;fill-rule:nonzero;fill:rgb(13.725281%,12.156677%,12.548828%);fill-opacity:1;" d="M 62.835938 259.765625 C 62.402344 260.40625 62.332031 261.203125 62.671875 261.542969 C 63.011719 261.882812 63.632812 261.640625 64.0625 261 C 64.488281 260.363281 64.5625 259.566406 64.21875 259.222656 C 63.878906 258.875 63.257812 259.125 62.835938 259.765625 "/>
<path style=" stroke:none;fill-rule:nonzero;fill:rgb(13.725281%,12.156677%,12.548828%);fill-opacity:1;" d="M 62.867188 238.539062 C 62.78125 238.40625 62.664062 238.3125 62.496094 238.292969 C 62.019531 238.21875 61.421875 238.746094 61.148438 239.46875 C 60.894531 240.195312 61.058594 240.835938 61.535156 240.90625 C 61.566406 240.90625 61.597656 240.914062 61.625 240.914062 C 62.089844 240.914062 62.640625 240.410156 62.878906 239.726562 C 63.050781 239.253906 63.042969 238.808594 62.867188 238.539062 "/>
<path style=" stroke:none;fill-rule:nonzero;fill:rgb(13.725281%,12.156677%,12.548828%);fill-opacity:1;" d="M 60.34375 254.109375 C 59.820312 254.574219 59.507812 255.398438 59.664062 255.960938 C 59.808594 256.515625 60.355469 256.601562 60.886719 256.144531 C 61.410156 255.679688 61.710938 254.855469 61.566406 254.300781 C 61.410156 253.730469 60.859375 253.660156 60.34375 254.109375 "/>
<path style=" stroke:none;fill-rule:nonzero;fill:rgb(13.725281%,12.156677%,12.548828%);fill-opacity:1;" d="M 61.089844 247.445312 C 61.148438 246.757812 60.769531 246.359375 60.222656 246.574219 C 59.683594 246.785156 59.1875 247.515625 59.128906 248.214844 C 59.0625 248.902344 59.457031 249.292969 59.996094 249.089844 C 60.542969 248.882812 61.03125 248.148438 61.089844 247.445312 "/>
<path style=" stroke:none;fill-rule:nonzero;fill:rgb(13.725281%,12.156677%,12.548828%);fill-opacity:1;" d="M 429.59375 298.976562 L 429.714844 299.066406 L 429.765625 299.21875 C 432.628906 298.871094 435.585938 298.972656 438.371094 299.554688 C 441.171875 300.5 443.242188 301.375 446.296875 302.152344 L 446.523438 301.9375 C 444.484375 295.472656 435.707031 296.558594 430.496094 298.582031 C 432.453125 296.871094 434.671875 295.429688 437.003906 294.382812 C 439.832031 293.503906 442.019531 292.996094 444.949219 291.828125 L 445.003906 291.523438 C 439.265625 287.269531 432.378906 294.21875 429.59375 298.976562 "/>
<path style=" stroke:none;fill-rule:nonzero;fill:rgb(13.725281%,12.156677%,12.548828%);fill-opacity:1;" d="M 422.734375 229.1875 L 422.882812 228.921875 C 419.734375 223.730469 412.515625 226.910156 408.617188 229.988281 C 409.855469 228.144531 411.355469 226.453125 413.015625 225.058594 C 415.246094 223.652344 416.867188 222.699219 418.988281 220.804688 L 418.953125 220.492188 C 412.941406 217.992188 408.851562 225.933594 407.785156 230.714844 L 407.9375 230.769531 L 408.023438 230.894531 C 410.371094 229.921875 412.90625 229.300781 415.398438 229.128906 C 418.027344 229.296875 419.894531 229.480469 422.734375 229.1875 "/>
<path style=" stroke:none;fill-rule:nonzero;fill:rgb(13.725281%,12.156677%,12.548828%);fill-opacity:1;" d="M 411.234375 176.511719 C 405.519531 174.441406 401.914062 181.40625 400.800781 186.257812 C 400.609375 184.042969 400.71875 181.792969 401.140625 179.664062 C 401.996094 177.175781 402.667969 175.429688 403.132812 172.621094 L 402.917969 172.402344 C 396.664062 174.203125 398.441406 182.945312 400.597656 187.332031 L 400.75 187.28125 L 400.894531 187.328125 C 402.121094 185.105469 403.707031 183.042969 405.535156 181.34375 C 407.691406 179.839844 409.257812 178.8125 411.285156 176.816406 Z M 411.234375 176.511719 "/>
</g>
</svg>
