<?xml version="1.0" encoding="UTF-8"?>
<svg xmlns="http://www.w3.org/2000/svg" xmlns:xlink="http://www.w3.org/1999/xlink" width="595.276pt" height="576.002pt" viewBox="0 0 595.276 576.002" version="1.1">
<g id="surface1">
<path style=" stroke:none;fill-rule:nonzero;fill:rgb(92.156982%,29.803467%,50.196838%);fill-opacity:1;" d="M 340.867188 405.253906 C 341.449219 405.253906 342.023438 405.242188 342.585938 405.203125 C 338.3125 412.640625 336.695312 421.4375 337.851562 430.964844 C 323.835938 426.992188 315.429688 421.828125 314.085938 416.324219 C 311.082031 404.039062 317.390625 398.152344 319.863281 396.375 C 323.585938 402.449219 332.992188 405.253906 340.867188 405.253906 "/>
<path style=" stroke:none;fill-rule:nonzero;fill:rgb(92.156982%,29.803467%,50.196838%);fill-opacity:1;" d="M 288.324219 396.378906 C 290.800781 398.160156 297.101562 404.050781 294.097656 416.328125 C 292.75 421.832031 284.34375 426.992188 270.332031 430.964844 C 271.484375 421.4375 269.867188 412.640625 265.59375 405.203125 C 266.160156 405.242188 266.730469 405.253906 267.3125 405.253906 C 275.195312 405.253906 284.613281 402.449219 288.324219 396.378906 "/>
<path style=" stroke:none;fill-rule:nonzero;fill:rgb(97.647095%,78.823853%,87.059021%);fill-opacity:1;" d="M 326.027344 255.835938 C 324.445312 255.703125 322.851562 255.589844 321.25 255.488281 C 322.851562 255.585938 324.445312 255.703125 326.027344 255.835938 "/>
<path style=" stroke:none;fill-rule:nonzero;fill:rgb(97.647095%,78.823853%,87.059021%);fill-opacity:1;" d="M 328.957031 256.097656 C 327.984375 256.003906 327.007812 255.914062 326.027344 255.835938 C 327.007812 255.917969 327.984375 256.003906 328.957031 256.097656 "/>
<path style=" stroke:none;fill-rule:nonzero;fill:rgb(97.647095%,78.823853%,87.059021%);fill-opacity:1;" d="M 321.25 255.488281 C 320.570312 255.445312 319.886719 255.40625 319.203125 255.371094 C 319.886719 255.40625 320.570312 255.445312 321.25 255.488281 "/>
<path style=" stroke:none;fill-rule:nonzero;fill:rgb(97.647095%,78.823853%,87.059021%);fill-opacity:1;" d="M 328.957031 256.097656 C 330.019531 256.195312 331.074219 256.308594 332.125 256.421875 C 332.121094 256.417969 332.121094 256.414062 332.121094 256.40625 C 331.074219 256.292969 330.015625 256.195312 328.957031 256.097656 "/>
<path style=" stroke:none;fill-rule:nonzero;fill:rgb(97.647095%,78.823853%,87.059021%);fill-opacity:1;" d="M 319.203125 255.371094 C 317.105469 255.257812 314.996094 255.160156 312.867188 255.105469 C 314.996094 255.160156 317.105469 255.257812 319.203125 255.371094 "/>
<path style=" stroke:none;fill-rule:nonzero;fill:rgb(97.647095%,78.823853%,87.059021%);fill-opacity:1;" d="M 367.0625 263.1875 C 356.351562 260.078125 344.585938 257.78125 332.125 256.421875 C 332.484375 257.605469 332.765625 258.820312 332.960938 260.0625 C 334.207031 261.144531 334.992188 262.738281 334.992188 264.515625 C 334.992188 266.292969 334.207031 267.886719 332.964844 268.96875 C 330.832031 282.265625 319.3125 292.417969 305.417969 292.417969 C 290.003906 292.417969 277.515625 279.929688 277.515625 264.515625 C 277.515625 261.765625 277.921875 259.109375 278.660156 256.597656 C 266.832031 257.972656 255.667969 260.21875 245.449219 263.1875 C 245.433594 263.632812 245.410156 264.070312 245.410156 264.515625 C 245.410156 283.238281 253.871094 299.984375 267.167969 311.140625 C 271.425781 314.714844 276.175781 317.714844 281.308594 320.023438 C 288.917969 323.449219 297.363281 325.359375 306.253906 325.359375 C 313.914062 325.359375 321.242188 323.941406 327.992188 321.359375 C 333.277344 319.335938 338.210938 316.597656 342.664062 313.261719 C 357.496094 302.167969 367.097656 284.464844 367.097656 264.515625 C 367.097656 264.070312 367.070312 263.632812 367.0625 263.1875 "/>
<path style=" stroke:none;fill-rule:nonzero;fill:rgb(66.667175%,82.35321%,40.783691%);fill-opacity:1;" d="M 384.261719 267.695312 C 381.59375 267.597656 378.832031 267.96875 376.222656 268.730469 L 376.144531 268.585938 L 375.996094 268.511719 C 376.8125 266.074219 378.5 262.914062 380.722656 260.71875 C 383.027344 258.445312 385.917969 257.210938 389.027344 258.921875 L 389.027344 259.253906 C 388.3125 259.765625 387.65625 260.199219 387.011719 260.585938 C 385.441406 261.539062 383.992188 262.210938 382.195312 263.09375 C 380.261719 264.398438 378.472656 266.03125 376.941406 267.851562 C 381.441406 265.007812 389.492188 262.441406 392.246094 268.320312 L 392.054688 268.59375 C 389.003906 268.578125 387.039062 268.175781 384.261719 267.695312 M 376.410156 317.292969 C 372.691406 322.238281 368.449219 325.796875 365.246094 326.949219 C 363.921875 327.425781 362.773438 327.496094 361.921875 327.082031 C 361.785156 327.011719 361.65625 326.9375 361.539062 326.84375 C 359.738281 325.492188 360.125 321.699219 362.191406 317.164062 C 363.242188 314.859375 364.722656 312.367188 366.578125 309.902344 C 368.054688 307.9375 369.617188 306.199219 371.15625 304.738281 C 375.363281 300.746094 379.464844 298.851562 381.453125 300.347656 C 384.167969 302.390625 381.910156 309.972656 376.410156 317.292969 M 345.207031 316.855469 C 340.78125 320.15625 335.929688 322.910156 330.746094 325.019531 C 323.179688 328.089844 314.914062 329.785156 306.253906 329.785156 C 296.324219 329.785156 286.90625 327.554688 278.472656 323.570312 C 273.425781 321.191406 268.734375 318.183594 264.5 314.648438 C 250.136719 302.667969 240.984375 284.640625 240.984375 264.515625 C 240.984375 250.199219 245.621094 236.941406 253.46875 226.167969 C 253.976562 226.675781 254.523438 227.179688 255.117188 227.667969 C 255.65625 228.125 256.234375 228.570312 256.847656 229.007812 C 250.53125 237.773438 246.492188 248.296875 245.601562 259.695312 C 264.035156 254.457031 284.980469 251.695312 306.253906 251.695312 C 327.523438 251.695312 348.472656 254.457031 366.90625 259.695312 C 366.015625 248.296875 361.980469 237.773438 355.664062 229.007812 C 356.273438 228.570312 356.851562 228.125 357.394531 227.667969 C 357.984375 227.179688 358.53125 226.675781 359.039062 226.167969 C 366.886719 236.941406 371.523438 250.199219 371.523438 264.515625 C 371.523438 285.917969 361.171875 304.949219 345.207031 316.855469 M 249.191406 203.078125 C 251.15625 201.523438 253.828125 201.746094 256.015625 202.476562 C 257.121094 202.789062 258.183594 203.191406 259.195312 203.683594 C 260.488281 204.316406 261.707031 205.089844 262.824219 205.996094 C 262.101562 204.929688 261.304688 203.910156 260.4375 202.964844 C 259.710938 202.167969 258.9375 201.425781 258.128906 200.742188 C 255.742188 199.234375 254.007812 198.21875 251.730469 196.183594 L 251.765625 195.855469 C 252.515625 195.535156 253.355469 195.292969 254.148438 195.363281 C 256.644531 195.246094 258.683594 197 260.019531 198.878906 C 260.824219 199.882812 261.515625 200.960938 262.082031 202.09375 C 262.832031 203.578125 263.382812 205.160156 263.726562 206.796875 L 263.574219 206.855469 L 263.476562 206.992188 C 261.359375 206.117188 259.097656 205.507812 256.847656 205.226562 C 256.425781 205.171875 255.996094 205.132812 255.574219 205.101562 C 252.761719 205.277344 250.761719 205.476562 247.71875 205.164062 L 247.554688 204.878906 C 247.976562 204.179688 248.515625 203.492188 249.191406 203.078125 M 278.832031 210.195312 C 279.378906 209.125 280.097656 207.960938 280.964844 206.753906 C 281.8125 205.585938 282.796875 204.382812 283.90625 203.1875 C 287.433594 199.402344 292.214844 195.71875 297.714844 193.65625 C 300.550781 192.589844 303.578125 191.953125 306.722656 191.953125 C 309.941406 191.953125 313.039062 192.621094 315.933594 193.734375 C 321.609375 195.910156 326.511719 199.800781 330.039062 203.734375 C 331.136719 204.960938 332.101562 206.195312 332.914062 207.378906 C 333.761719 208.605469 334.4375 209.777344 334.933594 210.84375 C 335.550781 212.1875 335.882812 213.355469 335.882812 214.246094 C 335.882812 219.171875 325.742188 206.941406 312.3125 203.972656 C 310.503906 203.570312 308.636719 203.335938 306.722656 203.335938 C 305.03125 203.335938 303.378906 203.519531 301.769531 203.835938 C 288.019531 206.554688 277.5625 219.25 277.5625 214.246094 C 277.5625 213.214844 278.007812 211.804688 278.832031 210.195312 M 330.507812 172.828125 L 330.742188 173.0625 C 330.242188 176.066406 329.523438 177.941406 328.605469 180.601562 C 328.15625 182.886719 328.039062 185.292969 328.238281 187.664062 C 329.441406 182.46875 333.296875 175.011719 339.417969 177.226562 L 339.472656 177.554688 C 337.304688 179.695312 335.625 180.789062 333.3125 182.410156 C 331.355469 184.222656 329.65625 186.433594 328.34375 188.8125 L 328.179688 188.761719 L 328.023438 188.816406 C 325.714844 184.121094 323.816406 174.753906 330.507812 172.828125 M 395.976562 259.929688 C 396.488281 254.664062 396.398438 249.019531 395.308594 243.214844 C 393.34375 232.746094 388.136719 221.765625 377.4375 211.527344 C 376.660156 212.027344 375.898438 212.5625 375.160156 213.121094 L 375.042969 213.007812 L 374.875 212.988281 C 374.941406 211.917969 375.082031 210.757812 375.292969 209.558594 C 375.28125 209.550781 375.277344 209.542969 375.269531 209.535156 C 375.519531 207.398438 375.554688 205.070312 375.324219 202.601562 C 374.457031 193.355469 370.09375 179.480469 359.78125 177.050781 C 359.179688 176.910156 358.542969 176.839844 357.878906 176.839844 C 356.097656 176.839844 354.148438 177.328125 352.3125 178.117188 C 352.398438 177.421875 352.457031 176.707031 352.507812 175.996094 C 353.113281 167.324219 349.035156 154.710938 338.574219 153.507812 C 338.1875 153.460938 337.796875 153.4375 337.40625 153.4375 C 334.207031 153.4375 330.867188 154.882812 328.140625 157.214844 C 327.96875 157.5 327.804688 157.789062 327.640625 158.078125 L 327.484375 158.03125 L 327.324219 158.082031 C 326.539062 156.484375 325.796875 154.34375 325.429688 152.132812 C 321.402344 143.628906 313.085938 137.332031 302.617188 137.332031 C 302.460938 137.332031 302.300781 137.332031 302.136719 137.335938 C 284.820312 137.65625 276.210938 156.457031 273.636719 170.515625 C 273.746094 171.933594 273.765625 173.351562 273.632812 174.761719 L 273.46875 174.761719 L 273.332031 174.863281 C 272.679688 174.222656 272.007812 173.605469 271.308594 173.007812 C 269.597656 172.5625 267.808594 172.332031 265.972656 172.332031 C 264.875 172.332031 263.753906 172.414062 262.632812 172.589844 C 246.671875 175.058594 233.644531 190.519531 231.996094 205.191406 C 231.644531 208.296875 231.785156 211.261719 232.300781 214.058594 C 232.957031 215.425781 233.441406 216.875 233.753906 218.367188 L 233.597656 218.425781 L 233.503906 218.5625 C 233.085938 218.390625 232.664062 218.226562 232.230469 218.078125 C 224.628906 222.449219 219.183594 230.679688 215.996094 240.316406 C 216.511719 241.683594 216.914062 243.078125 217.210938 244.457031 C 218.265625 249.371094 217.847656 253.507812 216.160156 256.101562 C 218.761719 257.007812 219.929688 258.777344 220.453125 260.183594 C 222.464844 265.59375 218.175781 273.617188 215.628906 277.101562 C 215.355469 277.472656 215.082031 277.832031 214.804688 278.183594 C 215.398438 280.328125 216.121094 282.386719 216.96875 284.328125 C 217.96875 286.617188 219.140625 288.746094 220.496094 290.660156 C 221.890625 290.070312 223.46875 289.867188 224.9375 289.890625 C 227.210938 289.824219 229.453125 290.121094 231.597656 290.75 C 232.308594 290.953125 233.003906 291.195312 233.691406 291.472656 C 233.433594 291.253906 233.179688 291.035156 232.921875 290.828125 C 231.023438 289.285156 228.921875 287.972656 226.730469 286.992188 C 223.707031 286.046875 221.363281 285.507812 218.222656 284.253906 L 218.164062 283.933594 C 218.878906 283.402344 219.707031 282.910156 220.578125 282.753906 C 223.222656 281.933594 225.953125 283.117188 228.007812 284.664062 C 230.523438 286.367188 232.605469 288.578125 234.191406 291.113281 C 234.351562 291.378906 234.511719 291.644531 234.667969 291.914062 L 234.535156 292.007812 L 234.484375 292.167969 C 232.015625 291.871094 229.484375 291.882812 227.035156 292.222656 C 226.441406 292.304688 225.851562 292.40625 225.269531 292.527344 C 224.359375 292.832031 223.523438 293.132812 222.710938 293.425781 C 223.128906 293.886719 223.558594 294.332031 224.003906 294.746094 C 224.324219 295.058594 224.644531 295.351562 224.976562 295.636719 C 222.03125 300.339844 222.636719 307.699219 226.125 314.089844 C 229.285156 319.878906 234.824219 324.875 242.226562 326.378906 C 245.386719 330.179688 249.375 333.578125 253.96875 336.53125 C 258.542969 339.464844 263.714844 341.964844 269.277344 343.992188 C 280.378906 348.042969 293.042969 350.203125 305.574219 350.203125 C 317.273438 350.203125 328.867188 348.316406 338.96875 344.324219 C 344.503906 342.140625 349.59375 339.316406 354.015625 335.832031 C 355.042969 335.023438 356.035156 334.171875 356.988281 333.289062 C 359.007812 333.277344 361.015625 332.933594 362.984375 332.328125 C 364.035156 332.003906 365.070312 331.605469 366.09375 331.132812 C 379.777344 324.835938 390.417969 306.167969 385.566406 294.300781 C 385.300781 293.640625 384.980469 293 384.613281 292.386719 C 384.65625 292.386719 385.0625 291.824219 385.703125 290.769531 C 388.265625 286.589844 394.523438 274.730469 395.976562 259.929688 "/>
<path style=" stroke:none;fill-rule:nonzero;fill:rgb(66.667175%,82.35321%,40.783691%);fill-opacity:1;" d="M 376.746094 210.882812 C 376.546875 210.695312 376.347656 210.507812 376.140625 210.328125 C 375.886719 210.972656 375.65625 211.621094 375.4375 212.285156 C 375.84375 211.824219 376.28125 211.355469 376.746094 210.882812 "/>
<path style=" stroke:none;fill-rule:nonzero;fill:rgb(66.667175%,82.35321%,40.783691%);fill-opacity:1;" d="M 273.078125 173.558594 C 273 173.527344 272.917969 173.5 272.839844 173.472656 C 272.949219 173.632812 273.054688 173.792969 273.152344 173.949219 C 273.132812 173.824219 273.101562 173.691406 273.078125 173.558594 "/>
<path style=" stroke:none;fill-rule:nonzero;fill:rgb(100%,81.176758%,0.392151%);fill-opacity:1;" d="M 380.988281 207.253906 C 380.21875 207.804688 379.476562 208.390625 378.777344 208.992188 C 378.054688 209.609375 377.378906 210.246094 376.746094 210.882812 C 376.28125 211.355469 375.839844 211.824219 375.4375 212.285156 C 375.65625 211.625 375.886719 210.972656 376.140625 210.328125 C 376.515625 209.359375 376.9375 208.410156 377.402344 207.492188 C 377.660156 206.910156 377.941406 206.355469 378.246094 205.820312 C 379 204.46875 379.878906 203.25 380.835938 202.109375 C 383.097656 199.414062 385.816406 197.148438 388.507812 194.503906 C 388.507812 194.503906 388.402344 194.1875 388.402344 194.183594 C 384.972656 193.984375 382.289062 195.496094 380.25 197.855469 C 379.378906 198.871094 378.617188 200.042969 377.96875 201.300781 C 376.640625 203.875 375.773438 206.824219 375.292969 209.558594 C 375.082031 210.757812 374.941406 211.917969 374.875 212.984375 L 375.042969 213.007812 L 375.160156 213.121094 C 375.902344 212.5625 376.660156 212.027344 377.4375 211.527344 C 378.242188 211.003906 379.070312 210.519531 379.910156 210.078125 C 380 210.023438 380.09375 209.976562 380.191406 209.925781 C 380.964844 209.480469 381.746094 209.101562 382.527344 208.773438 C 387.050781 206.871094 391.753906 206.695312 396.808594 205.933594 L 396.90625 205.621094 C 392.046875 201.664062 385.925781 203.726562 380.988281 207.253906 "/>
<path style=" stroke:none;fill-rule:nonzero;fill:rgb(100%,81.176758%,0.392151%);fill-opacity:1;" d="M 376.941406 267.851562 C 378.472656 266.03125 380.261719 264.398438 382.195312 263.09375 C 383.992188 262.210938 385.441406 261.539062 387.011719 260.585938 C 387.652344 260.199219 388.3125 259.765625 389.027344 259.253906 L 389.027344 258.921875 C 385.917969 257.210938 383.027344 258.445312 380.722656 260.71875 C 378.5 262.914062 376.8125 266.074219 375.996094 268.511719 L 376.144531 268.585938 L 376.222656 268.730469 C 378.832031 267.96875 381.59375 267.597656 384.261719 267.695312 C 387.039062 268.175781 389.003906 268.578125 392.054688 268.59375 L 392.246094 268.320312 C 389.488281 262.441406 381.441406 265.007812 376.941406 267.851562 "/>
<path style=" stroke:none;fill-rule:nonzero;fill:rgb(100%,81.176758%,0.392151%);fill-opacity:1;" d="M 328.238281 187.660156 C 328.039062 185.292969 328.15625 182.886719 328.605469 180.605469 C 329.523438 177.941406 330.242188 176.066406 330.742188 173.0625 L 330.507812 172.828125 C 323.816406 174.753906 325.714844 184.121094 328.023438 188.816406 L 328.179688 188.761719 L 328.34375 188.8125 C 329.65625 186.433594 331.355469 184.222656 333.316406 182.40625 C 335.625 180.789062 337.304688 179.695312 339.472656 177.554688 L 339.417969 177.226562 C 333.296875 175.015625 329.441406 182.46875 328.238281 187.660156 "/>
<path style=" stroke:none;fill-rule:nonzero;fill:rgb(100%,81.176758%,0.392151%);fill-opacity:1;" d="M 327.484375 158.027344 L 327.644531 158.078125 C 327.804688 157.789062 327.96875 157.503906 328.144531 157.214844 C 329.375 155.167969 330.898438 153.265625 332.613281 151.675781 C 332.78125 151.558594 332.953125 151.4375 333.113281 151.324219 C 334.757812 150.179688 336.109375 149.253906 337.609375 147.90625 C 337.984375 147.578125 338.367188 147.21875 338.769531 146.820312 L 338.71875 146.496094 C 335.589844 145.363281 333.0625 146.753906 331.164062 149.078125 L 331.160156 149.078125 C 330.222656 150.230469 329.441406 151.613281 328.828125 153.03125 C 328.25 154.355469 327.820312 155.710938 327.535156 156.941406 C 327.355469 154.824219 327.429688 152.671875 327.773438 150.601562 C 327.816406 150.355469 327.855469 150.113281 327.90625 149.871094 C 328.277344 148.792969 328.617188 147.851562 328.914062 146.90625 C 329.371094 145.511719 329.742188 144.121094 330.042969 142.332031 L 329.804688 142.09375 C 328.542969 142.457031 327.582031 143.089844 326.878906 143.902344 C 326.199219 144.683594 325.75 145.640625 325.484375 146.6875 C 325.070312 148.351562 325.117188 150.265625 325.429688 152.132812 C 325.796875 154.34375 326.539062 156.484375 327.324219 158.085938 Z M 327.484375 158.027344 "/>
<path style=" stroke:none;fill-rule:nonzero;fill:rgb(100%,81.176758%,0.392151%);fill-opacity:1;" d="M 273.453125 168.613281 C 273.234375 167.078125 272.890625 165.417969 272.378906 163.796875 C 271.949219 162.429688 271.398438 161.082031 270.703125 159.859375 C 269.003906 156.851562 266.4375 154.5625 262.652344 154.371094 L 262.507812 154.671875 C 265.082031 157.925781 267.273438 160.382812 269.503906 163.675781 C 269.515625 163.6875 269.519531 163.703125 269.527344 163.714844 C 270.226562 165 270.851562 166.347656 271.378906 167.730469 C 272.113281 169.617188 272.675781 171.578125 273.078125 173.558594 C 273.105469 173.691406 273.128906 173.820312 273.152344 173.949219 C 273.054688 173.792969 272.949219 173.632812 272.839844 173.472656 C 271.976562 172.210938 270.984375 171.03125 269.9375 169.890625 C 269.902344 169.859375 269.875 169.824219 269.84375 169.792969 C 268.867188 168.777344 267.746094 167.742188 266.523438 166.804688 C 262.484375 163.691406 257.351562 161.601562 252.738281 164.601562 L 252.796875 164.929688 C 255.832031 165.78125 258.417969 166.394531 261.128906 167.230469 C 261.984375 167.496094 262.851562 167.78125 263.75 168.109375 C 264.6875 168.550781 265.601562 169.042969 266.5 169.574219 C 268.1875 170.578125 269.800781 171.734375 271.308594 173.007812 C 272.007812 173.605469 272.679688 174.222656 273.332031 174.863281 L 273.46875 174.761719 L 273.628906 174.761719 C 273.769531 173.351562 273.746094 171.933594 273.636719 170.515625 C 273.589844 169.882812 273.527344 169.246094 273.453125 168.613281 "/>
<path style=" stroke:none;fill-rule:nonzero;fill:rgb(100%,81.176758%,0.392151%);fill-opacity:1;" d="M 260.019531 198.878906 C 258.683594 197 256.648438 195.246094 254.148438 195.359375 C 253.355469 195.292969 252.515625 195.535156 251.765625 195.855469 L 251.730469 196.183594 C 254.007812 198.21875 255.742188 199.234375 258.128906 200.742188 C 258.9375 201.425781 259.710938 202.167969 260.4375 202.964844 C 261.304688 203.910156 262.101562 204.929688 262.824219 205.996094 C 261.703125 205.09375 260.488281 204.316406 259.195312 203.683594 C 258.183594 203.191406 257.117188 202.789062 256.015625 202.480469 C 253.828125 201.746094 251.15625 201.523438 249.191406 203.078125 C 248.515625 203.492188 247.976562 204.179688 247.558594 204.878906 L 247.71875 205.164062 C 250.761719 205.476562 252.761719 205.277344 255.574219 205.101562 C 255.996094 205.132812 256.425781 205.175781 256.847656 205.226562 C 259.097656 205.511719 261.359375 206.117188 263.476562 206.992188 L 263.574219 206.855469 L 263.726562 206.796875 C 263.382812 205.160156 262.832031 203.578125 262.082031 202.09375 C 261.515625 200.960938 260.824219 199.882812 260.019531 198.878906 "/>
<path style=" stroke:none;fill-rule:nonzero;fill:rgb(100%,81.176758%,0.392151%);fill-opacity:1;" d="M 228.007812 284.664062 C 225.953125 283.121094 223.222656 281.933594 220.578125 282.753906 C 219.703125 282.910156 218.878906 283.402344 218.164062 283.933594 L 218.222656 284.253906 C 221.363281 285.507812 223.703125 286.046875 226.730469 286.992188 C 228.921875 287.972656 231.023438 289.285156 232.921875 290.828125 C 233.179688 291.035156 233.4375 291.253906 233.691406 291.472656 C 233.003906 291.195312 232.308594 290.953125 231.597656 290.75 C 229.453125 290.121094 227.210938 289.824219 224.9375 289.890625 C 223.46875 289.867188 221.890625 290.066406 220.496094 290.660156 C 219.652344 291.019531 218.867188 291.519531 218.234375 292.199219 C 218.078125 292.359375 217.9375 292.527344 217.800781 292.710938 C 217.265625 293.269531 216.90625 294.011719 216.640625 294.761719 C 216.605469 294.867188 216.570312 294.976562 216.539062 295.082031 L 216.777344 295.308594 C 216.855469 295.289062 216.9375 295.265625 217.015625 295.25 C 218.070312 294.976562 219.011719 294.691406 219.910156 294.394531 C 220.867188 294.082031 221.773438 293.757812 222.710938 293.425781 C 223.523438 293.132812 224.359375 292.832031 225.269531 292.527344 C 225.851562 292.402344 226.441406 292.304688 227.035156 292.222656 C 229.484375 291.882812 232.019531 291.871094 234.484375 292.167969 L 234.535156 292.007812 L 234.667969 291.914062 C 234.511719 291.644531 234.355469 291.378906 234.191406 291.113281 C 232.605469 288.578125 230.523438 286.367188 228.007812 284.664062 "/>
<path style=" stroke:none;fill-rule:nonzero;fill:rgb(100%,81.176758%,0.392151%);fill-opacity:1;" d="M 224.582031 216.734375 C 224.914062 216.710938 225.25 216.691406 225.605469 216.667969 C 226.617188 216.742188 227.636719 216.878906 228.644531 217.085938 C 229.859375 217.328125 231.0625 217.664062 232.230469 218.078125 C 232.664062 218.226562 233.085938 218.390625 233.503906 218.5625 L 233.597656 218.425781 L 233.753906 218.367188 C 233.441406 216.875 232.957031 215.425781 232.300781 214.058594 C 231.695312 212.78125 230.945312 211.574219 230.050781 210.445312 C 229.75 210.023438 229.414062 209.609375 229.046875 209.21875 C 228.261719 208.394531 227.339844 207.691406 226.296875 207.285156 C 225.632812 207.03125 224.921875 206.902344 224.171875 206.933594 C 223.382812 206.863281 222.542969 207.105469 221.796875 207.429688 L 221.761719 207.753906 C 223.429688 209.25 224.804688 210.191406 226.363281 211.183594 C 226.925781 211.539062 227.519531 211.910156 228.152344 212.308594 C 228.570312 212.664062 228.984375 213.03125 229.386719 213.417969 C 230.671875 214.664062 231.839844 216.066406 232.847656 217.566406 C 231.890625 216.789062 230.863281 216.113281 229.773438 215.539062 C 228.800781 215.023438 227.78125 214.589844 226.71875 214.253906 C 226.496094 214.183594 226.269531 214.113281 226.042969 214.050781 C 223.859375 213.3125 221.183594 213.089844 219.222656 214.648438 C 218.542969 215.0625 218 215.75 217.585938 216.449219 L 217.75 216.734375 C 220.40625 217.007812 222.269531 216.890625 224.582031 216.734375 "/>
<path style=" stroke:none;fill-rule:nonzero;fill:rgb(100%,100%,100%);fill-opacity:1;" d="M 432.558594 316.777344 C 431.824219 319.71875 430.652344 322.175781 429.039062 324.128906 C 428.984375 325.808594 428.808594 327.464844 428.519531 329.078125 C 431.140625 329.03125 436.148438 328.695312 441.828125 327.074219 C 444.257812 326.378906 446.347656 325.34375 448.023438 324.070312 C 451.308594 321.570312 452.984375 318.148438 452.417969 314.546875 C 451.90625 311.269531 449.625 310.539062 448.503906 310.378906 C 445.15625 313.425781 439.683594 315.632812 432.558594 316.777344 "/>
<path style=" stroke:none;fill-rule:nonzero;fill:rgb(100%,100%,100%);fill-opacity:1;" d="M 449.070312 327.425781 C 447.328125 328.582031 445.230469 329.550781 442.738281 330.261719 C 436.140625 332.148438 430.476562 332.410156 427.882812 332.410156 L 427.730469 332.410156 C 426.402344 337.011719 424.113281 341.210938 421.089844 344.78125 C 427.257812 345.011719 440.207031 344.761719 446.738281 339.171875 C 449.175781 337.085938 450.433594 334.511719 450.585938 331.304688 C 450.695312 329.117188 449.761719 327.972656 449.070312 327.425781 "/>
<path style=" stroke:none;fill-rule:nonzero;fill:rgb(100%,100%,100%);fill-opacity:1;" d="M 433.089844 313.316406 C 439.257812 312.191406 444.050781 310.128906 446.679688 307.511719 C 447.371094 306.835938 447.90625 306.113281 448.285156 305.355469 C 449.277344 303.351562 449.097656 301.105469 447.742188 298.679688 C 447.027344 297.410156 446.011719 296.632812 444.621094 296.308594 C 440.472656 295.339844 434.058594 298.578125 430.816406 300.582031 C 432.511719 304.769531 433.375 309.207031 433.089844 313.316406 "/>
<path style=" stroke:none;fill-rule:nonzero;fill:rgb(100%,100%,100%);fill-opacity:1;" d="M 425.449219 327.226562 C 425.285156 327.335938 425.121094 327.433594 424.953125 327.523438 C 422.414062 328.921875 419.355469 329.628906 415.796875 329.628906 C 411.875 329.628906 407.347656 328.773438 402.242188 327.074219 C 401.375 326.78125 400.90625 325.839844 401.191406 324.972656 C 401.484375 324.105469 402.425781 323.632812 403.292969 323.921875 C 412.105469 326.859375 418.855469 327.09375 423.355469 324.617188 C 424.246094 324.128906 425.042969 323.527344 425.757812 322.816406 C 425.84375 322.164062 426.3125 321.632812 426.929688 321.449219 C 428.007812 319.96875 428.808594 318.136719 429.347656 315.929688 C 429.421875 315.625 429.488281 315.320312 429.542969 315.007812 C 429.546875 314.988281 429.546875 314.96875 429.554688 314.957031 C 430.332031 310.5625 429.300781 305.367188 427.117188 300.59375 C 426.976562 300.289062 426.835938 299.988281 426.679688 299.6875 C 422.0625 307.4375 416.769531 312.164062 416.65625 312.265625 C 415.082031 313.648438 413.132812 314.324219 411.1875 314.324219 C 408.878906 314.324219 406.582031 313.367188 404.941406 311.492188 C 401.921875 308.042969 402.269531 302.804688 405.714844 299.78125 C 405.808594 299.699219 411.351562 294.507812 414.5625 286.949219 C 414.195312 286.792969 413.828125 286.648438 413.457031 286.527344 C 409.628906 285.25 405.789062 285.550781 402.347656 287.394531 C 400.273438 288.503906 398.398438 290.140625 396.808594 292.1875 C 394.902344 294.636719 393.414062 297.675781 392.484375 301.089844 C 392.433594 301.269531 392.355469 301.433594 392.257812 301.582031 C 392.101562 306.808594 390.445312 312.472656 387.316406 318.039062 C 382.554688 326.507812 375.578125 332.984375 368.054688 336.320312 C 372.992188 346.433594 383.382812 353.414062 395.367188 353.414062 C 403.472656 353.414062 410.855469 350.214844 416.308594 345.015625 C 420.441406 341.085938 423.464844 336.003906 424.867188 330.289062 C 425.113281 329.285156 425.308594 328.269531 425.449219 327.226562 "/>
<path style=" stroke:none;fill-rule:nonzero;fill:rgb(100%,100%,100%);fill-opacity:1;" d="M 414.367188 423.042969 C 414.082031 422.855469 413.742188 422.808594 413.457031 422.808594 C 406.148438 436.375 383.03125 439.507812 380.371094 439.828125 C 379.242188 439.964844 377.8125 440.03125 376.15625 440.03125 C 367.445312 440.03125 352.320312 438.195312 339.476562 434.847656 C 339.453125 434.84375 339.429688 434.835938 339.40625 434.828125 C 328.882812 432.070312 316.207031 427.339844 312.003906 419.953125 C 310.335938 422.382812 309.832031 424.65625 310.460938 426.855469 C 312.777344 434.894531 329.164062 440.171875 336.105469 442.066406 C 337.890625 442.5625 339.765625 441.691406 340.5625 440.003906 L 341.398438 438.222656 C 341.632812 437.738281 342.082031 437.394531 342.609375 437.300781 C 343.136719 437.207031 343.675781 437.371094 344.058594 437.742188 C 344.082031 437.757812 346.757812 440.265625 352.90625 442.316406 C 358.617188 444.230469 368.5625 446.136719 383.507812 444.367188 C 407.011719 441.578125 415.761719 428.878906 415.324219 425.230469 C 415.234375 424.457031 414.992188 423.453125 414.367188 423.042969 "/>
<path style=" stroke:none;fill-rule:nonzero;fill:rgb(100%,100%,100%);fill-opacity:1;" d="M 347.226562 404.105469 C 347.222656 404.113281 347.21875 404.117188 347.210938 404.128906 C 341.78125 411.78125 339.753906 421.367188 341.328125 431.898438 C 357.34375 435.945312 374.242188 437.222656 379.976562 436.53125 C 389.136719 435.4375 405.941406 430.847656 410.859375 420.585938 C 412.054688 418.097656 412.488281 415.359375 412.148438 412.429688 C 412.140625 412.367188 412.136719 412.304688 412.136719 412.238281 C 412.136719 406.363281 408.820312 399.765625 403.476562 395.019531 C 398.761719 390.832031 390.386719 386.160156 377.273438 387.722656 C 370.273438 388.554688 363.933594 390.632812 358.4375 393.910156 C 353.902344 396.605469 350.128906 400.03125 347.226562 404.105469 "/>
<path style=" stroke:none;fill-rule:nonzero;fill:rgb(100%,100%,100%);fill-opacity:1;" d="M 344.925781 401.628906 C 344.925781 401.628906 344.933594 401.632812 344.933594 401.628906 C 347.855469 397.671875 351.53125 394.304688 355.875 391.582031 C 356.238281 388.710938 355.648438 386.238281 354.113281 384.230469 C 353.195312 383.027344 351.945312 381.996094 350.429688 381.171875 C 349.089844 384.371094 347.46875 387.660156 345.613281 390.964844 C 344.089844 393.671875 341.273438 395.195312 338.367188 395.195312 C 336.992188 395.195312 335.597656 394.855469 334.308594 394.132812 C 330.316406 391.886719 328.898438 386.824219 331.140625 382.828125 C 331.734375 381.78125 332.296875 380.730469 332.824219 379.695312 C 327.585938 381.039062 323.140625 383.890625 321.933594 388.117188 C 321.378906 390.066406 321.433594 391.859375 322.09375 393.457031 C 324.691406 399.90625 336.328125 403.070312 344.925781 401.628906 "/>
<path style=" stroke:none;fill-rule:nonzero;fill:rgb(100%,100%,100%);fill-opacity:1;" d="M 329.082031 270.425781 C 330.570312 270.425781 331.929688 269.875 332.964844 268.972656 C 334.207031 267.890625 334.992188 266.292969 334.992188 264.515625 C 334.992188 262.738281 334.207031 261.144531 332.960938 260.0625 C 331.925781 259.15625 330.570312 258.613281 329.082031 258.613281 C 325.824219 258.613281 323.179688 261.253906 323.179688 264.515625 C 323.179688 267.78125 325.824219 270.425781 329.082031 270.425781 "/>
<path style=" stroke:none;fill-rule:nonzero;fill:rgb(100%,100%,100%);fill-opacity:1;" d="M 268.777344 434.828125 C 268.753906 434.835938 268.726562 434.84375 268.703125 434.847656 C 255.859375 438.195312 240.734375 440.03125 232.027344 440.03125 C 230.367188 440.03125 228.941406 439.964844 227.808594 439.828125 C 225.148438 439.507812 202.050781 436.378906 194.730469 422.8125 C 194.445312 422.808594 194.101562 422.851562 193.8125 423.042969 C 193.191406 423.453125 192.949219 424.457031 192.859375 425.230469 C 192.421875 428.878906 201.171875 441.578125 224.671875 444.367188 C 239.621094 446.140625 249.566406 444.230469 255.273438 442.316406 C 261.421875 440.265625 264.101562 437.757812 264.128906 437.738281 C 264.515625 437.371094 265.058594 437.210938 265.582031 437.304688 C 266.105469 437.398438 266.550781 437.742188 266.777344 438.222656 L 267.617188 440.003906 C 268.417969 441.691406 270.289062 442.5625 272.078125 442.066406 C 279.015625 440.171875 295.40625 434.894531 297.71875 426.855469 C 298.351562 424.65625 297.847656 422.382812 296.179688 419.953125 C 291.972656 427.339844 279.296875 432.070312 268.777344 434.828125 "/>
<path style=" stroke:none;fill-rule:nonzero;fill:rgb(100%,100%,100%);fill-opacity:1;" d="M 263.253906 401.628906 C 271.738281 403.046875 283.183594 399.992188 285.976562 393.71875 C 286.011719 393.636719 286.046875 393.554688 286.078125 393.46875 C 286.746094 391.859375 286.800781 390.066406 286.246094 388.117188 C 285.042969 383.890625 280.59375 381.039062 275.359375 379.699219 C 275.890625 380.734375 276.449219 381.78125 277.039062 382.828125 C 279.285156 386.824219 277.867188 391.886719 273.871094 394.132812 C 272.585938 394.855469 271.191406 395.195312 269.8125 395.195312 C 266.910156 395.199219 264.089844 393.671875 262.570312 390.964844 C 260.714844 387.671875 259.097656 384.378906 257.75 381.171875 C 256.238281 381.996094 254.988281 383.027344 254.070312 384.230469 C 252.535156 386.238281 251.941406 388.714844 252.304688 391.585938 C 256.65625 394.304688 260.332031 397.671875 263.253906 401.628906 "/>
<path style=" stroke:none;fill-rule:nonzero;fill:rgb(100%,100%,100%);fill-opacity:1;" d="M 196.042969 412.238281 C 196.042969 412.304688 196.039062 412.367188 196.035156 412.429688 C 195.695312 415.347656 196.121094 418.078125 197.308594 420.5625 C 197.3125 420.566406 197.316406 420.574219 197.320312 420.585938 C 202.238281 430.847656 219.046875 435.4375 228.203125 436.53125 C 233.941406 437.214844 250.839844 435.945312 266.855469 431.898438 C 268.425781 421.367188 266.398438 411.78125 260.96875 404.121094 C 258.066406 400.046875 254.289062 396.609375 249.746094 393.914062 C 244.246094 390.632812 237.90625 388.554688 230.910156 387.726562 C 229.140625 387.515625 227.453125 387.421875 225.851562 387.421875 C 215.601562 387.421875 208.785156 391.398438 204.707031 395.019531 C 199.363281 399.765625 196.042969 406.363281 196.042969 412.238281 "/>
<path style=" stroke:none;fill-rule:nonzero;fill:rgb(100%,100%,100%);fill-opacity:1;" d="M 171.539062 248.660156 C 170.265625 249.050781 169.035156 249.523438 167.871094 250.066406 L 197.585938 251.550781 C 198.253906 249.734375 198.875 248.476562 198.96875 248.296875 C 198 246.128906 197.496094 244.46875 197.472656 244.386719 C 197.203125 243.503906 197.703125 242.582031 198.582031 242.3125 C 199.457031 242.050781 200.378906 242.546875 200.648438 243.421875 C 200.652344 243.445312 201.308594 245.578125 202.523438 248.066406 C 203.207031 249.476562 204.039062 250.949219 205 252.226562 L 205.003906 252.226562 C 205.953125 252.359375 206.839844 252.511719 207.648438 252.703125 C 208.675781 252.941406 209.574219 253.242188 210.328125 253.621094 C 211.203125 254.0625 211.875 254.617188 212.320312 255.335938 C 212.558594 255.199219 212.785156 255.015625 212.988281 254.800781 C 214.289062 253.394531 214.769531 250.367188 214.246094 246.730469 C 214.175781 246.214844 214.078125 245.6875 213.964844 245.148438 C 213.683594 243.828125 213.289062 242.5 212.796875 241.21875 C 212.308594 239.957031 211.730469 238.738281 211.0625 237.605469 C 208.839844 233.832031 205.679688 231.078125 202.015625 231.078125 C 192.164062 231.078125 188.699219 241.953125 188.253906 243.519531 C 191.238281 243.660156 193.160156 243.96875 193.25 243.980469 C 194.152344 244.128906 194.765625 244.980469 194.621094 245.886719 C 194.476562 246.792969 193.621094 247.410156 192.71875 247.257812 C 192.695312 247.253906 190.1875 246.855469 186.523438 246.78125 L 186.507812 246.78125 C 182.742188 246.683594 177.136719 246.921875 171.683594 248.605469 C 171.636719 248.628906 171.589844 248.644531 171.539062 248.660156 "/>
<path style=" stroke:none;fill-rule:nonzero;fill:rgb(100%,100%,100%);fill-opacity:1;" d="M 185.132812 290.582031 L 184.960938 290.582031 C 183.542969 290.574219 182.394531 290.464844 181.902344 290.410156 C 180.988281 290.304688 180.332031 289.488281 180.433594 288.574219 C 180.539062 287.664062 181.355469 287 182.269531 287.109375 C 183.003906 287.191406 183.847656 287.242188 184.714844 287.246094 C 187.546875 287.277344 190.703125 286.867188 191.714844 285.667969 C 191.761719 285.609375 191.8125 285.554688 191.871094 285.503906 C 191.929688 285.449219 191.992188 285.402344 192.058594 285.359375 C 192.386719 285.136719 192.785156 285.042969 193.179688 285.085938 C 193.214844 285.089844 193.242188 285.09375 193.265625 285.101562 C 193.308594 285.105469 193.34375 285.113281 193.382812 285.125 C 193.75 285.210938 201.425781 286.894531 209.335938 279.3125 C 210.097656 278.578125 210.867188 277.753906 211.625 276.835938 C 212.070312 276.304688 212.511719 275.742188 212.949219 275.144531 C 213.238281 274.746094 213.519531 274.332031 213.796875 273.90625 C 216.464844 269.800781 218.46875 264.378906 217.335938 261.339844 C 216.890625 260.140625 215.96875 259.414062 214.433594 259.058594 C 213.90625 258.9375 213.4375 258.894531 213.007812 258.949219 C 212.90625 258.957031 212.804688 258.976562 212.707031 258.996094 C 212.699219 258.996094 212.6875 259 212.679688 259 C 212.339844 259.855469 211.570312 260.925781 209.894531 261.914062 C 209.585938 262.097656 209.242188 262.277344 208.867188 262.453125 C 208.65625 262.761719 208.453125 263.082031 208.246094 263.402344 C 207.925781 263.90625 207.566406 264.460938 207.171875 265.007812 C 205.492188 267.328125 203.105469 269.523438 199.433594 267.28125 C 198.425781 266.660156 197.671875 265.890625 197.121094 265.003906 L 185.289062 266.734375 C 185.8125 270.246094 185.550781 274.488281 183.277344 278.964844 C 182.980469 279.542969 182.398438 279.875 181.796875 279.875 C 181.542969 279.875 181.289062 279.816406 181.046875 279.691406 C 180.226562 279.277344 179.902344 278.277344 180.3125 277.460938 C 182.21875 273.714844 182.441406 270.164062 182 267.214844 L 157.183594 270.851562 C 156.957031 274.058594 157.148438 277.152344 158.21875 279.710938 C 159.261719 282.195312 161.195312 284.035156 163.960938 285.175781 C 163.980469 285.183594 163.996094 285.1875 164.007812 285.195312 C 165.652344 285.875 167.332031 286.203125 168.683594 286.359375 C 170.347656 286.550781 171.519531 286.488281 171.542969 286.484375 C 172.460938 286.425781 173.242188 287.117188 173.300781 288.03125 C 173.359375 288.945312 172.671875 289.738281 171.757812 289.796875 C 171.710938 289.800781 171.421875 289.816406 170.9375 289.816406 C 170.324219 289.816406 169.402344 289.785156 168.296875 289.664062 C 167.140625 289.527344 165.785156 289.28125 164.371094 288.84375 C 164.0625 290.023438 163.871094 291.789062 164.8125 293.328125 C 165.5625 294.558594 166.9375 295.519531 168.886719 296.195312 C 171.160156 296.984375 174.207031 297.390625 177.957031 297.390625 C 181.074219 297.390625 183.71875 297.109375 185.847656 296.558594 C 188.511719 295.867188 190.371094 294.753906 191.328125 293.246094 C 192.144531 291.957031 192.191406 290.523438 192.03125 289.40625 C 189.949219 290.351562 187.253906 290.582031 185.132812 290.582031 "/>
<path style=" stroke:none;fill-rule:nonzero;fill:rgb(100%,100%,100%);fill-opacity:1;" d="M 169.074219 228.660156 C 171.847656 234.074219 172.507812 241.292969 172.667969 244.882812 C 177.011719 243.785156 181.285156 243.46875 184.648438 243.449219 C 184.101562 239.519531 182.46875 229.773438 179.164062 222.464844 C 176.371094 216.300781 173.074219 212.175781 170.121094 211.144531 C 168.925781 210.730469 167.769531 210.824219 166.597656 211.425781 C 161.96875 213.808594 162.734375 216.300781 168.710938 227.953125 Z M 169.074219 228.660156 "/>
<path style=" stroke:none;fill-rule:nonzero;fill:rgb(100%,100%,100%);fill-opacity:1;" d="M 164.785156 249.914062 C 164.757812 249.878906 164.738281 249.839844 164.714844 249.800781 C 164.296875 248.988281 164.617188 247.980469 165.433594 247.5625 C 166.539062 246.996094 167.703125 246.488281 168.910156 246.042969 C 166.542969 239.628906 163.347656 231.960938 160.898438 228.132812 L 160.566406 227.601562 C 159.449219 225.789062 156.832031 221.539062 153.476562 220.886719 C 152.015625 220.597656 150.53125 221.027344 148.949219 222.191406 C 145.183594 224.960938 150.746094 234.019531 153.121094 237.894531 C 153.765625 238.941406 154.386719 239.910156 154.976562 240.828125 C 156.972656 243.933594 158.652344 246.546875 159.4375 249.648438 Z M 164.785156 249.914062 "/>
<path style=" stroke:none;fill-rule:nonzero;fill:rgb(88.627625%,88.627625%,88.627625%);fill-opacity:1;" d="M 209.566406 257.367188 C 209.515625 257.222656 209.433594 257.089844 209.316406 256.964844 C 208.964844 256.589844 208.316406 256.292969 207.324219 256.039062 C 206.96875 255.949219 206.574219 255.863281 206.128906 255.78125 C 205.34375 255.636719 204.410156 255.5 203.324219 255.371094 C 202.332031 255.25 201.210938 255.136719 199.953125 255.015625 C 199.777344 255 199.589844 254.980469 199.402344 254.964844 L 198.253906 254.90625 L 196.5625 254.824219 L 159.902344 252.992188 L 158.234375 252.910156 L 156.570312 252.828125 L 154.160156 252.703125 C 155.058594 253.660156 155.792969 254.757812 156.320312 255.957031 C 156.859375 257.171875 157.191406 258.496094 157.269531 259.875 C 157.277344 260.082031 157.28125 260.289062 157.28125 260.5 C 157.28125 262.183594 156.910156 263.789062 156.230469 265.234375 C 155.789062 266.195312 155.210938 267.085938 154.523438 267.882812 L 155.851562 267.6875 L 157.558594 267.4375 L 181.214844 263.976562 L 184.542969 263.488281 L 195.996094 261.808594 L 197.625 261.570312 L 199.257812 261.332031 L 201.5 261.003906 C 203.390625 260.738281 205.257812 260.253906 206.730469 259.699219 C 206.871094 259.644531 207.007812 259.589844 207.140625 259.539062 C 207.695312 259.3125 208.175781 259.082031 208.5625 258.847656 C 209.230469 258.453125 209.625 258.058594 209.625 257.71875 C 209.625 257.59375 209.605469 257.476562 209.566406 257.367188 "/>
<path style=" stroke:none;fill-rule:nonzero;fill:rgb(92.156982%,29.803467%,50.196838%);fill-opacity:1;" d="M 146.757812 252.355469 C 146.285156 252.277344 145.804688 252.238281 145.308594 252.238281 C 145.21875 252.238281 145.132812 252.238281 145.042969 252.242188 C 144.476562 252.253906 143.921875 252.328125 143.390625 252.445312 C 139.539062 253.277344 136.65625 256.566406 136.65625 260.5 C 136.65625 265.058594 140.539062 268.761719 145.308594 268.761719 C 145.75 268.761719 146.183594 268.730469 146.605469 268.671875 C 147.160156 268.589844 147.699219 268.457031 148.21875 268.28125 C 148.761719 268.09375 149.28125 267.855469 149.773438 267.574219 C 152.28125 266.128906 153.964844 263.5 153.964844 260.5 C 153.964844 256.414062 150.84375 253.011719 146.757812 252.355469 "/>
<path style=" stroke:none;fill-rule:nonzero;fill:rgb(0%,0%,0%);fill-opacity:1;" d="M 429.261719 103.710938 C 442.339844 104.246094 458.199219 115.117188 456.050781 128.867188 C 453.421875 139.382812 441.988281 146.445312 433.359375 152.160156 C 419.304688 161.355469 417.636719 176.671875 424.492188 191.046875 C 434.632812 211.15625 431.644531 225.484375 410.613281 235.59375 C 428.109375 232.578125 439.128906 219.921875 435.863281 201.84375 C 434.976562 196.082031 432.585938 190.894531 430.417969 185.617188 C 425.761719 173.328125 428.523438 163.746094 439.875 156.878906 C 449.359375 150.195312 459.867188 142.117188 461.816406 129.769531 C 463.640625 112.929688 444.222656 101.03125 429.261719 103.710938 "/>
<path style=" stroke:none;fill-rule:nonzero;fill:rgb(0%,0%,0%);fill-opacity:1;" d="M 448.023438 324.070312 C 446.347656 325.34375 444.257812 326.378906 441.828125 327.074219 C 436.148438 328.695312 431.140625 329.03125 428.515625 329.078125 C 428.808594 327.464844 428.984375 325.808594 429.039062 324.128906 C 430.652344 322.175781 431.824219 319.71875 432.558594 316.777344 C 439.683594 315.632812 445.15625 313.425781 448.507812 310.378906 C 449.625 310.539062 451.90625 311.269531 452.417969 314.546875 C 452.984375 318.148438 451.308594 321.570312 448.023438 324.070312 M 446.738281 339.171875 C 440.207031 344.761719 427.257812 345.011719 421.089844 344.78125 C 424.113281 341.210938 426.402344 337.011719 427.730469 332.410156 L 427.882812 332.410156 C 430.476562 332.410156 436.140625 332.148438 442.738281 330.261719 C 445.230469 329.550781 447.328125 328.582031 449.070312 327.425781 C 449.761719 327.972656 450.695312 329.117188 450.585938 331.304688 C 450.433594 334.511719 449.175781 337.085938 446.738281 339.171875 M 416.308594 345.015625 C 410.855469 350.214844 403.476562 353.414062 395.367188 353.414062 C 383.382812 353.414062 372.992188 346.433594 368.054688 336.320312 C 375.578125 332.984375 382.554688 326.507812 387.316406 318.039062 C 390.445312 312.472656 392.101562 306.804688 392.257812 301.582031 C 392.359375 301.433594 392.433594 301.273438 392.484375 301.089844 C 393.410156 297.675781 394.902344 294.636719 396.808594 292.1875 C 398.398438 290.140625 400.273438 288.503906 402.347656 287.394531 C 405.789062 285.550781 409.628906 285.25 413.453125 286.527344 C 413.828125 286.652344 414.195312 286.792969 414.5625 286.949219 C 411.351562 294.507812 405.8125 299.699219 405.714844 299.78125 C 402.269531 302.800781 401.917969 308.042969 404.941406 311.492188 C 406.582031 313.367188 408.878906 314.324219 411.1875 314.324219 C 413.132812 314.324219 415.082031 313.648438 416.65625 312.265625 C 416.769531 312.164062 422.0625 307.4375 426.679688 299.691406 C 426.835938 299.988281 426.976562 300.289062 427.117188 300.59375 C 429.300781 305.367188 430.332031 310.5625 429.554688 314.957031 C 429.550781 314.96875 429.550781 314.988281 429.542969 315.003906 C 429.488281 315.320312 429.421875 315.625 429.347656 315.929688 C 428.808594 318.136719 428.007812 319.96875 426.929688 321.449219 C 426.3125 321.632812 425.84375 322.164062 425.757812 322.820312 C 425.042969 323.527344 424.246094 324.128906 423.355469 324.617188 C 418.855469 327.09375 412.105469 326.859375 403.292969 323.921875 C 402.425781 323.632812 401.484375 324.105469 401.191406 324.972656 C 400.90625 325.839844 401.375 326.78125 402.242188 327.074219 C 407.347656 328.773438 411.875 329.625 415.796875 329.625 C 419.355469 329.625 422.414062 328.921875 424.953125 327.523438 C 425.121094 327.429688 425.285156 327.335938 425.449219 327.226562 C 425.308594 328.269531 425.113281 329.285156 424.867188 330.289062 C 423.464844 336.003906 420.441406 341.085938 416.308594 345.015625 M 392.375 292.824219 C 392.054688 293.367188 391.742188 293.925781 391.457031 294.503906 C 391.316406 293.992188 391.15625 293.484375 390.980469 292.992188 C 391.441406 292.921875 391.90625 292.863281 392.375 292.824219 M 397.054688 279.632812 C 398.929688 274.460938 400.769531 267.796875 401.484375 260.277344 C 407.441406 261.054688 413.226562 263.320312 415.363281 268.855469 C 417.410156 274.152344 417.078125 279.300781 415.703125 283.828125 C 415.308594 283.660156 414.910156 283.515625 414.503906 283.378906 C 409.792969 281.804688 405.046875 282.183594 400.78125 284.46875 C 398.570312 285.652344 396.566406 287.3125 394.828125 289.359375 C 394.140625 289.367188 393.457031 289.398438 392.777344 289.453125 C 394.03125 287.019531 395.59375 283.664062 397.054688 279.632812 M 444.621094 296.308594 C 446.011719 296.628906 447.027344 297.40625 447.742188 298.679688 C 449.097656 301.109375 449.277344 303.351562 448.28125 305.359375 C 447.90625 306.113281 447.371094 306.835938 446.679688 307.511719 C 444.050781 310.128906 439.257812 312.191406 433.089844 313.316406 C 433.375 309.207031 432.511719 304.769531 430.816406 300.582031 C 434.058594 298.578125 440.476562 295.339844 444.621094 296.308594 M 354.113281 384.230469 C 355.648438 386.238281 356.238281 388.710938 355.875 391.582031 C 351.53125 394.304688 347.855469 397.671875 344.933594 401.628906 C 344.933594 401.632812 344.925781 401.628906 344.925781 401.628906 C 336.328125 403.070312 324.691406 399.90625 322.09375 393.457031 C 321.433594 391.859375 321.378906 390.066406 321.933594 388.117188 C 323.140625 383.886719 327.582031 381.039062 332.824219 379.695312 C 332.296875 380.730469 331.734375 381.78125 331.140625 382.828125 C 328.898438 386.824219 330.316406 391.886719 334.308594 394.132812 C 335.597656 394.855469 336.992188 395.195312 338.367188 395.195312 C 341.273438 395.195312 344.089844 393.671875 345.613281 390.964844 C 347.46875 387.660156 349.089844 384.371094 350.429688 381.171875 C 351.945312 382 353.195312 383.027344 354.113281 384.230469 M 358.4375 393.910156 C 363.933594 390.632812 370.273438 388.554688 377.273438 387.722656 C 390.386719 386.160156 398.761719 390.832031 403.476562 395.019531 C 408.820312 399.765625 412.136719 406.363281 412.136719 412.238281 C 412.136719 412.304688 412.140625 412.367188 412.144531 412.429688 C 412.488281 415.359375 412.054688 418.097656 410.859375 420.585938 C 405.941406 430.847656 389.136719 435.4375 379.976562 436.53125 C 374.242188 437.222656 357.34375 435.945312 341.328125 431.898438 C 339.753906 421.367188 341.78125 411.78125 347.214844 404.128906 C 347.21875 404.117188 347.222656 404.113281 347.226562 404.105469 C 350.132812 400.03125 353.902344 396.605469 358.4375 393.910156 M 414.367188 423.042969 C 414.992188 423.453125 415.230469 424.457031 415.324219 425.230469 C 415.761719 428.878906 407.011719 441.578125 383.507812 444.367188 C 368.5625 446.136719 358.617188 444.230469 352.90625 442.320312 C 346.757812 440.261719 344.082031 437.757812 344.058594 437.742188 C 343.675781 437.367188 343.136719 437.207031 342.609375 437.300781 C 342.082031 437.398438 341.632812 437.738281 341.398438 438.222656 L 340.5625 440.003906 C 339.765625 441.691406 337.890625 442.5625 336.105469 442.070312 C 329.164062 440.171875 312.777344 434.898438 310.464844 426.855469 C 309.832031 424.65625 310.335938 422.382812 312.003906 419.953125 C 316.207031 427.339844 328.882812 432.070312 339.40625 434.828125 C 339.429688 434.835938 339.453125 434.839844 339.476562 434.847656 C 352.320312 438.195312 367.445312 440.03125 376.15625 440.03125 C 377.8125 440.03125 379.242188 439.964844 380.371094 439.828125 C 383.03125 439.507812 406.148438 436.375 413.453125 422.804688 C 413.742188 422.804688 414.082031 422.855469 414.367188 423.042969 M 319.863281 396.375 C 323.582031 402.449219 332.992188 405.253906 340.867188 405.253906 C 341.449219 405.253906 342.023438 405.242188 342.585938 405.203125 C 338.3125 412.640625 336.695312 421.4375 337.851562 430.964844 C 323.832031 426.992188 315.429688 421.828125 314.085938 416.324219 C 311.082031 404.039062 317.390625 398.152344 319.863281 396.375 M 269.8125 395.195312 C 271.191406 395.195312 272.585938 394.855469 273.871094 394.132812 C 277.867188 391.886719 279.285156 386.824219 277.039062 382.828125 C 276.449219 381.78125 275.890625 380.734375 275.359375 379.699219 C 280.59375 381.039062 285.042969 383.886719 286.246094 388.117188 C 286.800781 390.066406 286.746094 391.859375 286.078125 393.46875 C 286.046875 393.554688 286.011719 393.636719 285.976562 393.71875 C 283.183594 399.992188 271.738281 403.046875 263.253906 401.628906 C 260.332031 397.671875 256.65625 394.304688 252.304688 391.585938 C 251.941406 388.714844 252.53125 386.238281 254.070312 384.230469 C 254.988281 383.027344 256.238281 382 257.75 381.171875 C 259.097656 384.378906 260.714844 387.671875 262.570312 390.964844 C 264.089844 393.671875 266.910156 395.203125 269.8125 395.195312 M 288.324219 396.378906 C 290.800781 398.160156 297.101562 404.050781 294.097656 416.324219 C 292.75 421.828125 284.34375 426.992188 270.332031 430.964844 C 271.484375 421.4375 269.867188 412.640625 265.597656 405.203125 C 266.160156 405.242188 266.730469 405.253906 267.3125 405.253906 C 275.195312 405.253906 284.613281 402.449219 288.324219 396.378906 M 297.71875 426.855469 C 295.40625 434.898438 279.015625 440.171875 272.078125 442.070312 C 270.289062 442.5625 268.417969 441.691406 267.617188 440.003906 L 266.777344 438.222656 C 266.550781 437.742188 266.105469 437.402344 265.582031 437.304688 C 265.058594 437.210938 264.515625 437.367188 264.128906 437.738281 C 264.101562 437.757812 261.421875 440.261719 255.273438 442.320312 C 249.566406 444.230469 239.621094 446.140625 224.671875 444.367188 C 201.171875 441.578125 192.421875 428.878906 192.859375 425.230469 C 192.949219 424.457031 193.191406 423.453125 193.8125 423.042969 C 194.101562 422.851562 194.445312 422.804688 194.730469 422.8125 C 202.050781 436.378906 225.148438 439.507812 227.808594 439.828125 C 228.941406 439.964844 230.367188 440.03125 232.027344 440.03125 C 240.734375 440.03125 255.859375 438.195312 268.703125 434.847656 C 268.726562 434.839844 268.753906 434.835938 268.777344 434.828125 C 279.296875 432.070312 291.972656 427.339844 296.179688 419.953125 C 297.847656 422.382812 298.351562 424.65625 297.71875 426.855469 M 196.035156 412.429688 C 196.039062 412.367188 196.042969 412.304688 196.042969 412.238281 C 196.042969 406.363281 199.363281 399.765625 204.707031 395.019531 C 208.785156 391.398438 215.601562 387.421875 225.851562 387.421875 C 227.453125 387.421875 229.140625 387.515625 230.910156 387.722656 C 237.90625 388.554688 244.246094 390.632812 249.746094 393.914062 C 254.289062 396.609375 258.066406 400.046875 260.96875 404.121094 C 266.398438 411.78125 268.425781 421.367188 266.855469 431.898438 C 250.839844 435.945312 233.941406 437.214844 228.203125 436.53125 C 219.046875 435.4375 202.238281 430.847656 197.320312 420.585938 C 197.316406 420.574219 197.3125 420.566406 197.308594 420.5625 C 196.121094 418.082031 195.695312 415.347656 196.035156 412.429688 M 185.847656 296.558594 C 183.71875 297.109375 181.074219 297.390625 177.957031 297.390625 C 174.207031 297.390625 171.160156 296.984375 168.890625 296.195312 C 166.9375 295.519531 165.5625 294.558594 164.8125 293.328125 C 163.871094 291.789062 164.0625 290.023438 164.371094 288.84375 C 165.785156 289.28125 167.140625 289.527344 168.296875 289.664062 C 169.402344 289.785156 170.324219 289.816406 170.9375 289.816406 C 171.417969 289.816406 171.710938 289.800781 171.757812 289.796875 C 172.667969 289.738281 173.359375 288.945312 173.300781 288.03125 C 173.242188 287.117188 172.460938 286.425781 171.542969 286.484375 C 171.519531 286.488281 170.347656 286.550781 168.683594 286.359375 C 167.328125 286.203125 165.652344 285.875 164.007812 285.195312 C 163.992188 285.1875 163.980469 285.183594 163.960938 285.175781 C 161.195312 284.035156 159.261719 282.195312 158.21875 279.710938 C 157.148438 277.152344 156.957031 274.054688 157.1875 270.851562 L 182 267.214844 C 182.441406 270.164062 182.21875 273.714844 180.316406 277.460938 C 179.902344 278.277344 180.226562 279.277344 181.046875 279.691406 C 181.285156 279.816406 181.542969 279.875 181.796875 279.875 C 182.402344 279.875 182.984375 279.542969 183.277344 278.964844 C 185.550781 274.488281 185.8125 270.246094 185.285156 266.734375 L 197.121094 265.003906 C 197.671875 265.890625 198.425781 266.660156 199.433594 267.28125 C 203.105469 269.523438 205.492188 267.328125 207.171875 265.007812 C 207.566406 264.460938 207.925781 263.90625 208.246094 263.402344 C 208.453125 263.082031 208.65625 262.761719 208.867188 262.453125 C 209.242188 262.277344 209.582031 262.097656 209.894531 261.914062 C 211.570312 260.925781 212.339844 259.855469 212.679688 259 C 212.6875 259 212.695312 258.996094 212.707031 258.996094 C 212.804688 258.976562 212.90625 258.957031 213.007812 258.949219 C 213.4375 258.894531 213.90625 258.9375 214.433594 259.058594 C 215.96875 259.414062 216.890625 260.140625 217.339844 261.339844 C 218.46875 264.378906 216.464844 269.800781 213.796875 273.90625 C 213.519531 274.332031 213.238281 274.746094 212.945312 275.144531 C 212.511719 275.742188 212.070312 276.304688 211.625 276.835938 C 210.867188 277.753906 210.097656 278.578125 209.332031 279.3125 C 201.425781 286.894531 193.75 285.210938 193.382812 285.125 C 193.34375 285.113281 193.308594 285.105469 193.269531 285.101562 C 193.238281 285.09375 193.214844 285.089844 193.179688 285.085938 C 193.007812 285.066406 192.832031 285.082031 192.660156 285.117188 C 192.589844 285.132812 192.527344 285.160156 192.464844 285.179688 C 192.398438 285.203125 192.332031 285.210938 192.273438 285.242188 C 192.199219 285.277344 192.125 285.320312 192.058594 285.359375 C 191.996094 285.40625 191.933594 285.453125 191.871094 285.503906 C 191.8125 285.554688 191.761719 285.609375 191.714844 285.667969 C 190.703125 286.867188 187.546875 287.277344 184.714844 287.246094 C 183.847656 287.242188 183.003906 287.191406 182.269531 287.109375 C 181.355469 287 180.535156 287.664062 180.433594 288.574219 C 180.332031 289.488281 180.988281 290.304688 181.902344 290.410156 C 182.394531 290.464844 183.542969 290.574219 184.960938 290.582031 L 185.132812 290.582031 C 187.253906 290.582031 189.949219 290.347656 192.03125 289.40625 C 192.191406 290.523438 192.144531 291.957031 191.328125 293.246094 C 190.371094 294.753906 188.515625 295.867188 185.847656 296.558594 M 203.757812 264.003906 C 202.804688 265.097656 202.195312 265.074219 201.160156 264.445312 C 201.148438 264.433594 201.136719 264.425781 201.121094 264.417969 L 201.96875 264.292969 C 202.597656 264.207031 203.195312 264.109375 203.757812 264.003906 M 154.523438 267.882812 C 155.214844 267.085938 155.789062 266.195312 156.230469 265.234375 C 156.90625 263.789062 157.28125 262.183594 157.28125 260.5 C 157.28125 260.289062 157.277344 260.082031 157.265625 259.875 C 157.191406 258.496094 156.859375 257.171875 156.320312 255.957031 C 155.792969 254.757812 155.058594 253.660156 154.160156 252.703125 L 156.570312 252.828125 L 158.234375 252.910156 L 159.902344 252.992188 L 196.5625 254.824219 L 198.253906 254.902344 L 199.402344 254.964844 C 199.589844 254.980469 199.777344 255 199.953125 255.019531 C 201.210938 255.136719 202.328125 255.25 203.324219 255.371094 C 204.410156 255.5 205.34375 255.636719 206.128906 255.78125 C 206.574219 255.863281 206.972656 255.949219 207.324219 256.039062 C 208.316406 256.292969 208.964844 256.589844 209.316406 256.960938 C 209.433594 257.089844 209.515625 257.222656 209.566406 257.367188 C 209.605469 257.476562 209.625 257.59375 209.625 257.71875 C 209.625 258.058594 209.230469 258.453125 208.5625 258.847656 C 208.175781 259.082031 207.691406 259.3125 207.140625 259.539062 C 207.007812 259.589844 206.871094 259.644531 206.730469 259.699219 C 205.257812 260.253906 203.390625 260.738281 201.5 261.003906 L 199.257812 261.332031 L 197.625 261.570312 L 195.996094 261.808594 L 184.542969 263.488281 L 181.214844 263.976562 L 157.558594 267.4375 L 155.847656 267.6875 Z M 149.773438 267.574219 C 149.28125 267.855469 148.765625 268.09375 148.21875 268.28125 C 147.699219 268.457031 147.160156 268.589844 146.605469 268.671875 C 146.183594 268.730469 145.75 268.761719 145.308594 268.761719 C 140.539062 268.761719 136.65625 265.058594 136.65625 260.5 C 136.65625 256.566406 139.539062 253.277344 143.390625 252.445312 C 143.925781 252.328125 144.476562 252.253906 145.042969 252.242188 C 145.132812 252.238281 145.21875 252.238281 145.308594 252.238281 C 145.804688 252.238281 146.285156 252.277344 146.761719 252.355469 C 150.84375 253.011719 153.964844 256.414062 153.964844 260.5 C 153.964844 263.5 152.28125 266.128906 149.773438 267.574219 M 154.976562 240.828125 C 154.386719 239.910156 153.761719 238.941406 153.121094 237.894531 C 150.746094 234.019531 145.183594 224.960938 148.949219 222.191406 C 150.53125 221.027344 152.015625 220.597656 153.476562 220.886719 C 156.832031 221.539062 159.449219 225.789062 160.566406 227.601562 L 160.898438 228.132812 C 163.347656 231.960938 166.542969 239.628906 168.910156 246.042969 C 167.703125 246.488281 166.539062 246.996094 165.433594 247.5625 C 164.617188 247.984375 164.296875 248.988281 164.71875 249.800781 C 164.738281 249.839844 164.757812 249.878906 164.785156 249.914062 L 159.433594 249.648438 C 158.652344 246.546875 156.972656 243.933594 154.976562 240.828125 M 166.597656 211.425781 C 167.769531 210.824219 168.925781 210.730469 170.121094 211.144531 C 173.074219 212.175781 176.371094 216.300781 179.164062 222.464844 C 182.46875 229.777344 184.101562 239.519531 184.652344 243.449219 C 181.285156 243.46875 177.011719 243.789062 172.664062 244.882812 C 172.507812 241.292969 171.847656 234.074219 169.074219 228.660156 L 168.710938 227.953125 C 162.734375 216.300781 161.96875 213.808594 166.597656 211.425781 M 186.507812 246.78125 L 186.523438 246.78125 C 190.1875 246.855469 192.695312 247.253906 192.71875 247.257812 C 193.621094 247.410156 194.476562 246.792969 194.621094 245.886719 C 194.769531 244.984375 194.152344 244.128906 193.25 243.984375 C 193.160156 243.96875 191.234375 243.660156 188.253906 243.519531 C 188.699219 241.949219 192.164062 231.078125 202.015625 231.078125 C 205.679688 231.078125 208.839844 233.832031 211.0625 237.605469 C 211.730469 238.738281 212.3125 239.957031 212.796875 241.21875 C 213.289062 242.5 213.683594 243.828125 213.964844 245.152344 C 214.078125 245.6875 214.175781 246.214844 214.246094 246.734375 C 214.769531 250.367188 214.289062 253.394531 212.988281 254.800781 C 212.785156 255.019531 212.5625 255.199219 212.320312 255.335938 C 211.875 254.617188 211.203125 254.0625 210.328125 253.621094 C 209.574219 253.242188 208.675781 252.941406 207.648438 252.703125 C 206.839844 252.511719 205.953125 252.359375 205.003906 252.226562 L 204.996094 252.226562 C 204.039062 250.949219 203.207031 249.476562 202.519531 248.070312 C 201.308594 245.578125 200.652344 243.445312 200.648438 243.421875 C 200.382812 242.546875 199.457031 242.050781 198.582031 242.316406 C 197.703125 242.582031 197.203125 243.503906 197.472656 244.386719 C 197.496094 244.46875 198 246.128906 198.96875 248.296875 C 198.875 248.476562 198.253906 249.738281 197.585938 251.550781 L 167.871094 250.070312 C 169.035156 249.523438 170.265625 249.050781 171.539062 248.660156 C 171.589844 248.644531 171.640625 248.628906 171.683594 248.605469 C 177.136719 246.921875 182.742188 246.683594 186.507812 246.78125 M 455.699219 314.027344 C 455.113281 310.3125 452.9375 308.414062 450.847656 307.574219 C 450.996094 307.328125 451.132812 307.085938 451.253906 306.835938 C 452.746094 303.828125 452.53125 300.453125 450.636719 297.0625 C 449.460938 294.953125 447.6875 293.613281 445.363281 293.074219 C 439.871094 291.800781 432.636719 295.605469 429.421875 297.542969 C 429.171875 297.0625 428.914062 296.585938 428.640625 296.113281 C 433.015625 287.363281 435.808594 275.722656 430.847656 262.878906 C 425.707031 249.554688 413.164062 244.535156 400.964844 243.457031 C 399.101562 232.136719 393.839844 220.066406 382.527344 208.773438 C 381.746094 209.101562 380.964844 209.484375 380.191406 209.925781 C 380.097656 209.976562 380 210.023438 379.910156 210.078125 C 379.070312 210.519531 378.242188 211.003906 377.4375 211.527344 C 388.136719 221.765625 393.34375 232.746094 395.308594 243.214844 C 396.398438 249.019531 396.488281 254.664062 395.976562 259.929688 C 394.527344 274.730469 388.269531 286.589844 385.703125 290.769531 C 385.0625 291.824219 384.652344 292.386719 384.613281 292.386719 C 384.980469 293 385.300781 293.640625 385.566406 294.300781 C 390.417969 306.167969 379.777344 324.835938 366.09375 331.132812 C 365.070312 331.605469 364.035156 332.003906 362.984375 332.328125 C 361.015625 332.9375 359.007812 333.277344 356.988281 333.289062 C 356.035156 334.171875 355.042969 335.023438 354.015625 335.832031 C 349.59375 339.316406 344.503906 342.140625 338.96875 344.324219 C 328.863281 348.316406 317.277344 350.203125 305.574219 350.203125 C 293.042969 350.203125 280.378906 348.042969 269.277344 343.992188 C 263.714844 341.964844 258.542969 339.464844 253.96875 336.53125 C 249.375 333.578125 245.390625 330.179688 242.226562 326.378906 C 234.820312 324.871094 229.285156 319.878906 226.121094 314.085938 C 222.636719 307.699219 222.03125 300.339844 224.976562 295.636719 C 224.644531 295.355469 224.324219 295.058594 224.003906 294.746094 C 223.558594 294.332031 223.128906 293.886719 222.710938 293.425781 C 221.773438 293.757812 220.867188 294.082031 219.910156 294.394531 C 219.011719 294.691406 218.070312 294.976562 217.015625 295.25 C 217.464844 295.820312 217.925781 296.375 218.402344 296.910156 C 218.136719 297.785156 217.933594 298.695312 217.796875 299.628906 C 202.503906 310.902344 195.46875 309.957031 192.957031 308.828125 C 189.992188 307.492188 187.988281 303.839844 186.71875 299.839844 C 186.707031 299.8125 186.699219 299.789062 186.695312 299.761719 C 190.246094 298.839844 192.742188 297.238281 194.152344 294.984375 C 195.550781 292.753906 195.566406 290.390625 195.273438 288.644531 C 198.5625 288.730469 204.421875 287.972656 210.417969 282.816406 C 211.980469 287.320312 214.074219 291.359375 216.640625 294.761719 C 216.90625 294.011719 217.265625 293.269531 217.800781 292.707031 C 217.9375 292.527344 218.078125 292.359375 218.234375 292.199219 C 218.867188 291.519531 219.652344 291.019531 220.496094 290.660156 C 219.140625 288.746094 217.96875 286.617188 216.96875 284.328125 C 216.121094 282.386719 215.398438 280.328125 214.804688 278.183594 C 215.082031 277.832031 215.355469 277.472656 215.628906 277.101562 C 218.175781 273.617188 222.464844 265.59375 220.449219 260.1875 C 219.929688 258.777344 218.761719 257.007812 216.160156 256.105469 C 217.847656 253.507812 218.265625 249.371094 217.210938 244.457031 C 216.914062 243.078125 216.511719 241.683594 215.996094 240.316406 C 219.183594 230.679688 224.628906 222.449219 232.230469 218.078125 C 231.0625 217.664062 229.859375 217.328125 228.644531 217.085938 C 227.636719 216.882812 226.617188 216.742188 225.605469 216.667969 C 225.25 216.691406 224.914062 216.710938 224.582031 216.734375 C 219.613281 220.953125 215.507812 226.800781 212.523438 233.8125 C 209.871094 230.253906 206.304688 227.757812 202.015625 227.757812 C 196.597656 227.757812 191.925781 230.40625 188.496094 235.410156 C 187.949219 236.203125 187.476562 236.996094 187.074219 237.753906 C 186.15625 232.914062 184.601562 226.425781 182.191406 221.097656 C 180.328125 216.992188 176.425781 209.824219 171.210938 208.015625 C 169.140625 207.292969 167.074219 207.449219 165.078125 208.476562 C 157.09375 212.582031 160.359375 218.9375 165.757812 229.464844 L 166.121094 230.175781 C 166.730469 231.371094 167.230469 232.671875 167.628906 233.996094 C 166.347656 231.121094 164.976562 228.347656 163.695312 226.34375 L 163.394531 225.863281 C 162.050781 223.675781 158.894531 218.558594 154.113281 217.625 C 151.722656 217.164062 149.324219 217.792969 146.980469 219.519531 C 140.757812 224.097656 147.195312 234.589844 150.289062 239.628906 C 150.945312 240.695312 151.582031 241.6875 152.1875 242.625 C 153.820312 245.167969 155.164062 247.25 155.917969 249.472656 L 146.980469 249.027344 C 146.4375 248.949219 145.878906 248.914062 145.308594 248.914062 C 145.167969 248.914062 145.027344 248.917969 144.890625 248.921875 L 144.796875 248.917969 C 144.667969 248.914062 144.535156 248.921875 144.414062 248.949219 C 138.230469 249.390625 133.339844 254.40625 133.339844 260.5 C 133.339844 266.882812 138.710938 272.082031 145.308594 272.082031 C 146.15625 272.082031 146.976562 271.996094 147.773438 271.832031 C 148.027344 271.992188 148.332031 272.082031 148.644531 272.082031 C 148.722656 272.082031 148.804688 272.078125 148.886719 272.066406 L 153.820312 271.34375 C 153.648438 274.734375 153.9375 278.070312 155.152344 280.992188 C 156.359375 283.863281 158.417969 286.078125 161.277344 287.582031 C 160.742188 289.347656 160.304688 292.289062 161.960938 295.027344 C 163.351562 297.328125 165.894531 298.929688 169.546875 299.839844 C 171.332031 308.285156 175.65625 319.21875 186.097656 323.941406 C 189.308594 325.394531 192.734375 326.128906 196.398438 326.128906 C 203.785156 326.128906 212.121094 323.164062 221.519531 317.195312 C 225.464844 324.175781 231.820312 329.277344 239.203125 331.335938 C 242.863281 335.386719 247.433594 339.039062 252.703125 342.207031 C 250.917969 352.398438 251.394531 364.472656 256.515625 378.070312 C 254.429688 379.148438 252.710938 380.546875 251.433594 382.210938 C 249.792969 384.355469 248.9375 386.847656 248.882812 389.648438 C 243.613281 386.9375 237.707031 385.1875 231.300781 384.429688 C 216.964844 382.726562 207.726562 387.898438 202.503906 392.539062 C 196.5 397.867188 192.761719 405.371094 192.726562 412.140625 C 192.429688 414.773438 192.652344 417.285156 193.394531 419.652344 C 192.949219 419.761719 192.492188 419.949219 192.039062 420.234375 C 190.652344 421.121094 189.816406 422.671875 189.558594 424.839844 C 189.132812 428.4375 192.261719 433.460938 197.53125 437.636719 C 202.171875 441.3125 210.574219 446.035156 224.28125 447.664062 C 228.632812 448.179688 232.589844 448.398438 236.183594 448.398438 C 252.429688 448.398438 261.191406 443.871094 264.660156 441.507812 C 266.171875 444.597656 269.644531 446.175781 272.953125 445.273438 C 282.242188 442.730469 298.226562 437.085938 300.910156 427.773438 C 301.988281 424.015625 300.851562 420.148438 297.519531 416.261719 C 300.652344 401.863281 292.167969 394.96875 289.636719 393.269531 C 290.109375 391.371094 290.046875 389.339844 289.4375 387.207031 C 287.664062 380.984375 280.960938 377.164062 273.566406 375.925781 C 273.304688 375.332031 273.054688 374.746094 272.8125 374.160156 C 269.066406 365.054688 267.984375 356.828125 268.523438 349.570312 C 279.734375 353.523438 292.488281 355.734375 305.574219 355.734375 C 318.113281 355.734375 329.683594 353.761719 339.683594 350.007812 C 340.148438 357.160156 339.035156 365.246094 335.363281 374.171875 C 335.128906 374.75 334.878906 375.332031 334.617188 375.921875 C 327.226562 377.152344 320.515625 380.984375 318.742188 387.207031 C 318.140625 389.339844 318.070312 391.371094 318.546875 393.261719 C 317.457031 393.96875 315.257812 395.632812 313.363281 398.46875 C 311.078125 401.878906 308.800781 407.703125 310.664062 416.261719 C 307.332031 420.148438 306.195312 424.015625 307.273438 427.773438 C 309.953125 437.085938 325.9375 442.730469 335.222656 445.269531 C 338.535156 446.179688 342.007812 444.605469 343.523438 441.507812 C 346.988281 443.871094 355.753906 448.398438 371.996094 448.398438 C 375.59375 448.398438 379.550781 448.175781 383.898438 447.664062 C 408.132812 444.785156 419.386719 431.273438 418.621094 424.839844 C 418.363281 422.671875 417.527344 421.121094 416.140625 420.234375 C 415.691406 419.949219 415.238281 419.761719 414.792969 419.648438 C 415.527344 417.28125 415.75 414.765625 415.453125 412.140625 C 415.417969 405.371094 411.683594 397.867188 405.679688 392.539062 C 400.457031 387.898438 391.222656 382.71875 376.882812 384.429688 C 370.46875 385.1875 364.570312 386.9375 359.296875 389.648438 C 359.242188 386.847656 358.390625 384.355469 356.746094 382.210938 C 355.472656 380.546875 353.753906 379.148438 351.667969 378.070312 C 356.867188 364.25 357.277344 352.015625 355.394531 341.726562 C 356.726562 340.765625 358.007812 339.757812 359.230469 338.707031 C 361.140625 338.523438 363.050781 338.117188 364.945312 337.507812 C 370.363281 348.867188 381.964844 356.738281 395.367188 356.738281 C 404.097656 356.738281 412.066406 353.402344 418.054688 347.933594 C 419.148438 348.023438 421.339844 348.171875 424.121094 348.171875 C 431.320312 348.171875 442.476562 347.183594 448.890625 341.695312 C 452.015625 339.027344 453.703125 335.582031 453.90625 331.46875 C 454.058594 328.378906 452.863281 326.453125 451.683594 325.320312 C 455.101562 321.949219 456.28125 317.730469 455.699219 314.027344 "/>
<path style=" stroke:none;fill-rule:nonzero;fill:rgb(0%,0%,0%);fill-opacity:1;" d="M 377.402344 207.492188 C 376.9375 208.410156 376.515625 209.359375 376.140625 210.328125 C 376.347656 210.507812 376.546875 210.695312 376.746094 210.882812 C 377.378906 210.246094 378.054688 209.609375 378.777344 208.992188 C 379.476562 208.390625 380.21875 207.804688 380.988281 207.253906 C 381.050781 205.570312 381 203.851562 380.835938 202.109375 C 379.878906 203.25 379 204.46875 378.246094 205.820312 C 377.941406 206.355469 377.660156 206.910156 377.402344 207.492188 "/>
<path style=" stroke:none;fill-rule:nonzero;fill:rgb(0%,0%,0%);fill-opacity:1;" d="M 337.40625 153.4375 C 337.796875 153.4375 338.1875 153.460938 338.574219 153.507812 C 349.035156 154.710938 353.113281 167.324219 352.507812 175.996094 C 352.457031 176.707031 352.398438 177.421875 352.3125 178.117188 C 354.148438 177.328125 356.097656 176.839844 357.878906 176.839844 C 358.542969 176.839844 359.179688 176.910156 359.78125 177.050781 C 370.09375 179.480469 374.457031 193.355469 375.324219 202.601562 C 375.554688 205.070312 375.519531 207.394531 375.269531 209.535156 C 375.277344 209.539062 375.28125 209.550781 375.292969 209.558594 C 375.773438 206.824219 376.640625 203.875 377.96875 201.300781 C 378.617188 200.042969 379.378906 198.871094 380.25 197.855469 C 379.414062 193.15625 377.9375 188.554688 376.03125 184.777344 C 372.441406 177.664062 367.261719 173.128906 361.050781 171.664062 C 360.070312 171.433594 359.03125 171.3125 357.953125 171.308594 C 357.003906 161.179688 351.332031 149.40625 339.210938 148.007812 C 338.6875 147.949219 338.144531 147.917969 337.609375 147.90625 C 336.109375 149.253906 334.761719 150.179688 333.113281 151.324219 C 332.953125 151.4375 332.78125 151.558594 332.613281 151.675781 C 330.898438 153.265625 329.375 155.164062 328.140625 157.214844 C 330.863281 154.882812 334.207031 153.4375 337.40625 153.4375 "/>
<path style=" stroke:none;fill-rule:nonzero;fill:rgb(0%,0%,0%);fill-opacity:1;" d="M 361.539062 326.84375 C 361.65625 326.9375 361.785156 327.011719 361.921875 327.082031 C 362.773438 327.496094 363.921875 327.425781 365.246094 326.949219 C 368.445312 325.796875 372.691406 322.238281 376.410156 317.292969 C 381.910156 309.972656 384.167969 302.390625 381.453125 300.347656 C 379.464844 298.855469 375.363281 300.746094 371.15625 304.738281 C 369.613281 306.199219 368.054688 307.9375 366.578125 309.902344 C 364.726562 312.367188 363.242188 314.859375 362.191406 317.164062 C 360.125 321.699219 359.738281 325.492188 361.539062 326.84375 "/>
<path style=" stroke:none;fill-rule:nonzero;fill:rgb(0%,0%,0%);fill-opacity:1;" d="M 328.828125 153.03125 C 329.441406 151.613281 330.222656 150.230469 331.160156 149.074219 C 330.863281 149.183594 330.574219 149.296875 330.28125 149.421875 C 329.863281 148.558594 329.410156 147.722656 328.914062 146.90625 C 328.613281 147.851562 328.277344 148.792969 327.90625 149.871094 C 327.855469 150.113281 327.816406 150.359375 327.773438 150.601562 C 327.429688 152.671875 327.355469 154.824219 327.535156 156.941406 C 327.820312 155.710938 328.25 154.355469 328.828125 153.03125 "/>
<path style=" stroke:none;fill-rule:nonzero;fill:rgb(0%,0%,0%);fill-opacity:1;" d="M 273.453125 168.613281 C 273.527344 169.246094 273.589844 169.882812 273.636719 170.515625 C 276.210938 156.457031 284.820312 137.652344 302.136719 137.335938 C 302.300781 137.332031 302.460938 137.332031 302.617188 137.332031 C 313.085938 137.332031 321.402344 143.632812 325.429688 152.132812 C 325.117188 150.265625 325.070312 148.351562 325.484375 146.6875 C 325.75 145.640625 326.199219 144.683594 326.878906 143.902344 C 321.15625 136.421875 312.355469 131.800781 302.617188 131.800781 C 302.425781 131.800781 302.230469 131.800781 302.035156 131.804688 C 291.886719 131.992188 283.128906 137.332031 276.703125 147.253906 C 273.996094 151.433594 272.070312 155.835938 270.703125 159.859375 C 271.398438 161.082031 271.949219 162.429688 272.378906 163.796875 C 272.890625 165.417969 273.234375 167.078125 273.453125 168.613281 "/>
<path style=" stroke:none;fill-rule:nonzero;fill:rgb(0%,0%,0%);fill-opacity:1;" d="M 301.769531 203.835938 C 303.378906 203.519531 305.03125 203.335938 306.722656 203.335938 C 308.636719 203.335938 310.503906 203.570312 312.3125 203.972656 C 325.742188 206.941406 335.882812 219.171875 335.882812 214.246094 C 335.882812 213.355469 335.550781 212.1875 334.933594 210.84375 C 334.4375 209.777344 333.761719 208.605469 332.914062 207.378906 C 332.101562 206.195312 331.136719 204.960938 330.039062 203.730469 C 326.511719 199.800781 321.613281 195.910156 315.933594 193.734375 C 313.039062 192.621094 309.941406 191.953125 306.722656 191.953125 C 303.578125 191.953125 300.550781 192.589844 297.714844 193.65625 C 292.214844 195.71875 287.433594 199.402344 283.90625 203.1875 C 282.796875 204.382812 281.8125 205.585938 280.964844 206.753906 C 280.097656 207.960938 279.378906 209.125 278.832031 210.195312 C 278.007812 211.804688 277.5625 213.214844 277.5625 214.246094 C 277.5625 219.25 288.019531 206.554688 301.769531 203.835938 "/>
<path style=" stroke:none;fill-rule:nonzero;fill:rgb(0%,0%,0%);fill-opacity:1;" d="M 269.9375 169.890625 C 270.984375 171.03125 271.976562 172.210938 272.839844 173.472656 C 272.917969 173.5 273 173.527344 273.078125 173.558594 C 272.675781 171.578125 272.113281 169.617188 271.382812 167.730469 C 270.851562 166.347656 270.226562 165 269.527344 163.714844 C 269.21875 164.847656 268.953125 165.929688 268.726562 166.9375 C 267.996094 166.863281 267.265625 166.820312 266.523438 166.804688 C 267.746094 167.742188 268.867188 168.777344 269.84375 169.792969 C 269.875 169.824219 269.902344 169.859375 269.9375 169.890625 "/>
<path style=" stroke:none;fill-rule:nonzero;fill:rgb(0%,0%,0%);fill-opacity:1;" d="M 230.050781 210.445312 C 230.945312 211.574219 231.695312 212.78125 232.300781 214.058594 C 231.785156 211.265625 231.644531 208.296875 231.996094 205.191406 C 233.644531 190.519531 246.671875 175.058594 262.632812 172.589844 C 263.753906 172.414062 264.871094 172.332031 265.972656 172.332031 C 267.808594 172.332031 269.601562 172.5625 271.308594 173.007812 C 269.800781 171.738281 268.1875 170.578125 266.5 169.574219 C 265.601562 169.042969 264.6875 168.550781 263.75 168.109375 C 262.851562 167.78125 261.984375 167.496094 261.128906 167.234375 C 252.585938 168.722656 244.34375 173.445312 237.855469 180.59375 C 231.476562 187.609375 227.445312 196.125 226.496094 204.574219 C 226.394531 205.476562 226.328125 206.382812 226.296875 207.285156 C 227.339844 207.691406 228.265625 208.394531 229.046875 209.21875 C 229.414062 209.609375 229.75 210.023438 230.050781 210.445312 "/>
<path style=" stroke:none;fill-rule:nonzero;fill:rgb(0%,0%,0%);fill-opacity:1;" d="M 278.613281 256.605469 C 277.90625 259.078125 277.515625 261.691406 277.515625 264.394531 C 277.515625 279.933594 290.007812 292.527344 305.417969 292.527344 C 319.3125 292.527344 330.832031 282.289062 332.964844 268.882812 C 331.929688 269.796875 330.570312 270.351562 329.082031 270.351562 C 325.824219 270.351562 323.179688 267.683594 323.179688 264.394531 C 323.179688 261.101562 325.824219 258.441406 329.082031 258.441406 C 330.570312 258.441406 331.925781 258.988281 332.960938 259.902344 C 332.777344 258.714844 332.507812 257.558594 332.175781 256.429688 C 344.617188 257.785156 356.363281 260.082031 367.0625 263.191406 C 367.070312 263.632812 367.097656 264.070312 367.097656 264.515625 C 367.097656 284.464844 357.5 302.167969 342.664062 313.261719 C 338.210938 316.597656 333.277344 319.335938 327.992188 321.359375 C 321.242188 323.941406 313.910156 325.359375 306.253906 325.359375 C 297.363281 325.359375 288.921875 323.449219 281.308594 320.023438 C 276.175781 317.714844 271.425781 314.714844 267.167969 311.144531 C 253.871094 299.984375 245.410156 283.238281 245.410156 264.515625 C 245.410156 264.070312 245.433594 263.632812 245.449219 263.191406 C 255.65625 260.222656 266.800781 257.980469 278.613281 256.605469 M 255.113281 227.667969 C 254.523438 227.179688 253.980469 226.675781 253.46875 226.167969 C 245.621094 236.941406 240.984375 250.199219 240.984375 264.515625 C 240.984375 284.640625 250.136719 302.667969 264.5 314.648438 C 268.734375 318.183594 273.425781 321.191406 278.472656 323.570312 C 286.90625 327.554688 296.324219 329.785156 306.253906 329.785156 C 314.910156 329.785156 323.179688 328.089844 330.746094 325.019531 C 335.929688 322.910156 340.78125 320.15625 345.210938 316.855469 C 361.171875 304.949219 371.523438 285.917969 371.523438 264.515625 C 371.523438 250.199219 366.886719 236.941406 359.039062 226.167969 C 358.53125 226.675781 357.984375 227.179688 357.394531 227.667969 C 356.851562 228.125 356.277344 228.570312 355.660156 229.007812 C 361.980469 237.773438 366.015625 248.296875 366.90625 259.695312 C 348.472656 254.457031 327.523438 251.695312 306.253906 251.695312 C 284.980469 251.695312 264.035156 254.457031 245.601562 259.695312 C 246.492188 248.296875 250.527344 237.773438 256.847656 229.007812 C 256.234375 228.570312 255.65625 228.125 255.113281 227.667969 "/>
<path style=" stroke:none;fill-rule:nonzero;fill:rgb(0%,0%,0%);fill-opacity:1;" d="M 228.15625 212.308594 C 227.519531 211.910156 226.925781 211.542969 226.363281 211.183594 C 226.4375 212.210938 226.554688 213.230469 226.71875 214.253906 C 227.78125 214.589844 228.800781 215.023438 229.773438 215.539062 C 230.863281 216.113281 231.890625 216.789062 232.847656 217.566406 C 231.839844 216.066406 230.671875 214.664062 229.386719 213.417969 C 228.988281 213.03125 228.574219 212.664062 228.15625 212.308594 "/>
</g>
</svg>
