<?xml version="1.0" encoding="UTF-8"?>
<svg xmlns="http://www.w3.org/2000/svg" xmlns:xlink="http://www.w3.org/1999/xlink" width="595.276pt" height="576.002pt" viewBox="0 0 595.276 576.002" version="1.1">
<g id="surface1">
<path style=" stroke:none;fill-rule:nonzero;fill:rgb(15.686035%,52.549744%,39.215088%);fill-opacity:1;" d="M 215.902344 258.105469 C 217.871094 256.902344 220.058594 256.359375 222.179688 256.417969 C 219.28125 269.351562 221.660156 282.710938 228.929688 294.140625 C 235.160156 303.925781 244.347656 311.308594 255.226562 315.378906 C 256.472656 315.847656 257.734375 316.269531 259.023438 316.648438 C 259.871094 316.898438 260.734375 317.128906 261.597656 317.339844 C 261.8125 317.386719 262.027344 317.414062 262.234375 317.414062 C 262.527344 317.414062 262.804688 317.367188 263.074219 317.273438 C 263.925781 317 264.621094 316.296875 264.851562 315.359375 C 264.964844 314.886719 264.949219 314.417969 264.820312 313.984375 C 264.5625 313.082031 263.839844 312.339844 262.871094 312.101562 C 250.570312 309.117188 240.132812 301.710938 233.472656 291.25 C 227.035156 281.128906 224.878906 269.3125 227.378906 257.875 C 228.8125 258.703125 230.050781 259.882812 230.960938 261.375 C 231.46875 262.207031 232.355469 262.664062 233.261719 262.664062 C 233.742188 262.664062 234.222656 262.542969 234.660156 262.273438 C 235.933594 261.5 236.335938 259.84375 235.5625 258.574219 C 230.96875 251.03125 220.890625 248.761719 213.105469 253.507812 C 211.832031 254.28125 211.429688 255.933594 212.203125 257.207031 C 212.972656 258.476562 214.632812 258.878906 215.902344 258.105469 "/>
<path style=" stroke:none;fill-rule:nonzero;fill:rgb(15.686035%,52.549744%,39.215088%);fill-opacity:1;" d="M 265.835938 196.929688 C 265.851562 196.945312 265.867188 196.960938 265.882812 196.972656 C 266.246094 197.320312 266.828125 197.117188 267.613281 196.523438 C 268.375 195.949219 269.335938 195.011719 270.480469 193.863281 C 270.527344 193.808594 270.582031 193.753906 270.636719 193.699219 C 275.011719 189.292969 282.019531 182 291.21875 180.136719 C 302.910156 177.765625 314.761719 184.851562 319.277344 186.019531 C 320.703125 186.386719 321.394531 186.171875 321.136719 184.898438 C 320.058594 179.566406 304.375 166.160156 289.015625 169.277344 C 273.65625 172.390625 264.4375 190.84375 265.515625 196.175781 C 265.585938 196.523438 265.695312 196.773438 265.835938 196.929688 "/>
<path style=" stroke:none;fill-rule:nonzero;fill:rgb(15.686035%,52.549744%,39.215088%);fill-opacity:1;" d="M 433.203125 238.886719 C 433.632812 239.8125 434.191406 240.679688 434.863281 241.457031 L 433.566406 241.269531 L 431.902344 241.023438 L 408.886719 237.65625 L 405.652344 237.175781 L 394.5 235.546875 L 392.914062 235.3125 L 391.332031 235.082031 L 389.140625 234.761719 C 387.304688 234.503906 385.476562 234.027344 384.046875 233.488281 C 383.351562 233.226562 382.75 232.945312 382.28125 232.667969 C 381.625 232.28125 381.242188 231.898438 381.242188 231.566406 C 381.242188 231.449219 381.257812 231.335938 381.300781 231.226562 C 381.347656 231.082031 381.429688 230.953125 381.546875 230.832031 C 382.007812 230.335938 383.011719 229.980469 384.652344 229.675781 C 385.417969 229.535156 386.320312 229.40625 387.371094 229.277344 C 388.339844 229.164062 389.429688 229.050781 390.65625 228.933594 C 390.824219 228.917969 391.003906 228.902344 391.1875 228.886719 L 392.308594 228.832031 L 393.953125 228.746094 L 429.621094 226.96875 L 431.242188 226.886719 L 432.871094 226.808594 L 435.210938 226.6875 C 434.339844 227.613281 433.625 228.683594 433.113281 229.847656 C 432.585938 231.035156 432.261719 232.328125 432.191406 233.679688 C 432.183594 233.875 432.175781 234.074219 432.175781 234.273438 C 432.175781 235.914062 432.542969 237.476562 433.203125 238.886719 M 386.933594 237.660156 C 387.640625 237.804688 388.25 237.902344 388.683594 237.960938 L 389.515625 238.085938 C 389.503906 238.097656 389.488281 238.101562 389.472656 238.113281 C 388.464844 238.730469 387.871094 238.746094 386.933594 237.660156 M 431.265625 252.960938 C 430.25 255.382812 428.375 257.171875 425.679688 258.28125 C 425.664062 258.289062 425.640625 258.296875 425.625 258.304688 C 424.023438 258.964844 422.394531 259.28125 421.078125 259.433594 C 419.460938 259.625 418.320312 259.558594 418.304688 259.554688 C 417.414062 259.492188 416.648438 260.167969 416.585938 261.058594 C 416.527344 261.949219 417.199219 262.71875 418.089844 262.777344 C 418.132812 262.785156 418.417969 262.800781 418.886719 262.800781 C 419.488281 262.800781 420.378906 262.773438 421.453125 262.644531 C 422.582031 262.515625 423.902344 262.277344 425.277344 261.855469 C 425.578125 263.003906 425.765625 264.722656 424.847656 266.214844 C 424.117188 267.414062 422.773438 268.347656 420.878906 269.007812 C 418.671875 269.777344 415.707031 270.171875 412.058594 270.171875 C 409.027344 270.171875 406.453125 269.898438 404.378906 269.363281 C 401.78125 268.691406 399.976562 267.605469 399.046875 266.132812 C 398.253906 264.882812 398.210938 263.488281 398.367188 262.394531 C 400.390625 263.320312 403.011719 263.539062 405.074219 263.539062 L 405.238281 263.539062 C 406.625 263.53125 407.742188 263.433594 408.222656 263.375 C 409.105469 263.277344 409.746094 262.476562 409.648438 261.589844 C 409.546875 260.703125 408.75 260.078125 407.859375 260.164062 C 407.148438 260.242188 406.328125 260.292969 405.488281 260.296875 C 402.742188 260.328125 399.675781 259.929688 398.679688 258.769531 C 398.625 258.703125 398.566406 258.636719 398.496094 258.589844 C 398.453125 258.546875 398.410156 258.507812 398.359375 258.476562 C 398.351562 258.464844 398.339844 258.460938 398.324219 258.453125 C 398.28125 258.421875 398.238281 258.394531 398.1875 258.378906 C 398.171875 258.363281 398.15625 258.359375 398.140625 258.347656 C 398.128906 258.339844 398.125 258.335938 398.113281 258.335938 C 398.011719 258.289062 397.902344 258.25 397.792969 258.222656 C 397.671875 258.195312 397.550781 258.179688 397.433594 258.1875 C 397.355469 258.1875 397.285156 258.191406 397.210938 258.203125 L 397.207031 258.203125 C 397.15625 258.207031 397.105469 258.21875 397.054688 258.230469 C 396.636719 258.324219 386.773438 260.496094 378.007812 248.519531 C 375.03125 244.445312 372.519531 238.351562 373.734375 235.089844 C 374.171875 233.917969 375.070312 233.214844 376.5625 232.871094 C 377.078125 232.746094 377.53125 232.714844 377.953125 232.757812 C 378.042969 232.769531 378.136719 232.78125 378.226562 232.800781 C 378.765625 234.285156 380.25 235.367188 381.972656 236.152344 C 382.175781 236.457031 382.378906 236.777344 382.582031 237.097656 C 384.238281 239.675781 386.734375 243.5625 391.160156 240.867188 C 392.140625 240.265625 392.871094 239.511719 393.402344 238.65625 L 404.929688 240.339844 C 404.414062 243.761719 404.671875 247.878906 406.882812 252.242188 C 407.167969 252.800781 407.730469 253.121094 408.324219 253.121094 C 408.570312 253.121094 408.816406 253.070312 409.054688 252.949219 C 409.847656 252.542969 410.164062 251.570312 409.761719 250.777344 C 407.910156 247.132812 407.695312 243.675781 408.125 240.808594 L 432.273438 244.347656 C 432.492188 247.460938 432.304688 250.472656 431.265625 252.960938 M 377.019531 219.332031 C 378.476562 212.527344 382.9375 205.644531 388.644531 205.644531 C 398.230469 205.644531 401.605469 216.222656 402.039062 217.75 C 399.140625 217.882812 397.265625 218.183594 397.171875 218.199219 C 396.292969 218.34375 395.695312 219.171875 395.84375 220.050781 C 395.980469 220.933594 396.8125 221.527344 397.695312 221.390625 C 397.714844 221.382812 400.144531 220.996094 403.710938 220.921875 L 403.742188 220.921875 C 407.414062 220.832031 412.886719 221.0625 418.207031 222.710938 C 418.242188 222.726562 418.269531 222.738281 418.300781 222.746094 C 419.539062 223.128906 420.734375 223.589844 421.871094 224.117188 L 392.953125 225.5625 C 392.308594 223.800781 391.695312 222.578125 391.609375 222.398438 C 392.550781 220.289062 393.042969 218.667969 393.070312 218.589844 C 393.328125 217.738281 392.847656 216.835938 391.992188 216.578125 C 391.136719 216.3125 390.234375 216.804688 389.976562 217.65625 C 389.972656 217.679688 389.332031 219.75 388.152344 222.171875 C 387.480469 223.542969 386.675781 224.976562 385.742188 226.21875 L 385.734375 226.21875 C 382.289062 226.707031 379.726562 227.464844 378.621094 229.242188 C 376.660156 228.105469 376 224.101562 377.019531 219.332031 M 410.878906 197.265625 C 413.601562 191.261719 416.808594 187.246094 419.679688 186.246094 C 420.847656 185.84375 421.96875 185.929688 423.113281 186.519531 C 427.617188 188.835938 426.871094 191.261719 421.054688 202.597656 L 420.699219 203.292969 C 418.003906 208.566406 417.359375 215.585938 417.203125 219.074219 C 412.972656 218.011719 408.8125 217.707031 405.539062 217.683594 C 406.082031 213.84375 407.671875 204.367188 410.878906 197.265625 M 428.660156 202.777344 L 428.976562 202.261719 C 430.066406 200.492188 432.617188 196.359375 435.875 195.722656 C 437.300781 195.441406 438.746094 195.859375 440.285156 196.992188 C 443.949219 199.6875 438.535156 208.507812 436.226562 212.269531 C 435.597656 213.289062 434.992188 214.238281 434.421875 215.128906 C 432.484375 218.144531 430.84375 220.683594 430.078125 223.710938 L 424.878906 223.972656 C 424.902344 223.941406 424.921875 223.898438 424.945312 223.859375 C 425.351562 223.0625 425.039062 222.09375 424.246094 221.683594 C 423.164062 221.132812 422.03125 220.636719 420.863281 220.203125 C 422.296875 216.320312 425.796875 207.238281 428.660156 202.777344 M 361.988281 258.4375 C 361.90625 258.925781 361.8125 259.410156 361.707031 259.894531 C 361.628906 260.320312 361.53125 260.738281 361.433594 261.15625 C 361.257812 261.9375 361.066406 262.71875 360.851562 263.492188 C 360.828125 263.589844 360.800781 263.679688 360.769531 263.777344 C 360.757812 263.824219 360.746094 263.875 360.730469 263.921875 C 360.625 264.3125 360.511719 264.710938 360.386719 265.097656 C 360.273438 265.488281 360.152344 265.875 360.023438 266.261719 C 358.675781 270.402344 356.871094 274.371094 354.667969 278.097656 L 354.664062 278.097656 C 354.597656 278.210938 354.535156 278.324219 354.46875 278.429688 C 354.265625 278.78125 354.054688 279.125 353.832031 279.46875 C 353.652344 279.761719 353.464844 280.054688 353.273438 280.339844 C 353.21875 280.425781 353.160156 280.515625 353.101562 280.605469 C 353.101562 280.613281 353.09375 280.613281 353.09375 280.613281 C 353.066406 280.648438 353.046875 280.6875 353.019531 280.726562 C 352.886719 280.933594 352.746094 281.144531 352.597656 281.347656 C 352.488281 281.507812 352.375 281.675781 352.261719 281.835938 C 352.128906 282.035156 351.988281 282.234375 351.84375 282.433594 C 351.257812 283.25 350.652344 284.054688 350.023438 284.839844 C 349.824219 285.089844 349.625 285.339844 349.425781 285.578125 C 349.390625 285.621094 349.351562 285.664062 349.320312 285.707031 C 349.046875 286.046875 348.761719 286.375 348.476562 286.703125 C 348.335938 286.867188 348.191406 287.035156 348.046875 287.203125 C 347.5625 287.75 347.070312 288.28125 346.566406 288.808594 C 342.683594 292.898438 338.183594 296.453125 333.175781 299.316406 C 332.796875 299.542969 332.410156 299.757812 332.023438 299.960938 C 331.972656 299.992188 331.925781 300.019531 331.875 300.042969 C 331.652344 300.171875 331.421875 300.292969 331.191406 300.40625 C 330.96875 300.53125 330.742188 300.644531 330.519531 300.757812 C 330.144531 300.949219 329.761719 301.136719 329.375 301.324219 C 328.242188 301.863281 327.085938 302.371094 325.914062 302.851562 C 325.058594 303.199219 324.183594 303.511719 323.304688 303.820312 C 322.847656 303.980469 322.390625 304.136719 321.929688 304.285156 C 321.453125 304.4375 320.972656 304.578125 320.492188 304.722656 C 319.6875 304.960938 318.875 305.179688 318.054688 305.386719 C 317.617188 305.496094 317.179688 305.597656 316.742188 305.699219 C 316.191406 305.820312 315.640625 305.941406 315.09375 306.050781 C 314.121094 306.238281 313.148438 306.417969 312.164062 306.554688 C 311.878906 306.597656 311.59375 306.636719 311.308594 306.675781 C 311.179688 306.695312 311.058594 306.710938 310.929688 306.722656 C 308.488281 307.027344 306.0625 307.179688 303.65625 307.179688 C 299.625 307.179688 295.644531 306.765625 291.777344 305.960938 C 291.304688 305.867188 290.832031 305.765625 290.359375 305.652344 C 290.347656 305.652344 290.339844 305.648438 290.332031 305.648438 C 289.867188 305.539062 289.398438 305.421875 288.933594 305.304688 C 288.535156 305.203125 288.136719 305.09375 287.746094 304.980469 C 287.351562 304.875 286.960938 304.761719 286.574219 304.636719 C 286.207031 304.535156 285.84375 304.417969 285.484375 304.300781 C 285.441406 304.285156 285.398438 304.273438 285.359375 304.257812 C 283.050781 303.503906 280.796875 302.609375 278.597656 301.582031 C 277.867188 301.234375 277.140625 300.875 276.417969 300.503906 C 275.339844 299.9375 274.277344 299.34375 273.234375 298.71875 C 272.886719 298.515625 272.542969 298.308594 272.199219 298.082031 C 271.945312 297.929688 271.691406 297.769531 271.441406 297.597656 C 271.257812 297.480469 271.070312 297.355469 270.886719 297.234375 C 270.699219 297.109375 270.503906 296.980469 270.316406 296.847656 C 270.179688 296.753906 270.039062 296.660156 269.898438 296.5625 C 269.671875 296.410156 269.453125 296.253906 269.234375 296.09375 C 268.417969 295.507812 267.613281 294.902344 266.828125 294.273438 C 266.574219 294.074219 266.328125 293.875 266.085938 293.679688 C 266.042969 293.640625 266 293.609375 265.957031 293.570312 C 265.617188 293.292969 265.292969 293.011719 264.964844 292.726562 C 264.246094 292.109375 263.546875 291.476562 262.859375 290.816406 C 258.097656 286.292969 254.050781 280.9375 250.980469 274.914062 C 250.824219 274.613281 250.671875 274.308594 250.527344 274 C 250.28125 273.507812 250.046875 273.003906 249.816406 272.496094 C 249.460938 271.730469 249.125 270.953125 248.816406 270.167969 C 248.457031 269.28125 248.128906 268.375 247.8125 267.46875 C 247.671875 267.066406 247.535156 266.664062 247.40625 266.257812 C 247.21875 265.679688 247.042969 265.097656 246.875 264.511719 C 246.664062 263.789062 246.46875 263.058594 246.285156 262.324219 C 246.175781 261.882812 246.066406 261.4375 245.96875 260.992188 C 245.84375 260.441406 245.726562 259.890625 245.617188 259.339844 C 245.429688 258.371094 245.25 257.398438 245.109375 256.414062 C 245.066406 256.128906 245.03125 255.84375 244.992188 255.558594 C 244.976562 255.429688 244.960938 255.300781 244.945312 255.179688 C 244.902344 254.828125 244.859375 254.488281 244.824219 254.140625 L 244.792969 253.851562 C 244.746094 253.40625 244.707031 252.960938 244.675781 252.515625 C 244.429688 249.390625 244.433594 246.28125 244.6875 243.21875 L 244.691406 243.21875 C 244.859375 243.242188 245.023438 243.25 245.195312 243.25 C 245.59375 243.25 245.996094 243.199219 246.390625 243.085938 C 251.644531 241.566406 257.070312 240.222656 262.617188 239.0625 C 261.527344 242.347656 260.984375 245.84375 261.085938 249.421875 C 261.460938 249.261719 261.855469 249.132812 262.261719 249.035156 C 265.996094 248.15625 269.738281 250.46875 270.617188 254.203125 C 271.5 257.9375 269.183594 261.675781 265.453125 262.558594 C 265.164062 262.628906 264.871094 262.675781 264.582031 262.707031 C 270.851562 274.597656 284.558594 281.234375 298.25 278.007812 C 314.5 274.171875 324.5625 257.890625 320.730469 241.644531 C 320.050781 238.785156 318.988281 236.113281 317.609375 233.675781 C 332.070312 233.789062 346.425781 235.082031 360.300781 237.527344 C 360.453125 237.554688 360.609375 237.570312 360.765625 237.582031 C 360.859375 237.585938 360.953125 237.589844 361.046875 237.589844 C 361.363281 237.589844 361.675781 237.554688 361.984375 237.488281 C 362.003906 237.589844 362.019531 237.6875 362.035156 237.789062 C 362.089844 238.105469 362.144531 238.417969 362.191406 238.730469 C 362.21875 238.894531 362.246094 239.058594 362.269531 239.21875 C 362.332031 239.621094 362.386719 240.019531 362.433594 240.421875 C 363.230469 246.542969 363.046875 252.605469 361.988281 258.4375 M 303.539062 375.125 C 307.742188 370.992188 311.632812 369.398438 314.886719 369.054688 C 318.902344 368.625 321.953125 370.085938 323.445312 371.019531 C 320.101562 375.027344 316.699219 378.285156 314.488281 380.273438 C 312.988281 381.621094 312.042969 382.378906 312.019531 382.398438 C 311.320312 382.953125 311.207031 383.972656 311.761719 384.671875 L 311.765625 384.675781 C 312.085938 385.070312 312.550781 385.277344 313.027344 385.277344 C 313.375 385.277344 313.738281 385.164062 314.03125 384.929688 C 314.289062 384.726562 320.050781 380.113281 325.824219 373.210938 C 325.015625 377.894531 325.125 383.496094 327.988281 388.757812 C 323.617188 391.761719 319.378906 393.769531 314.535156 396.0625 C 311.722656 397.398438 308.8125 398.773438 305.574219 400.488281 C 298.5 404.222656 293.636719 408.417969 291.0625 412.953125 C 287.835938 405.234375 292.316406 399.292969 296.722656 395.636719 C 296.851562 395.53125 296.988281 395.421875 297.109375 395.320312 C 299.027344 393.789062 300.597656 392.953125 300.617188 392.941406 C 301.402344 392.523438 301.703125 391.550781 301.28125 390.761719 C 300.863281 389.972656 299.890625 389.671875 299.101562 390.089844 C 299.027344 390.128906 297.527344 390.925781 295.589844 392.410156 C 295.058594 390.765625 294.515625 386.679688 298.828125 380.570312 C 300.003906 378.902344 301.539062 377.082031 303.539062 375.125 M 332.289062 364.179688 C 332.3125 364.140625 332.332031 364.109375 332.351562 364.078125 L 332.425781 363.941406 C 332.429688 363.9375 332.429688 363.929688 332.429688 363.925781 C 332.441406 363.914062 332.445312 363.910156 332.445312 363.898438 C 336.265625 357.328125 347.148438 342.300781 365.988281 344.167969 C 372.207031 344.78125 377.894531 346.871094 382.523438 350.128906 C 380.457031 349.679688 378.28125 349.523438 376.046875 349.695312 C 369.164062 350.226562 358.539062 354.066406 347.0625 369.308594 C 341.183594 377.105469 335.921875 382.722656 330.628906 386.835938 C 325.636719 377.109375 331.339844 365.917969 332.289062 364.179688 M 389.75 357.480469 C 388.382812 356.578125 387.03125 355.996094 385.804688 355.605469 C 379.058594 353.496094 370.441406 355.828125 362.75 361.84375 C 357.097656 366.25 352.054688 372.46875 347.601562 377.957031 C 343.796875 382.644531 340.207031 387.078125 336.839844 389.679688 C 332.570312 392.996094 328.714844 395.015625 324.636719 397.152344 C 323.746094 397.621094 322.855469 398.085938 321.957031 398.5625 C 321.820312 398.640625 321.691406 398.738281 321.578125 398.847656 L 321.398438 399.027344 L 316.667969 403.832031 C 314.757812 404.289062 307.605469 406.164062 300.675781 410.179688 C 296.9375 412.34375 294.226562 414.851562 292.574219 417.660156 C 292.769531 416.910156 293.050781 416.171875 293.398438 415.441406 C 295.472656 411.121094 300.074219 407.054688 307.082031 403.34375 C 310.261719 401.664062 313.136719 400.296875 315.917969 398.984375 C 321.324219 396.421875 325.996094 394.203125 331.007812 390.585938 L 331.011719 390.585938 C 331.039062 390.566406 331.0625 390.550781 331.085938 390.53125 C 337.140625 386.140625 343.035156 380.015625 349.640625 371.25 C 360.394531 356.972656 370.074219 353.402344 376.300781 352.917969 C 381.453125 352.515625 386.230469 354.136719 389.75 357.480469 M 394.535156 369.828125 C 394.902344 372.105469 395.0625 374.5 395.003906 376.945312 C 394.773438 387.585938 390.003906 397.554688 381.578125 405.003906 C 372.0625 413.417969 358.039062 418.628906 340.992188 420.09375 L 325.152344 400.53125 C 325.480469 400.355469 325.808594 400.183594 326.136719 400.015625 C 330.160156 397.902344 334.320312 395.722656 338.820312 392.238281 C 342.476562 389.402344 346.1875 384.832031 350.109375 379.992188 C 354.664062 374.382812 359.371094 368.570312 364.738281 364.386719 C 371.597656 359.027344 379.109375 356.894531 384.839844 358.691406 C 389.359375 360.105469 392.710938 363.953125 394.535156 369.828125 M 336.574219 426.667969 L 319.644531 405.421875 L 322.558594 402.457031 L 338.417969 422.054688 Z M 313.027344 436.785156 C 304.691406 436.785156 299.359375 435.1875 296.257812 431.773438 C 296.238281 431.753906 296.21875 431.726562 296.199219 431.695312 C 296.1875 431.675781 296.175781 431.660156 296.160156 431.644531 C 296.160156 431.640625 296.148438 431.628906 296.144531 431.617188 C 295.503906 430.679688 293.148438 426.824219 294.125 422.386719 C 294.914062 418.832031 297.65625 415.664062 302.292969 412.976562 C 308.242188 409.53125 314.527344 407.714844 316.871094 407.113281 L 334.863281 429.695312 C 332.441406 431.800781 325.402344 436.785156 313.027344 436.785156 M 227.070312 357.90625 C 223.328125 355.515625 218.351562 356.601562 215.9375 360.339844 C 213.523438 364.085938 214.601562 369.085938 218.351562 371.503906 C 218.902344 371.863281 223.410156 374.695312 229.847656 376.589844 C 228.222656 378.808594 226.03125 380.546875 223.367188 381.683594 C 219.125 379.824219 215.078125 378.824219 212.207031 378.285156 C 205.917969 370.828125 206.476562 361.957031 208.910156 356.550781 C 211.332031 351.171875 215.890625 347.832031 220.804688 347.832031 C 221.609375 347.832031 222.414062 347.945312 223.195312 348.164062 C 223.253906 348.179688 223.3125 348.195312 223.371094 348.21875 C 227.925781 349.59375 231.476562 354.4375 232.722656 360.539062 C 229.429688 359.363281 227.179688 357.96875 227.070312 357.90625 M 240.792969 412.839844 C 240.792969 417.230469 239.277344 421.164062 236.410156 424.207031 C 229.457031 431.632812 213.851562 434.019531 198.621094 423.804688 C 191.199219 418.828125 182.628906 410.183594 181.976562 387.371094 C 192.09375 380.113281 207.464844 380.90625 207.621094 380.914062 C 207.632812 380.914062 208.945312 380.992188 211.027344 381.351562 C 211.042969 381.355469 211.0625 381.363281 211.078125 381.363281 C 214 381.875 218.441406 382.929688 223.023438 385.070312 L 223.027344 385.074219 C 234.808594 390.589844 240.792969 399.921875 240.792969 412.839844 M 232.65625 433.476562 C 229.648438 436.597656 224.84375 438.179688 218.367188 438.179688 C 199.480469 438.179688 184.035156 426.558594 178.058594 407.847656 C 171.953125 388.753906 176.097656 374.886719 176.140625 374.746094 C 176.300781 374.226562 176.183594 373.664062 175.839844 373.242188 C 175.492188 372.820312 174.953125 372.597656 174.410156 372.664062 C 174.390625 372.667969 172.140625 372.894531 170.9375 371.558594 C 169.789062 370.28125 169.992188 367.953125 170.363281 366.230469 C 172.21875 357.710938 179.605469 336.644531 186.875 335.0625 C 187.460938 334.933594 189.070312 334.582031 191.289062 336.871094 C 182.859375 343.089844 178.753906 355.726562 178.753906 375.394531 C 178.753906 376.554688 178.746094 377.777344 178.730469 379.042969 C 178.703125 381.453125 178.675781 383.945312 178.730469 386.59375 L 178.730469 386.625 C 178.992188 399.71875 181.285156 416.070312 196.820312 426.488281 C 203.492188 430.957031 211.996094 433.839844 220.089844 433.839844 C 225.53125 433.839844 230.78125 432.535156 235.148438 429.527344 C 234.664062 430.796875 233.890625 432.199219 232.65625 433.476562 M 194.527344 338.578125 C 197.75 336.613281 201.613281 335.65625 206.335938 335.65625 C 215.117188 335.65625 219.484375 341.386719 221.238281 344.609375 C 221.09375 344.605469 220.949219 344.605469 220.804688 344.605469 C 214.601562 344.605469 208.914062 348.667969 205.960938 355.21875 C 202.703125 362.460938 203.464844 370.914062 207.777344 377.691406 C 206.78125 377.625 192.679688 376.988281 181.929688 383.539062 C 181.929688 382.011719 181.945312 380.53125 181.960938 379.074219 C 181.972656 377.796875 181.988281 376.566406 181.988281 375.394531 C 181.988281 356.046875 186.203125 343.660156 194.527344 338.578125 M 149.921875 251.28125 C 147.3125 251.53125 144.988281 251.628906 142.960938 251.554688 C 140.636719 251.476562 138.703125 251.183594 137.191406 250.679688 C 133.972656 249.609375 133.8125 247.9375 133.757812 247.390625 C 133.488281 244.632812 134.777344 243.964844 134.785156 243.960938 C 134.8125 243.949219 134.835938 243.9375 134.863281 243.921875 C 135.695312 244.035156 136.480469 244.078125 137.210938 244.078125 C 139.460938 244.078125 141.167969 243.644531 141.984375 243.390625 C 142.296875 243.289062 142.480469 243.21875 142.511719 243.207031 C 143.332031 242.871094 143.730469 241.933594 143.398438 241.109375 C 143.144531 240.484375 142.539062 240.105469 141.90625 240.097656 C 141.699219 240.097656 141.496094 240.132812 141.296875 240.210938 C 141.273438 240.222656 138.410156 241.328125 134.546875 240.597656 C 134.53125 240.59375 134.511719 240.59375 134.492188 240.585938 C 130.121094 239.75 126.222656 236.960938 122.90625 232.316406 C 118.925781 226.757812 118.511719 220.175781 118.707031 216.25 C 119.289062 216.835938 119.914062 217.394531 120.5625 217.929688 C 124.839844 221.449219 129.582031 223.296875 133.515625 223.296875 C 136.265625 223.296875 138.625 222.394531 140.15625 220.535156 C 143.554688 216.402344 141.507812 209.128906 135.546875 203.351562 C 137.5 202.167969 139.621094 201.328125 141.867188 200.828125 C 142.851562 200.601562 143.890625 200.441406 144.960938 200.347656 C 145.675781 200.289062 146.378906 200.261719 147.054688 200.261719 C 149.316406 200.261719 151.324219 200.5625 152.867188 200.902344 C 149.757812 203.113281 147.128906 205.632812 147.515625 209.597656 C 147.8125 212.640625 149.402344 215.292969 151.996094 217.070312 C 152.789062 217.613281 153.65625 218.058594 154.566406 218.398438 C 151.210938 222.335938 150.410156 227.214844 150.308594 230.492188 C 150.25 232.539062 150.453125 233.957031 150.480469 234.113281 C 150.605469 234.90625 151.292969 235.476562 152.074219 235.476562 C 152.15625 235.476562 152.242188 235.46875 152.324219 235.460938 C 153.203125 235.324219 153.8125 234.5 153.675781 233.617188 C 153.671875 233.589844 153.542969 232.6875 153.542969 231.300781 C 153.546875 228.230469 154.207031 222.785156 158.304688 219.207031 C 159.113281 219.269531 159.9375 219.257812 160.769531 219.175781 C 167.027344 218.570312 173.832031 211.824219 174.121094 211.535156 C 174.75 210.90625 174.75 209.886719 174.121094 209.253906 C 173.488281 208.625 172.46875 208.625 171.832031 209.253906 C 171.773438 209.316406 165.554688 215.464844 160.457031 215.960938 C 159.558594 216.050781 158.664062 216.035156 157.808594 215.917969 C 156.339844 215.703125 154.972656 215.191406 153.820312 214.402344 C 152.554688 213.539062 150.984375 211.949219 150.730469 209.285156 C 150.460938 206.492188 152.871094 204.742188 156.828125 202.117188 L 157.515625 201.660156 C 158.105469 201.273438 158.691406 200.875 159.265625 200.460938 C 160.332031 199.714844 161.222656 199 162.003906 198.363281 C 162.316406 198.113281 162.613281 197.878906 162.902344 197.648438 C 162.949219 197.617188 163.003906 197.578125 163.046875 197.535156 C 164.429688 196.457031 165.523438 195.765625 167.046875 195.472656 C 170.394531 194.824219 173.449219 195.367188 175.640625 197.003906 C 177.3125 198.25 178.335938 200.042969 178.53125 202.050781 C 178.867188 205.5 175.929688 213.007812 173.738281 217.230469 C 172.945312 218.753906 172.429688 221.050781 171.839844 223.710938 C 170.839844 228.152344 169.601562 233.6875 166.714844 236.371094 C 166.097656 236.953125 165.3125 237.453125 164.394531 237.871094 C 164.210938 237.953125 164.03125 238.03125 163.835938 238.105469 C 162.011719 238.820312 159.9375 239.144531 158.0625 239.261719 C 154.976562 239.460938 152.417969 239.121094 152.382812 239.117188 C 151.496094 238.980469 150.679688 239.609375 150.5625 240.492188 C 150.4375 241.378906 151.050781 242.195312 151.9375 242.3125 C 152.074219 242.332031 153.746094 242.558594 156.066406 242.558594 C 156.707031 242.558594 157.398438 242.542969 158.117188 242.5 C 160.039062 242.382812 162.1875 242.074219 164.195312 241.410156 C 164.496094 241.796875 164.875 242.617188 165.023438 244.175781 C 165.082031 244.753906 165.253906 246.519531 162.289062 248.222656 C 161.410156 248.734375 160.339844 249.183594 159.089844 249.582031 C 156.695312 250.351562 153.628906 250.921875 149.921875 251.28125 M 116.746094 201.261719 C 118.296875 199.371094 121.867188 199.171875 125.847656 200.75 C 127.882812 201.550781 129.933594 202.78125 131.734375 204.257812 C 131.78125 204.3125 131.832031 204.359375 131.890625 204.410156 C 137.476562 209.046875 140.117188 215.492188 137.65625 218.476562 C 135.175781 221.496094 128.285156 220.101562 122.621094 215.4375 C 121.171875 214.242188 119.886719 212.910156 118.808594 211.476562 C 118.796875 211.464844 118.785156 211.449219 118.78125 211.4375 C 115.816406 207.464844 115 203.382812 116.746094 201.261719 M 122.195312 185.367188 C 122.050781 184.96875 121.875 184.507812 121.679688 184 C 120.542969 181.019531 118.824219 176.527344 117.957031 171.71875 C 117.136719 167.183594 116.796875 159.332031 123.816406 157.792969 C 126.21875 157.273438 128.167969 157.582031 129.769531 158.730469 C 133.894531 161.6875 134.761719 169.46875 135.140625 172.792969 C 135.175781 173.148438 135.214844 173.453125 135.246094 173.710938 C 135.878906 178.679688 137.519531 190.53125 139.527344 198.097656 C 137.207031 198.78125 135.019531 199.804688 132.992188 201.148438 C 131.296875 199.855469 129.472656 198.78125 127.636719 197.992188 C 126.78125 196.214844 124.03125 190.355469 122.195312 185.367188 M 144.570312 156.742188 C 145.777344 155.183594 147.554688 154.339844 150.003906 154.160156 C 157.152344 153.621094 159.074219 161.246094 159.582031 165.835938 C 160.125 170.714844 159.753906 175.53125 159.507812 178.722656 C 159.472656 179.242188 159.433594 179.710938 159.40625 180.128906 C 159.050781 185.5625 159.933594 193.011719 160.277344 195.613281 C 160.179688 195.6875 160.082031 195.765625 159.980469 195.847656 C 159.195312 196.480469 158.386719 197.132812 157.394531 197.832031 C 157.066406 198.066406 156.738281 198.292969 156.40625 198.511719 C 154.796875 197.96875 151.050781 196.921875 146.40625 197.039062 C 146.152344 189.265625 144.371094 177.578125 143.570312 172.664062 C 143.53125 172.40625 143.480469 172.101562 143.414062 171.746094 C 142.828125 168.453125 141.460938 160.742188 144.570312 156.742188 M 302.949219 161.246094 C 303.039062 161.214844 303.128906 161.183594 303.222656 161.15625 C 303.097656 161.332031 302.980469 161.503906 302.867188 161.675781 C 302.894531 161.539062 302.921875 161.394531 302.949219 161.246094 M 249.601562 138.199219 C 249.648438 138.429688 249.6875 138.667969 249.730469 138.902344 C 249.8125 139.402344 249.875 139.90625 249.925781 140.414062 C 250.027344 141.429688 250.066406 142.460938 250.042969 143.492188 C 250.066406 142.460938 250.027344 141.429688 249.925781 140.414062 C 249.875 139.90625 249.8125 139.402344 249.730469 138.902344 C 249.6875 138.667969 249.648438 138.429688 249.601562 138.199219 C 249.417969 137.675781 249.242188 137.183594 249.078125 136.707031 C 249.242188 137.183594 249.417969 137.675781 249.601562 138.199219 M 203.324219 198.882812 C 202.9375 198.414062 202.523438 197.96875 202.09375 197.539062 C 202.28125 197.367188 202.472656 197.191406 202.660156 197.023438 C 202.367188 196.277344 202.050781 195.542969 201.710938 194.824219 C 202.050781 195.542969 202.367188 196.277344 202.660156 197.023438 C 202.898438 197.636719 203.121094 198.253906 203.324219 198.882812 M 444.761719 223.042969 C 444.753906 223.039062 444.753906 223.039062 444.75 223.039062 C 444.609375 223.003906 444.46875 222.996094 444.328125 223 L 444.152344 223.011719 C 444.046875 223 443.9375 223 443.824219 223 C 443.296875 223 442.777344 223.03125 442.273438 223.101562 L 433.507812 223.539062 C 434.238281 221.378906 435.542969 219.347656 437.140625 216.871094 C 437.726562 215.964844 438.34375 215.003906 438.980469 213.960938 C 441.988281 209.054688 448.261719 198.851562 442.199219 194.394531 C 439.921875 192.71875 437.585938 192.101562 435.261719 192.550781 C 430.609375 193.457031 427.535156 198.4375 426.226562 200.5625 L 425.9375 201.035156 C 424.6875 202.984375 423.355469 205.679688 422.109375 208.484375 C 422.496094 207.191406 422.976562 205.921875 423.574219 204.761719 L 423.929688 204.074219 C 429.1875 193.828125 432.355469 187.640625 424.589844 183.648438 C 422.644531 182.648438 420.636719 182.5 418.621094 183.195312 C 413.546875 184.957031 409.75 191.933594 407.9375 195.933594 C 405.59375 201.113281 404.078125 207.421875 403.183594 212.136719 C 402.789062 211.402344 402.328125 210.628906 401.804688 209.855469 C 398.460938 204.988281 393.914062 202.410156 388.644531 202.410156 C 380.875 202.410156 375.53125 210.832031 373.863281 218.660156 C 372.84375 223.445312 373.242188 227.464844 374.886719 229.992188 C 372.351562 230.867188 371.214844 232.597656 370.710938 233.964844 C 368.75 239.230469 372.921875 247.03125 375.402344 250.425781 C 382.78125 260.507812 391.078125 261.761719 395.207031 261.660156 C 394.917969 263.355469 394.941406 265.660156 396.296875 267.832031 C 397.671875 270.027344 400.101562 271.574219 403.554688 272.476562 C 402.324219 276.394531 400.367188 279.996094 397.457031 281.300781 C 394.601562 282.582031 385.726562 283.628906 364.996094 265.675781 C 364.914062 265.605469 364.839844 265.542969 364.757812 265.484375 C 364.945312 264.828125 365.125 264.171875 365.289062 263.507812 C 365.402344 263.082031 365.503906 262.65625 365.609375 262.222656 C 365.832031 261.261719 366.03125 260.285156 366.203125 259.296875 C 366.21875 259.207031 366.234375 259.117188 366.25 259.023438 C 366.292969 258.796875 366.332031 258.578125 366.363281 258.351562 C 366.929688 254.96875 367.21875 251.5 367.21875 247.960938 C 367.21875 241.652344 366.273438 235.5625 364.550781 229.808594 C 364.511719 229.675781 364.472656 229.542969 364.433594 229.410156 C 364.214844 228.703125 363.988281 227.996094 363.75 227.300781 C 363.644531 227 363.535156 226.703125 363.429688 226.40625 C 363.222656 225.835938 363.019531 225.261719 362.792969 224.699219 C 362.449219 223.820312 362.085938 222.945312 361.703125 222.085938 C 361.585938 221.8125 361.460938 221.539062 361.332031 221.269531 C 361.210938 221.003906 361.085938 220.734375 360.953125 220.464844 C 360.953125 220.453125 360.945312 220.445312 360.941406 220.433594 C 360.722656 219.972656 360.496094 219.519531 360.257812 219.070312 C 360.027344 218.613281 359.785156 218.160156 359.542969 217.710938 C 356.511719 212.070312 352.65625 206.988281 348.164062 202.582031 C 348.5625 198.601562 348.601562 194.285156 348.277344 191.421875 C 347.355469 183.207031 343.433594 174.921875 337.230469 168.089844 C 330.910156 161.136719 322.886719 156.53125 314.570312 155.089844 C 313.210938 155.527344 311.882812 156.03125 310.585938 156.675781 C 311.882812 156.03125 313.210938 155.527344 314.570312 155.089844 C 317.167969 154.246094 319.878906 153.65625 322.683594 152.847656 L 322.742188 152.53125 C 318.203125 149.734375 313.316406 151.496094 309.269531 154.679688 C 308.570312 154.691406 307.878906 154.734375 307.183594 154.804688 C 306.96875 153.847656 306.722656 152.828125 306.429688 151.757812 C 308.324219 148.628906 310.824219 145.949219 313.238281 142.867188 C 313.238281 142.867188 313.097656 142.574219 313.097656 142.570312 C 309.441406 142.84375 306.917969 144.964844 305.242188 147.871094 C 303.914062 143.960938 302.046875 139.703125 299.417969 135.648438 C 293.167969 125.996094 284.644531 120.792969 274.769531 120.617188 C 274.582031 120.613281 274.394531 120.613281 274.207031 120.613281 C 264.734375 120.605469 256.171875 125.101562 250.605469 132.378906 C 250.382812 132.128906 250.136719 131.90625 249.859375 131.699219 C 249.292969 131.167969 248.511719 130.839844 247.746094 130.632812 L 247.523438 130.855469 C 247.8125 132.601562 248.175781 133.957031 248.613281 135.316406 C 248.132812 136.105469 247.695312 136.921875 247.285156 137.757812 C 246.957031 137.617188 246.628906 137.492188 246.304688 137.371094 C 245.605469 136.457031 244.804688 135.5625 243.6875 135.089844 C 242.242188 134.460938 240.578125 134.289062 239.074219 134.914062 L 239.027344 135.230469 C 239.414062 135.609375 239.789062 135.960938 240.148438 136.28125 C 241.613281 137.597656 242.929688 138.5 244.539062 139.617188 L 244.546875 139.617188 C 244.703125 139.730469 244.859375 139.835938 245.019531 139.949219 C 244.859375 139.835938 244.703125 139.730469 244.546875 139.617188 L 244.539062 139.617188 C 242.929688 138.5 241.613281 137.597656 240.148438 136.28125 C 239.632812 136.292969 239.113281 136.324219 238.601562 136.382812 C 226.804688 137.742188 221.28125 149.199219 220.359375 159.054688 C 219.3125 159.0625 218.296875 159.175781 217.347656 159.402344 C 211.304688 160.828125 206.261719 165.242188 202.765625 172.164062 C 200.90625 175.847656 199.46875 180.34375 198.652344 184.925781 C 196.691406 182.605469 194.085938 181.046875 190.726562 181.316406 L 190.625 181.628906 C 193.363281 184.292969 195.683594 186.304688 198.097656 188.964844 C 198.234375 189.121094 198.371094 189.277344 198.511719 189.429688 C 198.894531 189.953125 199.257812 190.484375 199.609375 191.03125 C 199.257812 190.484375 198.894531 189.953125 198.511719 189.429688 C 198.371094 189.277344 198.234375 189.121094 198.097656 188.964844 C 198.097656 188.980469 198.09375 188.992188 198.09375 189.007812 C 197.933594 190.710938 197.886719 192.390625 197.945312 194.042969 C 193.375 190.871094 187.15625 188.425781 182.449219 192.445312 L 182.554688 192.75 C 186.546875 193.328125 189.738281 193.601562 193.519531 194.4375 C 194.496094 194.753906 195.460938 195.117188 196.417969 195.53125 C 197.289062 195.90625 198.148438 196.320312 198.992188 196.777344 C 199.8125 197.21875 200.617188 197.691406 201.402344 198.199219 C 202.164062 198.683594 202.898438 199.203125 203.621094 199.746094 L 203.738281 199.632812 L 203.894531 199.613281 C 203.855469 198.484375 203.710938 197.367188 203.507812 196.257812 C 203.507812 196.257812 203.511719 196.257812 203.507812 196.25 C 203.265625 194.167969 203.226562 191.90625 203.453125 189.511719 C 204.300781 180.511719 208.542969 167.011719 218.582031 164.640625 C 219.167969 164.503906 219.785156 164.4375 220.429688 164.4375 C 222.164062 164.4375 224.058594 164.910156 225.847656 165.683594 C 225.761719 165.007812 225.707031 164.308594 225.660156 163.617188 C 225.070312 155.179688 229.035156 142.902344 239.214844 141.730469 C 239.59375 141.6875 239.972656 141.667969 240.351562 141.667969 C 243.460938 141.667969 246.714844 143.070312 249.363281 145.335938 C 249.0625 144.835938 248.746094 144.347656 248.410156 143.871094 C 248.746094 144.347656 249.0625 144.835938 249.363281 145.335938 C 249.535156 145.617188 249.695312 145.898438 249.859375 146.183594 L 250.007812 146.136719 L 250.164062 146.1875 C 251.070312 144.394531 251.6875 142.472656 251.980469 140.480469 C 252.101562 139.644531 252.167969 138.789062 252.171875 137.933594 C 252.183594 137.703125 252.191406 137.46875 252.1875 137.234375 C 252.191406 137.46875 252.183594 137.703125 252.171875 137.933594 C 252.167969 138.789062 252.101562 139.644531 251.980469 140.480469 C 255.871094 132.164062 263.988281 125.992188 274.207031 125.992188 C 274.355469 125.992188 274.519531 125.992188 274.671875 125.996094 C 291.558594 126.308594 299.933594 144.691406 302.421875 158.378906 C 302.328125 159.808594 302.328125 161.179688 302.410156 162.417969 L 302.570312 162.417969 L 302.699219 162.515625 C 303.335938 161.890625 303.996094 161.289062 304.671875 160.714844 C 305.070312 160.375 305.480469 160.042969 305.890625 159.722656 C 306.304688 159.402344 306.726562 159.09375 307.152344 158.800781 C 307.503906 158.53125 307.859375 158.277344 308.21875 158.039062 C 307.859375 158.277344 307.503906 158.53125 307.152344 158.800781 C 306.726562 159.09375 306.304688 159.402344 305.890625 159.722656 C 305.480469 160.042969 305.070312 160.375 304.671875 160.714844 C 306.335938 160.28125 308.074219 160.050781 309.863281 160.050781 C 310.933594 160.050781 312.023438 160.136719 313.113281 160.300781 C 328.644531 162.707031 341.324219 177.75 342.929688 192.023438 C 343.113281 193.671875 343.15625 195.84375 343.074219 198.097656 C 338.675781 194.617188 333.820312 191.722656 328.628906 189.511719 C 328.621094 189.523438 328.617188 189.527344 328.613281 189.539062 C 328.46875 189.867188 328.316406 190.195312 328.15625 190.519531 C 328 190.828125 327.84375 191.132812 327.671875 191.4375 C 327.671875 191.449219 327.667969 191.457031 327.660156 191.464844 C 327.585938 191.605469 327.511719 191.746094 327.429688 191.886719 C 327.15625 192.367188 326.867188 192.847656 326.5625 193.324219 C 326.5625 193.328125 326.554688 193.328125 326.554688 193.328125 C 326.554688 193.335938 326.554688 193.339844 326.550781 193.34375 C 328.519531 194.171875 330.433594 195.109375 332.296875 196.136719 C 332.625 196.320312 332.953125 196.5 333.277344 196.6875 C 335.171875 197.78125 337.007812 198.976562 338.773438 200.273438 C 339.382812 200.722656 339.984375 201.183594 340.578125 201.660156 C 341.285156 202.21875 341.980469 202.792969 342.660156 203.386719 C 343.480469 204.101562 344.28125 204.839844 345.0625 205.605469 C 345.113281 205.65625 345.167969 205.703125 345.21875 205.75 C 345.5 206.03125 345.785156 206.316406 346.066406 206.605469 L 346.070312 206.605469 C 346.613281 207.164062 347.144531 207.726562 347.664062 208.300781 C 347.855469 208.511719 348.042969 208.726562 348.222656 208.933594 L 348.230469 208.941406 C 348.453125 209.195312 348.667969 209.453125 348.890625 209.710938 C 349.316406 210.214844 349.734375 210.71875 350.144531 211.238281 C 350.371094 211.523438 350.597656 211.8125 350.816406 212.105469 C 350.890625 212.199219 350.960938 212.296875 351.035156 212.394531 C 351.460938 212.960938 351.878906 213.535156 352.285156 214.117188 C 352.511719 214.433594 352.730469 214.757812 352.945312 215.078125 C 353.46875 215.859375 353.960938 216.660156 354.449219 217.46875 C 354.703125 217.890625 354.953125 218.324219 355.199219 218.757812 C 355.417969 219.148438 355.636719 219.542969 355.847656 219.941406 C 358.054688 224.054688 359.8125 228.488281 361.023438 233.199219 C 361.03125 233.226562 361.039062 233.253906 361.046875 233.285156 C 360.613281 233.210938 360.183594 233.132812 359.75 233.0625 C 345.578125 230.636719 330.699219 229.359375 315.53125 229.359375 C 315.234375 229.359375 314.933594 229.359375 314.640625 229.363281 C 303.019531 229.394531 291.21875 230.191406 279.421875 231.796875 C 274.398438 232.476562 269.484375 233.296875 264.699219 234.242188 C 257.953125 235.566406 251.449219 237.140625 245.214844 238.9375 C 245.246094 238.738281 245.269531 238.539062 245.300781 238.339844 C 245.582031 236.640625 245.933594 234.964844 246.359375 233.308594 C 246.46875 232.878906 246.582031 232.453125 246.703125 232.03125 C 248.703125 224.890625 252.015625 218.207031 256.441406 212.324219 C 256.5 212.246094 256.558594 212.171875 256.613281 212.09375 C 257.441406 211.003906 258.304688 209.945312 259.207031 208.914062 C 259.324219 208.78125 259.445312 208.652344 259.566406 208.515625 C 259.566406 208.511719 259.5625 208.511719 259.5625 208.511719 C 259.1875 208.125 258.832031 207.722656 258.503906 207.304688 C 258.386719 207.164062 258.277344 207.019531 258.175781 206.875 C 258.15625 206.851562 258.140625 206.832031 258.128906 206.808594 C 257.914062 206.523438 257.707031 206.234375 257.519531 205.933594 C 257.328125 205.632812 257.144531 205.320312 256.972656 205 C 256.957031 204.976562 256.941406 204.949219 256.9375 204.925781 C 250.304688 212.125 245.351562 220.875 242.613281 230.59375 C 242.515625 230.933594 242.417969 231.269531 242.332031 231.609375 C 242.265625 231.863281 242.199219 232.113281 242.136719 232.367188 C 241.9375 233.140625 241.753906 233.921875 241.59375 234.707031 C 241.507812 235.078125 241.433594 235.453125 241.363281 235.828125 C 241.355469 235.867188 241.351562 235.910156 241.339844 235.949219 C 241.195312 236.722656 241.0625 237.503906 240.9375 238.289062 C 240.933594 238.3125 240.9375 238.335938 240.933594 238.363281 C 240.453125 241.492188 240.195312 244.695312 240.195312 247.960938 C 240.195312 282.980469 268.691406 311.46875 303.710938 311.46875 C 318.222656 311.46875 331.613281 306.578125 342.316406 298.351562 C 339.996094 301.875 336.957031 305.777344 332.972656 309.949219 C 325.5625 317.703125 313.613281 324.597656 299.285156 328.5625 C 292.785156 330.363281 285.800781 331.558594 278.523438 331.953125 C 276.761719 332.054688 274.980469 332.101562 273.1875 332.101562 C 271.859375 332.101562 270.523438 332.074219 269.179688 332.015625 C 262.46875 331.742188 255.59375 330.757812 248.703125 328.921875 C 239.480469 326.472656 230.230469 322.503906 221.296875 316.679688 C 205.089844 316.554688 189.382812 295.046875 192.796875 280.875 C 197.972656 280.171875 201.488281 279.167969 201.691406 279.109375 C 205.96875 277.875 208.425781 273.410156 207.203125 269.128906 C 205.976562 264.851562 201.511719 262.375 197.222656 263.589844 C 195.296875 264.136719 192.09375 264.796875 188.335938 265.140625 C 182.140625 249.753906 176.597656 221.914062 201.402344 198.199219 C 200.617188 197.691406 199.8125 197.21875 198.992188 196.777344 C 198.148438 196.320312 197.289062 195.90625 196.417969 195.53125 C 171.539062 220.410156 176.753906 249.152344 182.3125 264.464844 C 182.421875 264.777344 182.535156 265.085938 182.65625 265.386719 C 176.683594 265.328125 170.296875 264.183594 165.738281 260.65625 C 163.21875 258.707031 161.320312 256.039062 160.039062 252.664062 C 161.53125 252.191406 162.820312 251.644531 163.902344 251.027344 C 167.84375 248.761719 168.441406 245.878906 168.242188 243.863281 C 168.074219 242.140625 167.664062 240.921875 167.179688 240.050781 C 167.820312 239.652344 168.402344 239.214844 168.917969 238.734375 C 172.53125 235.367188 173.894531 229.292969 174.992188 224.414062 C 175.511719 222.078125 176.003906 219.875 176.609375 218.71875 C 178.582031 214.90625 182.203125 206.449219 181.746094 201.738281 C 181.460938 198.8125 179.980469 196.207031 177.574219 194.414062 C 174.640625 192.222656 170.683594 191.472656 166.425781 192.296875 C 165.222656 192.535156 164.21875 192.933594 163.269531 193.472656 C 162.890625 190.214844 162.355469 184.539062 162.628906 180.339844 C 162.65625 179.9375 162.691406 179.480469 162.730469 178.976562 C 162.972656 175.867188 163.371094 170.664062 162.792969 165.480469 C 161.714844 155.707031 156.957031 150.410156 149.761719 150.9375 C 146.398438 151.183594 143.789062 152.472656 142.019531 154.761719 C 138.023438 159.902344 139.574219 168.597656 140.234375 172.316406 C 140.292969 172.648438 140.34375 172.9375 140.386719 173.179688 C 141.175781 178.066406 142.960938 189.746094 143.183594 197.308594 C 143.011719 197.332031 142.839844 197.351562 142.671875 197.382812 C 140.707031 190.03125 139.082031 178.226562 138.445312 173.296875 C 138.417969 173.058594 138.386719 172.765625 138.351562 172.433594 C 137.925781 168.683594 136.941406 159.902344 131.648438 156.101562 C 129.296875 154.417969 126.429688 153.921875 123.128906 154.640625 C 116.171875 156.164062 113.050781 162.761719 114.78125 172.292969 C 115.699219 177.394531 117.550781 182.25 118.664062 185.15625 C 118.851562 185.652344 119.023438 186.097656 119.167969 186.488281 C 120.492188 190.085938 122.234375 194.027344 123.464844 196.714844 C 119.546875 195.992188 116.183594 196.863281 114.253906 199.210938 C 113.152344 200.546875 112.617188 202.234375 112.617188 204.113281 C 112.617188 206.496094 113.480469 209.1875 115.800781 212.835938 C 115.34375 215.621094 114.226562 225.75 120.277344 234.199219 C 123.464844 238.65625 127.179688 241.636719 131.347656 243.078125 C 130.757812 244.109375 130.335938 245.601562 130.542969 247.703125 C 130.734375 249.667969 131.863281 252.3125 136.167969 253.746094 C 138.15625 254.410156 140.691406 254.757812 143.730469 254.796875 C 145.886719 262.632812 149.953125 268.878906 155.910156 273.46875 C 162.792969 278.78125 172.148438 281.550781 183.09375 281.550781 C 184.035156 281.550781 184.984375 281.535156 185.945312 281.492188 C 186.382812 281.472656 186.8125 281.449219 187.234375 281.429688 C 186.296875 287.625 187.84375 294.8125 191.785156 301.835938 C 198.304688 313.433594 209.074219 321.179688 219.613281 321.996094 C 229.914062 328.5 241.210938 333.035156 253.015625 335.449219 C 256.070312 341.238281 258.601562 349.710938 252.777344 356.632812 C 248.65625 361.535156 243.25 363.152344 236.253906 361.570312 C 236.222656 361.5625 236.195312 361.550781 236.164062 361.546875 C 235.078125 353.933594 230.835938 347.601562 225.175781 345.425781 C 224.421875 343.519531 219.488281 332.425781 206.335938 332.425781 C 201.574219 332.425781 197.546875 333.308594 194.078125 335.128906 C 191.648438 332.375 188.996094 331.292969 186.1875 331.902344 C 174.671875 334.417969 167.273438 365.238281 167.210938 365.542969 C 166.425781 369.144531 166.882812 371.902344 168.558594 373.742188 C 169.746094 375.046875 171.296875 375.578125 172.554688 375.789062 C 171.554688 380.449219 169.851562 392.796875 174.980469 408.832031 C 181.398438 428.925781 198.023438 441.40625 218.367188 441.40625 C 225.78125 441.40625 231.390625 439.480469 235.03125 435.671875 C 238.5625 431.972656 239.121094 427.613281 239.199219 425.9375 C 242.359375 422.359375 244.019531 417.84375 244.019531 412.839844 C 244.019531 396.75 235.28125 388.078125 226.984375 383.46875 C 229.542969 381.949219 231.636719 379.90625 233.195312 377.4375 C 235.910156 378.015625 238.5625 378.300781 241.136719 378.300781 C 250.578125 378.300781 258.90625 374.441406 265.140625 367.03125 C 273.121094 357.546875 273.574219 346.800781 271.039062 337.460938 C 271.75 337.484375 272.464844 337.488281 273.1875 337.488281 C 277.054688 337.488281 280.925781 337.261719 284.757812 336.828125 C 298.960938 350.238281 299.140625 369.28125 298.78125 375.449219 C 289.5 386.003906 292.222656 393.070312 293.019531 394.621094 C 288.792969 398.710938 284.078125 405.835938 288.46875 415.074219 C 288.710938 415.582031 289.183594 415.90625 289.699219 415.980469 C 288.59375 419.277344 288.621094 422.707031 289.78125 426.214844 C 290.558594 428.554688 291.566406 431.257812 293.605469 433.621094 C 293.609375 433.632812 293.621094 433.648438 293.636719 433.660156 C 293.636719 433.667969 293.648438 433.675781 293.652344 433.683594 C 293.664062 433.695312 293.667969 433.707031 293.679688 433.71875 C 293.734375 433.792969 293.785156 433.863281 293.851562 433.921875 C 297.605469 438.078125 303.703125 440.011719 313.027344 440.011719 C 330.195312 440.011719 337.945312 431.269531 338.269531 430.898438 C 338.285156 430.875 338.300781 430.859375 338.3125 430.839844 C 338.355469 430.789062 338.386719 430.742188 338.417969 430.6875 C 338.484375 430.582031 338.535156 430.46875 338.578125 430.351562 L 341.398438 423.300781 C 359.085938 421.757812 373.707031 416.28125 383.722656 407.425781 C 392.828125 399.371094 397.984375 388.570312 398.230469 377.011719 C 398.296875 374.355469 398.125 371.753906 397.722656 369.269531 C 397.710938 369.183594 397.695312 369.097656 397.671875 369.011719 C 397.671875 369 397.667969 368.992188 397.664062 368.972656 C 397.664062 368.96875 397.65625 368.957031 397.65625 368.949219 C 396.828125 363.980469 395.042969 359.472656 392.363281 355.554688 C 392.363281 355.546875 392.355469 355.546875 392.355469 355.542969 C 386.777344 347.351562 377.28125 342.039062 366.304688 340.953125 C 359.394531 340.269531 342.011719 340.988281 329.648438 362.292969 L 329.632812 362.324219 L 329.546875 362.46875 L 329.523438 362.503906 C 329.507812 362.535156 329.488281 362.574219 329.460938 362.617188 C 328.320312 364.53125 326.984375 366.507812 325.460938 368.496094 C 323.648438 367.347656 319.734375 365.371094 314.660156 365.847656 C 314.292969 361.800781 313.546875 357.132812 312.128906 352.230469 C 310.429688 346.324219 307.605469 339.578125 302.933594 333.105469 C 316.59375 329.003906 328.6875 322.230469 336.867188 313.671875 C 347.585938 302.453125 352.015625 292.914062 353.847656 286.894531 C 355.34375 284.976562 356.726562 282.976562 357.992188 280.894531 C 372.066406 292.425781 384 298.128906 394.109375 298.128906 C 397.671875 298.128906 401.015625 297.421875 404.140625 296.007812 C 414.292969 291.410156 418.503906 280.769531 420.246094 272.550781 C 423.800781 271.671875 426.269531 270.109375 427.621094 267.867188 C 429.234375 265.210938 428.804688 262.347656 428.289062 260.625 C 431.074219 259.160156 433.074219 257.003906 434.246094 254.207031 C 435.433594 251.367188 435.710938 248.121094 435.539062 244.824219 L 440.34375 245.527344 C 440.425781 245.539062 440.5 245.542969 440.582031 245.542969 C 440.886719 245.542969 441.179688 245.457031 441.425781 245.300781 C 442.199219 245.464844 443.003906 245.542969 443.824219 245.542969 C 450.246094 245.542969 455.472656 240.484375 455.472656 234.273438 C 455.472656 228.359375 450.746094 223.5 444.761719 223.042969 "/>
<path style=" stroke:none;fill-rule:nonzero;fill:rgb(15.686035%,52.549744%,39.215088%);fill-opacity:1;" d="M 463.039062 147.1875 C 469.949219 148.121094 478.222656 153.777344 476.945312 161.195312 C 475.558594 166.246094 469.054688 170.3125 464.46875 173.246094 C 456.683594 178.132812 454.722656 187.316406 458.242188 195.472656 C 464.082031 207.234375 464.667969 214.113281 452.519531 221.585938 C 462.96875 220.910156 469.949219 212.800781 468.136719 202.273438 C 467.683594 198.898438 466.378906 195.90625 465.140625 192.847656 C 462.804688 186.660156 464.179688 181.898438 469.871094 178.464844 C 475.511719 174.429688 481.5625 169.527344 482.609375 162.074219 C 483.515625 151.917969 472.074219 144.976562 463.039062 147.1875 "/>
<path style=" stroke:none;fill-rule:nonzero;fill:rgb(15.686035%,52.549744%,39.215088%);fill-opacity:1;" d="M 192.371094 243.585938 C 191.597656 243.605469 190.8125 243.921875 190.125 244.308594 L 190.121094 244.632812 C 192.53125 246.367188 194.308594 247.167969 196.765625 248.375 C 198.640625 249.636719 200.371094 251.214844 201.851562 252.972656 C 199.757812 251.613281 197.414062 250.679688 194.910156 250.269531 C 192.722656 249.78125 190.113281 249.847656 188.382812 251.554688 C 187.765625 252.019531 187.316406 252.742188 186.988281 253.460938 L 187.175781 253.722656 C 190.144531 253.710938 192.050781 253.316406 194.753906 252.847656 C 197.351562 252.757812 200.042969 253.117188 202.582031 253.855469 L 202.65625 253.710938 L 202.804688 253.640625 C 201.921875 250.925781 200.445312 248.433594 198.40625 246.375 C 196.921875 244.703125 194.773438 243.21875 192.371094 243.585938 "/>
<path style=" stroke:none;fill-rule:nonzero;fill:rgb(15.686035%,52.549744%,39.215088%);fill-opacity:1;" d="M 212.78125 285.398438 C 210.777344 283.894531 208.121094 282.738281 205.554688 283.539062 C 204.703125 283.6875 203.898438 284.167969 203.199219 284.683594 L 203.261719 285 C 206.316406 286.21875 208.59375 286.746094 211.535156 287.664062 C 213.957031 288.746094 216.265625 290.253906 218.308594 292.023438 C 215.621094 290.9375 212.734375 290.398438 209.796875 290.488281 C 207.292969 290.445312 204.464844 291.074219 202.847656 293.226562 C 202.25 293.84375 201.878906 294.710938 201.617188 295.535156 L 201.851562 295.757812 C 205.039062 294.949219 207.191406 294.039062 210.117188 293.050781 C 213.011719 292.441406 216.101562 292.339844 219.082031 292.699219 L 219.128906 292.550781 L 219.261719 292.453125 C 217.667969 289.65625 215.476562 287.226562 212.78125 285.398438 "/>
<path style=" stroke:none;fill-rule:nonzero;fill:rgb(15.686035%,52.549744%,39.215088%);fill-opacity:1;" d="M 234.058594 219.648438 C 236.652344 219.835938 239.292969 220.488281 241.742188 221.492188 L 241.835938 221.363281 L 241.984375 221.304688 C 241.398438 218.503906 240.191406 215.863281 238.382812 213.597656 C 237.082031 211.769531 235.101562 210.066406 232.667969 210.175781 C 231.894531 210.109375 231.078125 210.34375 230.347656 210.652344 L 230.316406 210.976562 C 232.527344 212.957031 234.21875 213.945312 236.539062 215.414062 C 238.269531 216.863281 239.820312 218.613281 241.109375 220.523438 C 239.164062 218.957031 236.925781 217.78125 234.480469 217.105469 C 232.355469 216.390625 229.757812 216.167969 227.84375 217.6875 C 227.183594 218.085938 226.660156 218.757812 226.253906 219.433594 L 226.417969 219.71875 C 229.371094 220.019531 231.3125 219.828125 234.058594 219.648438 "/>
<path style=" stroke:none;fill-rule:nonzero;fill:rgb(15.686035%,52.549744%,39.215088%);fill-opacity:1;" d="M 249.175781 176.089844 L 249.332031 176.042969 L 249.480469 176.089844 C 250.769531 173.546875 251.480469 170.738281 251.484375 167.835938 C 251.613281 165.601562 251.136719 163.042969 249.171875 161.601562 C 248.613281 161.070312 247.828125 160.742188 247.066406 160.53125 L 246.839844 160.765625 C 247.324219 163.691406 248.019531 165.511719 248.917969 168.101562 C 249.351562 170.3125 249.46875 172.644531 249.28125 174.9375 C 248.75 172.5 247.742188 170.183594 246.257812 168.132812 C 245.394531 166.960938 244.472656 165.613281 243.003906 164.996094 C 241.558594 164.363281 239.894531 164.191406 238.390625 164.8125 L 238.34375 165.136719 C 240.453125 167.21875 242.085938 168.28125 244.332031 169.855469 C 246.238281 171.625 247.890625 173.777344 249.175781 176.089844 "/>
</g>
</svg>
