<?xml version="1.0" encoding="UTF-8"?>
<svg xmlns="http://www.w3.org/2000/svg" xmlns:xlink="http://www.w3.org/1999/xlink" width="408.417pt" height="406.771pt" viewBox="0 0 408.417 406.771" version="1.1">
<g id="surface1">
<path style=" stroke:none;fill-rule:nonzero;fill:rgb(15.686035%,52.549744%,39.215088%);fill-opacity:1;" d="M 237.617188 185.457031 C 236.425781 201.742188 223.535156 214.832031 207.335938 216.335938 C 208.523438 200.046875 221.417969 186.957031 237.617188 185.457031 M 204.21875 147.914062 C 178.027344 131.527344 120.21875 123.90625 117.921875 167.058594 L 117.921875 218.796875 C 116.683594 258.53125 166.03125 283.175781 196.992188 258.972656 C 193.386719 254.890625 190.347656 250.320312 187.996094 245.375 C 167.304688 262.328125 133.359375 245.851562 134.21875 218.796875 C 134.21875 218.796875 134.21875 167.058594 134.21875 167.058594 C 139.636719 137.058594 188.3125 155.03125 204.21875 167.421875 C 220.179688 155.019531 268.769531 137.0625 274.21875 167.058594 L 274.21875 218.796875 C 275.332031 254.257812 223.078125 264.660156 210.128906 232.335938 C 237.347656 228.972656 257.898438 202.746094 253.386719 175.34375 C 251.746094 166.640625 239.65625 169.136719 233.519531 169.621094 C 209.464844 173.523438 191.050781 194.40625 190.945312 218.796875 C 190.925781 223.058594 191.671875 227.5625 192.65625 231.726562 L 192.710938 231.734375 C 206.761719 286.691406 290.988281 276.195312 290.515625 218.796875 C 290.515625 218.796875 290.515625 167.058594 290.519531 167.058594 C 288.238281 123.90625 230.382812 131.523438 204.21875 147.914062 "/>
<path style=" stroke:none;fill-rule:nonzero;fill:rgb(15.686035%,52.549744%,39.215088%);fill-opacity:1;" d="M 197.230469 178.828125 C 188.957031 172.699219 178.769531 169.011719 167.707031 169.011719 C 162.90625 169.023438 155.789062 169.070312 155.050781 175.347656 C 151.425781 197.070312 163.53125 218.636719 182.328125 227.644531 C 182 225.472656 181.757812 223.269531 181.675781 221.027344 C 181.476562 216.796875 181.828125 212.515625 182.546875 208.449219 C 175.921875 202.804688 171.496094 194.652344 170.820312 185.457031 C 177.234375 186.050781 183.121094 188.476562 187.972656 192.1875 C 190.445312 187.308594 193.5625 182.8125 197.230469 178.828125 "/>
</g>
</svg>
