<?xml version="1.0" encoding="UTF-8"?>
<svg xmlns="http://www.w3.org/2000/svg" xmlns:xlink="http://www.w3.org/1999/xlink" width="408.417pt" height="406.771pt" viewBox="0 0 408.417 406.771" version="1.1">
<g id="surface1">
<path style=" stroke:none;fill-rule:nonzero;fill:rgb(13.725281%,12.156677%,12.548828%);fill-opacity:1;" d="M 192.425781 200.109375 C 192.425781 196.175781 190.164062 194.019531 186.660156 194.019531 C 183.15625 194.019531 180.894531 196.175781 180.894531 200.109375 L 180.894531 216.4375 L 171.734375 216.4375 L 171.734375 200.109375 C 171.734375 196.175781 169.46875 194.019531 165.96875 194.019531 C 162.464844 194.019531 160.203125 196.175781 160.203125 200.109375 L 160.203125 216.4375 L 150.988281 216.4375 L 150.988281 186.367188 L 160.203125 186.367188 L 160.203125 190.140625 C 161.980469 187.714844 165.050781 186.042969 168.984375 186.042969 C 173.511719 186.042969 177.175781 188.039062 179.222656 191.648438 C 181.21875 188.46875 184.988281 186.042969 189.355469 186.042969 C 196.789062 186.042969 201.585938 190.785156 201.585938 198.871094 L 201.585938 216.4375 L 192.425781 216.4375 Z M 192.425781 200.109375 "/>
<path style=" stroke:none;fill-rule:nonzero;fill:rgb(13.725281%,12.156677%,12.548828%);fill-opacity:1;" d="M 224.484375 186.367188 L 234.453125 186.367188 L 217.199219 226.941406 L 207.378906 226.941406 L 212.578125 215.410156 L 200.34375 186.367188 L 210.636719 186.367188 L 217.585938 205.175781 Z M 224.484375 186.367188 "/>
<path style=" stroke:none;fill-rule:nonzero;fill:rgb(13.725281%,12.156677%,12.548828%);fill-opacity:1;" d="M 252.449219 193.964844 C 249 193.964844 245.875 196.605469 245.875 201.402344 C 245.875 206.195312 249 208.839844 252.449219 208.839844 C 255.949219 208.839844 259.078125 206.144531 259.078125 201.347656 C 259.078125 196.550781 255.949219 193.964844 252.449219 193.964844 M 255.195312 185.9375 C 262.632812 185.9375 268.453125 191.863281 268.453125 201.347656 C 268.453125 210.832031 262.578125 216.867188 255.195312 216.867188 C 250.777344 216.867188 247.597656 214.871094 245.929688 212.234375 L 245.929688 216.4375 L 236.714844 216.4375 L 236.714844 176.5625 L 245.929688 176.5625 L 245.929688 190.625 C 247.597656 187.929688 250.886719 185.9375 255.195312 185.9375 "/>
<path style=" stroke:none;fill-rule:nonzero;fill:rgb(13.725281%,12.156677%,12.548828%);fill-opacity:1;" d="M 300.835938 216.433594 L 291.621094 216.433594 L 291.621094 212.339844 C 289.789062 214.925781 286.554688 216.757812 282.515625 216.757812 C 275.5625 216.757812 270.875 211.964844 270.875 203.933594 L 270.875 186.367188 L 280.035156 186.367188 L 280.035156 202.695312 C 280.035156 206.789062 282.351562 209.054688 285.800781 209.054688 C 289.359375 209.054688 291.621094 206.789062 291.621094 202.695312 L 291.621094 186.367188 L 300.835938 186.367188 Z M 300.835938 216.433594 "/>
<path style=" stroke:none;fill-rule:nonzero;fill:rgb(13.725281%,12.156677%,12.548828%);fill-opacity:1;" d="M 319.421875 193.964844 C 315.972656 193.964844 312.847656 196.550781 312.847656 201.347656 C 312.847656 206.144531 315.972656 208.839844 319.421875 208.839844 C 322.925781 208.839844 325.996094 206.195312 325.996094 201.402344 C 325.996094 196.605469 322.925781 193.964844 319.421875 193.964844 M 316.730469 185.9375 C 320.714844 185.9375 324.164062 187.769531 325.996094 190.515625 L 325.996094 176.5625 L 335.210938 176.5625 L 335.210938 216.4375 L 325.996094 216.4375 L 325.996094 212.125 C 324.328125 214.871094 321.148438 216.867188 316.730469 216.867188 C 309.347656 216.867188 303.472656 210.832031 303.472656 201.347656 C 303.472656 191.863281 309.347656 185.9375 316.730469 185.9375 "/>
<path style=" stroke:none;fill-rule:nonzero;fill:rgb(13.725281%,12.156677%,12.548828%);fill-opacity:1;" d="M 120.101562 195.339844 C 119.632812 201.746094 114.5625 206.898438 108.191406 207.488281 C 108.660156 201.082031 113.730469 195.933594 120.101562 195.339844 M 106.964844 180.574219 C 96.664062 174.128906 73.921875 171.128906 73.019531 188.105469 L 73.019531 208.457031 C 72.53125 224.085938 91.945312 233.78125 104.121094 224.261719 C 102.703125 222.65625 101.507812 220.855469 100.585938 218.914062 C 92.445312 225.582031 79.09375 219.097656 79.429688 208.457031 C 79.429688 208.457031 79.429688 188.105469 79.429688 188.105469 C 81.5625 176.304688 100.707031 183.375 106.964844 188.246094 C 113.242188 183.371094 132.355469 176.304688 134.5 188.105469 L 134.5 208.457031 C 134.9375 222.40625 114.382812 226.496094 109.289062 213.78125 C 119.996094 212.460938 128.082031 202.140625 126.304688 191.363281 C 125.660156 187.941406 120.90625 188.921875 118.488281 189.113281 C 109.027344 190.648438 101.785156 198.863281 101.742188 208.457031 C 101.734375 210.132812 102.027344 211.90625 102.417969 213.542969 L 102.4375 213.546875 C 107.964844 235.164062 141.097656 231.035156 140.910156 208.457031 C 140.910156 208.457031 140.910156 188.105469 140.910156 188.105469 C 140.015625 171.128906 117.257812 174.125 106.964844 180.574219 "/>
<path style=" stroke:none;fill-rule:nonzero;fill:rgb(13.725281%,12.156677%,12.548828%);fill-opacity:1;" d="M 104.214844 192.734375 C 100.960938 190.324219 96.953125 188.875 92.601562 188.875 C 90.714844 188.878906 87.914062 188.898438 87.625 191.367188 C 86.199219 199.910156 90.960938 208.394531 98.355469 211.9375 C 98.226562 211.082031 98.128906 210.21875 98.097656 209.335938 C 98.019531 207.671875 98.15625 205.984375 98.4375 204.386719 C 95.832031 202.164062 94.09375 198.960938 93.828125 195.339844 C 96.351562 195.574219 98.664062 196.53125 100.574219 197.988281 C 101.546875 196.070312 102.773438 194.300781 104.214844 192.734375 "/>
</g>
</svg>
