<?xml version="1.0" encoding="UTF-8"?>
<svg xmlns="http://www.w3.org/2000/svg" xmlns:xlink="http://www.w3.org/1999/xlink" width="349.643pt" height="341.112pt" viewBox="0 0 349.643 341.112" version="1.1">
<g id="surface1">
<path style=" stroke:none;fill-rule:nonzero;fill:rgb(83.529663%,75.294495%,99.215698%);fill-opacity:1;" d="M 250.886719 93.296875 C 247.980469 81.675781 236.371094 74.425781 224.675781 77.019531 C 205.136719 81.359375 187.859375 91.679688 174.820312 105.941406 C 161.785156 91.679688 144.503906 81.359375 124.96875 77.019531 C 113.269531 74.425781 101.660156 81.675781 98.757812 93.296875 C 94.402344 110.738281 91.5 138.847656 91.5 170.554688 C 91.5 202.265625 94.402344 230.375 98.757812 247.8125 C 101.660156 259.4375 113.269531 266.6875 124.96875 264.089844 C 144.503906 259.753906 161.785156 249.433594 174.820312 235.171875 C 187.859375 249.433594 205.136719 259.753906 224.675781 264.089844 C 236.371094 266.6875 247.980469 259.4375 250.886719 247.8125 C 255.242188 230.375 258.144531 202.265625 258.144531 170.554688 C 258.144531 138.847656 255.242188 110.738281 250.886719 93.296875 "/>
</g>
</svg>
