<?xml version="1.0" encoding="UTF-8"?>
<svg xmlns="http://www.w3.org/2000/svg" xmlns:xlink="http://www.w3.org/1999/xlink" width="349.643pt" height="341.112pt" viewBox="0 0 349.643 341.112" version="1.1">
<g id="surface1">
<path style=" stroke:none;fill-rule:nonzero;fill:rgb(83.529663%,75.294495%,99.215698%);fill-opacity:1;" d="M 239.4375 170.554688 C 253.699219 157.519531 264.015625 140.238281 268.355469 120.699219 C 270.953125 109.007812 263.703125 97.394531 252.078125 94.492188 C 234.640625 90.136719 206.53125 87.234375 174.820312 87.234375 C 143.113281 87.234375 115.003906 90.136719 97.5625 94.492188 C 85.941406 97.394531 78.691406 109.007812 81.285156 120.699219 C 85.625 140.238281 95.945312 157.519531 110.203125 170.554688 C 95.945312 183.59375 85.625 200.871094 81.285156 220.410156 C 78.691406 232.105469 85.941406 243.714844 97.5625 246.617188 C 115.003906 250.976562 143.113281 253.878906 174.820312 253.878906 C 206.53125 253.878906 234.640625 250.976562 252.078125 246.617188 C 263.703125 243.714844 270.953125 232.105469 268.355469 220.410156 C 264.015625 200.871094 253.699219 183.59375 239.4375 170.554688 "/>
</g>
</svg>
