<svg xmlns="http://www.w3.org/2000/svg" xmlns:xlink="http://www.w3.org/1999/xlink" width="900" zoomAndPan="magnify" viewBox="0 0 675 225" height="300" preserveAspectRatio="xMidYMid meet" version="1.0"><path fill="#288664" d="M 311.617188 102.03125 C 311.617188 93.703125 306.828125 89.136719 299.410156 89.136719 C 291.992188 89.136719 287.203125 93.703125 287.203125 102.03125 L 287.203125 136.609375 L 267.808594 136.609375 L 267.808594 102.03125 C 267.808594 93.703125 263.011719 89.136719 255.601562 89.136719 C 248.183594 89.136719 243.394531 93.703125 243.394531 102.03125 L 243.394531 136.609375 L 223.882812 136.609375 L 223.882812 72.929688 L 243.394531 72.929688 L 243.394531 80.921875 C 247.15625 75.785156 253.65625 72.246094 261.984375 72.246094 C 271.570312 72.246094 279.328125 76.472656 283.664062 84.117188 C 287.890625 77.382812 295.871094 72.246094 305.117188 72.246094 C 320.855469 72.246094 331.011719 82.289062 331.011719 99.410156 L 331.011719 136.609375 L 311.617188 136.609375 Z M 311.617188 102.03125 " fill-opacity="1" fill-rule="nonzero"/><path fill="#288664" d="M 379.496094 72.929688 L 400.605469 72.929688 L 364.070312 158.855469 L 343.277344 158.855469 L 354.289062 134.4375 L 328.382812 72.929688 L 350.175781 72.929688 L 364.890625 112.761719 Z M 379.496094 72.929688 " fill-opacity="1" fill-rule="nonzero"/><path fill="#288664" d="M 438.707031 89.019531 C 431.40625 89.019531 424.789062 94.613281 424.789062 104.769531 C 424.789062 114.921875 431.40625 120.523438 438.707031 120.523438 C 446.117188 120.523438 452.742188 114.8125 452.742188 104.65625 C 452.742188 94.496094 446.117188 89.019531 438.707031 89.019531 M 444.523438 72.019531 C 460.269531 72.019531 472.59375 84.570312 472.59375 104.65625 C 472.59375 124.742188 460.152344 137.519531 444.523438 137.519531 C 435.167969 137.519531 428.433594 133.292969 424.902344 127.710938 L 424.902344 136.609375 L 405.394531 136.609375 L 405.394531 52.167969 L 424.902344 52.167969 L 424.902344 81.949219 C 428.433594 76.242188 435.398438 72.019531 444.523438 72.019531 " fill-opacity="1" fill-rule="nonzero"/><path fill="#288664" d="M 541.15625 136.601562 L 521.648438 136.601562 L 521.648438 127.933594 C 517.769531 133.410156 510.917969 137.289062 502.367188 137.289062 C 487.644531 137.289062 477.722656 127.140625 477.722656 110.132812 L 477.722656 72.929688 L 497.117188 72.929688 L 497.117188 107.507812 C 497.117188 116.179688 502.019531 120.976562 509.324219 120.976562 C 516.859375 120.976562 521.648438 116.179688 521.648438 107.507812 L 521.648438 72.929688 L 541.15625 72.929688 Z M 541.15625 136.601562 " fill-opacity="1" fill-rule="nonzero"/><path fill="#288664" d="M 580.511719 89.019531 C 573.207031 89.019531 566.589844 94.496094 566.589844 104.65625 C 566.589844 114.8125 573.207031 120.523438 580.511719 120.523438 C 587.929688 120.523438 594.429688 114.921875 594.429688 104.769531 C 594.429688 94.613281 587.929688 89.019531 580.511719 89.019531 M 574.8125 72.019531 C 583.246094 72.019531 590.550781 75.902344 594.429688 81.714844 L 594.429688 52.167969 L 613.941406 52.167969 L 613.941406 136.609375 L 594.429688 136.609375 L 594.429688 127.480469 C 590.898438 133.292969 584.164062 137.519531 574.8125 137.519531 C 559.179688 137.519531 546.742188 124.742188 546.742188 104.65625 C 546.742188 84.570312 559.179688 72.019531 574.8125 72.019531 " fill-opacity="1" fill-rule="nonzero"/><path fill="#288664" d="M 158.484375 91.933594 C 157.492188 105.5 146.757812 116.410156 133.265625 117.660156 C 134.261719 104.09375 144.996094 93.191406 158.484375 91.933594 M 130.671875 60.664062 C 108.859375 47.015625 60.707031 40.660156 58.796875 76.613281 L 58.796875 119.710938 C 57.761719 152.808594 98.871094 173.339844 124.648438 153.179688 C 121.648438 149.78125 119.117188 145.96875 117.164062 141.855469 C 99.929688 155.976562 71.660156 142.246094 72.371094 119.710938 C 72.371094 119.710938 72.371094 76.613281 72.371094 76.613281 C 76.886719 51.621094 117.421875 66.59375 130.671875 76.910156 C 143.960938 66.585938 184.429688 51.621094 188.972656 76.613281 L 188.972656 119.710938 C 189.898438 149.25 146.375 157.914062 135.589844 130.984375 C 158.261719 128.191406 175.382812 106.335938 171.617188 83.511719 C 170.253906 76.265625 160.1875 78.339844 155.070312 78.746094 C 135.039062 81.996094 119.703125 99.394531 119.613281 119.710938 C 119.597656 123.257812 120.214844 127.015625 121.042969 130.480469 L 121.085938 130.488281 C 132.789062 176.269531 202.941406 167.523438 202.542969 119.710938 C 202.542969 119.710938 202.542969 76.613281 202.542969 76.613281 C 200.648438 40.660156 152.464844 47.007812 130.671875 60.664062 " fill-opacity="1" fill-rule="nonzero"/><path fill="#288664" d="M 124.847656 86.414062 C 117.957031 81.3125 109.472656 78.242188 100.257812 78.242188 C 96.265625 78.25 90.332031 78.292969 89.722656 83.519531 C 86.703125 101.609375 96.785156 119.578125 112.441406 127.082031 C 112.167969 125.269531 111.960938 123.441406 111.894531 121.570312 C 111.730469 118.046875 112.019531 114.476562 112.613281 111.089844 C 107.097656 106.382812 103.417969 99.601562 102.855469 91.933594 C 108.199219 92.429688 113.09375 94.457031 117.140625 97.542969 C 119.199219 93.480469 121.796875 89.730469 124.847656 86.414062 " fill-opacity="1" fill-rule="nonzero"/></svg>