<svg xmlns="http://www.w3.org/2000/svg" xmlns:xlink="http://www.w3.org/1999/xlink" width="900" zoomAndPan="magnify" viewBox="0 0 675 225" height="300" preserveAspectRatio="xMidYMid meet" version="1.0"><path fill="#eff2fe" d="M 311.582031 101.851562 C 311.582031 93.523438 306.792969 88.957031 299.375 88.957031 C 291.957031 88.957031 287.167969 93.523438 287.167969 101.851562 L 287.167969 136.421875 L 267.773438 136.421875 L 267.773438 101.851562 C 267.773438 93.523438 262.976562 88.957031 255.566406 88.957031 C 248.148438 88.957031 243.359375 93.523438 243.359375 101.851562 L 243.359375 136.421875 L 223.851562 136.421875 L 223.851562 72.757812 L 243.359375 72.757812 L 243.359375 80.746094 C 247.121094 75.609375 253.621094 72.070312 261.949219 72.070312 C 271.535156 72.070312 279.292969 76.296875 283.628906 83.9375 C 287.851562 77.207031 295.835938 72.070312 305.082031 72.070312 C 320.820312 72.070312 330.972656 82.109375 330.972656 99.230469 L 330.972656 136.421875 L 311.582031 136.421875 Z M 311.582031 101.851562 " fill-opacity="1" fill-rule="nonzero"/><path fill="#eff2fe" d="M 379.453125 72.757812 L 400.558594 72.757812 L 364.03125 158.660156 L 343.238281 158.660156 L 354.246094 134.246094 L 328.34375 72.757812 L 350.136719 72.757812 L 364.847656 112.578125 Z M 379.453125 72.757812 " fill-opacity="1" fill-rule="nonzero"/><path fill="#eff2fe" d="M 438.660156 88.839844 C 431.359375 88.839844 424.742188 94.433594 424.742188 104.589844 C 424.742188 114.734375 431.359375 120.335938 438.660156 120.335938 C 446.070312 120.335938 452.695312 114.628906 452.695312 104.472656 C 452.695312 94.316406 446.070312 88.839844 438.660156 88.839844 M 444.476562 71.847656 C 460.222656 71.847656 472.542969 84.390625 472.542969 104.472656 C 472.542969 124.550781 460.105469 137.328125 444.476562 137.328125 C 435.121094 137.328125 428.390625 133.105469 424.859375 127.519531 L 424.859375 136.421875 L 405.347656 136.421875 L 405.347656 51.996094 L 424.859375 51.996094 L 424.859375 81.769531 C 428.390625 76.0625 435.351562 71.847656 444.476562 71.847656 " fill-opacity="1" fill-rule="nonzero"/><path fill="#eff2fe" d="M 541.105469 136.410156 L 521.59375 136.410156 L 521.59375 127.746094 C 517.714844 133.21875 510.867188 137.097656 502.316406 137.097656 C 487.597656 137.097656 477.671875 126.949219 477.671875 109.945312 L 477.671875 72.757812 L 497.066406 72.757812 L 497.066406 107.324219 C 497.066406 115.992188 501.96875 120.789062 509.273438 120.789062 C 516.804688 120.789062 521.59375 115.992188 521.59375 107.324219 L 521.59375 72.757812 L 541.105469 72.757812 Z M 541.105469 136.410156 " fill-opacity="1" fill-rule="nonzero"/><path fill="#eff2fe" d="M 580.453125 88.839844 C 573.152344 88.839844 566.535156 94.316406 566.535156 104.472656 C 566.535156 114.628906 573.152344 120.335938 580.453125 120.335938 C 587.871094 120.335938 594.371094 114.734375 594.371094 104.589844 C 594.371094 94.433594 587.871094 88.839844 580.453125 88.839844 M 574.753906 71.847656 C 583.191406 71.847656 590.492188 75.726562 594.371094 81.539062 L 594.371094 51.996094 L 613.882812 51.996094 L 613.882812 136.421875 L 594.371094 136.421875 L 594.371094 127.289062 C 590.839844 133.105469 584.109375 137.328125 574.753906 137.328125 C 559.125 137.328125 546.6875 124.550781 546.6875 104.472656 C 546.6875 84.390625 559.125 71.847656 574.753906 71.847656 " fill-opacity="1" fill-rule="nonzero"/><path fill="#eff2fe" d="M 158.457031 91.753906 C 157.464844 105.316406 146.730469 116.222656 133.242188 117.472656 C 134.234375 103.910156 144.96875 93.007812 158.457031 91.753906 M 130.644531 60.492188 C 108.835938 46.84375 60.6875 40.492188 58.777344 76.4375 L 58.777344 119.523438 C 57.742188 152.613281 98.84375 173.140625 124.625 152.984375 C 121.621094 149.585938 119.089844 145.773438 117.140625 141.664062 C 99.902344 155.78125 71.636719 142.050781 72.347656 119.523438 C 72.347656 119.523438 72.347656 76.4375 72.347656 76.4375 C 76.863281 51.453125 117.394531 66.421875 130.644531 76.734375 C 143.933594 66.414062 184.402344 51.453125 188.941406 76.4375 L 188.941406 119.523438 C 189.867188 149.058594 146.351562 157.714844 135.566406 130.796875 C 158.234375 128 175.351562 106.152344 171.589844 83.332031 C 170.226562 76.089844 160.160156 78.164062 155.042969 78.570312 C 135.011719 81.820312 119.679688 99.210938 119.585938 119.523438 C 119.570312 123.070312 120.191406 126.828125 121.019531 130.292969 L 121.058594 130.300781 C 132.761719 176.066406 202.910156 167.324219 202.511719 119.523438 C 202.511719 119.523438 202.511719 76.4375 202.511719 76.4375 C 200.617188 40.492188 152.4375 46.835938 130.644531 60.492188 " fill-opacity="1" fill-rule="nonzero"/><path fill="#eff2fe" d="M 124.824219 86.238281 C 117.933594 81.132812 109.449219 78.066406 100.234375 78.066406 C 96.242188 78.074219 90.3125 78.113281 89.699219 83.34375 C 86.679688 101.429688 96.761719 119.390625 112.417969 126.894531 C 112.144531 125.082031 111.9375 123.253906 111.871094 121.386719 C 111.707031 117.863281 111.996094 114.289062 112.589844 110.90625 C 107.074219 106.199219 103.394531 99.417969 102.832031 91.753906 C 108.175781 92.25 113.070312 94.273438 117.113281 97.359375 C 119.171875 93.300781 121.769531 89.554688 124.824219 86.238281 " fill-opacity="1" fill-rule="nonzero"/></svg>