<?xml version="1.0" encoding="UTF-8"?>
<svg xmlns="http://www.w3.org/2000/svg" xmlns:xlink="http://www.w3.org/1999/xlink" width="408.417pt" height="406.771pt" viewBox="0 0 408.417 406.771" version="1.1">
<g id="surface1">
<path style=" stroke:none;fill-rule:nonzero;fill:rgb(100%,100%,100%);fill-opacity:1;" d="M 192.523438 200.109375 C 192.523438 196.175781 190.261719 194.019531 186.757812 194.019531 C 183.253906 194.019531 180.992188 196.175781 180.992188 200.109375 L 180.992188 216.4375 L 171.832031 216.4375 L 171.832031 200.109375 C 171.832031 196.175781 169.566406 194.019531 166.066406 194.019531 C 162.5625 194.019531 160.300781 196.175781 160.300781 200.109375 L 160.300781 216.4375 L 151.085938 216.4375 L 151.085938 186.367188 L 160.300781 186.367188 L 160.300781 190.140625 C 162.078125 187.714844 165.148438 186.042969 169.082031 186.042969 C 173.609375 186.042969 177.273438 188.039062 179.320312 191.648438 C 181.316406 188.46875 185.085938 186.042969 189.453125 186.042969 C 196.886719 186.042969 201.683594 190.785156 201.683594 198.871094 L 201.683594 216.4375 L 192.523438 216.4375 Z M 192.523438 200.109375 "/>
<path style=" stroke:none;fill-rule:nonzero;fill:rgb(100%,100%,100%);fill-opacity:1;" d="M 224.582031 186.367188 L 234.550781 186.367188 L 217.296875 226.941406 L 207.476562 226.941406 L 212.675781 215.410156 L 200.441406 186.367188 L 210.734375 186.367188 L 217.683594 205.175781 Z M 224.582031 186.367188 "/>
<path style=" stroke:none;fill-rule:nonzero;fill:rgb(100%,100%,100%);fill-opacity:1;" d="M 252.546875 193.964844 C 249.097656 193.964844 245.972656 196.605469 245.972656 201.402344 C 245.972656 206.195312 249.097656 208.839844 252.546875 208.839844 C 256.046875 208.839844 259.175781 206.144531 259.175781 201.347656 C 259.175781 196.550781 256.046875 193.964844 252.546875 193.964844 M 255.292969 185.9375 C 262.730469 185.9375 268.550781 191.863281 268.550781 201.347656 C 268.550781 210.832031 262.675781 216.867188 255.292969 216.867188 C 250.875 216.867188 247.695312 214.871094 246.027344 212.234375 L 246.027344 216.4375 L 236.8125 216.4375 L 236.8125 176.5625 L 246.027344 176.5625 L 246.027344 190.625 C 247.695312 187.929688 250.984375 185.9375 255.292969 185.9375 "/>
<path style=" stroke:none;fill-rule:nonzero;fill:rgb(100%,100%,100%);fill-opacity:1;" d="M 300.933594 216.433594 L 291.71875 216.433594 L 291.71875 212.339844 C 289.886719 214.925781 286.652344 216.757812 282.613281 216.757812 C 275.660156 216.757812 270.972656 211.964844 270.972656 203.933594 L 270.972656 186.367188 L 280.132812 186.367188 L 280.132812 202.695312 C 280.132812 206.789062 282.449219 209.054688 285.898438 209.054688 C 289.457031 209.054688 291.71875 206.789062 291.71875 202.695312 L 291.71875 186.367188 L 300.933594 186.367188 Z M 300.933594 216.433594 "/>
<path style=" stroke:none;fill-rule:nonzero;fill:rgb(100%,100%,100%);fill-opacity:1;" d="M 319.523438 193.964844 C 316.074219 193.964844 312.949219 196.550781 312.949219 201.347656 C 312.949219 206.144531 316.074219 208.839844 319.523438 208.839844 C 323.023438 208.839844 326.09375 206.195312 326.09375 201.402344 C 326.09375 196.605469 323.023438 193.964844 319.523438 193.964844 M 316.828125 185.9375 C 320.816406 185.9375 324.261719 187.769531 326.09375 190.515625 L 326.09375 176.5625 L 335.308594 176.5625 L 335.308594 216.4375 L 326.09375 216.4375 L 326.09375 212.125 C 324.425781 214.871094 321.246094 216.867188 316.828125 216.867188 C 309.445312 216.867188 303.570312 210.832031 303.570312 201.347656 C 303.570312 191.863281 309.445312 185.9375 316.828125 185.9375 "/>
<path style=" stroke:none;fill-rule:nonzero;fill:rgb(100%,100%,100%);fill-opacity:1;" d="M 120.199219 195.339844 C 119.730469 201.746094 114.660156 206.898438 108.289062 207.488281 C 108.757812 201.082031 113.828125 195.933594 120.199219 195.339844 M 107.0625 180.574219 C 96.761719 174.128906 74.019531 171.128906 73.117188 188.105469 L 73.117188 208.457031 C 72.628906 224.085938 92.042969 233.78125 104.21875 224.261719 C 102.800781 222.65625 101.605469 220.855469 100.683594 218.914062 C 92.542969 225.582031 79.191406 219.097656 79.527344 208.457031 C 79.527344 208.457031 79.527344 188.105469 79.527344 188.105469 C 81.660156 176.304688 100.804688 183.375 107.0625 188.246094 C 113.34375 183.371094 132.453125 176.304688 134.597656 188.105469 L 134.597656 208.457031 C 135.035156 222.40625 114.480469 226.496094 109.386719 213.78125 C 120.09375 212.460938 128.179688 202.140625 126.402344 191.363281 C 125.757812 187.941406 121.003906 188.921875 118.589844 189.113281 C 109.128906 190.648438 101.882812 198.863281 101.84375 208.457031 L 101.839844 208.457031 C 101.835938 210.132812 102.128906 211.90625 102.515625 213.542969 L 102.535156 213.546875 C 108.0625 235.164062 141.195312 231.035156 141.007812 208.457031 C 141.007812 208.457031 141.007812 188.105469 141.011719 188.105469 C 140.113281 171.128906 117.355469 174.125 107.0625 180.574219 "/>
<path style=" stroke:none;fill-rule:nonzero;fill:rgb(100%,100%,100%);fill-opacity:1;" d="M 104.3125 192.734375 C 101.058594 190.324219 97.050781 188.875 92.699219 188.875 C 90.8125 188.878906 88.011719 188.898438 87.722656 191.367188 C 86.296875 199.910156 91.058594 208.394531 98.453125 211.9375 C 98.324219 211.082031 98.226562 210.21875 98.195312 209.335938 C 98.117188 207.671875 98.253906 205.984375 98.539062 204.386719 C 95.929688 202.164062 94.191406 198.960938 93.925781 195.339844 C 96.449219 195.574219 98.761719 196.53125 100.671875 197.988281 C 101.644531 196.070312 102.871094 194.300781 104.3125 192.734375 "/>
</g>
</svg>
