<?xml version="1.0" encoding="UTF-8"?>
<svg xmlns="http://www.w3.org/2000/svg" xmlns:xlink="http://www.w3.org/1999/xlink" width="595.276pt" height="576.002pt" viewBox="0 0 595.276 576.002" version="1.1">
<g id="surface1">
<path style=" stroke:none;fill-rule:nonzero;fill:rgb(15.686035%,52.549744%,39.215088%);fill-opacity:1;" d="M 429.261719 108.855469 C 442.339844 109.386719 458.199219 120.257812 456.050781 134.011719 C 453.421875 144.523438 441.988281 151.585938 433.359375 157.304688 C 419.304688 166.5 417.636719 181.816406 424.492188 196.191406 C 434.632812 216.296875 431.644531 230.628906 410.613281 240.734375 C 428.109375 237.722656 439.128906 225.0625 435.863281 206.984375 C 434.976562 201.226562 432.585938 196.035156 430.417969 190.757812 C 425.761719 178.46875 428.523438 168.890625 439.875 162.019531 C 449.359375 155.335938 459.867188 147.261719 461.816406 134.910156 C 463.640625 118.070312 444.222656 106.175781 429.261719 108.855469 "/>
<path style=" stroke:none;fill-rule:nonzero;fill:rgb(15.686035%,52.549744%,39.215088%);fill-opacity:1;" d="M 448.023438 329.210938 C 446.347656 330.488281 444.257812 331.519531 441.828125 332.214844 C 436.148438 333.839844 431.140625 334.175781 428.515625 334.21875 C 428.808594 332.605469 428.984375 330.953125 429.039062 329.269531 C 430.652344 327.320312 431.824219 324.863281 432.558594 321.921875 C 439.683594 320.777344 445.15625 318.566406 448.507812 315.523438 C 449.625 315.679688 451.90625 316.410156 452.417969 319.6875 C 452.984375 323.289062 451.308594 326.710938 448.023438 329.210938 M 446.738281 344.3125 C 440.207031 349.902344 427.257812 350.152344 421.089844 349.921875 C 424.113281 346.355469 426.402344 342.15625 427.730469 337.550781 L 427.882812 337.550781 C 430.476562 337.550781 436.140625 337.292969 442.738281 335.40625 C 445.230469 334.691406 447.328125 333.722656 449.070312 332.570312 C 449.761719 333.113281 450.695312 334.261719 450.585938 336.445312 C 450.433594 339.65625 449.175781 342.226562 446.738281 344.3125 M 416.308594 350.160156 C 410.855469 355.359375 403.476562 358.558594 395.367188 358.558594 C 383.382812 358.558594 372.992188 351.578125 368.054688 341.464844 C 375.578125 338.128906 382.554688 331.652344 387.316406 323.179688 C 390.445312 317.617188 392.101562 311.949219 392.257812 306.722656 C 392.359375 306.578125 392.433594 306.414062 392.484375 306.230469 C 393.410156 302.820312 394.902344 299.777344 396.808594 297.328125 C 398.398438 295.28125 400.273438 293.648438 402.347656 292.539062 C 405.789062 290.691406 409.628906 290.394531 413.453125 291.671875 C 413.828125 291.792969 414.195312 291.933594 414.5625 292.09375 C 411.351562 299.652344 405.8125 304.839844 405.714844 304.921875 C 402.269531 307.945312 401.917969 313.1875 404.941406 316.636719 C 406.582031 318.507812 408.878906 319.46875 411.1875 319.46875 C 413.132812 319.46875 415.082031 318.789062 416.65625 317.40625 C 416.769531 317.308594 422.0625 312.582031 426.679688 304.832031 C 426.835938 305.132812 426.976562 305.433594 427.117188 305.734375 C 429.300781 310.507812 430.332031 315.703125 429.554688 320.097656 C 429.550781 320.113281 429.550781 320.128906 429.542969 320.148438 C 429.488281 320.460938 429.421875 320.765625 429.347656 321.070312 C 428.808594 323.28125 428.007812 325.109375 426.929688 326.59375 C 426.3125 326.773438 425.84375 327.308594 425.757812 327.960938 C 425.042969 328.671875 424.246094 329.269531 423.355469 329.761719 C 418.855469 332.238281 412.105469 332.003906 403.292969 329.066406 C 402.425781 328.773438 401.484375 329.246094 401.191406 330.113281 C 400.90625 330.984375 401.375 331.925781 402.242188 332.214844 C 407.347656 333.914062 411.875 334.769531 415.796875 334.769531 C 419.355469 334.769531 422.414062 334.066406 424.953125 332.664062 C 425.121094 332.574219 425.285156 332.480469 425.449219 332.371094 C 425.308594 333.410156 425.113281 334.429688 424.867188 335.433594 C 423.464844 341.144531 420.441406 346.226562 416.308594 350.160156 M 392.375 297.964844 C 392.054688 298.511719 391.742188 299.070312 391.457031 299.644531 C 391.316406 299.132812 391.15625 298.628906 390.980469 298.132812 C 391.441406 298.066406 391.90625 298.007812 392.375 297.964844 M 362.984375 337.46875 C 361.015625 338.078125 359.007812 338.417969 356.988281 338.433594 C 356.035156 339.3125 355.042969 340.164062 354.015625 340.972656 C 349.59375 344.460938 344.503906 347.28125 338.96875 349.46875 C 328.863281 353.457031 317.277344 355.34375 305.574219 355.34375 C 293.042969 355.34375 280.378906 353.183594 269.277344 349.136719 C 263.714844 347.109375 258.542969 344.609375 253.96875 341.671875 C 249.375 338.71875 245.390625 335.324219 242.226562 331.519531 C 234.820312 330.015625 229.285156 325.019531 226.121094 319.230469 C 222.636719 312.839844 222.03125 305.480469 224.976562 300.777344 C 224.644531 300.496094 224.324219 300.199219 224.003906 299.886719 C 223.558594 299.472656 223.128906 299.027344 222.710938 298.570312 C 223.523438 298.273438 224.359375 297.972656 225.269531 297.667969 C 225.851562 297.546875 226.441406 297.445312 227.035156 297.363281 C 229.484375 297.023438 232.019531 297.015625 234.484375 297.308594 L 234.535156 297.152344 L 234.667969 297.054688 C 234.511719 296.789062 234.355469 296.519531 234.191406 296.257812 C 232.605469 293.71875 230.523438 291.511719 228.007812 289.808594 C 225.953125 288.261719 223.222656 287.074219 220.578125 287.898438 C 219.707031 288.050781 218.878906 288.542969 218.164062 289.074219 L 218.222656 289.398438 C 221.363281 290.652344 223.703125 291.1875 226.730469 292.132812 C 228.921875 293.113281 231.023438 294.429688 232.921875 295.96875 C 233.179688 296.179688 233.4375 296.398438 233.691406 296.613281 C 233.003906 296.339844 232.308594 296.097656 231.601562 295.890625 C 229.453125 295.265625 227.207031 294.964844 224.9375 295.03125 C 223.46875 295.011719 221.890625 295.210938 220.496094 295.800781 C 219.140625 293.886719 217.96875 291.761719 216.96875 289.46875 C 216.121094 287.53125 215.398438 285.472656 214.804688 283.324219 C 215.082031 282.976562 215.355469 282.617188 215.628906 282.242188 C 218.175781 278.757812 222.464844 270.734375 220.449219 265.328125 C 219.929688 263.917969 218.761719 262.152344 216.160156 261.246094 C 217.847656 258.652344 218.265625 254.515625 217.210938 249.597656 C 216.914062 248.222656 216.511719 246.824219 215.996094 245.457031 C 219.183594 235.820312 224.628906 227.589844 232.230469 223.21875 C 232.664062 223.367188 233.085938 223.53125 233.503906 223.703125 L 233.597656 223.570312 L 233.753906 223.511719 C 233.441406 222.019531 232.957031 220.570312 232.300781 219.199219 C 231.785156 216.40625 231.644531 213.4375 231.996094 210.335938 C 233.644531 195.664062 246.671875 180.199219 262.632812 177.734375 C 263.753906 177.554688 264.871094 177.472656 265.972656 177.472656 C 267.808594 177.472656 269.601562 177.707031 271.308594 178.152344 C 272.007812 178.746094 272.679688 179.363281 273.332031 180.007812 L 273.46875 179.90625 L 273.632812 179.90625 C 273.765625 178.492188 273.746094 177.074219 273.636719 175.65625 C 276.210938 161.597656 284.820312 142.796875 302.136719 142.480469 C 302.300781 142.472656 302.457031 142.472656 302.617188 142.472656 C 313.085938 142.472656 321.402344 148.773438 325.429688 157.277344 C 325.796875 159.484375 326.539062 161.625 327.324219 163.226562 L 327.484375 163.171875 L 327.644531 163.222656 C 327.804688 162.929688 327.96875 162.644531 328.144531 162.359375 C 330.863281 160.027344 334.207031 158.582031 337.40625 158.582031 C 337.796875 158.582031 338.1875 158.605469 338.574219 158.648438 C 349.035156 159.855469 353.113281 172.464844 352.507812 181.136719 C 352.457031 181.851562 352.398438 182.566406 352.3125 183.261719 C 354.148438 182.46875 356.097656 181.984375 357.878906 181.984375 C 358.542969 181.984375 359.179688 182.050781 359.78125 182.191406 C 370.09375 184.625 374.457031 198.5 375.324219 207.742188 C 375.554688 210.210938 375.519531 212.539062 375.269531 214.679688 C 375.277344 214.683594 375.28125 214.691406 375.292969 214.703125 C 375.082031 215.902344 374.941406 217.0625 374.871094 218.128906 L 375.042969 218.152344 L 375.160156 218.265625 C 375.902344 217.707031 376.660156 217.171875 377.4375 216.671875 C 388.136719 226.910156 393.34375 237.890625 395.308594 248.355469 C 396.398438 254.160156 396.488281 259.804688 395.976562 265.074219 C 394.527344 279.871094 388.269531 291.734375 385.703125 295.910156 C 385.0625 296.964844 384.652344 297.527344 384.613281 297.527344 C 384.980469 298.140625 385.300781 298.78125 385.566406 299.441406 C 390.417969 311.308594 379.777344 329.980469 366.09375 336.273438 C 365.070312 336.746094 364.035156 337.144531 362.984375 337.46875 M 354.113281 389.371094 C 355.648438 391.382812 356.238281 393.851562 355.875 396.726562 C 351.53125 399.449219 347.855469 402.816406 344.933594 406.769531 C 344.933594 406.773438 344.925781 406.769531 344.925781 406.769531 C 336.328125 408.210938 324.691406 405.046875 322.09375 398.597656 C 321.433594 397.003906 321.378906 395.207031 321.933594 393.257812 C 323.140625 389.03125 327.582031 386.183594 332.824219 384.835938 C 332.296875 385.871094 331.734375 386.921875 331.140625 387.972656 C 328.898438 391.96875 330.316406 397.03125 334.308594 399.273438 C 335.597656 399.996094 336.992188 400.339844 338.367188 400.339844 C 341.273438 400.339844 344.089844 398.816406 345.613281 396.109375 C 347.46875 392.804688 349.089844 389.511719 350.429688 386.3125 C 351.945312 387.140625 353.195312 388.167969 354.113281 389.371094 M 358.4375 399.054688 C 363.933594 395.777344 370.273438 393.699219 377.273438 392.867188 C 390.386719 391.304688 398.761719 395.976562 403.476562 400.160156 C 408.820312 404.90625 412.136719 411.507812 412.136719 417.382812 C 412.136719 417.445312 412.140625 417.511719 412.144531 417.574219 C 412.488281 420.5 412.054688 423.242188 410.859375 425.726562 C 405.941406 435.988281 389.136719 440.578125 379.976562 441.675781 C 374.242188 442.367188 357.34375 441.089844 341.328125 437.039062 C 339.753906 426.507812 341.78125 416.921875 347.214844 409.269531 C 347.21875 409.261719 347.222656 409.257812 347.226562 409.246094 C 350.132812 405.175781 353.902344 401.746094 358.4375 399.054688 M 414.367188 428.1875 C 414.992188 428.59375 415.230469 429.597656 415.324219 430.371094 C 415.761719 434.019531 407.011719 446.71875 383.507812 449.511719 C 368.5625 451.277344 358.617188 449.375 352.90625 447.460938 C 346.757812 445.40625 344.082031 442.902344 344.058594 442.882812 C 343.675781 442.511719 343.136719 442.347656 342.609375 442.441406 C 342.082031 442.539062 341.632812 442.878906 341.398438 443.367188 L 340.5625 445.148438 C 339.765625 446.832031 337.890625 447.707031 336.105469 447.210938 C 329.164062 445.316406 312.777344 440.039062 310.464844 432 C 309.832031 429.800781 310.335938 427.527344 312.003906 425.09375 C 316.207031 432.480469 328.882812 437.210938 339.40625 439.972656 C 339.429688 439.980469 339.453125 439.984375 339.476562 439.988281 C 352.320312 443.339844 367.445312 445.175781 376.15625 445.175781 C 377.8125 445.175781 379.242188 445.105469 380.371094 444.96875 C 383.03125 444.652344 406.148438 441.515625 413.453125 427.949219 C 413.742188 427.949219 414.082031 428 414.367188 428.1875 M 319.863281 401.515625 C 323.582031 407.59375 332.992188 410.398438 340.867188 410.398438 C 341.449219 410.398438 342.023438 410.382812 342.585938 410.347656 C 338.3125 417.78125 336.695312 426.582031 337.851562 436.105469 C 323.832031 432.136719 315.429688 426.972656 314.085938 421.46875 C 311.082031 409.183594 317.390625 403.292969 319.863281 401.515625 M 269.8125 400.339844 C 271.191406 400.339844 272.585938 399.996094 273.871094 399.273438 C 277.867188 397.03125 279.285156 391.96875 277.039062 387.972656 C 276.449219 386.921875 275.890625 385.878906 275.359375 384.839844 C 280.59375 386.183594 285.042969 389.03125 286.246094 393.257812 C 286.800781 395.207031 286.746094 397.003906 286.078125 398.613281 C 286.046875 398.699219 286.011719 398.78125 285.976562 398.863281 C 283.183594 405.132812 271.738281 408.1875 263.253906 406.769531 C 260.332031 402.816406 256.65625 399.449219 252.304688 396.730469 C 251.941406 393.859375 252.53125 391.382812 254.070312 389.371094 C 254.988281 388.167969 256.238281 387.140625 257.75 386.3125 C 259.097656 389.523438 260.714844 392.8125 262.570312 396.109375 C 264.089844 398.816406 266.910156 400.34375 269.8125 400.339844 M 288.324219 401.519531 C 290.800781 403.300781 297.101562 409.191406 294.097656 421.46875 C 292.75 426.972656 284.34375 432.136719 270.332031 436.105469 C 271.484375 426.582031 269.867188 417.78125 265.597656 410.347656 C 266.160156 410.382812 266.730469 410.398438 267.3125 410.398438 C 275.195312 410.398438 284.613281 407.59375 288.324219 401.519531 M 297.71875 432 C 295.40625 440.039062 279.015625 445.316406 272.078125 447.210938 C 270.289062 447.707031 268.417969 446.832031 267.617188 445.148438 L 266.777344 443.367188 C 266.550781 442.882812 266.105469 442.542969 265.582031 442.449219 C 265.058594 442.351562 264.515625 442.511719 264.128906 442.878906 C 264.101562 442.902344 261.421875 445.40625 255.273438 447.460938 C 249.566406 449.375 239.621094 451.28125 224.671875 449.511719 C 201.171875 446.71875 192.421875 434.019531 192.859375 430.371094 C 192.949219 429.597656 193.191406 428.59375 193.8125 428.1875 C 194.101562 427.996094 194.445312 427.949219 194.730469 427.953125 C 202.050781 441.519531 225.148438 444.652344 227.808594 444.96875 C 228.941406 445.105469 230.367188 445.175781 232.027344 445.175781 C 240.734375 445.175781 255.859375 443.339844 268.703125 439.988281 C 268.726562 439.984375 268.753906 439.980469 268.777344 439.972656 C 279.296875 437.210938 291.972656 432.480469 296.179688 425.09375 C 297.847656 427.527344 298.351562 429.800781 297.71875 432 M 196.035156 417.574219 C 196.039062 417.511719 196.042969 417.445312 196.042969 417.382812 C 196.042969 411.507812 199.363281 404.90625 204.707031 400.160156 C 208.785156 396.539062 215.601562 392.5625 225.851562 392.5625 C 227.453125 392.5625 229.140625 392.65625 230.910156 392.867188 C 237.90625 393.699219 244.246094 395.777344 249.746094 399.058594 C 254.289062 401.753906 258.066406 405.1875 260.96875 409.265625 C 266.398438 416.921875 268.425781 426.507812 266.855469 437.039062 C 250.839844 441.089844 233.941406 442.355469 228.203125 441.675781 C 219.046875 440.578125 202.238281 435.988281 197.320312 425.726562 C 197.316406 425.71875 197.3125 425.710938 197.308594 425.703125 C 196.121094 423.222656 195.695312 420.492188 196.035156 417.574219 M 217.796875 304.773438 C 202.503906 316.042969 195.46875 315.097656 192.957031 313.972656 C 189.992188 312.636719 187.988281 308.980469 186.71875 304.980469 C 186.707031 304.953125 186.699219 304.933594 186.695312 304.90625 C 190.246094 303.980469 192.742188 302.382812 194.152344 300.128906 C 195.550781 297.894531 195.566406 295.53125 195.273438 293.789062 C 198.5625 293.875 204.421875 293.113281 210.417969 287.957031 C 211.980469 292.460938 214.074219 296.5 216.640625 299.90625 C 216.605469 300.011719 216.570312 300.117188 216.539062 300.222656 L 216.777344 300.449219 C 216.855469 300.433594 216.9375 300.410156 217.015625 300.390625 C 217.464844 300.964844 217.925781 301.519531 218.402344 302.050781 C 218.136719 302.929688 217.933594 303.835938 217.796875 304.773438 M 185.847656 301.699219 C 183.71875 302.25 181.074219 302.53125 177.957031 302.53125 C 174.207031 302.53125 171.160156 302.128906 168.890625 301.335938 C 166.9375 300.660156 165.5625 299.699219 164.8125 298.46875 C 163.871094 296.933594 164.0625 295.164062 164.371094 293.988281 C 165.785156 294.425781 167.140625 294.671875 168.296875 294.804688 C 169.402344 294.929688 170.324219 294.960938 170.9375 294.960938 C 171.417969 294.960938 171.710938 294.941406 171.757812 294.9375 C 172.667969 294.878906 173.359375 294.089844 173.300781 293.175781 C 173.242188 292.261719 172.460938 291.570312 171.542969 291.625 C 171.519531 291.628906 170.347656 291.691406 168.683594 291.503906 C 167.328125 291.347656 165.652344 291.015625 164.007812 290.339844 C 163.992188 290.328125 163.980469 290.324219 163.960938 290.320312 C 161.195312 289.179688 159.261719 287.339844 158.21875 284.851562 C 157.148438 282.292969 156.957031 279.199219 157.1875 275.992188 L 182 272.359375 C 182.441406 275.308594 182.21875 278.859375 180.316406 282.601562 C 179.902344 283.421875 180.226562 284.421875 181.046875 284.835938 C 181.285156 284.957031 181.542969 285.015625 181.796875 285.015625 C 182.402344 285.015625 182.984375 284.683594 183.277344 284.105469 C 185.550781 279.628906 185.8125 275.390625 185.285156 271.878906 L 197.121094 270.144531 C 197.671875 271.03125 198.425781 271.804688 199.433594 272.421875 C 203.105469 274.667969 205.492188 272.472656 207.171875 270.148438 C 207.566406 269.605469 207.925781 269.050781 208.246094 268.546875 C 208.453125 268.222656 208.65625 267.90625 208.867188 267.597656 C 209.242188 267.417969 209.582031 267.242188 209.894531 267.054688 C 211.570312 266.066406 212.339844 264.996094 212.679688 264.140625 C 212.6875 264.140625 212.695312 264.136719 212.707031 264.136719 C 212.804688 264.117188 212.90625 264.101562 213.007812 264.089844 C 213.4375 264.035156 213.90625 264.078125 214.433594 264.199219 C 215.96875 264.554688 216.890625 265.28125 217.339844 266.480469 C 218.46875 269.523438 216.464844 274.945312 213.796875 279.050781 C 213.519531 279.476562 213.238281 279.890625 212.945312 280.285156 C 212.511719 280.886719 212.070312 281.449219 211.625 281.980469 C 210.867188 282.898438 210.097656 283.722656 209.332031 284.453125 C 201.425781 292.039062 193.75 290.351562 193.382812 290.265625 C 193.34375 290.257812 193.308594 290.246094 193.269531 290.242188 C 193.238281 290.238281 193.214844 290.234375 193.179688 290.230469 C 193.007812 290.207031 192.832031 290.222656 192.660156 290.261719 C 192.589844 290.273438 192.527344 290.300781 192.464844 290.324219 C 192.398438 290.34375 192.332031 290.355469 192.273438 290.382812 C 192.199219 290.421875 192.125 290.460938 192.058594 290.503906 C 191.996094 290.546875 191.933594 290.597656 191.871094 290.648438 C 191.8125 290.695312 191.761719 290.753906 191.714844 290.8125 C 190.703125 292.011719 187.546875 292.421875 184.714844 292.386719 C 183.847656 292.382812 183.003906 292.332031 182.269531 292.253906 C 181.355469 292.144531 180.535156 292.804688 180.433594 293.714844 C 180.332031 294.628906 180.988281 295.445312 181.902344 295.550781 C 182.394531 295.605469 183.542969 295.714844 184.960938 295.722656 L 185.132812 295.722656 C 187.253906 295.722656 189.949219 295.492188 192.03125 294.546875 C 192.191406 295.664062 192.144531 297.101562 191.328125 298.386719 C 190.371094 299.894531 188.515625 301.011719 185.847656 301.699219 M 203.757812 269.144531 C 202.804688 270.242188 202.195312 270.21875 201.160156 269.585938 C 201.148438 269.578125 201.136719 269.566406 201.121094 269.558594 L 201.96875 269.4375 C 202.597656 269.351562 203.195312 269.25 203.757812 269.144531 M 154.523438 273.027344 C 155.214844 272.226562 155.789062 271.335938 156.230469 270.378906 C 156.90625 268.933594 157.28125 267.328125 157.28125 265.640625 C 157.28125 265.433594 157.277344 265.222656 157.265625 265.019531 C 157.191406 263.636719 156.859375 262.3125 156.320312 261.101562 C 155.792969 259.902344 155.058594 258.800781 154.160156 257.847656 L 156.570312 257.96875 L 158.234375 258.050781 L 159.902344 258.132812 L 196.5625 259.964844 L 198.253906 260.046875 L 199.402344 260.105469 C 199.589844 260.125 199.777344 260.140625 199.953125 260.160156 C 201.210938 260.277344 202.328125 260.390625 203.324219 260.515625 C 204.410156 260.640625 205.34375 260.777344 206.128906 260.925781 C 206.574219 261.003906 206.972656 261.09375 207.324219 261.183594 C 208.316406 261.4375 208.964844 261.734375 209.316406 262.105469 C 209.433594 262.234375 209.515625 262.363281 209.566406 262.511719 C 209.605469 262.617188 209.625 262.738281 209.625 262.859375 C 209.625 263.199219 209.230469 263.597656 208.5625 263.992188 C 208.175781 264.222656 207.691406 264.453125 207.140625 264.683594 C 207.007812 264.730469 206.871094 264.785156 206.730469 264.839844 C 205.257812 265.394531 203.390625 265.882812 201.5 266.144531 L 199.257812 266.472656 L 197.625 266.714844 L 195.996094 266.949219 L 184.542969 268.632812 L 181.214844 269.117188 L 157.558594 272.582031 L 155.847656 272.832031 Z M 154.976562 245.972656 C 154.386719 245.054688 153.761719 244.085938 153.121094 243.035156 C 150.746094 239.164062 145.183594 230.105469 148.949219 227.332031 C 150.53125 226.167969 152.015625 225.742188 153.476562 226.027344 C 156.832031 226.683594 159.449219 230.933594 160.566406 232.746094 L 160.898438 233.277344 C 163.347656 237.105469 166.542969 244.769531 168.910156 251.183594 C 167.703125 251.628906 166.539062 252.136719 165.433594 252.707031 C 164.617188 253.125 164.296875 254.128906 164.71875 254.941406 C 164.738281 254.984375 164.757812 255.019531 164.785156 255.054688 L 159.433594 254.792969 C 158.652344 251.6875 156.972656 249.074219 154.976562 245.972656 M 166.597656 216.570312 C 167.769531 215.964844 168.925781 215.875 170.121094 216.289062 C 173.074219 217.320312 176.371094 221.441406 179.164062 227.609375 C 182.46875 234.917969 184.101562 244.660156 184.652344 248.59375 C 181.285156 248.609375 177.011719 248.929688 172.664062 250.023438 C 172.507812 246.433594 171.847656 239.21875 169.074219 233.804688 L 168.710938 233.09375 C 162.734375 221.441406 161.96875 218.949219 166.597656 216.570312 M 186.507812 251.925781 L 186.523438 251.925781 C 190.1875 251.996094 192.695312 252.398438 192.71875 252.402344 C 193.621094 252.550781 194.476562 251.933594 194.621094 251.027344 C 194.769531 250.125 194.152344 249.269531 193.25 249.125 C 193.160156 249.109375 191.234375 248.800781 188.253906 248.660156 C 188.699219 247.09375 192.164062 236.222656 202.015625 236.222656 C 205.679688 236.222656 208.839844 238.976562 211.0625 242.746094 C 211.730469 243.878906 212.3125 245.097656 212.796875 246.363281 C 213.289062 247.644531 213.683594 248.96875 213.964844 250.292969 C 214.078125 250.828125 214.175781 251.355469 214.246094 251.875 C 214.769531 255.511719 214.289062 258.539062 212.988281 259.941406 C 212.785156 260.160156 212.5625 260.34375 212.320312 260.476562 C 211.875 259.761719 211.203125 259.207031 210.328125 258.765625 C 209.574219 258.382812 208.675781 258.082031 207.648438 257.847656 C 206.839844 257.65625 205.953125 257.5 205.003906 257.367188 L 204.996094 257.367188 C 204.039062 256.09375 203.207031 254.621094 202.519531 253.210938 C 201.308594 250.71875 200.652344 248.589844 200.648438 248.566406 C 200.382812 247.6875 199.457031 247.191406 198.582031 247.457031 C 197.703125 247.726562 197.203125 248.648438 197.472656 249.527344 C 197.496094 249.609375 198 251.269531 198.96875 253.4375 C 198.875 253.621094 198.253906 254.878906 197.585938 256.691406 L 167.871094 255.210938 C 169.035156 254.664062 170.265625 254.191406 171.539062 253.800781 C 171.589844 253.789062 171.640625 253.769531 171.683594 253.746094 C 177.136719 252.066406 182.742188 251.824219 186.507812 251.925781 M 273.074219 178.699219 C 273.105469 178.832031 273.132812 178.964844 273.152344 179.09375 C 273.054688 178.933594 272.949219 178.773438 272.839844 178.613281 C 272.917969 178.640625 273 178.671875 273.074219 178.699219 M 376.140625 215.46875 C 376.347656 215.652344 376.546875 215.839844 376.746094 216.023438 C 376.28125 216.496094 375.84375 216.964844 375.4375 217.429688 C 375.65625 216.765625 375.886719 216.113281 376.140625 215.46875 M 401.484375 265.417969 C 407.441406 266.195312 413.226562 268.464844 415.363281 274 C 417.410156 279.292969 417.078125 284.445312 415.703125 288.96875 C 415.308594 288.800781 414.910156 288.65625 414.503906 288.519531 C 409.792969 286.949219 405.046875 287.324219 400.78125 289.609375 C 398.570312 290.792969 396.566406 292.457031 394.828125 294.5 C 394.140625 294.511719 393.457031 294.542969 392.777344 294.597656 C 394.03125 292.160156 395.59375 288.808594 397.054688 284.773438 C 398.929688 279.601562 400.769531 272.941406 401.484375 265.417969 M 444.621094 301.449219 C 446.011719 301.773438 447.027344 302.550781 447.742188 303.824219 C 449.097656 306.25 449.277344 308.496094 448.28125 310.5 C 447.90625 311.253906 447.371094 311.976562 446.679688 312.652344 C 444.050781 315.273438 439.257812 317.335938 433.089844 318.457031 C 433.375 314.347656 432.511719 309.914062 430.816406 305.722656 C 434.058594 303.71875 440.476562 300.484375 444.621094 301.449219 M 455.699219 319.171875 C 455.113281 315.453125 452.9375 313.558594 450.847656 312.71875 C 450.996094 312.472656 451.132812 312.226562 451.253906 311.976562 C 452.746094 308.972656 452.53125 305.597656 450.636719 302.203125 C 449.460938 300.097656 447.6875 298.753906 445.363281 298.214844 C 439.871094 296.941406 432.636719 300.746094 429.421875 302.6875 C 429.171875 302.203125 428.914062 301.726562 428.640625 301.253906 C 433.015625 292.507812 435.808594 280.867188 430.847656 268.023438 C 425.707031 254.695312 413.164062 249.679688 400.964844 248.597656 C 399.101562 237.28125 393.839844 225.210938 382.527344 213.914062 C 387.050781 212.011719 391.753906 211.839844 396.808594 211.074219 L 396.90625 210.761719 C 392.050781 206.808594 385.925781 208.871094 380.988281 212.398438 C 381.050781 210.710938 381 208.992188 380.835938 207.253906 C 383.101562 204.558594 385.816406 202.289062 388.507812 199.644531 C 388.507812 199.644531 388.402344 199.332031 388.402344 199.324219 C 384.972656 199.125 382.289062 200.640625 380.25 203 C 379.414062 198.300781 377.9375 193.695312 376.03125 189.917969 C 372.441406 182.804688 367.261719 178.269531 361.054688 176.804688 C 360.070312 176.574219 359.03125 176.457031 357.953125 176.453125 C 357.003906 166.320312 351.332031 154.550781 339.210938 153.148438 C 338.6875 153.089844 338.144531 153.058594 337.609375 153.050781 C 337.980469 152.71875 338.367188 152.359375 338.769531 151.964844 L 338.71875 151.636719 C 335.59375 150.503906 333.058594 151.894531 331.164062 154.21875 L 331.160156 154.21875 C 330.863281 154.328125 330.574219 154.441406 330.28125 154.5625 C 329.863281 153.699219 329.410156 152.863281 328.914062 152.050781 C 329.371094 150.65625 329.742188 149.265625 330.042969 147.472656 L 329.804688 147.238281 C 328.542969 147.601562 327.582031 148.230469 326.878906 149.046875 C 321.15625 141.566406 312.355469 136.941406 302.617188 136.941406 C 302.429688 136.941406 302.230469 136.941406 302.035156 136.945312 C 291.886719 137.132812 283.128906 142.472656 276.703125 152.394531 C 273.996094 156.578125 272.070312 160.976562 270.703125 165.003906 C 269.003906 161.992188 266.4375 159.703125 262.648438 159.511719 L 262.511719 159.8125 C 265.082031 163.066406 267.273438 165.527344 269.503906 168.816406 C 269.511719 168.828125 269.519531 168.84375 269.527344 168.855469 C 269.21875 169.988281 268.953125 171.070312 268.726562 172.078125 C 267.996094 172.007812 267.265625 171.960938 266.523438 171.949219 C 262.480469 168.835938 257.351562 166.742188 252.738281 169.742188 L 252.796875 170.070312 C 255.832031 170.925781 258.417969 171.539062 261.128906 172.375 C 252.589844 173.867188 244.34375 178.589844 237.851562 185.738281 C 231.476562 192.75 227.445312 201.265625 226.496094 209.714844 C 226.394531 210.621094 226.328125 211.523438 226.296875 212.429688 C 225.632812 212.175781 224.921875 212.042969 224.171875 212.074219 C 223.382812 212.007812 222.542969 212.246094 221.796875 212.570312 L 221.761719 212.898438 C 223.429688 214.394531 224.804688 215.332031 226.363281 216.324219 C 226.4375 217.351562 226.554688 218.375 226.71875 219.398438 C 226.496094 219.324219 226.269531 219.257812 226.039062 219.191406 C 223.859375 218.457031 221.183594 218.234375 219.222656 219.792969 C 218.542969 220.207031 218 220.890625 217.589844 221.59375 L 217.75 221.878906 C 220.40625 222.152344 222.269531 222.03125 224.582031 221.878906 C 219.613281 226.097656 215.507812 231.945312 212.523438 238.953125 C 209.871094 235.394531 206.304688 232.898438 202.015625 232.898438 C 196.597656 232.898438 191.925781 235.550781 188.496094 240.554688 C 187.949219 241.34375 187.476562 242.140625 187.074219 242.898438 C 186.15625 238.058594 184.601562 231.566406 182.191406 226.242188 C 180.328125 222.132812 176.425781 214.964844 171.210938 213.15625 C 169.140625 212.433594 167.074219 212.59375 165.078125 213.621094 C 157.09375 217.722656 160.359375 224.078125 165.757812 234.609375 L 166.121094 235.316406 C 166.730469 236.511719 167.230469 237.8125 167.628906 239.140625 C 166.347656 236.261719 164.976562 233.488281 163.695312 231.484375 L 163.394531 231.003906 C 162.050781 228.816406 158.894531 223.699219 154.113281 222.769531 C 151.722656 222.304688 149.324219 222.9375 146.980469 224.660156 C 140.757812 229.242188 147.195312 239.730469 150.289062 244.769531 C 150.945312 245.839844 151.582031 246.828125 152.1875 247.765625 C 153.820312 250.3125 155.164062 252.394531 155.917969 254.613281 L 146.980469 254.171875 C 146.4375 254.09375 145.878906 254.054688 145.308594 254.054688 C 145.167969 254.054688 145.027344 254.0625 144.890625 254.066406 L 144.796875 254.0625 C 144.667969 254.054688 144.535156 254.066406 144.414062 254.09375 C 138.230469 254.53125 133.339844 259.546875 133.339844 265.640625 C 133.339844 272.027344 138.710938 277.226562 145.308594 277.226562 C 146.15625 277.226562 146.976562 277.140625 147.773438 276.976562 C 148.027344 277.136719 148.332031 277.226562 148.644531 277.226562 C 148.722656 277.226562 148.804688 277.222656 148.886719 277.207031 L 153.820312 276.484375 C 153.648438 279.875 153.9375 283.210938 155.152344 286.132812 C 156.359375 289.007812 158.417969 291.21875 161.277344 292.722656 C 160.742188 294.492188 160.304688 297.433594 161.960938 300.167969 C 163.351562 302.46875 165.894531 304.074219 169.546875 304.980469 C 171.332031 313.425781 175.65625 324.363281 186.097656 329.085938 C 189.308594 330.539062 192.734375 331.269531 196.398438 331.269531 C 203.785156 331.269531 212.121094 328.308594 221.519531 322.339844 C 225.464844 329.320312 231.820312 334.417969 239.203125 336.476562 C 242.863281 340.527344 247.433594 344.183594 252.703125 347.351562 C 250.917969 357.539062 251.394531 369.613281 256.515625 383.214844 C 254.429688 384.289062 252.710938 385.691406 251.433594 387.355469 C 249.792969 389.5 248.9375 391.988281 248.882812 394.789062 C 243.613281 392.082031 237.707031 390.332031 231.300781 389.570312 C 216.964844 387.867188 207.726562 393.039062 202.503906 397.679688 C 196.5 403.011719 192.761719 410.515625 192.726562 417.28125 C 192.429688 419.914062 192.652344 422.425781 193.394531 424.796875 C 192.949219 424.902344 192.492188 425.089844 192.039062 425.378906 C 190.652344 426.261719 189.816406 427.8125 189.558594 429.980469 C 189.132812 433.578125 192.261719 438.601562 197.53125 442.777344 C 202.171875 446.457031 210.574219 451.179688 224.28125 452.804688 C 228.632812 453.324219 232.589844 453.542969 236.183594 453.542969 C 252.429688 453.542969 261.191406 449.015625 264.660156 446.652344 C 266.171875 449.742188 269.644531 451.320312 272.953125 450.414062 C 282.242188 447.875 298.226562 442.230469 300.910156 432.917969 C 301.988281 429.15625 300.851562 425.289062 297.519531 421.40625 C 300.652344 407.007812 292.167969 400.113281 289.636719 398.410156 C 290.109375 396.511719 290.046875 394.480469 289.4375 392.347656 C 287.664062 386.128906 280.960938 382.304688 273.566406 381.066406 C 273.304688 380.472656 273.054688 379.886719 272.8125 379.300781 C 269.066406 370.195312 267.984375 361.972656 268.523438 354.714844 C 279.734375 358.667969 292.488281 360.875 305.574219 360.875 C 318.113281 360.875 329.683594 358.902344 339.683594 355.148438 C 340.148438 362.304688 339.035156 370.386719 335.363281 379.3125 C 335.128906 379.890625 334.878906 380.472656 334.617188 381.0625 C 327.226562 382.296875 320.515625 386.128906 318.742188 392.347656 C 318.140625 394.480469 318.070312 396.511719 318.546875 398.402344 C 317.457031 399.113281 315.257812 400.773438 313.363281 403.609375 C 311.078125 407.019531 308.800781 412.847656 310.664062 421.40625 C 307.332031 425.289062 306.195312 429.15625 307.273438 432.917969 C 309.953125 442.230469 325.9375 447.875 335.222656 450.410156 C 338.535156 451.324219 342.007812 449.746094 343.523438 446.652344 C 346.988281 449.015625 355.753906 453.542969 371.996094 453.542969 C 375.59375 453.542969 379.550781 453.320312 383.898438 452.804688 C 408.132812 449.929688 419.386719 436.417969 418.621094 429.980469 C 418.363281 427.8125 417.527344 426.261719 416.140625 425.378906 C 415.691406 425.089844 415.238281 424.902344 414.792969 424.789062 C 415.527344 422.421875 415.75 419.910156 415.453125 417.28125 C 415.417969 410.515625 411.683594 403.011719 405.679688 397.679688 C 400.457031 393.039062 391.222656 387.863281 376.882812 389.570312 C 370.46875 390.332031 364.570312 392.082031 359.296875 394.789062 C 359.242188 391.988281 358.390625 389.5 356.746094 387.355469 C 355.472656 385.691406 353.753906 384.289062 351.667969 383.214844 C 356.867188 369.394531 357.277344 357.15625 355.394531 346.867188 C 356.726562 345.910156 358.007812 344.898438 359.230469 343.851562 C 361.140625 343.664062 363.050781 343.257812 364.945312 342.648438 C 370.363281 354.007812 381.964844 361.878906 395.367188 361.878906 C 404.097656 361.878906 412.066406 358.542969 418.054688 353.074219 C 419.148438 353.167969 421.339844 353.3125 424.121094 353.3125 C 431.320312 353.3125 442.476562 352.324219 448.890625 346.835938 C 452.015625 344.167969 453.703125 340.722656 453.90625 336.609375 C 454.058594 333.519531 452.863281 331.597656 451.683594 330.460938 C 455.101562 327.09375 456.28125 322.871094 455.699219 319.171875 "/>
<path style=" stroke:none;fill-rule:nonzero;fill:rgb(15.686035%,52.549744%,39.215088%);fill-opacity:1;" d="M 381.453125 305.492188 C 379.464844 303.996094 375.363281 305.886719 371.15625 309.882812 C 369.617188 311.339844 368.054688 313.082031 366.578125 315.042969 C 364.722656 317.507812 363.242188 320.003906 362.195312 322.308594 C 360.125 326.84375 359.738281 330.632812 361.539062 331.988281 C 361.65625 332.078125 361.785156 332.15625 361.921875 332.222656 C 362.773438 332.636719 363.921875 332.570312 365.246094 332.09375 C 368.445312 330.9375 372.691406 327.378906 376.410156 322.433594 C 381.910156 315.117188 384.167969 307.53125 381.453125 305.492188 "/>
<path style=" stroke:none;fill-rule:nonzero;fill:rgb(15.686035%,52.549744%,39.215088%);fill-opacity:1;" d="M 301.769531 208.980469 C 303.378906 208.660156 305.03125 208.480469 306.722656 208.480469 C 308.636719 208.480469 310.503906 208.710938 312.3125 209.117188 C 325.742188 212.082031 335.882812 224.316406 335.882812 219.386719 C 335.882812 218.496094 335.550781 217.328125 334.933594 215.988281 C 334.4375 214.917969 333.761719 213.746094 332.914062 212.519531 C 332.101562 211.339844 331.136719 210.101562 330.039062 208.875 C 326.511719 204.945312 321.613281 201.054688 315.933594 198.875 C 313.039062 197.761719 309.941406 197.09375 306.722656 197.09375 C 303.578125 197.09375 300.550781 197.730469 297.714844 198.796875 C 292.214844 200.863281 287.433594 204.542969 283.90625 208.328125 C 282.796875 209.523438 281.8125 210.730469 280.964844 211.898438 C 280.097656 213.101562 279.378906 214.265625 278.832031 215.335938 C 278.007812 216.945312 277.5625 218.355469 277.5625 219.386719 C 277.5625 224.390625 288.019531 211.699219 301.769531 208.980469 "/>
<path style=" stroke:none;fill-rule:nonzero;fill:rgb(15.686035%,52.549744%,39.215088%);fill-opacity:1;" d="M 342.664062 318.402344 C 338.210938 321.738281 333.277344 324.480469 327.992188 326.503906 C 321.242188 329.085938 313.914062 330.503906 306.253906 330.503906 C 297.363281 330.503906 288.917969 328.59375 281.308594 325.167969 C 276.175781 322.855469 271.425781 319.855469 267.167969 316.285156 C 253.871094 305.128906 245.410156 288.378906 245.410156 269.660156 C 245.410156 269.214844 245.433594 268.777344 245.449219 268.332031 C 255.65625 265.363281 266.800781 263.121094 278.613281 261.75 C 277.90625 264.222656 277.515625 266.832031 277.515625 269.535156 C 277.515625 285.074219 290.007812 297.667969 305.417969 297.667969 C 319.3125 297.667969 330.832031 287.429688 332.964844 274.027344 C 331.929688 274.9375 330.570312 275.492188 329.082031 275.492188 C 325.824219 275.492188 323.179688 272.824219 323.179688 269.535156 C 323.179688 266.246094 325.824219 263.582031 329.082031 263.582031 C 330.570312 263.582031 331.921875 264.132812 332.960938 265.042969 C 332.777344 263.855469 332.507812 262.699219 332.175781 261.570312 C 344.617188 262.929688 356.363281 265.222656 367.0625 268.332031 C 367.070312 268.777344 367.097656 269.214844 367.097656 269.660156 C 367.097656 289.605469 357.5 307.308594 342.664062 318.402344 M 359.039062 231.308594 C 358.53125 231.816406 357.984375 232.320312 357.394531 232.808594 C 356.851562 233.269531 356.277344 233.714844 355.660156 234.148438 C 361.980469 242.917969 366.015625 253.4375 366.90625 264.835938 C 348.472656 259.601562 327.523438 256.839844 306.253906 256.839844 C 284.980469 256.839844 264.035156 259.601562 245.601562 264.835938 C 246.492188 253.4375 250.527344 242.917969 256.847656 234.148438 C 256.234375 233.714844 255.65625 233.269531 255.113281 232.808594 C 254.523438 232.320312 253.980469 231.816406 253.46875 231.308594 C 245.621094 242.085938 240.984375 255.34375 240.984375 269.660156 C 240.984375 289.785156 250.140625 307.808594 264.5 319.789062 C 268.734375 323.324219 273.425781 326.335938 278.472656 328.710938 C 286.90625 332.695312 296.324219 334.929688 306.253906 334.929688 C 314.914062 334.929688 323.179688 333.234375 330.746094 330.160156 C 335.925781 328.050781 340.78125 325.296875 345.207031 322 C 361.171875 310.089844 371.523438 291.0625 371.523438 269.660156 C 371.523438 255.34375 366.886719 242.085938 359.039062 231.308594 "/>
<path style=" stroke:none;fill-rule:nonzero;fill:rgb(15.686035%,52.549744%,39.215088%);fill-opacity:1;" d="M 376.222656 273.871094 C 378.832031 273.113281 381.59375 272.738281 384.261719 272.835938 C 387.039062 273.316406 389.003906 273.722656 392.054688 273.734375 L 392.246094 273.464844 C 389.492188 267.582031 381.441406 270.148438 376.941406 272.996094 C 378.472656 271.171875 380.265625 269.539062 382.195312 268.234375 C 383.992188 267.355469 385.441406 266.683594 387.011719 265.726562 C 387.65625 265.339844 388.3125 264.910156 389.027344 264.394531 L 389.027344 264.0625 C 385.917969 262.355469 383.027344 263.585938 380.722656 265.859375 C 378.5 268.054688 376.8125 271.21875 375.996094 273.652344 L 376.144531 273.726562 Z M 376.222656 273.871094 "/>
<path style=" stroke:none;fill-rule:nonzero;fill:rgb(15.686035%,52.549744%,39.215088%);fill-opacity:1;" d="M 328.179688 193.902344 L 328.34375 193.953125 C 329.65625 191.578125 331.355469 189.363281 333.316406 187.550781 C 335.625 185.933594 337.304688 184.835938 339.472656 182.695312 L 339.417969 182.371094 C 333.296875 180.15625 329.441406 187.609375 328.238281 192.804688 C 328.039062 190.4375 328.15625 188.027344 328.605469 185.746094 C 329.523438 183.082031 330.242188 181.210938 330.742188 178.207031 L 330.507812 177.96875 C 323.816406 179.898438 325.714844 189.265625 328.023438 193.960938 Z M 328.179688 193.902344 "/>
<path style=" stroke:none;fill-rule:nonzero;fill:rgb(15.686035%,52.549744%,39.215088%);fill-opacity:1;" d="M 255.574219 210.242188 C 255.996094 210.273438 256.425781 210.316406 256.847656 210.371094 C 259.097656 210.652344 261.359375 211.261719 263.476562 212.132812 L 263.574219 211.996094 L 263.726562 211.9375 C 263.382812 210.300781 262.832031 208.71875 262.082031 207.234375 C 261.515625 206.101562 260.824219 205.023438 260.019531 204.019531 C 258.683594 202.144531 256.648438 200.390625 254.148438 200.503906 C 253.355469 200.433594 252.515625 200.675781 251.765625 201 L 251.730469 201.328125 C 254.007812 203.363281 255.742188 204.375 258.128906 205.882812 C 258.9375 206.566406 259.710938 207.3125 260.4375 208.105469 C 261.304688 209.050781 262.101562 210.070312 262.824219 211.136719 C 261.703125 210.234375 260.488281 209.457031 259.195312 208.824219 C 258.183594 208.335938 257.117188 207.929688 256.015625 207.621094 C 253.828125 206.890625 251.15625 206.667969 249.191406 208.21875 C 248.515625 208.632812 247.976562 209.320312 247.558594 210.019531 L 247.71875 210.308594 C 250.761719 210.621094 252.761719 210.421875 255.574219 210.242188 "/>
</g>
</svg>
