<?xml version="1.0" encoding="UTF-8"?>
<svg xmlns="http://www.w3.org/2000/svg" xmlns:xlink="http://www.w3.org/1999/xlink" width="595.276pt" height="576.002pt" viewBox="0 0 595.276 576.002" version="1.1">
<g id="surface1">
<path style=" stroke:none;fill-rule:nonzero;fill:rgb(15.686035%,52.549744%,39.215088%);fill-opacity:1;" d="M 534.609375 321.410156 C 528.671875 324.261719 524.894531 318.820312 524.738281 318.589844 C 524.296875 317.929688 523.425781 317.710938 522.726562 318.078125 C 522.019531 318.457031 521.714844 319.296875 522.015625 320.039062 C 522.496094 321.21875 524.519531 327.285156 517.046875 330.324219 C 510.140625 333.125 506.078125 327.058594 505.910156 326.804688 C 505.515625 326.199219 504.757812 325.945312 504.082031 326.1875 C 503.398438 326.433594 502.980469 327.113281 503.070312 327.835938 C 503.683594 332.855469 498.65625 335.292969 498.375 335.429688 C 498.296875 335.46875 496.4375 336.40625 493.964844 335.546875 C 491.265625 334.621094 488.765625 331.839844 486.726562 327.503906 C 486.707031 327.433594 486.6875 327.363281 486.65625 327.292969 C 486.636719 327.246094 484.730469 322.675781 483.917969 317.621094 C 482.875 309.03125 485.234375 302.097656 485.265625 302.011719 C 485.546875 301.203125 485.121094 300.316406 484.3125 300.035156 C 483.503906 299.75 482.625 300.175781 482.335938 300.980469 C 482.277344 301.160156 481.707031 302.8125 481.226562 305.453125 C 477.8125 307.507812 474.695312 309.660156 472.019531 311.789062 C 472.242188 308.667969 473.058594 305.015625 474.703125 300.851562 C 477.335938 294.21875 481.070312 289.117188 485.804688 285.679688 C 487.699219 284.296875 489.503906 283.382812 491.011719 282.777344 C 493.4375 281.804688 495.109375 281.628906 495.171875 281.625 C 496.023438 281.554688 496.660156 280.808594 496.589844 279.957031 C 496.519531 279.101562 495.773438 278.488281 494.917969 278.535156 C 494.792969 278.546875 492.9375 278.71875 490.242188 279.75 C 488.589844 280.378906 486.613281 281.339844 484.53125 282.78125 C 483.84375 282.597656 482.617188 282.066406 482.011719 280.578125 C 481.445312 279.183594 482.449219 276.28125 488.304688 272.804688 C 490.105469 271.734375 492.363281 270.613281 495.175781 269.460938 C 498.160156 268.234375 500.707031 267.601562 502.832031 267.390625 C 506.433594 267.03125 508.8125 267.875 510.007812 269.132812 C 510.949219 270.117188 511.246094 271.4375 510.863281 272.84375 C 508.875 272.875 506.828125 273.230469 504.753906 273.902344 C 504.460938 273.996094 504.175781 274.097656 503.886719 274.203125 C 503.085938 274.496094 502.667969 275.382812 502.960938 276.1875 C 503.253906 276.996094 504.144531 277.40625 504.953125 277.117188 C 505.132812 277.050781 505.3125 276.984375 505.492188 276.929688 C 507.691406 276.1875 509.832031 275.863281 511.871094 275.953125 C 511.890625 275.953125 511.914062 275.953125 511.933594 275.960938 C 526.890625 276.710938 534.835938 299.710938 537.558594 309.574219 C 537.65625 309.941406 537.726562 310.195312 537.765625 310.320312 L 537.832031 310.515625 C 539.054688 314.285156 539.789062 318.929688 534.609375 321.410156 M 477.546875 328.070312 C 475.871094 328.347656 474.300781 328.519531 472.886719 328.585938 C 472.863281 328.589844 472.835938 328.589844 472.8125 328.589844 C 472.777344 328.589844 472.738281 328.597656 472.703125 328.597656 C 471.582031 328.632812 470.554688 328.605469 469.644531 328.519531 C 467.277344 328.277344 465.699219 327.566406 465.199219 326.523438 C 464.707031 325.480469 465.15625 323.816406 466.457031 321.839844 C 466.992188 321.027344 467.644531 320.1875 468.398438 319.339844 C 468.40625 319.332031 468.417969 319.316406 468.425781 319.304688 C 468.707031 318.992188 469.007812 318.675781 469.324219 318.355469 C 469.738281 317.914062 470.195312 317.472656 470.671875 317.027344 C 471.109375 316.613281 471.578125 316.199219 472.0625 315.777344 C 474.472656 313.683594 477.398438 311.53125 480.675781 309.441406 C 480.46875 311.648438 480.355469 314.671875 480.785156 317.628906 C 480.785156 317.648438 480.792969 317.667969 480.792969 317.6875 C 481.042969 319.867188 481.492188 322.148438 482.226562 324.476562 C 482.367188 324.941406 482.527344 325.414062 482.699219 325.882812 C 482.707031 325.910156 482.714844 325.929688 482.722656 325.953125 C 482.839844 326.261719 482.957031 326.574219 483.082031 326.875 C 481.140625 327.378906 479.285156 327.78125 477.546875 328.070312 M 471.953125 351.507812 C 471.761719 352.816406 471.460938 353.953125 471.101562 354.9375 C 470.753906 355.878906 470.355469 356.6875 469.933594 357.367188 C 468.472656 359.746094 466.808594 360.621094 466.640625 360.707031 C 462.316406 362.761719 456.355469 364.316406 449.488281 365.257812 C 448.964844 365.332031 448.433594 365.394531 447.898438 365.460938 C 447.355469 365.53125 446.808594 365.589844 446.253906 365.644531 C 443.539062 365.9375 440.710938 366.136719 437.8125 366.238281 C 434.160156 366.363281 430.386719 366.335938 426.578125 366.152344 C 425.050781 366.078125 423.558594 365.976562 422.113281 365.851562 C 421.019531 365.761719 419.957031 365.652344 418.914062 365.53125 C 407.851562 364.25 399.738281 361.507812 398.222656 358.3125 C 397.304688 356.390625 398.042969 352.707031 400.082031 348.027344 C 402.171875 343.253906 405.625 337.433594 410.085938 331.394531 C 410.683594 330.578125 411.296875 329.777344 411.910156 328.980469 C 413.003906 327.570312 414.113281 326.1875 415.238281 324.847656 C 416.660156 323.144531 418.109375 321.507812 419.558594 319.945312 C 426.53125 312.4375 433.6875 306.621094 439.632812 303.804688 C 439.867188 303.699219 442.917969 302.40625 447.5 304.199219 C 448.261719 304.5 449.0625 304.886719 449.902344 305.371094 C 450.597656 305.777344 451.320312 306.253906 452.058594 306.8125 C 455.152344 309.144531 458.628906 312.929688 462.242188 318.96875 L 455.9375 321.964844 C 452.636719 323.527344 451.003906 327.199219 451.878906 330.628906 C 451.914062 330.777344 451.953125 330.929688 452.007812 331.074219 L 450.074219 331.988281 L 447.003906 333.445312 L 435.332031 338.988281 L 432.441406 340.359375 L 430.070312 341.484375 L 430.066406 341.484375 L 419.554688 346.476562 C 418.785156 346.839844 418.453125 347.765625 418.816406 348.542969 C 419.085938 349.097656 419.640625 349.421875 420.21875 349.421875 C 420.445312 349.421875 420.671875 349.378906 420.886719 349.277344 L 422.664062 348.433594 L 430.070312 344.917969 L 432.410156 343.808594 L 432.808594 343.617188 L 435.800781 342.195312 L 453.097656 333.988281 L 453.332031 333.871094 C 453.371094 333.941406 453.417969 334.007812 453.464844 334.074219 C 454.890625 336.132812 457.242188 337.308594 459.671875 337.308594 C 459.902344 337.308594 460.132812 337.300781 460.367188 337.277344 C 461.007812 337.21875 461.648438 337.074219 462.28125 336.839844 C 462.484375 336.769531 462.6875 336.683594 462.886719 336.589844 L 463.828125 336.144531 L 468.4375 333.957031 L 469.183594 333.601562 C 469.363281 334.09375 469.527344 334.574219 469.683594 335.042969 C 472.144531 342.332031 472.511719 347.660156 471.953125 351.507812 M 474.035156 375.070312 C 474.023438 373.859375 474.007812 372.6875 474.007812 371.574219 C 474.007812 366.546875 473.726562 361.996094 473.167969 357.917969 C 474.8125 354.703125 475.945312 349.84375 474.808594 342.6875 C 478.289062 349.488281 481.042969 358.101562 482.0625 362.777344 C 482.421875 364.433594 482.617188 366.664062 481.515625 367.886719 C 480.359375 369.175781 478.199219 368.957031 478.1875 368.949219 C 477.667969 368.894531 477.152344 369.09375 476.8125 369.5 C 476.476562 369.902344 476.367188 370.445312 476.519531 370.953125 C 476.5625 371.082031 480.539062 384.390625 474.679688 402.714844 C 468.941406 420.667969 454.128906 431.820312 436.003906 431.820312 C 429.789062 431.820312 425.179688 430.296875 422.292969 427.304688 C 421.105469 426.078125 420.359375 424.734375 419.894531 423.515625 C 424.085938 426.398438 429.128906 427.652344 434.351562 427.652344 C 442.113281 427.652344 450.277344 424.886719 456.675781 420.601562 C 471.582031 410.605469 473.785156 394.914062 474.035156 382.355469 C 474.035156 382.339844 474.039062 382.328125 474.039062 382.320312 C 474.089844 379.78125 474.058594 377.390625 474.035156 375.070312 M 446.171875 373.769531 C 447.234375 372.09375 448.070312 370.3125 448.675781 368.46875 C 455.816406 367.582031 462.679688 366.011719 467.96875 363.503906 C 468.117188 363.433594 469.1875 362.898438 470.464844 361.640625 C 470.761719 364.707031 470.910156 368.019531 470.910156 371.574219 C 470.910156 372.699219 470.925781 373.878906 470.933594 375.105469 C 470.949219 376.5 470.964844 377.925781 470.964844 379.386719 C 460.660156 373.113281 447.160156 373.710938 446.171875 373.769531 M 418.660156 418.375 C 415.929688 415.460938 414.484375 411.703125 414.484375 407.5 C 414.484375 395.109375 420.226562 386.148438 431.53125 380.859375 L 431.539062 380.851562 C 435.925781 378.800781 440.191406 377.789062 442.996094 377.300781 C 443.015625 377.300781 443.03125 377.292969 443.050781 377.289062 C 445.046875 376.945312 446.304688 376.867188 446.3125 376.867188 C 446.34375 376.863281 446.855469 376.839844 447.734375 376.839844 C 451.679688 376.839844 462.984375 377.375 470.921875 383.070312 C 470.605469 394.738281 468.367188 409.027344 454.949219 418.023438 C 440.367188 427.804688 425.414062 425.542969 418.71875 418.445312 C 418.703125 418.417969 418.679688 418.398438 418.660156 418.375 M 424.992188 372.714844 C 428.445312 371.699219 431.3125 370.402344 433.265625 369.402344 C 437.128906 369.390625 441.207031 369.214844 445.261719 368.835938 C 444.507812 370.707031 443.410156 372.570312 441.914062 374.34375 C 439.148438 374.855469 435.269531 375.824219 431.199219 377.609375 C 428.644531 376.511719 426.546875 374.847656 424.992188 372.714844 M 406.691406 330.789062 C 404.910156 333.265625 402.226562 337.207031 399.851562 341.496094 C 400.4375 337.796875 402.058594 334.332031 403.617188 331.695312 C 404.648438 331.414062 405.675781 331.109375 406.691406 330.789062 M 387.414062 329.539062 C 384.195312 329.871094 381.003906 330.03125 377.855469 330.03125 C 373.238281 330.03125 368.71875 329.691406 364.347656 329.054688 C 357.59375 328.074219 351.195312 326.402344 345.347656 324.222656 C 334.925781 320.332031 326.261719 314.828125 320.488281 308.78125 C 316.664062 304.777344 313.746094 301.03125 311.527344 297.652344 C 321.796875 305.546875 334.640625 310.238281 348.5625 310.238281 C 382.167969 310.238281 409.503906 282.894531 409.503906 249.296875 C 409.503906 246.15625 409.261719 243.074219 408.800781 240.058594 C 408.800781 240.046875 408.796875 240.03125 408.796875 240.015625 C 408.738281 239.628906 408.675781 239.246094 408.605469 238.863281 C 408.546875 238.523438 408.488281 238.183594 408.421875 237.84375 C 408.40625 237.757812 408.386719 237.667969 408.371094 237.582031 C 408.316406 237.289062 408.253906 236.988281 408.1875 236.691406 C 408.164062 236.554688 408.136719 236.421875 408.101562 236.292969 C 408.046875 236.011719 407.980469 235.730469 407.917969 235.457031 C 407.890625 235.335938 407.859375 235.214844 407.832031 235.097656 C 407.75 234.757812 407.671875 234.417969 407.582031 234.082031 C 405.046875 224.175781 400.132812 215.269531 393.445312 208 C 393.441406 208.027344 393.425781 208.050781 393.40625 208.074219 C 393.242188 208.390625 393.058594 208.703125 392.867188 209 C 392.683594 209.28125 392.5 209.550781 392.300781 209.816406 C 392.289062 209.835938 392.273438 209.851562 392.253906 209.871094 C 392.160156 210.011719 392.050781 210.152344 391.945312 210.289062 C 391.625 210.6875 391.285156 211.074219 390.929688 211.445312 C 390.921875 211.445312 390.921875 211.445312 390.921875 211.449219 C 391.59375 212.203125 392.246094 212.972656 392.875 213.757812 C 392.886719 213.777344 392.898438 213.789062 392.914062 213.804688 C 394.800781 216.171875 396.5 218.679688 397.992188 221.3125 C 397.996094 221.324219 398.003906 221.332031 398.007812 221.339844 C 398.503906 222.214844 398.972656 223.101562 399.421875 224.003906 C 399.425781 224.003906 399.425781 224.007812 399.425781 224.011719 C 400.296875 225.753906 401.070312 227.546875 401.757812 229.375 C 401.808594 229.515625 401.859375 229.65625 401.914062 229.792969 C 402.234375 230.667969 402.535156 231.550781 402.8125 232.441406 C 402.824219 232.476562 402.835938 232.511719 402.847656 232.546875 C 403.035156 233.152344 403.210938 233.765625 403.378906 234.378906 C 403.410156 234.503906 403.441406 234.625 403.472656 234.75 C 403.933594 236.480469 404.308594 238.242188 404.605469 240.019531 C 404.636719 240.226562 404.664062 240.433594 404.691406 240.640625 C 398.707031 238.914062 392.46875 237.40625 385.988281 236.136719 C 381.398438 235.222656 376.6875 234.4375 371.867188 233.785156 C 360.550781 232.246094 349.226562 231.484375 338.078125 231.449219 C 337.789062 231.445312 337.511719 231.445312 337.226562 231.445312 C 336.679688 231.445312 336.132812 231.445312 335.59375 231.457031 C 330.386719 231.484375 325.222656 231.671875 320.109375 232.011719 C 311.480469 232.585938 303.011719 233.59375 294.792969 235 C 294.378906 235.070312 293.964844 235.140625 293.546875 235.214844 C 294.375 231.980469 295.472656 228.882812 296.800781 225.933594 C 296.875 225.765625 296.949219 225.589844 297.027344 225.417969 C 298.058594 223.183594 299.230469 221.035156 300.523438 218.984375 C 300.578125 218.894531 300.632812 218.808594 300.691406 218.71875 C 301.09375 218.085938 301.507812 217.460938 301.9375 216.847656 C 301.984375 216.78125 302.03125 216.710938 302.078125 216.644531 C 302.265625 216.371094 302.460938 216.097656 302.664062 215.828125 C 303.351562 214.882812 304.066406 213.964844 304.804688 213.070312 C 304.8125 213.0625 304.816406 213.058594 304.824219 213.050781 C 305.167969 212.636719 305.519531 212.222656 305.882812 211.824219 C 306.28125 211.359375 306.699219 210.902344 307.117188 210.453125 C 307.371094 210.171875 307.636719 209.890625 307.917969 209.617188 C 308.183594 209.335938 308.453125 209.0625 308.734375 208.796875 C 308.785156 208.75 308.835938 208.703125 308.882812 208.652344 C 309.628906 207.925781 310.402344 207.214844 311.1875 206.527344 C 312.351562 205.511719 313.558594 204.539062 314.800781 203.621094 C 314.816406 203.609375 314.832031 203.597656 314.847656 203.585938 C 316.015625 202.722656 317.222656 201.910156 318.453125 201.140625 C 318.59375 201.050781 318.734375 200.960938 318.878906 200.871094 C 319.144531 200.707031 319.410156 200.542969 319.679688 200.386719 C 320.007812 200.191406 320.332031 200 320.660156 199.820312 C 320.667969 199.816406 320.675781 199.8125 320.683594 199.808594 C 321.683594 199.238281 322.703125 198.703125 323.734375 198.203125 C 324.082031 198.03125 324.429688 197.863281 324.78125 197.710938 C 325.1875 197.519531 325.597656 197.339844 326.011719 197.160156 C 326.222656 197.0625 326.433594 196.972656 326.648438 196.886719 C 326.648438 196.886719 326.644531 196.886719 326.644531 196.882812 C 326.644531 196.882812 326.636719 196.878906 326.636719 196.875 C 326.34375 196.414062 326.0625 195.953125 325.808594 195.488281 C 325.726562 195.355469 325.65625 195.222656 325.585938 195.089844 C 325.582031 195.082031 325.578125 195.078125 325.574219 195.066406 C 325.414062 194.769531 325.257812 194.476562 325.113281 194.179688 C 324.957031 193.867188 324.804688 193.550781 324.667969 193.234375 C 324.667969 193.230469 324.660156 193.21875 324.660156 193.214844 C 319.675781 195.335938 315.011719 198.113281 310.792969 201.457031 C 310.710938 199.296875 310.75 197.207031 310.929688 195.625 C 312.472656 181.933594 324.636719 167.496094 339.542969 165.1875 C 340.589844 165.023438 341.628906 164.949219 342.660156 164.949219 C 344.371094 164.949219 346.042969 165.167969 347.636719 165.585938 C 348.292969 166.132812 348.921875 166.710938 349.527344 167.3125 L 349.652344 167.222656 L 349.808594 167.214844 C 349.9375 165.894531 349.917969 164.574219 349.816406 163.246094 C 352.222656 150.121094 360.261719 132.574219 376.425781 132.273438 C 376.578125 132.269531 376.726562 132.269531 376.878906 132.269531 C 386.652344 132.269531 394.425781 138.160156 398.175781 146.109375 C 398.519531 148.160156 399.207031 150.152344 399.941406 151.644531 L 400.089844 151.59375 L 400.238281 151.644531 C 400.386719 151.375 400.542969 151.101562 400.703125 150.839844 C 400.992188 150.359375 401.296875 149.886719 401.617188 149.429688 C 401.296875 149.886719 400.992188 150.359375 400.703125 150.839844 C 403.246094 148.660156 406.371094 147.308594 409.351562 147.308594 C 409.722656 147.308594 410.085938 147.328125 410.445312 147.371094 C 420.214844 148.496094 424.019531 160.273438 423.457031 168.367188 C 423.410156 169.035156 423.359375 169.703125 423.273438 170.347656 C 424.992188 169.609375 426.808594 169.160156 428.472656 169.160156 C 429.089844 169.160156 429.683594 169.21875 430.246094 169.351562 C 439.875 171.625 443.945312 184.578125 444.761719 193.214844 C 444.976562 195.515625 444.941406 197.6875 444.710938 199.6875 C 444.714844 199.691406 444.726562 199.695312 444.730469 199.703125 C 444.535156 200.824219 444.40625 201.902344 444.339844 202.90625 L 444.496094 202.929688 L 444.605469 203.035156 C 445.296875 202.515625 446.003906 202.011719 446.730469 201.546875 C 456.804688 211.179688 461.664062 221.519531 463.460938 231.371094 C 449.207031 230.234375 437.347656 236.386719 436.703125 236.726562 C 432.933594 238.722656 431.503906 243.382812 433.480469 247.164062 C 435.457031 250.941406 440.136719 252.402344 443.925781 250.441406 C 443.976562 250.417969 445.863281 249.460938 448.839844 248.519531 C 447.246094 250.453125 446.027344 252.839844 445.386719 254.75 L 445.527344 254.820312 L 445.597656 254.957031 C 448.035156 254.246094 450.617188 253.902344 453.105469 253.984375 C 455.699219 254.433594 457.535156 254.816406 460.378906 254.828125 L 460.558594 254.574219 C 457.984375 249.078125 450.46875 251.476562 446.273438 254.128906 C 447.707031 252.433594 449.371094 250.910156 451.171875 249.695312 C 453.117188 248.738281 454.613281 248.054688 456.371094 246.917969 C 458.773438 246.664062 461.371094 246.632812 464.011719 247.023438 C 462.253906 264.175781 453.617188 277.035156 453.429688 277.039062 C 457.460938 283.777344 455.054688 293.644531 449.433594 301.664062 C 443.105469 298.839844 438.636719 300.847656 438.3125 301 C 429.535156 305.160156 420.003906 314.335938 412.617188 323.171875 C 411.179688 323.765625 409.738281 324.320312 408.296875 324.832031 C 401.320312 327.308594 394.300781 328.828125 387.414062 329.539062 M 343.507812 376.527344 C 347.660156 382.417969 347.125 386.347656 346.621094 387.90625 C 344.761719 386.480469 343.316406 385.707031 343.246094 385.671875 C 342.492188 385.273438 341.554688 385.5625 341.15625 386.3125 C 340.753906 387.070312 341.042969 388.011719 341.796875 388.410156 C 341.816406 388.421875 343.527344 389.335938 345.53125 390.996094 C 349.761719 394.507812 354.0625 400.203125 350.964844 407.613281 C 348.503906 403.257812 343.824219 399.242188 337.039062 395.648438 C 333.929688 394.007812 331.136719 392.683594 328.441406 391.40625 C 323.789062 389.203125 319.722656 387.277344 315.53125 384.390625 C 318.28125 379.339844 318.382812 373.96875 317.601562 369.476562 C 323.144531 376.097656 328.675781 380.527344 328.925781 380.722656 C 329.207031 380.949219 329.546875 381.058594 329.886719 381.058594 C 330.34375 381.058594 330.792969 380.859375 331.101562 380.472656 C 331.632812 379.800781 331.523438 378.824219 330.851562 378.296875 C 330.828125 378.277344 329.917969 377.550781 328.484375 376.257812 L 328.484375 376.253906 C 326.363281 374.351562 323.097656 371.222656 319.886719 367.375 C 321.316406 366.476562 324.246094 365.074219 328.101562 365.488281 C 331.222656 365.816406 334.957031 367.347656 338.992188 371.308594 C 340.90625 373.183594 342.378906 374.929688 343.507812 376.527344 M 341.742188 404.949219 C 335.085938 401.09375 328.226562 399.296875 326.386719 398.863281 L 321.683594 394.078125 C 321.574219 393.96875 321.453125 393.878906 321.316406 393.808594 C 320.457031 393.339844 319.605469 392.894531 318.75 392.445312 C 314.832031 390.398438 311.136719 388.460938 307.039062 385.277344 C 303.808594 382.785156 300.359375 378.535156 296.710938 374.035156 C 292.441406 368.769531 287.601562 362.804688 282.179688 358.574219 C 274.796875 352.796875 266.527344 350.566406 260.054688 352.585938 C 258.878906 352.957031 257.574219 353.523438 256.257812 354.390625 C 259.640625 351.175781 264.226562 349.625 269.175781 350.003906 C 275.148438 350.464844 284.4375 353.894531 294.753906 367.597656 C 301.097656 376.007812 306.753906 381.890625 312.558594 386.097656 C 312.582031 386.113281 312.601562 386.132812 312.628906 386.148438 C 317.441406 389.621094 321.921875 391.746094 327.109375 394.207031 C 329.78125 395.46875 332.539062 396.78125 335.59375 398.390625 C 342.316406 401.949219 346.730469 405.855469 348.71875 410 C 349.054688 410.699219 349.316406 411.40625 349.511719 412.121094 C 347.925781 409.429688 345.328125 407.03125 341.742188 404.949219 M 346.042969 425.582031 C 346.039062 425.585938 346.039062 425.589844 346.039062 425.589844 C 346.007812 425.621094 345.988281 425.652344 345.972656 425.671875 C 342.996094 428.945312 337.878906 430.476562 329.886719 430.476562 C 318.015625 430.476562 311.253906 425.691406 308.933594 423.675781 L 326.199219 402.011719 C 328.449219 402.585938 334.476562 404.324219 340.183594 407.632812 C 344.632812 410.210938 347.269531 413.25 348.019531 416.660156 C 348.988281 421.027344 346.582031 424.808594 346.042969 425.582031 M 305.519531 416.339844 L 320.742188 397.535156 L 323.535156 400.378906 L 307.292969 420.761719 Z M 303.0625 414.460938 C 286.695312 413.050781 273.242188 408.058594 264.109375 399.984375 C 256.027344 392.835938 251.453125 383.269531 251.226562 373.054688 C 251.171875 370.710938 251.328125 368.414062 251.675781 366.230469 C 253.425781 360.597656 256.640625 356.902344 260.980469 355.546875 C 266.484375 353.828125 273.691406 355.871094 280.273438 361.015625 C 285.414062 365.027344 289.933594 370.597656 294.304688 375.988281 C 298.066406 380.628906 301.625 385.011719 305.136719 387.730469 C 309.457031 391.078125 313.449219 393.171875 317.308594 395.195312 C 317.625 395.359375 317.9375 395.523438 318.253906 395.6875 Z M 279.074219 341.609375 C 297.171875 339.8125 307.617188 354.273438 311.265625 360.570312 C 311.273438 360.578125 311.273438 360.582031 311.277344 360.585938 L 311.300781 360.625 L 311.347656 360.710938 C 311.363281 360.742188 311.382812 360.769531 311.402344 360.8125 C 312.3125 362.476562 317.789062 373.21875 313 382.550781 C 307.917969 378.605469 302.867188 373.214844 297.226562 365.730469 C 286.21875 351.105469 276.023438 347.425781 269.417969 346.910156 C 267.269531 346.746094 265.183594 346.890625 263.199219 347.335938 C 267.640625 344.199219 273.101562 342.195312 279.074219 341.609375 M 307.441406 288.488281 C 307.121094 288.164062 306.816406 287.832031 306.515625 287.496094 C 306.515625 287.496094 306.507812 287.492188 306.507812 287.488281 C 306.339844 287.3125 306.179688 287.132812 306.019531 286.953125 C 305.917969 286.824219 305.804688 286.707031 305.707031 286.582031 C 305.503906 286.359375 305.316406 286.136719 305.128906 285.910156 C 304.933594 285.679688 304.746094 285.449219 304.558594 285.21875 C 304.105469 284.664062 303.660156 284.101562 303.226562 283.527344 C 302.957031 283.167969 302.6875 282.804688 302.425781 282.4375 C 302.273438 282.230469 302.121094 282.019531 301.980469 281.808594 C 301.980469 281.808594 301.976562 281.804688 301.976562 281.800781 C 301.902344 281.695312 301.832031 281.589844 301.757812 281.484375 C 301.5625 281.195312 301.367188 280.90625 301.175781 280.613281 C 301.167969 280.609375 301.160156 280.597656 301.15625 280.59375 C 300.074219 278.953125 299.074219 277.253906 298.167969 275.507812 C 296.035156 271.414062 294.398438 267.058594 293.3125 262.535156 C 293.253906 262.300781 293.199219 262.070312 293.148438 261.832031 C 293.082031 261.554688 293.023438 261.277344 292.96875 260.996094 C 292.9375 260.878906 292.914062 260.757812 292.890625 260.636719 C 292.824219 260.300781 292.757812 259.964844 292.695312 259.632812 C 292.660156 259.464844 292.632812 259.300781 292.605469 259.136719 C 291.785156 254.515625 291.539062 249.75 291.921875 244.925781 C 291.953125 244.5 291.992188 244.074219 292.035156 243.644531 C 292.042969 243.546875 292.050781 243.457031 292.066406 243.363281 C 292.089844 243.082031 292.125 242.808594 292.160156 242.527344 C 292.210938 242.082031 292.269531 241.632812 292.335938 241.1875 C 292.429688 240.539062 292.535156 239.894531 292.65625 239.25 C 292.949219 239.3125 293.246094 239.347656 293.546875 239.347656 C 293.636719 239.347656 293.734375 239.34375 293.824219 239.339844 C 293.96875 239.328125 294.117188 239.3125 294.261719 239.285156 C 302.742188 237.792969 311.40625 236.746094 320.167969 236.15625 C 325.164062 235.816406 330.183594 235.625 335.222656 235.589844 C 333.902344 237.925781 332.878906 240.492188 332.234375 243.238281 C 330.757812 249.496094 331.429688 255.757812 333.769531 261.253906 C 337.265625 269.449219 344.472656 275.925781 353.804688 278.125 C 366.9375 281.222656 380.097656 274.855469 386.113281 263.445312 C 385.832031 263.421875 385.550781 263.371094 385.273438 263.304688 C 381.6875 262.460938 379.472656 258.871094 380.316406 255.285156 C 381.164062 251.703125 384.75 249.484375 388.335938 250.332031 C 388.726562 250.425781 389.101562 250.550781 389.460938 250.707031 C 389.5625 247.273438 389.042969 243.910156 387.992188 240.753906 C 393.3125 241.871094 398.515625 243.160156 403.566406 244.621094 C 403.941406 244.726562 404.328125 244.78125 404.707031 244.78125 C 404.875 244.78125 405.035156 244.769531 405.195312 244.75 L 405.203125 244.75 C 405.4375 247.683594 405.445312 250.660156 405.210938 253.664062 C 405.179688 254.089844 405.136719 254.519531 405.09375 254.945312 C 405.089844 255.042969 405.078125 255.132812 405.0625 255.226562 C 405.039062 255.507812 405.003906 255.78125 404.96875 256.0625 C 404.921875 256.511719 404.863281 256.957031 404.792969 257.40625 C 404.660156 258.34375 404.488281 259.273438 404.308594 260.199219 C 404.203125 260.746094 404.082031 261.289062 403.960938 261.835938 C 403.871094 262.230469 403.777344 262.621094 403.679688 263.011719 C 403.476562 263.824219 403.257812 264.625 403.023438 265.417969 C 402.890625 265.875 402.757812 266.332031 402.609375 266.785156 C 402.46875 267.222656 402.320312 267.65625 402.167969 268.085938 C 401.871094 268.933594 401.570312 269.777344 401.234375 270.601562 C 400.78125 271.730469 400.289062 272.835938 399.773438 273.921875 C 399.59375 274.289062 399.414062 274.65625 399.226562 275.023438 C 399.132812 275.207031 399.042969 275.386719 398.941406 275.574219 C 398.800781 275.84375 398.660156 276.109375 398.515625 276.375 C 398.3125 276.753906 398.101562 277.136719 397.886719 277.511719 C 397.855469 277.558594 397.828125 277.617188 397.789062 277.671875 C 397.585938 278.035156 397.371094 278.394531 397.148438 278.753906 C 394.53125 283.085938 391.359375 287 387.761719 290.414062 C 387.429688 290.734375 387.097656 291.046875 386.765625 291.34375 C 386.453125 291.632812 386.136719 291.90625 385.824219 292.179688 C 385.597656 292.382812 385.371094 292.578125 385.136719 292.765625 C 384.921875 292.949219 384.707031 293.128906 384.484375 293.300781 C 383.984375 293.714844 383.476562 294.117188 382.960938 294.503906 C 382.53125 294.839844 382.09375 295.160156 381.652344 295.46875 C 381.359375 295.691406 381.058594 295.902344 380.753906 296.105469 C 380.433594 296.332031 380.109375 296.550781 379.78125 296.757812 C 376.207031 299.109375 372.367188 301.054688 368.34375 302.558594 C 367.976562 302.699219 367.613281 302.832031 367.242188 302.953125 C 366.878906 303.089844 366.503906 303.214844 366.132812 303.328125 C 365.796875 303.445312 365.464844 303.550781 365.125 303.648438 C 365.019531 303.679688 364.914062 303.710938 364.808594 303.738281 C 364.132812 303.949219 363.449219 304.132812 362.761719 304.3125 C 362.757812 304.3125 362.753906 304.3125 362.742188 304.320312 C 362.296875 304.433594 361.839844 304.546875 361.390625 304.644531 C 357.246094 305.613281 352.960938 306.117188 348.613281 306.117188 C 346.207031 306.117188 343.773438 305.960938 341.328125 305.644531 C 340.90625 305.589844 340.476562 305.53125 340.054688 305.464844 C 339.832031 305.429688 339.613281 305.394531 339.390625 305.363281 C 338.640625 305.242188 337.898438 305.09375 337.160156 304.941406 C 336.710938 304.851562 336.261719 304.753906 335.8125 304.648438 C 335.632812 304.609375 335.453125 304.5625 335.273438 304.519531 C 334.230469 304.269531 333.203125 303.992188 332.1875 303.6875 C 332.042969 303.640625 331.890625 303.601562 331.746094 303.554688 C 330.617188 303.207031 329.503906 302.832031 328.414062 302.417969 C 328.40625 302.414062 328.390625 302.40625 328.375 302.402344 C 328 302.265625 327.628906 302.121094 327.257812 301.96875 C 326.878906 301.816406 326.503906 301.664062 326.132812 301.496094 C 325.761719 301.339844 325.390625 301.175781 325.019531 301.007812 C 324.160156 300.617188 323.316406 300.207031 322.484375 299.777344 C 321.738281 299.394531 321.007812 298.996094 320.285156 298.578125 C 315.679688 295.941406 311.527344 292.691406 307.910156 288.972656 C 307.742188 288.8125 307.589844 288.652344 307.441406 288.488281 M 349.289062 166.09375 C 349.316406 166.214844 349.339844 166.335938 349.359375 166.449219 C 349.269531 166.304688 349.171875 166.160156 349.074219 166.019531 C 349.148438 166.039062 349.21875 166.0625 349.289062 166.09375 C 348.917969 164.242188 348.390625 162.410156 347.710938 160.644531 C 348.390625 162.410156 348.917969 164.242188 349.289062 166.09375 M 397.945312 143.492188 C 397.941406 143.921875 397.964844 144.355469 398.003906 144.792969 C 397.964844 144.355469 397.941406 143.921875 397.945312 143.492188 M 405.335938 145.34375 L 405.339844 145.34375 C 406.5 144.535156 407.496094 143.847656 408.515625 143.019531 C 407.496094 143.847656 406.5 144.535156 405.339844 145.34375 L 405.335938 145.34375 C 405.1875 145.449219 405.039062 145.550781 404.882812 145.664062 C 405.039062 145.550781 405.1875 145.449219 405.335938 145.34375 M 445.523438 200.417969 C 445.875 199.515625 446.261719 198.628906 446.699219 197.773438 C 446.261719 198.628906 445.875 199.515625 445.523438 200.417969 C 445.71875 200.59375 445.902344 200.765625 446.09375 200.941406 C 445.65625 201.382812 445.242188 201.824219 444.867188 202.257812 C 445.066406 201.636719 445.289062 201.023438 445.523438 200.417969 M 462.402344 327.855469 C 462.769531 328.632812 463.316406 329.292969 464.039062 329.832031 C 464.824219 330.429688 465.8125 330.882812 467.015625 331.199219 L 461.554688 333.785156 C 461.398438 333.863281 461.246094 333.921875 461.085938 333.976562 C 460.203125 334.277344 459.273438 334.28125 458.421875 334.039062 C 457.246094 333.695312 456.21875 332.878906 455.652344 331.703125 L 455.511719 331.40625 L 455.476562 331.339844 C 455.46875 331.3125 455.457031 331.292969 455.453125 331.273438 C 455.4375 331.238281 455.421875 331.210938 455.410156 331.175781 C 455.398438 331.160156 455.394531 331.140625 455.378906 331.125 L 455.164062 330.664062 C 454.117188 328.457031 455.0625 325.808594 457.265625 324.761719 L 462.730469 322.167969 C 461.742188 324.328125 461.628906 326.234375 462.402344 327.855469 M 469.054688 248.308594 C 469.617188 248.519531 470.179688 248.753906 470.742188 249.019531 C 477.824219 252.34375 483.363281 259.339844 487.289062 269.871094 C 482.332031 272.761719 477.230469 277.035156 479.144531 281.746094 C 479.785156 283.324219 480.800781 284.308594 481.792969 284.929688 C 477.613281 288.601562 474.269531 293.5625 471.828125 299.703125 C 470.085938 304.105469 468.808594 309.476562 468.917969 314.429688 C 467.953125 315.316406 467.070312 316.191406 466.296875 317.046875 L 465.050781 317.640625 C 461.1875 311.113281 457.371094 306.941406 453.886719 304.324219 C 454.617188 303.253906 455.3125 302.140625 455.960938 300.992188 C 460.613281 292.707031 461.789062 284.179688 459.332031 277.476562 C 459.628906 276.957031 459.933594 276.398438 460.253906 275.8125 C 461.5 273.527344 463.347656 269.816406 465.050781 265.132812 C 466.695312 260.59375 468.3125 254.820312 469.054688 248.308594 M 278.269531 284.3125 C 277.742188 287.070312 277.089844 289.457031 276.355469 291.429688 C 274.648438 296.011719 272.464844 298.363281 270.148438 297.902344 C 267.859375 297.460938 267.039062 296.230469 266.769531 295.625 C 268.253906 291.554688 268.144531 288.101562 268.140625 287.949219 C 268.136719 287.78125 268.101562 287.617188 268.046875 287.464844 L 268.039062 287.460938 C 267.941406 287.304688 267.84375 287.140625 267.757812 286.976562 C 267.464844 286.628906 267.023438 286.414062 266.535156 286.460938 C 265.675781 286.492188 265.011719 287.207031 265.042969 288.0625 C 265.042969 288.097656 265.132812 291.324219 263.707031 294.972656 C 263.695312 295 263.683594 295.019531 263.679688 295.042969 C 263.664062 295.078125 263.65625 295.121094 263.640625 295.15625 C 261.636719 300.136719 257.84375 303.359375 252.375 304.75 C 248.597656 305.710938 244.5625 306.105469 240.378906 305.917969 C 239.765625 305.886719 239.164062 305.847656 238.5625 305.796875 C 238.117188 305.757812 237.671875 305.710938 237.226562 305.667969 L 237.117188 305.65625 L 237.011719 305.640625 C 243.402344 299.625 248.3125 291.460938 250.996094 282.304688 C 251 282.292969 251.007812 282.277344 251.007812 282.261719 C 254.90625 279.03125 257.433594 272.835938 258.519531 263.804688 C 258.621094 262.957031 258.015625 262.183594 257.164062 262.085938 C 256.3125 261.976562 255.542969 262.585938 255.441406 263.433594 C 254.414062 271.984375 252.011719 277.804688 248.488281 280.277344 C 248.472656 280.292969 248.453125 280.308594 248.4375 280.320312 C 245.992188 282.019531 243.441406 281.816406 241.816406 281.394531 C 242.351562 280.429688 242.738281 279.324219 242.972656 278.082031 C 243.414062 275.734375 243.132812 272.605469 240.015625 269.855469 C 242.476562 268.832031 245.386719 266.710938 245.921875 262.34375 C 246.371094 258.707031 245.070312 255.667969 242.042969 253.285156 C 243.222656 252.109375 245.441406 250.410156 248.503906 250.195312 C 248.523438 250.195312 248.542969 250.195312 248.5625 250.191406 C 249.574219 250.140625 250.597656 250.230469 251.59375 250.464844 C 258.539062 252.109375 266.867188 256.953125 267.074219 270.699219 L 267.074219 270.722656 C 267.105469 272.691406 266.964844 274.800781 266.660156 277.003906 C 266.539062 277.851562 267.128906 278.636719 267.976562 278.753906 C 268.050781 278.761719 268.121094 278.765625 268.195312 278.765625 C 268.253906 278.765625 268.308594 278.761719 268.367188 278.757812 C 269.050781 278.683594 269.625 278.152344 269.726562 277.433594 L 269.742188 277.316406 C 270.042969 275.152344 270.1875 273.0625 270.175781 271.09375 C 270.65625 270.289062 272.164062 268.140625 274.378906 268.5625 C 275.328125 268.746094 276.222656 269.425781 276.96875 270.527344 C 277.925781 271.929688 278.527344 273.839844 278.761719 276.105469 C 279.011719 278.5 278.855469 281.292969 278.269531 284.3125 M 236.378906 285.632812 C 237.636719 285.269531 238.742188 284.703125 239.675781 283.953125 C 240.648438 284.328125 242.230469 284.789062 244.09375 284.789062 C 245.023438 284.789062 246.03125 284.671875 247.0625 284.378906 C 245.53125 288.683594 243.464844 292.703125 240.96875 296.292969 C 240.980469 296.25 240.984375 296.207031 240.996094 296.160156 C 241.617188 292.941406 241.15625 288.785156 236.378906 285.632812 M 235.015625 300.199219 C 231.960938 302.257812 226.425781 302.644531 219.417969 301.28125 L 219.28125 301.25 C 217 300.800781 215.0625 300.265625 213.890625 299.90625 C 213.335938 299.734375 212.949219 299.605469 212.78125 299.539062 C 212.484375 299.429688 212.023438 299.25 211.46875 298.96875 C 207.679688 297.128906 206.148438 294.160156 206.917969 290.148438 C 207.871094 285.21875 211.75 283.617188 211.90625 283.550781 C 212.445312 283.347656 212.820312 282.851562 212.886719 282.277344 C 212.949219 281.695312 212.679688 281.128906 212.199219 280.808594 C 212.023438 280.695312 208.003906 277.953125 209.160156 271.996094 C 209.992188 267.671875 213.023438 266.125 213.140625 266.0625 C 213.589844 265.847656 213.90625 265.425781 213.996094 264.9375 C 214.085938 264.445312 213.925781 263.9375 213.582031 263.574219 C 213.46875 263.464844 210.964844 260.808594 212.199219 256.1875 C 213.136719 252.636719 215.777344 248.863281 227.984375 251.222656 C 229.316406 251.488281 230.378906 251.71875 231.335938 251.964844 C 231.34375 251.964844 231.351562 251.96875 231.359375 251.96875 C 231.375 251.972656 231.390625 251.976562 231.40625 251.976562 C 231.898438 252.109375 232.375 252.238281 232.835938 252.375 C 235.371094 253.105469 237.371094 253.941406 238.933594 254.894531 C 241.972656 256.761719 243.214844 259.003906 242.847656 261.964844 C 242.308594 266.347656 238.164062 267.394531 236.605469 267.636719 C 236.511719 267.585938 236.414062 267.535156 236.320312 267.488281 C 229.707031 264.300781 220.386719 263.925781 219.980469 263.910156 C 219.128906 263.867188 218.410156 264.546875 218.375 265.402344 C 218.347656 266.257812 219.015625 266.980469 219.867188 267.007812 C 219.96875 267.015625 229.46875 267.394531 235.519531 270.554688 C 235.542969 270.570312 235.570312 270.578125 235.59375 270.59375 C 235.632812 270.613281 235.667969 270.632812 235.710938 270.652344 C 235.859375 270.734375 236.003906 270.8125 236.144531 270.898438 C 239.191406 272.660156 240.429688 274.828125 239.925781 277.511719 C 239.644531 278.996094 239.09375 280.179688 238.265625 281.039062 C 238.261719 281.050781 238.253906 281.054688 238.246094 281.058594 C 236.796875 282.589844 234.625 283 232.847656 283.035156 C 232.605469 283.046875 232.371094 283.042969 232.144531 283.035156 L 232.101562 283.035156 C 230.878906 282.996094 229.882812 282.816406 229.339844 282.703125 C 229.316406 282.695312 229.292969 282.691406 229.273438 282.6875 C 229.261719 282.679688 229.25 282.679688 229.238281 282.675781 C 229.074219 282.636719 228.949219 282.605469 228.878906 282.585938 C 228.832031 282.578125 228.808594 282.566406 228.800781 282.566406 C 228.78125 282.5625 228.765625 282.554688 228.746094 282.550781 C 223.511719 281.304688 218.542969 281.300781 218.332031 281.308594 C 217.476562 281.3125 216.785156 282.011719 216.785156 282.867188 C 216.789062 283.722656 217.480469 284.414062 218.335938 284.414062 L 218.339844 284.414062 C 218.375 284.382812 223.132812 284.410156 227.976562 285.554688 C 227.976562 285.554688 228.007812 285.5625 228.0625 285.574219 C 228.140625 285.597656 228.285156 285.632812 228.480469 285.679688 C 228.496094 285.683594 228.515625 285.6875 228.539062 285.695312 C 229.464844 285.9375 230.289062 286.191406 231.050781 286.46875 C 231.121094 286.492188 231.191406 286.515625 231.253906 286.539062 C 231.265625 286.546875 231.28125 286.550781 231.289062 286.554688 C 239.132812 289.476562 238.246094 294.070312 237.953125 295.574219 C 237.5625 297.617188 236.597656 299.128906 235.015625 300.199219 M 232.480469 305.480469 C 232.136719 305.761719 231.785156 306.03125 231.429688 306.296875 C 223.6875 312.097656 214.90625 314.214844 206.589844 312.257812 C 203.628906 311.5625 200.816406 310.355469 198.214844 308.679688 L 199.9375 299.734375 C 201.414062 300.480469 202.953125 301.046875 204.546875 301.417969 C 206.492188 301.878906 208.492188 302.058594 210.488281 301.9375 C 210.992188 302.175781 211.417969 302.34375 211.703125 302.449219 C 212.394531 302.703125 215.140625 303.59375 218.632812 304.285156 C 218.675781 304.292969 218.714844 304.304688 218.761719 304.308594 L 218.761719 304.3125 C 221.199219 304.789062 224.03125 305.171875 226.851562 305.179688 L 226.945312 305.179688 C 229.449219 305.179688 231.941406 304.878906 234.125 304.078125 C 233.585938 304.570312 233.039062 305.03125 232.480469 305.480469 M 195.886719 304.363281 L 195.128906 308.285156 L 194.984375 309.085938 L 194.980469 309.109375 C 194.976562 309.128906 194.96875 309.152344 194.96875 309.171875 L 194.894531 309.539062 C 194.109375 313.660156 191.390625 317.070312 187.628906 318.652344 C 182.480469 320.808594 173.328125 323.085938 158.925781 321.667969 C 144.511719 320.253906 135.980469 316.230469 131.359375 313.113281 C 127.976562 310.828125 125.96875 306.957031 126 302.761719 L 126.125 284.339844 C 128.296875 285.628906 130.6875 286.269531 133.074219 286.269531 C 135.382812 286.269531 137.691406 285.667969 139.808594 284.472656 C 144.148438 282.015625 146.738281 277.570312 146.738281 272.539062 C 146.714844 267.796875 144.171875 263.332031 140.097656 260.886719 L 126.335938 252.644531 L 126.691406 200.347656 C 126.695312 199.792969 126.980469 199.304688 127.457031 199.039062 C 127.480469 199.03125 127.503906 199.019531 127.527344 199 C 127.53125 199 127.539062 199 127.542969 198.996094 C 127.546875 198.996094 127.546875 198.996094 127.550781 198.992188 C 127.789062 198.878906 128.238281 198.75 128.761719 198.980469 C 134.734375 201.601562 148.035156 206.328125 170.054688 208.5 C 192.050781 210.660156 206.03125 208.617188 212.414062 207.210938 C 212.898438 207.097656 213.28125 207.25 213.519531 207.40625 L 213.660156 207.507812 C 214.089844 207.867188 214.285156 208.402344 214.175781 208.945312 L 210.472656 228.28125 Z M 125.582031 279.863281 L 124.609375 279.03125 L 102.617188 260.382812 C 104.140625 259.011719 105.394531 257.417969 106.34375 255.621094 C 107.816406 252.824219 108.601562 249.492188 108.6875 245.675781 L 123.910156 254.796875 L 124.0625 254.890625 L 124.769531 255.3125 L 138.503906 263.546875 C 141.652344 265.433594 143.621094 268.886719 143.640625 272.589844 C 143.640625 276.4375 141.636719 279.875 138.285156 281.777344 C 134.96875 283.652344 131.046875 283.628906 127.761719 281.710938 L 125.589844 279.867188 Z M 99.292969 259.089844 C 99.285156 259.09375 99.285156 259.101562 99.28125 259.101562 L 99.234375 259.128906 C 99.144531 259.195312 99.054688 259.261719 98.964844 259.320312 C 92.597656 263.710938 82.679688 263.953125 74.550781 262.589844 C 79.75 260.867188 85.054688 256.976562 89.519531 251.300781 C 89.53125 251.289062 89.542969 251.277344 89.550781 251.261719 C 91.238281 249.128906 92.765625 246.78125 94.078125 244.289062 C 95.347656 241.898438 96.382812 239.4375 97.175781 236.964844 C 97.214844 236.847656 97.253906 236.726562 97.289062 236.605469 C 98.875 231.570312 99.441406 226.707031 99.035156 222.386719 C 102.246094 228.253906 104.8125 235.371094 105.441406 241.921875 C 105.484375 242.28125 105.507812 242.640625 105.535156 243.003906 C 105.8125 247.453125 105.167969 251.210938 103.601562 254.175781 C 102.582031 256.097656 101.132812 257.757812 99.292969 259.089844 M 64.113281 259.554688 L 64.082031 259.542969 C 63.894531 259.457031 63.6875 259.363281 63.476562 259.242188 C 59.582031 257.1875 57.171875 252.785156 56.679688 246.84375 C 56.171875 240.640625 57.804688 233.589844 61.289062 226.980469 C 66.992188 216.1875 76.195312 209.316406 83.886719 209.316406 C 85.753906 209.316406 87.523438 209.722656 89.140625 210.574219 C 89.335938 210.679688 89.535156 210.785156 89.726562 210.917969 C 89.769531 210.949219 89.820312 210.972656 89.867188 211.003906 C 90.011719 211.082031 90.140625 211.167969 90.257812 211.269531 C 90.316406 211.320312 90.378906 211.363281 90.441406 211.40625 C 90.597656 211.5 90.761719 211.625 90.933594 211.785156 C 90.96875 211.8125 91.007812 211.84375 91.042969 211.875 C 91.203125 211.996094 91.363281 212.140625 91.519531 212.285156 C 91.535156 212.300781 91.542969 212.308594 91.558594 212.320312 C 96.226562 216.808594 97.347656 225.800781 94.441406 235.324219 C 94.40625 235.445312 94.367188 235.558594 94.332031 235.679688 C 94.332031 235.679688 94.328125 235.683594 94.328125 235.691406 C 93.582031 238.097656 92.574219 240.5 91.339844 242.84375 C 90.121094 245.152344 88.714844 247.324219 87.152344 249.296875 C 87.144531 249.308594 87.132812 249.332031 87.117188 249.34375 C 80.109375 258.265625 70.660156 262.460938 64.113281 259.554688 M 171.5 193.8125 C 191.226562 195.753906 203.378906 201.183594 209.371094 204.65625 C 202.386719 205.945312 189.507812 207.292969 170.359375 205.414062 C 151.171875 203.519531 138.804688 199.679688 132.222656 197.0625 C 138.765625 194.8125 151.714844 191.863281 171.5 193.8125 M 210.277344 264.28125 C 208.84375 265.4375 206.839844 267.664062 206.117188 271.40625 C 205.109375 276.59375 207.121094 280.011719 208.742188 281.832031 C 207 283.085938 204.667969 285.472656 203.875 289.5625 C 203.089844 293.648438 204.21875 296.535156 205.882812 298.539062 C 205.671875 298.5 205.46875 298.453125 205.257812 298.402344 C 203.617188 298.011719 202.035156 297.386719 200.542969 296.53125 L 205.386719 271.265625 L 208.210938 256.546875 L 210.957031 242.210938 C 213.503906 241.730469 216.035156 241.777344 218.484375 242.355469 C 222.136719 243.21875 225.367188 245.171875 228.007812 248.074219 C 217.175781 246.101562 211.023438 248.5 209.203125 255.386719 C 209.082031 255.832031 208.992188 256.261719 208.921875 256.683594 C 208.34375 260.175781 209.382812 262.773438 210.277344 264.28125 M 226.070312 229.707031 C 234.730469 231.757812 241.996094 238.167969 246.230469 247.421875 C 242.851562 248.246094 240.535156 250.304688 239.371094 251.585938 C 237.574219 250.644531 235.375 249.835938 232.722656 249.125 C 229.351562 244.015625 224.6875 240.636719 219.199219 239.339844 C 216.703125 238.753906 214.15625 238.628906 211.582031 238.972656 L 213.339844 229.824219 C 217.636719 228.773438 221.914062 228.726562 226.070312 229.707031 M 540.78125 309.558594 L 540.722656 309.375 C 540.6875 309.269531 540.632812 309.054688 540.546875 308.75 C 532.863281 280.945312 521.304688 274.273438 513.992188 273.070312 C 514.425781 270.824219 513.832031 268.652344 512.253906 266.996094 C 510.039062 264.667969 506.339844 263.800781 501.777344 264.417969 C 496.351562 249.886719 488.105469 239.992188 477.164062 234.914062 C 474.375 233.625 471.578125 232.726562 468.828125 232.144531 C 467.207031 221.355469 462.3125 209.78125 451.488281 198.96875 C 450.753906 199.28125 450.027344 199.636719 449.300781 200.050781 C 449.214844 200.097656 449.132812 200.140625 449.046875 200.1875 C 448.652344 200.394531 448.261719 200.613281 447.875 200.839844 C 448.261719 200.613281 448.652344 200.394531 449.046875 200.1875 L 449.300781 200.050781 C 450.027344 199.636719 450.753906 199.28125 451.488281 198.96875 C 455.707031 197.195312 460.101562 197.035156 464.816406 196.324219 L 464.914062 196.027344 C 460.378906 192.332031 454.664062 194.261719 450.046875 197.558594 C 450.105469 195.980469 450.058594 194.378906 449.902344 192.753906 C 452.019531 190.238281 454.558594 188.117188 457.070312 185.644531 C 457.070312 185.644531 456.976562 185.355469 456.976562 185.351562 C 453.765625 185.164062 451.265625 186.578125 449.359375 188.785156 C 448.582031 184.394531 447.203125 180.09375 445.421875 176.570312 C 442.070312 169.929688 437.234375 165.695312 431.433594 164.324219 C 430.515625 164.105469 429.546875 163.996094 428.539062 163.992188 C 427.652344 154.53125 422.355469 143.539062 411.039062 142.238281 C 410.550781 142.183594 410.054688 142.148438 409.554688 142.136719 C 409.898438 141.832031 410.257812 141.5 410.628906 141.128906 L 410.578125 140.824219 C 407.660156 139.769531 405.300781 141.0625 403.53125 143.230469 C 403.25 143.332031 402.980469 143.441406 402.707031 143.554688 C 402.316406 142.75 401.890625 141.96875 401.429688 141.207031 C 401.144531 142.089844 400.828125 142.972656 400.484375 143.976562 C 400.4375 144.203125 400.398438 144.429688 400.363281 144.65625 C 400.203125 145.621094 400.105469 146.601562 400.070312 147.59375 C 400.105469 146.601562 400.203125 145.621094 400.363281 144.65625 C 400.398438 144.429688 400.4375 144.203125 400.484375 143.976562 C 400.828125 142.972656 401.144531 142.089844 401.429688 141.207031 C 401.851562 139.90625 402.199219 138.609375 402.480469 136.9375 L 402.261719 136.71875 C 401.078125 137.058594 400.1875 137.644531 399.53125 138.40625 C 394.1875 131.421875 385.96875 127.101562 376.878906 127.101562 C 376.691406 127.101562 376.511719 127.101562 376.332031 127.105469 C 366.855469 127.28125 358.679688 132.269531 352.675781 141.535156 C 350.148438 145.433594 348.351562 149.542969 347.082031 153.300781 C 345.488281 150.492188 343.089844 148.355469 339.558594 148.175781 L 339.421875 148.457031 C 341.824219 151.5 343.871094 153.792969 345.960938 156.863281 L 345.972656 156.894531 C 346.304688 157.496094 346.617188 158.109375 346.90625 158.734375 C 346.617188 158.109375 346.304688 157.496094 345.972656 156.894531 C 345.6875 157.957031 345.4375 158.96875 345.226562 159.914062 C 344.546875 159.84375 343.863281 159.804688 343.175781 159.792969 C 339.402344 156.882812 334.613281 154.925781 330.300781 157.730469 L 330.355469 158.035156 C 333.195312 158.835938 335.609375 159.40625 338.140625 160.1875 C 338.9375 160.433594 339.746094 160.703125 340.582031 161.003906 C 341.453125 161.414062 342.308594 161.871094 343.144531 162.371094 C 343.933594 162.839844 344.707031 163.34375 345.457031 163.878906 C 344.707031 163.34375 343.933594 162.839844 343.144531 162.371094 C 342.308594 161.871094 341.453125 161.414062 340.582031 161.003906 C 339.746094 160.703125 338.9375 160.433594 338.140625 160.1875 C 330.164062 161.574219 322.464844 165.988281 316.402344 172.664062 C 310.453125 179.214844 306.6875 187.164062 305.800781 195.050781 C 305.492188 197.800781 305.53125 201.945312 305.90625 205.761719 C 300.914062 210.652344 296.746094 216.429688 293.648438 222.886719 C 293.640625 222.894531 293.640625 222.902344 293.636719 222.910156 C 293.488281 223.226562 293.335938 223.539062 293.199219 223.851562 C 293.101562 224.058594 293.007812 224.261719 292.917969 224.46875 C 292.554688 225.28125 292.214844 226.105469 291.886719 226.9375 C 291.648438 227.535156 291.433594 228.140625 291.214844 228.746094 C 291.132812 228.96875 291.050781 229.195312 290.972656 229.417969 C 290.730469 230.121094 290.503906 230.828125 290.285156 231.539062 C 290.257812 231.636719 290.226562 231.738281 290.195312 231.839844 C 288.539062 237.375 287.625 243.230469 287.625 249.296875 C 287.625 252.214844 287.832031 255.085938 288.238281 257.894531 C 288.261719 258.121094 288.296875 258.339844 288.332031 258.566406 C 288.558594 260.089844 288.84375 261.582031 289.1875 263.039062 C 289.292969 263.480469 289.398438 263.921875 289.511719 264.355469 C 290.558594 268.476562 292.03125 272.429688 293.878906 276.164062 C 293.078125 276.253906 292.296875 276.324219 291.546875 276.378906 C 289.878906 276.5 288.277344 276.550781 286.769531 276.550781 C 284.988281 276.550781 283.339844 276.484375 281.90625 276.382812 C 281.664062 273.347656 280.871094 270.753906 279.539062 268.785156 C 278.320312 266.988281 276.738281 265.863281 274.96875 265.515625 C 272.84375 265.105469 271.152344 265.820312 269.898438 266.789062 C 268.136719 253.269531 258.328125 248.875 252.304688 247.453125 C 251.371094 247.230469 250.421875 247.105469 249.464844 247.082031 C 244.910156 236.441406 236.691406 229.035156 226.78125 226.691406 C 222.585938 225.699219 218.285156 225.640625 213.964844 226.511719 L 217.21875 209.539062 C 217.480469 208.214844 217.140625 206.863281 216.335938 205.839844 C 216.257812 205.699219 216.160156 205.566406 216.035156 205.453125 C 216.035156 205.453125 215.894531 205.324219 215.652344 205.136719 L 215.636719 205.121094 C 215.628906 205.113281 215.617188 205.105469 215.609375 205.101562 C 215.542969 205.042969 215.476562 204.996094 215.402344 204.941406 C 215.398438 204.933594 215.371094 204.917969 215.347656 204.902344 C 215.332031 204.886719 215.3125 204.875 215.292969 204.855469 C 215.289062 204.855469 215.28125 204.851562 215.277344 204.847656 C 211.738281 202.097656 198.558594 193.355469 171.804688 190.730469 C 144.058594 188 129.085938 194.730469 126.210938 196.199219 C 126.191406 196.207031 126.171875 196.21875 126.152344 196.226562 C 126.125 196.238281 126.109375 196.253906 126.085938 196.261719 L 126.082031 196.261719 C 126.078125 196.265625 126.066406 196.273438 126.054688 196.277344 C 126.050781 196.277344 126.046875 196.28125 126.042969 196.28125 C 125.714844 196.453125 125.550781 196.550781 125.550781 196.550781 C 125.410156 196.636719 125.289062 196.742188 125.199219 196.863281 C 124.199219 197.710938 123.601562 198.964844 123.59375 200.324219 L 123.253906 250.792969 L 108.5625 241.988281 C 107.484375 229.535156 100.082031 215.8125 93.648438 210.039062 C 93.628906 210.015625 93.609375 210.003906 93.589844 209.980469 C 93.390625 209.792969 93.175781 209.605469 92.964844 209.4375 C 92.699219 209.203125 92.4375 209.007812 92.179688 208.832031 C 91.941406 208.640625 91.691406 208.476562 91.421875 208.320312 C 91.164062 208.144531 90.886719 207.992188 90.601562 207.835938 C 80.804688 202.667969 66.429688 210.609375 58.550781 225.535156 C 54.792969 232.65625 53.03125 240.316406 53.585938 247.097656 C 54.167969 254.128906 57.167969 259.421875 62.011719 261.972656 C 62.25 262.109375 62.507812 262.230469 62.757812 262.34375 C 62.777344 262.355469 62.792969 262.359375 62.8125 262.371094 C 67.058594 264.390625 75.039062 266.417969 83.199219 266.417969 C 89.210938 266.417969 95.316406 265.316406 100.078125 262.292969 L 123.042969 281.769531 L 122.902344 302.742188 C 122.867188 307.976562 125.378906 312.8125 129.628906 315.683594 C 134.539062 319.003906 143.566406 323.277344 158.625 324.753906 C 161.824219 325.066406 164.785156 325.207031 167.507812 325.207031 C 177.597656 325.207031 184.515625 323.316406 188.824219 321.507812 C 193.003906 319.75 196.148438 316.226562 197.5 311.882812 C 200.125 313.445312 202.933594 314.585938 205.878906 315.277344 C 208.144531 315.808594 210.441406 316.074219 212.742188 316.074219 C 220.019531 316.074219 227.316406 313.425781 233.878906 308.328125 C 233.917969 308.339844 233.957031 308.347656 234 308.355469 C 234.90625 308.5 235.835938 308.628906 236.785156 308.734375 L 236.90625 308.75 C 237.371094 308.792969 237.835938 308.84375 238.300781 308.882812 C 238.941406 308.933594 239.578125 308.980469 240.234375 309.011719 C 240.957031 309.046875 241.675781 309.058594 242.390625 309.058594 C 246.121094 309.058594 249.726562 308.625 253.132812 307.757812 C 259.621094 306.113281 263.257812 302.371094 265.296875 298.820312 C 266.1875 299.710938 267.539062 300.550781 269.5625 300.945312 C 269.921875 301.015625 270.316406 301.0625 270.738281 301.0625 C 273.316406 301.0625 276.875 299.40625 279.53125 291.75 C 281.542969 291.917969 283.953125 292.042969 286.621094 292.042969 C 291.148438 292.042969 296.429688 291.679688 301.855469 290.554688 C 304.179688 296.195312 308.542969 303.757812 316.746094 312.347656 C 323.023438 318.910156 331.699219 324.382812 341.625 328.320312 C 335.894531 335.3125 332.617188 342.855469 330.742188 349.34375 C 329.386719 354.046875 328.671875 358.527344 328.316406 362.414062 C 323.445312 361.957031 319.695312 363.847656 317.960938 364.957031 C 316.496094 363.046875 315.210938 361.15625 314.117188 359.308594 C 314.09375 359.269531 314.074219 359.230469 314.054688 359.199219 L 313.972656 359.070312 C 313.96875 359.050781 313.960938 359.035156 313.949219 359.015625 C 302.085938 338.5625 285.394531 337.882812 278.765625 338.523438 C 268.234375 339.5625 259.121094 344.667969 253.769531 352.523438 C 253.769531 352.527344 253.765625 352.527344 253.765625 352.53125 C 251.179688 356.304688 249.46875 360.636719 248.675781 365.417969 L 248.675781 365.421875 C 248.675781 365.425781 248.667969 365.4375 248.667969 365.445312 C 248.648438 365.527344 248.632812 365.613281 248.625 365.695312 C 248.238281 368.078125 248.066406 370.582031 248.128906 373.125 C 248.367188 384.210938 253.3125 394.578125 262.058594 402.304688 C 271.664062 410.800781 285.6875 416.0625 302.664062 417.539062 L 305.40625 424.390625 C 305.414062 424.421875 305.429688 424.445312 305.445312 424.476562 C 305.46875 424.535156 305.5 424.59375 305.539062 424.652344 C 305.566406 424.691406 305.59375 424.730469 305.625 424.769531 C 305.636719 424.789062 305.65625 424.808594 305.671875 424.832031 C 305.679688 424.839844 305.695312 424.859375 305.722656 424.886719 C 305.730469 424.890625 305.734375 424.902344 305.742188 424.90625 C 306.5625 425.816406 314.046875 433.574219 329.886719 433.574219 C 338.769531 433.574219 344.597656 431.742188 348.207031 427.8125 L 348.378906 427.632812 C 348.386719 427.625 348.398438 427.609375 348.40625 427.59375 L 348.457031 427.527344 C 348.476562 427.503906 348.496094 427.476562 348.542969 427.417969 C 350.484375 425.160156 351.445312 422.582031 352.191406 420.335938 C 353.308594 416.972656 353.332031 413.679688 352.265625 410.515625 C 352.761719 410.445312 353.21875 410.132812 353.449219 409.644531 C 357.667969 400.773438 353.136719 393.9375 349.082031 390.015625 C 349.847656 388.519531 352.457031 381.746094 343.558594 371.617188 C 343.195312 365.488281 343.402344 346.15625 358.464844 333.265625 C 364.789062 334.527344 371.328125 335.199219 377.855469 335.199219 C 380.433594 335.199219 382.996094 335.097656 385.542969 334.886719 C 383.019531 343.917969 383.378906 354.355469 391.117188 363.550781 C 397.105469 370.65625 405.097656 374.367188 414.152344 374.367188 C 416.621094 374.367188 419.164062 374.089844 421.773438 373.53125 C 423.269531 375.902344 425.28125 377.859375 427.734375 379.320312 C 419.773438 383.738281 411.386719 392.058594 411.386719 407.5 C 411.386719 412.308594 412.980469 416.640625 416.015625 420.070312 C 416.089844 421.675781 416.625 425.855469 420.015625 429.410156 C 423.503906 433.0625 428.882812 434.917969 436.003906 434.917969 C 455.523438 434.917969 471.476562 422.9375 477.632812 403.65625 C 482.550781 388.269531 480.921875 376.421875 479.964844 371.949219 C 481.171875 371.753906 482.660156 371.238281 483.792969 369.992188 C 485.40625 368.222656 485.839844 365.578125 485.089844 362.117188 C 485.035156 361.878906 480.242188 341.894531 472.410156 333.421875 C 472.28125 333.042969 472.140625 332.65625 472 332.265625 L 473.253906 331.675781 C 476.441406 331.503906 480.25 330.839844 484.371094 329.738281 C 486.746094 334.4375 489.664062 337.386719 493.054688 338.511719 C 494.136719 338.878906 495.152344 339.003906 496.042969 339.003906 C 498.246094 339.003906 499.726562 338.222656 499.75 338.207031 C 499.992188 338.097656 504.542969 335.925781 505.867188 331.304688 C 508.617188 333.566406 512.945312 335.332031 518.210938 333.195312 C 523.730469 330.953125 525.53125 327.113281 525.695312 323.691406 C 528.261719 325.300781 531.832031 326.183594 535.949219 324.207031 C 541.453125 321.574219 543.074219 316.644531 540.78125 309.558594 "/>
<path style=" stroke:none;fill-rule:nonzero;fill:rgb(15.686035%,52.549744%,39.215088%);fill-opacity:1;" d="M 420.316406 293.609375 C 427.292969 282.644531 429.582031 269.820312 426.792969 257.414062 C 428.824219 257.355469 430.921875 257.875 432.820312 259.03125 C 434.035156 259.769531 435.628906 259.386719 436.367188 258.171875 C 437.109375 256.949219 436.722656 255.359375 435.5 254.621094 C 428.027344 250.066406 418.363281 252.25 413.953125 259.480469 C 413.210938 260.695312 413.597656 262.289062 414.820312 263.03125 C 415.234375 263.285156 415.699219 263.410156 416.160156 263.410156 C 417.03125 263.410156 417.882812 262.964844 418.367188 262.167969 C 419.246094 260.738281 420.429688 259.605469 421.808594 258.808594 C 424.199219 269.789062 422.136719 281.121094 415.957031 290.835938 C 409.566406 300.871094 399.550781 307.980469 387.75 310.847656 C 386.363281 311.183594 385.511719 312.578125 385.847656 313.964844 C 386.136719 315.144531 387.195312 315.941406 388.359375 315.941406 C 388.5625 315.941406 388.765625 315.917969 388.972656 315.867188 C 402.074219 312.683594 413.207031 304.78125 420.316406 293.609375 "/>
<path style=" stroke:none;fill-rule:nonzero;fill:rgb(15.686035%,52.549744%,39.215088%);fill-opacity:1;" d="M 362.664062 173.796875 C 347.925781 170.808594 332.878906 183.675781 331.839844 188.785156 C 331.605469 189.953125 332.199219 190.191406 333.4375 189.90625 C 337.625 188.9375 349.167969 181.914062 360.550781 184.21875 C 369.375 186.011719 376.109375 193.007812 380.308594 197.238281 C 380.351562 197.28125 380.390625 197.324219 380.4375 197.371094 C 381.632812 198.574219 382.625 199.542969 383.390625 200.078125 C 384.046875 200.539062 384.535156 200.675781 384.863281 200.371094 C 384.875 200.363281 384.890625 200.347656 384.90625 200.328125 C 385.042969 200.175781 385.148438 199.941406 385.210938 199.605469 C 386.25 194.488281 377.398438 176.785156 362.664062 173.796875 "/>
<path style=" stroke:none;fill-rule:nonzero;fill:rgb(15.686035%,52.549744%,39.215088%);fill-opacity:1;" d="M 91.882812 227.292969 C 91.34375 227.496094 90.859375 228.230469 90.789062 228.921875 C 90.722656 229.613281 91.117188 230.007812 91.652344 229.804688 C 92.203125 229.59375 92.691406 228.863281 92.75 228.15625 C 92.808594 227.464844 92.429688 227.078125 91.882812 227.292969 "/>
<path style=" stroke:none;fill-rule:nonzero;fill:rgb(15.686035%,52.549744%,39.215088%);fill-opacity:1;" d="M 91.539062 222.269531 C 92.070312 221.804688 92.371094 220.980469 92.222656 220.417969 C 92.070312 219.851562 91.527344 219.769531 91.003906 220.234375 C 90.476562 220.6875 90.175781 221.523438 90.324219 222.085938 C 90.46875 222.640625 91.011719 222.726562 91.539062 222.269531 "/>
<path style=" stroke:none;fill-rule:nonzero;fill:rgb(15.686035%,52.549744%,39.215088%);fill-opacity:1;" d="M 89.382812 238.089844 C 89.855469 238.164062 90.46875 237.621094 90.722656 236.910156 C 90.992188 236.1875 90.816406 235.535156 90.34375 235.476562 C 89.867188 235.398438 89.265625 235.929688 89 236.652344 C 88.738281 237.367188 88.90625 238.019531 89.382812 238.089844 "/>
<path style=" stroke:none;fill-rule:nonzero;fill:rgb(15.686035%,52.549744%,39.215088%);fill-opacity:1;" d="M 89.050781 216.613281 C 89.476562 215.980469 89.546875 215.183594 89.207031 214.835938 C 88.875 214.496094 88.253906 214.738281 87.820312 215.378906 C 87.398438 216.019531 87.324219 216.816406 87.664062 217.15625 C 87.996094 217.496094 88.617188 217.253906 89.050781 216.613281 "/>
<path style=" stroke:none;fill-rule:nonzero;fill:rgb(15.686035%,52.549744%,39.215088%);fill-opacity:1;" d="M 88.019531 227.980469 C 88.566406 227.632812 88.957031 226.824219 88.90625 226.195312 C 88.84375 225.5625 88.359375 225.339844 87.820312 225.691406 C 87.273438 226.050781 86.878906 226.847656 86.945312 227.484375 C 86.992188 228.117188 87.476562 228.332031 88.019531 227.980469 "/>
<path style=" stroke:none;fill-rule:nonzero;fill:rgb(15.686035%,52.549744%,39.215088%);fill-opacity:1;" d="M 88.226562 231.589844 L 88.058594 231.496094 C 87.964844 231.464844 87.875 231.457031 87.757812 231.476562 C 87.242188 231.5625 86.691406 232.222656 86.539062 232.933594 C 86.371094 233.65625 86.671875 234.175781 87.199219 234.078125 C 87.71875 234 88.273438 233.347656 88.429688 232.621094 C 88.523438 232.167969 88.449219 231.804688 88.246094 231.609375 C 88.246094 231.601562 88.234375 231.601562 88.226562 231.589844 "/>
<path style=" stroke:none;fill-rule:nonzero;fill:rgb(15.686035%,52.549744%,39.215088%);fill-opacity:1;" d="M 87.003906 222.902344 C 87.488281 222.332031 87.664062 221.503906 87.410156 221.058594 C 87.148438 220.613281 86.546875 220.710938 86.0625 221.28125 C 85.585938 221.855469 85.410156 222.679688 85.671875 223.125 C 85.933594 223.574219 86.527344 223.476562 87.003906 222.902344 "/>
<path style=" stroke:none;fill-rule:nonzero;fill:rgb(15.686035%,52.549744%,39.215088%);fill-opacity:1;" d="M 85.226562 244.070312 C 84.792969 244.710938 84.71875 245.507812 85.0625 245.847656 C 85.402344 246.191406 86.023438 245.953125 86.449219 245.308594 C 86.878906 244.671875 86.953125 243.875 86.613281 243.535156 C 86.273438 243.195312 85.652344 243.429688 85.226562 244.070312 "/>
<path style=" stroke:none;fill-rule:nonzero;fill:rgb(15.686035%,52.549744%,39.215088%);fill-opacity:1;" d="M 84.660156 240.28125 C 85.082031 240.476562 85.710938 240.058594 86.054688 239.371094 C 86.394531 238.667969 86.332031 237.941406 85.90625 237.746094 C 85.488281 237.550781 84.867188 237.953125 84.515625 238.660156 C 84.175781 239.359375 84.234375 240.085938 84.660156 240.28125 "/>
<path style=" stroke:none;fill-rule:nonzero;fill:rgb(15.686035%,52.549744%,39.215088%);fill-opacity:1;" d="M 83.214844 214.902344 C 83.699219 214.972656 84.296875 214.445312 84.554688 213.722656 C 84.828125 213 84.660156 212.359375 84.183594 212.289062 C 83.699219 212.214844 83.097656 212.742188 82.828125 213.464844 C 82.574219 214.1875 82.738281 214.828125 83.214844 214.902344 "/>
<path style=" stroke:none;fill-rule:nonzero;fill:rgb(15.686035%,52.549744%,39.215088%);fill-opacity:1;" d="M 84.070312 229.980469 C 83.523438 230.214844 83.050781 230.960938 83.003906 231.652344 C 82.953125 232.332031 83.371094 232.707031 83.90625 232.46875 C 84.449219 232.230469 84.925781 231.484375 84.972656 230.804688 C 85.011719 230.113281 84.605469 229.75 84.070312 229.980469 "/>
<path style=" stroke:none;fill-rule:nonzero;fill:rgb(15.686035%,52.549744%,39.215088%);fill-opacity:1;" d="M 83.574219 234.070312 C 83.089844 234.019531 82.488281 234.566406 82.242188 235.300781 C 81.992188 236.019531 82.1875 236.640625 82.671875 236.691406 C 83.160156 236.738281 83.75 236.1875 84 235.464844 C 84.253906 234.738281 84.0625 234.109375 83.574219 234.070312 "/>
<path style=" stroke:none;fill-rule:nonzero;fill:rgb(15.686035%,52.549744%,39.215088%);fill-opacity:1;" d="M 82.914062 220.535156 C 83.335938 220.730469 83.964844 220.320312 84.304688 219.621094 C 84.652344 218.921875 84.585938 218.195312 84.164062 218 C 83.738281 217.804688 83.117188 218.207031 82.769531 218.910156 C 82.429688 219.613281 82.488281 220.339844 82.914062 220.535156 "/>
<path style=" stroke:none;fill-rule:nonzero;fill:rgb(15.686035%,52.549744%,39.215088%);fill-opacity:1;" d="M 83.324219 226.621094 C 82.859375 227.03125 82.59375 227.726562 82.644531 228.253906 C 82.652344 228.324219 82.664062 228.40625 82.683594 228.46875 C 82.820312 228.890625 83.179688 229.027344 83.585938 228.816406 C 83.699219 228.765625 83.808594 228.6875 83.925781 228.582031 C 84.441406 228.109375 84.730469 227.28125 84.566406 226.730469 C 84.402344 226.183594 83.84375 226.132812 83.324219 226.621094 "/>
<path style=" stroke:none;fill-rule:nonzero;fill:rgb(15.686035%,52.549744%,39.215088%);fill-opacity:1;" d="M 81.507812 226.339844 C 81.867188 226.476562 82.375 226.195312 82.726562 225.640625 C 83.148438 224.988281 83.203125 224.203125 82.839844 223.882812 C 82.488281 223.5625 81.867188 223.828125 81.457031 224.476562 C 81.03125 225.128906 80.992188 225.914062 81.34375 226.234375 C 81.390625 226.28125 81.449219 226.320312 81.507812 226.339844 "/>
<path style=" stroke:none;fill-rule:nonzero;fill:rgb(15.686035%,52.549744%,39.215088%);fill-opacity:1;" d="M 81.195312 243.773438 C 81.167969 243.8125 81.128906 243.855469 81.105469 243.902344 C 80.691406 244.464844 80.554688 245.195312 80.796875 245.621094 C 81.050781 246.066406 81.652344 245.960938 82.136719 245.394531 C 82.199219 245.320312 82.253906 245.25 82.292969 245.175781 C 82.652344 244.628906 82.769531 243.949219 82.527344 243.554688 C 82.273438 243.097656 81.671875 243.203125 81.195312 243.773438 "/>
<path style=" stroke:none;fill-rule:nonzero;fill:rgb(15.686035%,52.549744%,39.215088%);fill-opacity:1;" d="M 80.410156 240.609375 C 80.597656 240.777344 80.847656 240.785156 81.09375 240.660156 C 81.351562 240.5625 81.601562 240.332031 81.808594 240 C 82.21875 239.351562 82.273438 238.5625 81.921875 238.242188 C 81.703125 238.046875 81.390625 238.066406 81.082031 238.273438 C 80.886719 238.390625 80.691406 238.582031 80.527344 238.84375 C 80.109375 239.496094 80.0625 240.289062 80.410156 240.609375 "/>
<path style=" stroke:none;fill-rule:nonzero;fill:rgb(15.686035%,52.549744%,39.215088%);fill-opacity:1;" d="M 78.75 223.890625 C 78.675781 224.085938 78.644531 224.273438 78.632812 224.449219 C 78.613281 224.914062 78.820312 225.253906 79.167969 225.285156 C 79.59375 225.328125 80.109375 224.914062 80.402344 224.3125 C 80.441406 224.234375 80.476562 224.148438 80.507812 224.066406 C 80.75 223.332031 80.554688 222.710938 80.070312 222.671875 C 79.585938 222.621094 78.996094 223.167969 78.75 223.890625 "/>
<path style=" stroke:none;fill-rule:nonzero;fill:rgb(15.686035%,52.549744%,39.215088%);fill-opacity:1;" d="M 80.03125 250.066406 C 79.503906 250.53125 79.203125 251.355469 79.351562 251.914062 C 79.503906 252.484375 80.050781 252.5625 80.566406 252.097656 C 81.09375 251.632812 81.402344 250.808594 81.246094 250.25 C 81.105469 249.691406 80.558594 249.609375 80.03125 250.066406 "/>
<path style=" stroke:none;fill-rule:nonzero;fill:rgb(15.686035%,52.549744%,39.215088%);fill-opacity:1;" d="M 79.101562 220.089844 C 79.625 220.007812 80.175781 219.359375 80.332031 218.632812 C 80.488281 217.910156 80.195312 217.390625 79.671875 217.484375 C 79.140625 217.566406 78.59375 218.230469 78.4375 218.941406 C 78.285156 219.664062 78.582031 220.183594 79.101562 220.089844 "/>
<path style=" stroke:none;fill-rule:nonzero;fill:rgb(15.686035%,52.549744%,39.215088%);fill-opacity:1;" d="M 79.359375 241.890625 C 79.195312 241.339844 78.632812 241.292969 78.121094 241.765625 C 77.59375 242.242188 77.3125 243.078125 77.476562 243.628906 C 77.5 243.699219 77.527344 243.757812 77.574219 243.8125 C 77.796875 244.164062 78.273438 244.152344 78.71875 243.738281 C 79.128906 243.359375 79.410156 242.738281 79.410156 242.230469 C 79.410156 242.105469 79.390625 241.992188 79.359375 241.890625 "/>
<path style=" stroke:none;fill-rule:nonzero;fill:rgb(15.686035%,52.549744%,39.215088%);fill-opacity:1;" d="M 77.664062 215.660156 C 78.210938 215.449219 78.699219 214.71875 78.757812 214.023438 C 78.820312 213.332031 78.4375 212.941406 77.894531 213.144531 C 77.351562 213.351562 76.855469 214.085938 76.796875 214.789062 C 76.730469 215.480469 77.128906 215.875 77.664062 215.660156 "/>
<path style=" stroke:none;fill-rule:nonzero;fill:rgb(15.686035%,52.549744%,39.215088%);fill-opacity:1;" d="M 77.074219 247.511719 C 76.527344 247.863281 76.136719 248.667969 76.195312 249.300781 C 76.246094 249.929688 76.734375 250.15625 77.28125 249.796875 C 77.820312 249.445312 78.207031 248.640625 78.160156 248.007812 C 78.097656 247.378906 77.625 247.152344 77.074219 247.511719 "/>
<path style=" stroke:none;fill-rule:nonzero;fill:rgb(15.686035%,52.549744%,39.215088%);fill-opacity:1;" d="M 75.703125 225.515625 C 75.847656 225.8125 76.144531 225.925781 76.515625 225.769531 C 76.980469 225.574219 77.417969 224.964844 77.546875 224.367188 C 77.558594 224.285156 77.582031 224.191406 77.582031 224.109375 C 77.625 223.417969 77.21875 223.054688 76.671875 223.292969 C 76.136719 223.515625 75.652344 224.273438 75.605469 224.953125 C 75.597656 225.183594 75.625 225.371094 75.703125 225.515625 "/>
<path style=" stroke:none;fill-rule:nonzero;fill:rgb(15.686035%,52.549744%,39.215088%);fill-opacity:1;" d="M 76.175781 243.855469 C 76.03125 243.5625 75.730469 243.453125 75.371094 243.609375 C 74.820312 243.84375 74.34375 244.589844 74.304688 245.28125 C 74.265625 245.960938 74.664062 246.332031 75.207031 246.097656 C 75.75 245.859375 76.226562 245.113281 76.265625 244.433594 C 76.292969 244.203125 76.246094 244.007812 76.175781 243.855469 "/>
<path style=" stroke:none;fill-rule:nonzero;fill:rgb(15.686035%,52.549744%,39.215088%);fill-opacity:1;" d="M 74.808594 221.875 C 75.351562 221.527344 75.742188 220.71875 75.691406 220.089844 C 75.636719 219.457031 75.148438 219.230469 74.605469 219.582031 C 74.070312 219.945312 73.664062 220.738281 73.730469 221.378906 C 73.777344 222.011719 74.265625 222.234375 74.808594 221.875 "/>
<path style=" stroke:none;fill-rule:nonzero;fill:rgb(15.686035%,52.549744%,39.215088%);fill-opacity:1;" d="M 74.214844 253.71875 C 73.671875 253.941406 73.1875 254.671875 73.117188 255.367188 C 73.054688 256.058594 73.449219 256.449219 73.984375 256.242188 C 74.535156 256.027344 75.019531 255.292969 75.082031 254.601562 C 75.140625 253.910156 74.761719 253.515625 74.214844 253.71875 "/>
<path style=" stroke:none;fill-rule:nonzero;fill:rgb(15.686035%,52.549744%,39.215088%);fill-opacity:1;" d="M 72.527344 227.496094 C 72.546875 227.570312 72.578125 227.640625 72.621094 227.691406 C 72.847656 228.046875 73.324219 228.039062 73.769531 227.621094 C 74.285156 227.136719 74.574219 226.308594 74.410156 225.757812 C 74.390625 225.691406 74.359375 225.621094 74.316406 225.566406 C 74.089844 225.214844 73.613281 225.222656 73.160156 225.648438 C 72.644531 226.125 72.363281 226.949219 72.527344 227.496094 "/>
<path style=" stroke:none;fill-rule:nonzero;fill:rgb(15.686035%,52.549744%,39.215088%);fill-opacity:1;" d="M 73.136719 245.496094 C 73.179688 245.394531 73.199219 245.28125 73.21875 245.175781 C 73.324219 244.589844 73.128906 244.136719 72.714844 244.105469 C 72.34375 244.058594 71.90625 244.371094 71.605469 244.835938 C 71.515625 244.980469 71.441406 245.144531 71.382812 245.320312 C 71.132812 246.046875 71.320312 246.675781 71.808594 246.71875 C 72.292969 246.765625 72.886719 246.222656 73.136719 245.496094 "/>
<path style=" stroke:none;fill-rule:nonzero;fill:rgb(15.686035%,52.549744%,39.215088%);fill-opacity:1;" d="M 72.777344 249.289062 C 72.257812 249.378906 71.710938 250.035156 71.546875 250.757812 C 71.390625 251.480469 71.691406 251.988281 72.21875 251.902344 C 72.734375 251.824219 73.292969 251.160156 73.449219 250.4375 C 73.605469 249.726562 73.304688 249.207031 72.777344 249.289062 "/>
<path style=" stroke:none;fill-rule:nonzero;fill:rgb(15.686035%,52.549744%,39.215088%);fill-opacity:1;" d="M 71.855469 219.3125 C 72.371094 218.855469 72.683594 218.03125 72.527344 217.464844 C 72.382812 216.90625 71.835938 216.824219 71.3125 217.289062 C 70.78125 217.746094 70.480469 218.570312 70.625 219.136719 C 70.78125 219.699219 71.332031 219.777344 71.855469 219.3125 "/>
<path style=" stroke:none;fill-rule:nonzero;fill:rgb(15.686035%,52.549744%,39.215088%);fill-opacity:1;" d="M 71.460938 228.777344 C 71.363281 228.6875 71.238281 228.644531 71.101562 228.644531 C 70.769531 228.644531 70.378906 228.914062 70.082031 229.378906 C 69.90625 229.648438 69.789062 229.945312 69.75 230.214844 C 69.683594 230.601562 69.757812 230.949219 69.964844 231.136719 C 70.316406 231.457031 70.933594 231.1875 71.351562 230.535156 C 71.773438 229.882812 71.828125 229.097656 71.460938 228.777344 "/>
<path style=" stroke:none;fill-rule:nonzero;fill:rgb(15.686035%,52.549744%,39.215088%);fill-opacity:1;" d="M 70.691406 225.621094 C 71.167969 225.039062 71.339844 224.214844 71.082031 223.765625 C 70.824219 223.324219 70.226562 223.417969 69.75 223.980469 C 69.265625 224.5625 69.089844 225.390625 69.34375 225.835938 C 69.605469 226.28125 70.203125 226.183594 70.691406 225.621094 "/>
<path style=" stroke:none;fill-rule:nonzero;fill:rgb(15.686035%,52.549744%,39.215088%);fill-opacity:1;" d="M 69.148438 243.75 C 68.738281 244.398438 68.683594 245.1875 69.035156 245.507812 C 69.390625 245.824219 70.015625 245.5625 70.429688 244.910156 C 70.488281 244.816406 70.535156 244.71875 70.585938 244.628906 C 70.855469 244.050781 70.847656 243.429688 70.546875 243.152344 C 70.195312 242.832031 69.5625 243.097656 69.148438 243.75 "/>
<path style=" stroke:none;fill-rule:nonzero;fill:rgb(15.686035%,52.549744%,39.215088%);fill-opacity:1;" d="M 68.3125 235.320312 C 68.800781 235.359375 69.390625 234.8125 69.632812 234.089844 C 69.886719 233.367188 69.695312 232.746094 69.210938 232.695312 C 68.722656 232.652344 68.128906 233.203125 67.878906 233.921875 C 67.632812 234.648438 67.828125 235.28125 68.3125 235.320312 "/>
<path style=" stroke:none;fill-rule:nonzero;fill:rgb(15.686035%,52.549744%,39.215088%);fill-opacity:1;" d="M 68.664062 254.484375 C 68.1875 254.414062 67.585938 254.941406 67.324219 255.667969 C 67.050781 256.386719 67.226562 257.027344 67.703125 257.105469 C 68.179688 257.171875 68.777344 256.648438 69.042969 255.921875 C 69.316406 255.203125 69.140625 254.5625 68.664062 254.484375 "/>
<path style=" stroke:none;fill-rule:nonzero;fill:rgb(15.686035%,52.549744%,39.215088%);fill-opacity:1;" d="M 68.136719 240.652344 C 68.082031 240.691406 68.023438 240.746094 67.964844 240.796875 C 67.433594 241.273438 67.15625 242.109375 67.320312 242.65625 C 67.410156 242.941406 67.613281 243.089844 67.867188 243.089844 C 68.074219 243.089844 68.324219 242.988281 68.558594 242.769531 C 69.078125 242.292969 69.363281 241.457031 69.199219 240.921875 C 69.058594 240.4375 68.601562 240.339844 68.136719 240.652344 "/>
<path style=" stroke:none;fill-rule:nonzero;fill:rgb(15.686035%,52.549744%,39.215088%);fill-opacity:1;" d="M 68.964844 248.855469 C 68.539062 248.660156 67.917969 249.074219 67.578125 249.765625 C 67.226562 250.464844 67.300781 251.191406 67.722656 251.386719 C 68.148438 251.582031 68.769531 251.171875 69.109375 250.476562 C 69.449219 249.777344 69.390625 249.050781 68.964844 248.855469 "/>
<path style=" stroke:none;fill-rule:nonzero;fill:rgb(15.686035%,52.549744%,39.215088%);fill-opacity:1;" d="M 67.816406 239.398438 C 68.363281 239.164062 68.839844 238.417969 68.878906 237.738281 C 68.921875 237.046875 68.519531 236.679688 67.984375 236.910156 C 67.703125 237.027344 67.457031 237.273438 67.257812 237.582031 C 67.0625 237.882812 66.9375 238.242188 66.917969 238.582031 C 66.875 239.125 67.121094 239.472656 67.496094 239.472656 C 67.597656 239.472656 67.703125 239.453125 67.816406 239.398438 "/>
<path style=" stroke:none;fill-rule:nonzero;fill:rgb(15.686035%,52.549744%,39.215088%);fill-opacity:1;" d="M 67.578125 230.058594 C 67.632812 229.613281 67.507812 229.242188 67.21875 229.109375 C 66.792969 228.914062 66.175781 229.328125 65.832031 230.019531 C 65.546875 230.621094 65.546875 231.238281 65.820312 231.527344 C 65.867188 231.570312 65.914062 231.609375 65.976562 231.640625 C 66.402344 231.835938 67.019531 231.425781 67.363281 230.730469 C 67.476562 230.503906 67.546875 230.277344 67.578125 230.058594 "/>
<path style=" stroke:none;fill-rule:nonzero;fill:rgb(15.686035%,52.549744%,39.215088%);fill-opacity:1;" d="M 66.660156 225.320312 C 67.082031 224.679688 67.15625 223.882812 66.828125 223.53125 C 66.480469 223.1875 65.867188 223.4375 65.429688 224.078125 C 65.003906 224.71875 64.933594 225.515625 65.273438 225.855469 C 65.617188 226.195312 66.238281 225.949219 66.660156 225.320312 "/>
<path style=" stroke:none;fill-rule:nonzero;fill:rgb(15.686035%,52.549744%,39.215088%);fill-opacity:1;" d="M 64.871094 246.476562 C 64.394531 247.046875 64.21875 247.875 64.480469 248.328125 C 64.738281 248.773438 65.335938 248.679688 65.808594 248.097656 C 66.296875 247.53125 66.472656 246.707031 66.214844 246.261719 C 65.957031 245.804688 65.355469 245.910156 64.871094 246.476562 "/>
<path style=" stroke:none;fill-rule:nonzero;fill:rgb(15.686035%,52.549744%,39.215088%);fill-opacity:1;" d="M 64.117188 237.914062 C 64.375 237.871094 64.644531 237.6875 64.871094 237.417969 C 65.097656 237.148438 65.265625 236.808594 65.34375 236.445312 C 65.5 235.730469 65.203125 235.214844 64.683594 235.300781 C 64.417969 235.351562 64.148438 235.535156 63.933594 235.796875 C 63.714844 236.066406 63.527344 236.40625 63.457031 236.765625 C 63.300781 237.476562 63.601562 237.996094 64.117188 237.914062 "/>
<path style=" stroke:none;fill-rule:nonzero;fill:rgb(15.686035%,52.549744%,39.215088%);fill-opacity:1;" d="M 63.859375 241.40625 C 63.324219 241.757812 62.917969 242.5625 62.980469 243.195312 C 63.03125 243.824219 63.519531 244.050781 64.0625 243.6875 C 64.605469 243.339844 64.996094 242.53125 64.945312 241.902344 C 64.894531 241.273438 64.410156 241.046875 63.859375 241.40625 "/>
<path style=" stroke:none;fill-rule:nonzero;fill:rgb(15.686035%,52.549744%,39.215088%);fill-opacity:1;" d="M 62.835938 252.773438 C 62.402344 253.414062 62.332031 254.210938 62.671875 254.550781 C 63.011719 254.890625 63.632812 254.652344 64.0625 254.011719 C 64.488281 253.371094 64.5625 252.574219 64.21875 252.234375 C 63.878906 251.882812 63.257812 252.132812 62.835938 252.773438 "/>
<path style=" stroke:none;fill-rule:nonzero;fill:rgb(15.686035%,52.549744%,39.215088%);fill-opacity:1;" d="M 62.867188 231.546875 C 62.78125 231.414062 62.664062 231.320312 62.496094 231.300781 C 62.019531 231.226562 61.421875 231.757812 61.148438 232.476562 C 60.894531 233.203125 61.058594 233.84375 61.535156 233.914062 C 61.566406 233.914062 61.597656 233.925781 61.625 233.925781 C 62.089844 233.925781 62.640625 233.417969 62.878906 232.738281 C 63.050781 232.261719 63.042969 231.816406 62.867188 231.546875 "/>
<path style=" stroke:none;fill-rule:nonzero;fill:rgb(15.686035%,52.549744%,39.215088%);fill-opacity:1;" d="M 60.34375 247.117188 C 59.820312 247.582031 59.507812 248.410156 59.664062 248.96875 C 59.808594 249.527344 60.355469 249.609375 60.886719 249.15625 C 61.410156 248.691406 61.710938 247.863281 61.566406 247.308594 C 61.410156 246.738281 60.859375 246.667969 60.34375 247.117188 "/>
<path style=" stroke:none;fill-rule:nonzero;fill:rgb(15.686035%,52.549744%,39.215088%);fill-opacity:1;" d="M 61.089844 240.457031 C 61.148438 239.765625 60.769531 239.371094 60.222656 239.585938 C 59.683594 239.792969 59.1875 240.527344 59.128906 241.222656 C 59.0625 241.914062 59.457031 242.300781 59.996094 242.097656 C 60.542969 241.890625 61.03125 241.15625 61.089844 240.457031 "/>
<path style=" stroke:none;fill-rule:nonzero;fill:rgb(15.686035%,52.549744%,39.215088%);fill-opacity:1;" d="M 429.59375 291.988281 L 429.714844 292.078125 L 429.765625 292.226562 C 432.628906 291.882812 435.585938 291.980469 438.371094 292.5625 C 441.171875 293.507812 443.242188 294.382812 446.296875 295.160156 L 446.523438 294.945312 C 444.484375 288.484375 435.707031 289.570312 430.496094 291.589844 C 432.453125 289.878906 434.671875 288.4375 437.003906 287.390625 C 439.832031 286.511719 442.019531 286.003906 444.949219 284.839844 L 445.003906 284.535156 C 439.265625 280.277344 432.378906 287.226562 429.59375 291.988281 "/>
<path style=" stroke:none;fill-rule:nonzero;fill:rgb(15.686035%,52.549744%,39.215088%);fill-opacity:1;" d="M 422.734375 222.195312 L 422.882812 221.929688 C 419.734375 216.738281 412.515625 219.917969 408.617188 222.996094 C 409.855469 221.15625 411.355469 219.460938 413.015625 218.066406 C 415.246094 216.660156 416.867188 215.707031 418.988281 213.8125 L 418.953125 213.5 C 412.941406 211 408.851562 218.941406 407.785156 223.722656 L 407.9375 223.777344 L 408.023438 223.902344 C 410.371094 222.933594 412.90625 222.3125 415.398438 222.136719 C 418.027344 222.304688 419.894531 222.492188 422.734375 222.195312 "/>
<path style=" stroke:none;fill-rule:nonzero;fill:rgb(15.686035%,52.549744%,39.215088%);fill-opacity:1;" d="M 411.234375 169.519531 C 405.519531 167.453125 401.914062 174.414062 400.800781 179.265625 C 400.609375 177.050781 400.71875 174.800781 401.140625 172.671875 C 401.996094 170.183594 402.667969 168.4375 403.132812 165.628906 L 402.917969 165.410156 C 396.664062 167.210938 398.441406 175.957031 400.597656 180.339844 L 400.75 180.289062 L 400.894531 180.335938 C 402.121094 178.113281 403.707031 176.050781 405.535156 174.351562 C 407.691406 172.847656 409.257812 171.820312 411.285156 169.824219 Z M 411.234375 169.519531 "/>
</g>
</svg>
