<?xml version="1.0" encoding="UTF-8"?>
<svg xmlns="http://www.w3.org/2000/svg" xmlns:xlink="http://www.w3.org/1999/xlink" width="595.276pt" height="576.002pt" viewBox="0 0 595.276 576.002" version="1.1">
<g id="surface1">
<path style=" stroke:none;fill-rule:nonzero;fill:rgb(13.725281%,12.156677%,12.548828%);fill-opacity:1;" d="M 429.261719 115.847656 C 442.339844 116.378906 458.199219 127.25 456.050781 141.003906 C 453.421875 151.515625 441.988281 158.578125 433.359375 164.296875 C 419.304688 173.488281 417.636719 188.808594 424.492188 203.183594 C 434.632812 223.289062 431.644531 237.617188 410.613281 247.726562 C 428.109375 244.714844 439.128906 232.054688 435.863281 213.976562 C 434.976562 208.21875 432.585938 203.027344 430.417969 197.75 C 425.761719 185.460938 428.523438 175.878906 439.875 169.011719 C 449.359375 162.328125 459.867188 154.25 461.816406 141.902344 C 463.640625 125.0625 444.222656 113.164062 429.261719 115.847656 "/>
<path style=" stroke:none;fill-rule:nonzero;fill:rgb(13.725281%,12.156677%,12.548828%);fill-opacity:1;" d="M 448.023438 336.203125 C 446.347656 337.480469 444.257812 338.511719 441.828125 339.207031 C 436.148438 340.828125 431.140625 341.164062 428.515625 341.210938 C 428.808594 339.597656 428.984375 337.945312 429.039062 336.261719 C 430.652344 334.3125 431.824219 331.851562 432.558594 328.914062 C 439.683594 327.765625 445.15625 325.558594 448.507812 322.511719 C 449.625 322.671875 451.90625 323.402344 452.417969 326.679688 C 452.984375 330.28125 451.308594 333.703125 448.023438 336.203125 M 446.738281 351.304688 C 440.207031 356.894531 427.257812 357.144531 421.089844 356.914062 C 424.113281 353.34375 426.402344 349.148438 427.730469 344.542969 L 427.882812 344.542969 C 430.476562 344.542969 436.140625 344.285156 442.738281 342.398438 C 445.230469 341.683594 447.328125 340.714844 449.070312 339.5625 C 449.761719 340.105469 450.695312 341.25 450.585938 343.4375 C 450.433594 346.648438 449.175781 349.21875 446.738281 351.304688 M 416.308594 357.152344 C 410.855469 362.347656 403.476562 365.546875 395.367188 365.546875 C 383.382812 365.546875 372.992188 358.570312 368.054688 348.457031 C 375.578125 345.121094 382.554688 338.644531 387.316406 330.171875 C 390.445312 324.609375 392.101562 318.941406 392.257812 313.714844 C 392.359375 313.570312 392.433594 313.40625 392.484375 313.222656 C 393.410156 309.808594 394.902344 306.769531 396.808594 304.320312 C 398.398438 302.273438 400.273438 300.636719 402.347656 299.53125 C 405.789062 297.683594 409.628906 297.382812 413.453125 298.660156 C 413.828125 298.785156 414.195312 298.925781 414.5625 299.085938 C 411.351562 306.640625 405.8125 311.832031 405.714844 311.914062 C 402.269531 314.9375 401.917969 320.175781 404.941406 323.625 C 406.582031 325.5 408.878906 326.457031 411.1875 326.457031 C 413.132812 326.457031 415.082031 325.78125 416.65625 324.398438 C 416.769531 324.300781 422.0625 319.574219 426.679688 311.824219 C 426.835938 312.125 426.976562 312.421875 427.117188 312.726562 C 429.300781 317.5 430.332031 322.695312 429.554688 327.089844 C 429.550781 327.101562 429.550781 327.121094 429.542969 327.140625 C 429.488281 327.453125 429.421875 327.757812 429.347656 328.0625 C 428.808594 330.273438 428.007812 332.101562 426.929688 333.585938 C 426.3125 333.765625 425.84375 334.296875 425.757812 334.953125 C 425.042969 335.660156 424.246094 336.261719 423.355469 336.753906 C 418.855469 339.230469 412.105469 338.992188 403.292969 336.058594 C 402.425781 335.765625 401.484375 336.238281 401.191406 337.105469 C 400.90625 337.976562 401.375 338.914062 402.242188 339.207031 C 407.347656 340.90625 411.875 341.761719 415.796875 341.761719 C 419.355469 341.761719 422.414062 341.054688 424.953125 339.65625 C 425.121094 339.566406 425.285156 339.46875 425.449219 339.363281 C 425.308594 340.402344 425.113281 341.421875 424.867188 342.425781 C 423.464844 348.136719 420.441406 353.21875 416.308594 357.152344 M 392.375 304.957031 C 392.054688 305.5 391.742188 306.058594 391.457031 306.636719 C 391.316406 306.125 391.15625 305.621094 390.980469 305.125 C 391.441406 305.054688 391.90625 304.996094 392.375 304.957031 M 362.984375 344.460938 C 361.015625 345.070312 359.007812 345.410156 356.988281 345.425781 C 356.035156 346.304688 355.042969 347.15625 354.015625 347.964844 C 349.59375 351.449219 344.503906 354.273438 338.96875 356.460938 C 328.863281 360.449219 317.277344 362.335938 305.574219 362.335938 C 293.042969 362.335938 280.378906 360.175781 269.277344 356.128906 C 263.714844 354.101562 258.542969 351.601562 253.96875 348.664062 C 249.375 345.710938 245.390625 342.316406 242.226562 338.511719 C 234.820312 337.007812 229.285156 332.011719 226.121094 326.222656 C 222.636719 319.832031 222.03125 312.472656 224.976562 307.769531 C 224.644531 307.488281 224.324219 307.191406 224.003906 306.878906 C 223.558594 306.464844 223.128906 306.019531 222.710938 305.558594 C 223.523438 305.265625 224.359375 304.964844 225.269531 304.660156 C 225.851562 304.539062 226.441406 304.4375 227.035156 304.355469 C 229.484375 304.015625 232.019531 304.007812 234.484375 304.300781 L 234.535156 304.140625 L 234.667969 304.046875 C 234.511719 303.78125 234.355469 303.511719 234.191406 303.246094 C 232.605469 300.710938 230.523438 298.503906 228.007812 296.796875 C 225.953125 295.253906 223.222656 294.066406 220.578125 294.890625 C 219.707031 295.042969 218.878906 295.535156 218.164062 296.066406 L 218.222656 296.390625 C 221.363281 297.644531 223.703125 298.179688 226.730469 299.125 C 228.921875 300.105469 231.023438 301.421875 232.921875 302.960938 C 233.179688 303.171875 233.4375 303.386719 233.691406 303.605469 C 233.003906 303.328125 232.308594 303.089844 231.601562 302.882812 C 229.453125 302.257812 227.207031 301.957031 224.9375 302.023438 C 223.46875 302 221.890625 302.203125 220.496094 302.792969 C 219.140625 300.878906 217.96875 298.753906 216.96875 296.460938 C 216.121094 294.523438 215.398438 292.460938 214.804688 290.316406 C 215.082031 289.96875 215.355469 289.609375 215.628906 289.234375 C 218.175781 285.75 222.464844 277.726562 220.449219 272.320312 C 219.929688 270.910156 218.761719 269.140625 216.160156 268.238281 C 217.847656 265.640625 218.265625 261.507812 217.210938 256.589844 C 216.914062 255.210938 216.511719 253.816406 215.996094 252.449219 C 219.183594 242.8125 224.628906 234.582031 232.230469 230.210938 C 232.664062 230.359375 233.085938 230.523438 233.503906 230.695312 L 233.597656 230.558594 L 233.753906 230.5 C 233.441406 229.011719 232.957031 227.558594 232.300781 226.191406 C 231.785156 223.398438 231.644531 220.429688 231.996094 217.324219 C 233.644531 202.65625 246.671875 187.191406 262.632812 184.722656 C 263.753906 184.546875 264.871094 184.464844 265.972656 184.464844 C 267.808594 184.464844 269.601562 184.699219 271.308594 185.144531 C 272.007812 185.738281 272.679688 186.355469 273.332031 186.996094 L 273.46875 186.898438 L 273.632812 186.898438 C 273.765625 185.484375 273.746094 184.066406 273.636719 182.648438 C 276.210938 168.589844 284.820312 149.789062 302.136719 149.46875 C 302.300781 149.464844 302.457031 149.464844 302.617188 149.464844 C 313.085938 149.464844 321.402344 155.765625 325.429688 164.269531 C 325.796875 166.476562 326.539062 168.617188 327.324219 170.21875 L 327.484375 170.164062 L 327.644531 170.210938 C 327.804688 169.921875 327.96875 169.636719 328.144531 169.347656 C 330.863281 167.015625 334.207031 165.574219 337.40625 165.574219 C 337.796875 165.574219 338.1875 165.59375 338.574219 165.640625 C 349.035156 166.84375 353.113281 179.457031 352.507812 188.128906 C 352.457031 188.84375 352.398438 189.554688 352.3125 190.25 C 354.148438 189.460938 356.097656 188.972656 357.878906 188.972656 C 358.542969 188.972656 359.179688 189.042969 359.78125 189.183594 C 370.09375 191.617188 374.457031 205.492188 375.324219 214.734375 C 375.554688 217.203125 375.519531 219.53125 375.269531 221.671875 C 375.277344 221.675781 375.28125 221.683594 375.292969 221.695312 C 375.082031 222.894531 374.941406 224.050781 374.871094 225.121094 L 375.042969 225.140625 L 375.160156 225.257812 C 375.902344 224.699219 376.660156 224.160156 377.4375 223.660156 C 388.136719 233.902344 393.34375 244.882812 395.308594 255.347656 C 396.398438 261.152344 396.488281 266.796875 395.976562 272.066406 C 394.527344 286.863281 388.269531 298.726562 385.703125 302.902344 C 385.0625 303.957031 384.652344 304.519531 384.613281 304.519531 C 384.980469 305.132812 385.300781 305.773438 385.566406 306.433594 C 390.417969 318.300781 379.777344 336.96875 366.09375 343.265625 C 365.070312 343.738281 364.035156 344.136719 362.984375 344.460938 M 354.113281 396.363281 C 355.648438 398.371094 356.238281 400.84375 355.875 403.71875 C 351.53125 406.441406 347.855469 409.808594 344.933594 413.761719 C 344.933594 413.765625 344.925781 413.761719 344.925781 413.761719 C 336.328125 415.203125 324.691406 412.039062 322.09375 405.589844 C 321.433594 403.996094 321.378906 402.199219 321.933594 400.25 C 323.140625 396.023438 327.582031 393.171875 332.824219 391.828125 C 332.296875 392.863281 331.734375 393.914062 331.140625 394.964844 C 328.898438 398.957031 330.316406 404.023438 334.308594 406.265625 C 335.597656 406.988281 336.992188 407.332031 338.367188 407.332031 C 341.273438 407.332031 344.089844 405.808594 345.613281 403.097656 C 347.46875 399.792969 349.089844 396.503906 350.429688 393.304688 C 351.945312 394.132812 353.195312 395.160156 354.113281 396.363281 M 358.4375 406.042969 C 363.933594 402.765625 370.273438 400.691406 377.273438 399.859375 C 390.386719 398.296875 398.761719 402.96875 403.476562 407.152344 C 408.820312 411.898438 412.136719 418.496094 412.136719 424.375 C 412.136719 424.4375 412.140625 424.5 412.144531 424.566406 C 412.488281 427.492188 412.054688 430.234375 410.859375 432.71875 C 405.941406 442.980469 389.136719 447.570312 379.976562 448.667969 C 374.242188 449.359375 357.34375 448.082031 341.328125 444.03125 C 339.753906 433.5 341.78125 423.914062 347.214844 416.261719 C 347.21875 416.253906 347.222656 416.246094 347.226562 416.238281 C 350.132812 412.167969 353.902344 408.738281 358.4375 406.042969 M 414.367188 435.175781 C 414.992188 435.585938 415.230469 436.589844 415.324219 437.363281 C 415.761719 441.011719 407.011719 453.710938 383.507812 456.5 C 368.5625 458.269531 358.617188 456.367188 352.90625 454.453125 C 346.757812 452.398438 344.082031 449.894531 344.058594 449.875 C 343.675781 449.503906 343.136719 449.339844 342.609375 449.433594 C 342.082031 449.53125 341.632812 449.871094 341.398438 450.359375 L 340.5625 452.136719 C 339.765625 453.824219 337.890625 454.699219 336.105469 454.203125 C 329.164062 452.304688 312.777344 447.03125 310.464844 438.992188 C 309.832031 436.789062 310.335938 434.519531 312.003906 432.085938 C 316.207031 439.472656 328.882812 444.203125 339.40625 446.960938 C 339.429688 446.972656 339.453125 446.976562 339.476562 446.980469 C 352.320312 450.328125 367.445312 452.167969 376.15625 452.167969 C 377.8125 452.167969 379.242188 452.097656 380.371094 451.960938 C 383.03125 451.644531 406.148438 448.507812 413.453125 434.941406 C 413.742188 434.941406 414.082031 434.992188 414.367188 435.175781 M 319.863281 408.507812 C 323.582031 414.585938 332.992188 417.386719 340.867188 417.386719 C 341.449219 417.386719 342.023438 417.375 342.585938 417.339844 C 338.3125 424.773438 336.695312 433.574219 337.851562 443.097656 C 323.832031 439.125 315.429688 433.964844 314.085938 428.460938 C 311.082031 416.175781 317.390625 410.285156 319.863281 408.507812 M 269.8125 407.332031 C 271.191406 407.332031 272.585938 406.988281 273.871094 406.265625 C 277.867188 404.023438 279.285156 398.957031 277.039062 394.964844 C 276.449219 393.914062 275.890625 392.867188 275.359375 391.832031 C 280.59375 393.171875 285.042969 396.023438 286.246094 400.25 C 286.800781 402.199219 286.746094 403.996094 286.078125 405.601562 C 286.046875 405.691406 286.011719 405.773438 285.976562 405.851562 C 283.183594 412.125 271.738281 415.179688 263.253906 413.761719 C 260.332031 409.808594 256.65625 406.441406 252.304688 403.722656 C 251.941406 400.847656 252.53125 398.371094 254.070312 396.363281 C 254.988281 395.160156 256.238281 394.132812 257.75 393.304688 C 259.097656 396.511719 260.714844 399.804688 262.570312 403.097656 C 264.089844 405.808594 266.910156 407.335938 269.8125 407.332031 M 288.324219 408.511719 C 290.800781 410.292969 297.101562 416.183594 294.097656 428.460938 C 292.75 433.964844 284.34375 439.125 270.332031 443.097656 C 271.484375 433.574219 269.867188 424.773438 265.597656 417.339844 C 266.160156 417.375 266.730469 417.386719 267.3125 417.386719 C 275.195312 417.386719 284.613281 414.585938 288.324219 408.511719 M 297.71875 438.992188 C 295.40625 447.03125 279.015625 452.304688 272.078125 454.203125 C 270.289062 454.699219 268.417969 453.824219 267.617188 452.136719 L 266.777344 450.359375 C 266.550781 449.875 266.105469 449.535156 265.582031 449.441406 C 265.058594 449.34375 264.515625 449.503906 264.128906 449.871094 C 264.101562 449.894531 261.421875 452.398438 255.273438 454.453125 C 249.566406 456.367188 239.621094 458.273438 224.671875 456.5 C 201.171875 453.710938 192.421875 441.011719 192.859375 437.363281 C 192.949219 436.589844 193.191406 435.585938 193.8125 435.175781 C 194.101562 434.988281 194.445312 434.941406 194.730469 434.945312 C 202.050781 448.511719 225.148438 451.644531 227.808594 451.960938 C 228.941406 452.097656 230.367188 452.167969 232.027344 452.167969 C 240.734375 452.167969 255.859375 450.328125 268.703125 446.980469 C 268.726562 446.976562 268.753906 446.972656 268.777344 446.960938 C 279.296875 444.203125 291.972656 439.472656 296.179688 432.085938 C 297.847656 434.519531 298.351562 436.789062 297.71875 438.992188 M 196.035156 424.566406 C 196.039062 424.5 196.042969 424.4375 196.042969 424.375 C 196.042969 418.496094 199.363281 411.898438 204.707031 407.152344 C 208.785156 403.53125 215.601562 399.554688 225.851562 399.554688 C 227.453125 399.554688 229.140625 399.648438 230.910156 399.859375 C 237.90625 400.691406 244.246094 402.765625 249.746094 406.046875 C 254.289062 408.742188 258.066406 412.179688 260.96875 416.257812 C 266.398438 423.914062 268.425781 433.5 266.855469 444.03125 C 250.839844 448.082031 233.941406 449.347656 228.203125 448.667969 C 219.046875 447.570312 202.238281 442.980469 197.320312 432.71875 C 197.316406 432.710938 197.3125 432.699219 197.308594 432.695312 C 196.121094 430.214844 195.695312 427.484375 196.035156 424.566406 M 217.796875 311.765625 C 202.503906 323.035156 195.46875 322.089844 192.957031 320.964844 C 189.992188 319.628906 187.988281 315.972656 186.71875 311.972656 C 186.707031 311.945312 186.699219 311.921875 186.695312 311.898438 C 190.246094 310.972656 192.742188 309.375 194.152344 307.121094 C 195.550781 304.886719 195.566406 302.523438 195.273438 300.78125 C 198.5625 300.867188 204.421875 300.105469 210.417969 294.949219 C 211.980469 299.453125 214.074219 303.492188 216.640625 306.898438 C 216.605469 307 216.570312 307.109375 216.539062 307.214844 L 216.777344 307.441406 C 216.855469 307.425781 216.9375 307.402344 217.015625 307.382812 C 217.464844 307.957031 217.925781 308.511719 218.402344 309.042969 C 218.136719 309.917969 217.933594 310.828125 217.796875 311.765625 M 185.847656 308.691406 C 183.71875 309.242188 181.074219 309.523438 177.957031 309.523438 C 174.207031 309.523438 171.160156 309.121094 168.890625 308.328125 C 166.9375 307.652344 165.5625 306.691406 164.8125 305.460938 C 163.871094 303.925781 164.0625 302.15625 164.371094 300.980469 C 165.785156 301.414062 167.140625 301.660156 168.296875 301.796875 C 169.402344 301.921875 170.324219 301.953125 170.9375 301.953125 C 171.417969 301.953125 171.710938 301.933594 171.757812 301.929688 C 172.667969 301.871094 173.359375 301.078125 173.300781 300.164062 C 173.242188 299.253906 172.460938 298.5625 171.542969 298.617188 C 171.519531 298.621094 170.347656 298.683594 168.683594 298.492188 C 167.328125 298.339844 165.652344 298.007812 164.007812 297.328125 C 163.992188 297.320312 163.980469 297.316406 163.960938 297.3125 C 161.195312 296.171875 159.261719 294.332031 158.21875 291.84375 C 157.148438 289.285156 156.957031 286.191406 157.1875 282.984375 L 182 279.351562 C 182.441406 282.300781 182.21875 285.847656 180.316406 289.59375 C 179.902344 290.414062 180.226562 291.414062 181.046875 291.824219 C 181.285156 291.949219 181.542969 292.007812 181.796875 292.007812 C 182.402344 292.007812 182.984375 291.675781 183.277344 291.097656 C 185.550781 286.621094 185.8125 282.382812 185.285156 278.867188 L 197.121094 277.136719 C 197.671875 278.023438 198.425781 278.796875 199.433594 279.414062 C 203.105469 281.660156 205.492188 279.464844 207.171875 277.140625 C 207.566406 276.59375 207.925781 276.042969 208.246094 275.535156 C 208.453125 275.214844 208.65625 274.898438 208.867188 274.585938 C 209.242188 274.410156 209.582031 274.234375 209.894531 274.046875 C 211.570312 273.058594 212.339844 271.988281 212.679688 271.132812 C 212.6875 271.132812 212.695312 271.128906 212.707031 271.128906 C 212.804688 271.109375 212.90625 271.089844 213.007812 271.082031 C 213.4375 271.027344 213.90625 271.070312 214.433594 271.191406 C 215.96875 271.546875 216.890625 272.273438 217.339844 273.472656 C 218.46875 276.515625 216.464844 281.9375 213.796875 286.039062 C 213.519531 286.46875 213.238281 286.882812 212.945312 287.277344 C 212.511719 287.875 212.070312 288.441406 211.625 288.972656 C 210.867188 289.890625 210.097656 290.710938 209.332031 291.445312 C 201.425781 299.03125 193.75 297.34375 193.382812 297.257812 C 193.34375 297.246094 193.308594 297.238281 193.269531 297.234375 C 193.238281 297.230469 193.214844 297.226562 193.179688 297.21875 C 193.007812 297.199219 192.832031 297.214844 192.660156 297.253906 C 192.589844 297.265625 192.527344 297.292969 192.464844 297.316406 C 192.398438 297.335938 192.332031 297.34375 192.273438 297.375 C 192.199219 297.410156 192.125 297.453125 192.058594 297.492188 C 191.996094 297.539062 191.933594 297.589844 191.871094 297.636719 C 191.8125 297.6875 191.761719 297.742188 191.714844 297.800781 C 190.703125 299.003906 187.546875 299.410156 184.714844 299.378906 C 183.847656 299.375 183.003906 299.324219 182.269531 299.242188 C 181.355469 299.132812 180.535156 299.796875 180.433594 300.707031 C 180.332031 301.621094 180.988281 302.4375 181.902344 302.542969 C 182.394531 302.597656 183.542969 302.707031 184.960938 302.714844 L 185.132812 302.714844 C 187.253906 302.714844 189.949219 302.484375 192.03125 301.539062 C 192.191406 302.65625 192.144531 304.09375 191.328125 305.378906 C 190.371094 306.886719 188.515625 308 185.847656 308.691406 M 203.757812 276.136719 C 202.804688 277.234375 202.195312 277.210938 201.160156 276.578125 C 201.148438 276.570312 201.136719 276.558594 201.121094 276.550781 L 201.96875 276.425781 C 202.597656 276.339844 203.195312 276.242188 203.757812 276.136719 M 154.523438 280.019531 C 155.214844 279.21875 155.789062 278.328125 156.230469 277.367188 C 156.90625 275.921875 157.28125 274.320312 157.28125 272.632812 C 157.28125 272.421875 157.277344 272.214844 157.265625 272.011719 C 157.191406 270.628906 156.859375 269.304688 156.320312 268.09375 C 155.792969 266.890625 155.058594 265.792969 154.160156 264.839844 L 156.570312 264.960938 L 158.234375 265.042969 L 159.902344 265.125 L 196.5625 266.957031 L 198.253906 267.039062 L 199.402344 267.097656 C 199.589844 267.117188 199.777344 267.132812 199.953125 267.152344 C 201.210938 267.269531 202.328125 267.382812 203.324219 267.507812 C 204.410156 267.632812 205.34375 267.769531 206.128906 267.914062 C 206.574219 267.996094 206.972656 268.082031 207.324219 268.175781 C 208.316406 268.429688 208.964844 268.722656 209.316406 269.097656 C 209.433594 269.222656 209.515625 269.355469 209.566406 269.5 C 209.605469 269.609375 209.625 269.726562 209.625 269.851562 C 209.625 270.191406 209.230469 270.585938 208.5625 270.984375 C 208.175781 271.214844 207.691406 271.445312 207.140625 271.671875 C 207.007812 271.722656 206.871094 271.777344 206.730469 271.832031 C 205.257812 272.386719 203.390625 272.875 201.5 273.136719 L 199.257812 273.464844 L 197.625 273.707031 L 195.996094 273.941406 L 184.542969 275.625 L 181.214844 276.109375 L 157.558594 279.574219 L 155.847656 279.824219 Z M 154.976562 252.960938 C 154.386719 252.042969 153.761719 251.078125 153.121094 250.027344 C 150.746094 246.15625 145.183594 237.09375 148.949219 234.324219 C 150.53125 233.160156 152.015625 232.734375 153.476562 233.019531 C 156.832031 233.671875 159.449219 237.921875 160.566406 239.738281 L 160.898438 240.269531 C 163.347656 244.09375 166.542969 251.761719 168.910156 258.175781 C 167.703125 258.621094 166.539062 259.128906 165.433594 259.699219 C 164.617188 260.117188 164.296875 261.121094 164.71875 261.933594 C 164.738281 261.972656 164.757812 262.011719 164.785156 262.046875 L 159.433594 261.785156 C 158.652344 258.679688 156.972656 256.066406 154.976562 252.960938 M 166.597656 223.5625 C 167.769531 222.957031 168.925781 222.867188 170.121094 223.28125 C 173.074219 224.3125 176.371094 228.433594 179.164062 234.601562 C 182.46875 241.910156 184.101562 251.652344 184.652344 255.585938 C 181.285156 255.601562 177.011719 255.921875 172.664062 257.015625 C 172.507812 253.425781 171.847656 246.207031 169.074219 240.796875 L 168.710938 240.085938 C 162.734375 228.433594 161.96875 225.941406 166.597656 223.5625 M 186.507812 258.917969 L 186.523438 258.917969 C 190.1875 258.988281 192.695312 259.386719 192.71875 259.394531 C 193.621094 259.542969 194.476562 258.925781 194.621094 258.019531 C 194.769531 257.117188 194.152344 256.261719 193.25 256.117188 C 193.160156 256.101562 191.234375 255.792969 188.253906 255.652344 C 188.699219 254.085938 192.164062 243.214844 202.015625 243.214844 C 205.679688 243.214844 208.839844 245.96875 211.0625 249.738281 C 211.730469 250.871094 212.3125 252.089844 212.796875 253.351562 C 213.289062 254.632812 213.683594 255.960938 213.964844 257.285156 C 214.078125 257.820312 214.175781 258.347656 214.246094 258.867188 C 214.769531 262.503906 214.289062 265.53125 212.988281 266.933594 C 212.785156 267.152344 212.5625 267.332031 212.320312 267.46875 C 211.875 266.75 211.203125 266.199219 210.328125 265.757812 C 209.574219 265.375 208.675781 265.074219 207.648438 264.839844 C 206.839844 264.648438 205.953125 264.492188 205.003906 264.359375 L 204.996094 264.359375 C 204.039062 263.082031 203.207031 261.613281 202.519531 260.203125 C 201.308594 257.710938 200.652344 255.582031 200.648438 255.558594 C 200.382812 254.679688 199.457031 254.183594 198.582031 254.449219 C 197.703125 254.714844 197.203125 255.640625 197.472656 256.519531 C 197.496094 256.601562 198 258.261719 198.96875 260.429688 C 198.875 260.613281 198.253906 261.871094 197.585938 263.683594 L 167.871094 262.203125 C 169.035156 261.65625 170.265625 261.183594 171.539062 260.792969 C 171.589844 260.78125 171.640625 260.761719 171.683594 260.738281 C 177.136719 259.058594 182.742188 258.816406 186.507812 258.917969 M 273.074219 185.691406 C 273.105469 185.824219 273.132812 185.957031 273.152344 186.082031 C 273.054688 185.925781 272.949219 185.765625 272.839844 185.605469 C 272.917969 185.632812 273 185.660156 273.074219 185.691406 M 376.140625 222.460938 C 376.347656 222.644531 376.546875 222.828125 376.746094 223.015625 C 376.28125 223.488281 375.84375 223.957031 375.4375 224.421875 C 375.65625 223.757812 375.886719 223.105469 376.140625 222.460938 M 401.484375 272.410156 C 407.441406 273.1875 413.226562 275.457031 415.363281 280.992188 C 417.410156 286.285156 417.078125 291.433594 415.703125 295.960938 C 415.308594 295.792969 414.910156 295.648438 414.503906 295.511719 C 409.792969 293.941406 405.046875 294.316406 400.78125 296.601562 C 398.570312 297.785156 396.566406 299.449219 394.828125 301.492188 C 394.140625 301.503906 393.457031 301.535156 392.777344 301.589844 C 394.03125 299.152344 395.59375 295.796875 397.054688 291.765625 C 398.929688 286.59375 400.769531 279.929688 401.484375 272.410156 M 444.621094 308.441406 C 446.011719 308.765625 447.027344 309.542969 447.742188 310.816406 C 449.097656 313.242188 449.277344 315.488281 448.28125 317.492188 C 447.90625 318.246094 447.371094 318.96875 446.679688 319.644531 C 444.050781 322.261719 439.257812 324.328125 433.089844 325.449219 C 433.375 321.339844 432.511719 316.90625 430.816406 312.714844 C 434.058594 310.710938 440.476562 307.472656 444.621094 308.441406 M 455.699219 326.164062 C 455.113281 322.445312 452.9375 320.550781 450.847656 319.707031 C 450.996094 319.464844 451.132812 319.21875 451.253906 318.96875 C 452.746094 315.964844 452.53125 312.585938 450.636719 309.195312 C 449.460938 307.085938 447.6875 305.746094 445.363281 305.207031 C 439.871094 303.933594 432.636719 307.738281 429.421875 309.679688 C 429.171875 309.195312 428.914062 308.71875 428.640625 308.246094 C 433.015625 299.496094 435.808594 287.859375 430.847656 275.015625 C 425.707031 261.6875 413.164062 256.671875 400.964844 255.589844 C 399.101562 244.273438 393.839844 232.203125 382.527344 220.90625 C 387.050781 219.003906 391.753906 218.828125 396.808594 218.066406 L 396.90625 217.753906 C 392.050781 213.796875 385.925781 215.863281 380.988281 219.390625 C 381.050781 217.703125 381 215.984375 380.835938 214.246094 C 383.101562 211.546875 385.816406 209.28125 388.507812 206.636719 C 388.507812 206.636719 388.402344 206.324219 388.402344 206.316406 C 384.972656 206.117188 382.289062 207.632812 380.25 209.992188 C 379.414062 205.289062 377.9375 200.6875 376.03125 196.910156 C 372.441406 189.796875 367.261719 185.261719 361.054688 183.796875 C 360.070312 183.566406 359.03125 183.449219 357.953125 183.445312 C 357.003906 173.3125 351.332031 161.542969 339.210938 160.140625 C 338.6875 160.082031 338.144531 160.050781 337.609375 160.042969 C 337.980469 159.710938 338.367188 159.351562 338.769531 158.957031 L 338.71875 158.628906 C 335.59375 157.496094 333.058594 158.886719 331.164062 161.210938 L 331.160156 161.210938 C 330.863281 161.320312 330.574219 161.433594 330.28125 161.554688 C 329.863281 160.691406 329.410156 159.855469 328.914062 159.042969 C 329.371094 157.648438 329.742188 156.253906 330.042969 154.464844 L 329.804688 154.226562 C 328.542969 154.59375 327.582031 155.222656 326.878906 156.039062 C 321.15625 148.554688 312.355469 143.933594 302.617188 143.933594 C 302.429688 143.933594 302.230469 143.933594 302.035156 143.9375 C 291.886719 144.125 283.128906 149.464844 276.703125 159.386719 C 273.996094 163.570312 272.070312 167.96875 270.703125 171.996094 C 269.003906 168.984375 266.4375 166.695312 262.648438 166.503906 L 262.511719 166.804688 C 265.082031 170.058594 267.273438 172.515625 269.503906 175.808594 C 269.511719 175.820312 269.519531 175.835938 269.527344 175.847656 C 269.21875 176.980469 268.953125 178.0625 268.726562 179.070312 C 267.996094 179 267.265625 178.953125 266.523438 178.941406 C 262.480469 175.824219 257.351562 173.734375 252.738281 176.734375 L 252.796875 177.0625 C 255.832031 177.917969 258.417969 178.53125 261.128906 179.367188 C 252.589844 180.859375 244.34375 185.578125 237.851562 192.726562 C 231.476562 199.742188 227.445312 208.257812 226.496094 216.707031 C 226.394531 217.613281 226.328125 218.515625 226.296875 219.421875 C 225.632812 219.167969 224.921875 219.035156 224.171875 219.066406 C 223.382812 219 222.542969 219.238281 221.796875 219.5625 L 221.761719 219.886719 C 223.429688 221.382812 224.804688 222.324219 226.363281 223.316406 C 226.4375 224.34375 226.554688 225.367188 226.71875 226.386719 C 226.496094 226.316406 226.269531 226.246094 226.039062 226.183594 C 223.859375 225.449219 221.183594 225.222656 219.222656 226.785156 C 218.542969 227.199219 218 227.882812 217.589844 228.582031 L 217.75 228.871094 C 220.40625 229.140625 222.269531 229.023438 224.582031 228.871094 C 219.613281 233.085938 215.507812 238.9375 212.523438 245.945312 C 209.871094 242.386719 206.304688 239.890625 202.015625 239.890625 C 196.597656 239.890625 191.925781 242.539062 188.496094 247.542969 C 187.949219 248.335938 187.476562 249.128906 187.074219 249.890625 C 186.15625 245.050781 184.601562 238.558594 182.191406 233.234375 C 180.328125 229.125 176.425781 221.957031 171.210938 220.148438 C 169.140625 219.425781 167.074219 219.585938 165.078125 220.613281 C 157.09375 224.714844 160.359375 231.070312 165.757812 241.601562 L 166.121094 242.308594 C 166.730469 243.503906 167.230469 244.804688 167.628906 246.132812 C 166.347656 243.253906 164.976562 240.480469 163.695312 238.476562 L 163.394531 237.996094 C 162.050781 235.808594 158.894531 230.691406 154.113281 229.761719 C 151.722656 229.296875 149.324219 229.929688 146.980469 231.652344 C 140.757812 236.234375 147.195312 246.722656 150.289062 251.761719 C 150.945312 252.832031 151.582031 253.820312 152.1875 254.757812 C 153.820312 257.300781 155.164062 259.382812 155.917969 261.605469 L 146.980469 261.160156 C 146.4375 261.085938 145.878906 261.046875 145.308594 261.046875 C 145.167969 261.046875 145.027344 261.050781 144.890625 261.054688 L 144.796875 261.050781 C 144.667969 261.046875 144.535156 261.054688 144.414062 261.085938 C 138.230469 261.523438 133.339844 266.539062 133.339844 272.632812 C 133.339844 279.019531 138.710938 284.21875 145.308594 284.21875 C 146.15625 284.21875 146.976562 284.132812 147.773438 283.96875 C 148.027344 284.125 148.332031 284.21875 148.644531 284.21875 C 148.722656 284.21875 148.804688 284.214844 148.886719 284.199219 L 153.820312 283.476562 C 153.648438 286.867188 153.9375 290.203125 155.152344 293.125 C 156.359375 296 158.417969 298.210938 161.277344 299.714844 C 160.742188 301.484375 160.304688 304.425781 161.960938 307.160156 C 163.351562 309.460938 165.894531 311.066406 169.546875 311.972656 C 171.332031 320.417969 175.65625 331.351562 186.097656 336.074219 C 189.308594 337.53125 192.734375 338.261719 196.398438 338.261719 C 203.785156 338.261719 212.121094 335.296875 221.519531 329.332031 C 225.464844 336.3125 231.820312 341.410156 239.203125 343.46875 C 242.863281 347.519531 247.433594 351.171875 252.703125 354.339844 C 250.917969 364.53125 251.394531 376.605469 256.515625 390.207031 C 254.429688 391.28125 252.710938 392.683594 251.433594 394.34375 C 249.792969 396.492188 248.9375 398.980469 248.882812 401.78125 C 243.613281 399.074219 237.707031 397.324219 231.300781 396.5625 C 216.964844 394.859375 207.726562 400.03125 202.503906 404.671875 C 196.5 410.003906 192.761719 417.507812 192.726562 424.273438 C 192.429688 426.90625 192.652344 429.417969 193.394531 431.785156 C 192.949219 431.894531 192.492188 432.082031 192.039062 432.367188 C 190.652344 433.253906 189.816406 434.804688 189.558594 436.972656 C 189.132812 440.570312 192.261719 445.59375 197.53125 449.769531 C 202.171875 453.449219 210.574219 458.167969 224.28125 459.796875 C 228.632812 460.316406 232.589844 460.535156 236.183594 460.535156 C 252.429688 460.535156 261.191406 456.007812 264.660156 453.644531 C 266.171875 456.734375 269.644531 458.308594 272.953125 457.40625 C 282.242188 454.867188 298.226562 449.21875 300.910156 439.910156 C 301.988281 436.148438 300.851562 432.28125 297.519531 428.398438 C 300.652344 413.996094 292.167969 407.101562 289.636719 405.402344 C 290.109375 403.503906 290.046875 401.472656 289.4375 399.339844 C 287.664062 393.117188 280.960938 389.296875 273.566406 388.058594 C 273.304688 387.464844 273.054688 386.878906 272.8125 386.292969 C 269.066406 377.1875 267.984375 368.960938 268.523438 361.703125 C 279.734375 365.660156 292.488281 367.867188 305.574219 367.867188 C 318.113281 367.867188 329.683594 365.894531 339.683594 362.140625 C 340.148438 369.292969 339.035156 377.378906 335.363281 386.304688 C 335.128906 386.882812 334.878906 387.464844 334.617188 388.054688 C 327.226562 389.289062 320.515625 393.117188 318.742188 399.339844 C 318.140625 401.472656 318.070312 403.503906 318.546875 405.394531 C 317.457031 406.101562 315.257812 407.765625 313.363281 410.601562 C 311.078125 414.011719 308.800781 419.839844 310.664062 428.398438 C 307.332031 432.28125 306.195312 436.148438 307.273438 439.910156 C 309.953125 449.21875 325.9375 454.867188 335.222656 457.402344 C 338.535156 458.316406 342.007812 456.738281 343.523438 453.644531 C 346.988281 456.007812 355.753906 460.535156 371.996094 460.535156 C 375.59375 460.535156 379.550781 460.308594 383.898438 459.796875 C 408.132812 456.921875 419.386719 443.410156 418.621094 436.972656 C 418.363281 434.804688 417.527344 433.253906 416.140625 432.367188 C 415.691406 432.082031 415.238281 431.894531 414.792969 431.78125 C 415.527344 429.414062 415.75 426.902344 415.453125 424.273438 C 415.417969 417.507812 411.683594 410.003906 405.679688 404.671875 C 400.457031 400.03125 391.222656 394.855469 376.882812 396.5625 C 370.46875 397.324219 364.570312 399.074219 359.296875 401.78125 C 359.242188 398.980469 358.390625 396.492188 356.746094 394.34375 C 355.472656 392.683594 353.753906 391.28125 351.667969 390.207031 C 356.867188 376.382812 357.277344 364.148438 355.394531 353.859375 C 356.726562 352.902344 358.007812 351.890625 359.230469 350.839844 C 361.140625 350.65625 363.050781 350.25 364.945312 349.640625 C 370.363281 361 381.964844 368.871094 395.367188 368.871094 C 404.097656 368.871094 412.066406 365.535156 418.054688 360.066406 C 419.148438 360.160156 421.339844 360.304688 424.121094 360.304688 C 431.320312 360.304688 442.476562 359.316406 448.890625 353.828125 C 452.015625 351.160156 453.703125 347.714844 453.90625 343.601562 C 454.058594 340.511719 452.863281 338.589844 451.683594 337.453125 C 455.101562 334.085938 456.28125 329.863281 455.699219 326.164062 "/>
<path style=" stroke:none;fill-rule:nonzero;fill:rgb(13.725281%,12.156677%,12.548828%);fill-opacity:1;" d="M 381.453125 312.484375 C 379.464844 310.988281 375.363281 312.878906 371.15625 316.871094 C 369.617188 318.332031 368.054688 320.074219 366.578125 322.035156 C 364.722656 324.5 363.242188 326.996094 362.195312 329.296875 C 360.125 333.835938 359.738281 337.625 361.539062 338.980469 C 361.65625 339.070312 361.785156 339.148438 361.921875 339.214844 C 362.773438 339.628906 363.921875 339.5625 365.246094 339.082031 C 368.445312 337.929688 372.691406 334.371094 376.410156 329.425781 C 381.910156 322.109375 384.167969 314.523438 381.453125 312.484375 "/>
<path style=" stroke:none;fill-rule:nonzero;fill:rgb(13.725281%,12.156677%,12.548828%);fill-opacity:1;" d="M 301.769531 215.972656 C 303.378906 215.652344 305.03125 215.472656 306.722656 215.472656 C 308.636719 215.472656 310.503906 215.703125 312.3125 216.105469 C 325.742188 219.074219 335.882812 231.304688 335.882812 226.378906 C 335.882812 225.488281 335.550781 224.320312 334.933594 222.980469 C 334.4375 221.910156 333.761719 220.738281 332.914062 219.511719 C 332.101562 218.332031 331.136719 217.09375 330.039062 215.867188 C 326.511719 211.933594 321.613281 208.046875 315.933594 205.867188 C 313.039062 204.753906 309.941406 204.085938 306.722656 204.085938 C 303.578125 204.085938 300.550781 204.722656 297.714844 205.789062 C 292.214844 207.855469 287.433594 211.535156 283.90625 215.320312 C 282.796875 216.515625 281.8125 217.722656 280.964844 218.890625 C 280.097656 220.09375 279.378906 221.257812 278.832031 222.328125 C 278.007812 223.9375 277.5625 225.347656 277.5625 226.378906 C 277.5625 231.382812 288.019531 218.6875 301.769531 215.972656 "/>
<path style=" stroke:none;fill-rule:nonzero;fill:rgb(13.725281%,12.156677%,12.548828%);fill-opacity:1;" d="M 342.664062 325.394531 C 338.210938 328.730469 333.277344 331.472656 327.992188 333.492188 C 321.242188 336.074219 313.914062 337.492188 306.253906 337.492188 C 297.363281 337.492188 288.917969 335.585938 281.308594 332.15625 C 276.175781 329.847656 271.425781 326.847656 267.167969 323.277344 C 253.871094 312.117188 245.410156 295.371094 245.410156 276.652344 C 245.410156 276.203125 245.433594 275.769531 245.449219 275.324219 C 255.65625 272.355469 266.800781 270.113281 278.613281 268.738281 C 277.90625 271.210938 277.515625 273.824219 277.515625 276.527344 C 277.515625 292.066406 290.007812 304.660156 305.417969 304.660156 C 319.3125 304.660156 330.832031 294.421875 332.964844 281.019531 C 331.929688 281.929688 330.570312 282.484375 329.082031 282.484375 C 325.824219 282.484375 323.179688 279.816406 323.179688 276.527344 C 323.179688 273.238281 325.824219 270.574219 329.082031 270.574219 C 330.570312 270.574219 331.921875 271.125 332.960938 272.035156 C 332.777344 270.847656 332.507812 269.691406 332.175781 268.5625 C 344.617188 269.921875 356.363281 272.214844 367.0625 275.324219 C 367.070312 275.769531 367.097656 276.203125 367.097656 276.652344 C 367.097656 296.597656 357.5 314.300781 342.664062 325.394531 M 359.039062 238.300781 C 358.53125 238.808594 357.984375 239.3125 357.394531 239.800781 C 356.851562 240.257812 356.277344 240.703125 355.660156 241.140625 C 361.980469 249.90625 366.015625 260.429688 366.90625 271.828125 C 348.472656 266.59375 327.523438 263.828125 306.253906 263.828125 C 284.980469 263.828125 264.035156 266.59375 245.601562 271.828125 C 246.492188 260.429688 250.527344 249.90625 256.847656 241.140625 C 256.234375 240.703125 255.65625 240.257812 255.113281 239.800781 C 254.523438 239.3125 253.980469 238.808594 253.46875 238.300781 C 245.621094 249.078125 240.984375 262.332031 240.984375 276.652344 C 240.984375 296.777344 250.140625 314.800781 264.5 326.78125 C 268.734375 330.316406 273.425781 333.324219 278.472656 335.703125 C 286.90625 339.6875 296.324219 341.917969 306.253906 341.917969 C 314.914062 341.917969 323.179688 340.226562 330.746094 337.152344 C 335.925781 335.042969 340.78125 332.289062 345.207031 328.988281 C 361.171875 317.082031 371.523438 298.050781 371.523438 276.652344 C 371.523438 262.332031 366.886719 249.078125 359.039062 238.300781 "/>
<path style=" stroke:none;fill-rule:nonzero;fill:rgb(13.725281%,12.156677%,12.548828%);fill-opacity:1;" d="M 376.222656 280.863281 C 378.832031 280.105469 381.59375 279.730469 384.261719 279.828125 C 387.039062 280.308594 389.003906 280.714844 392.054688 280.726562 L 392.246094 280.453125 C 389.492188 274.574219 381.441406 277.140625 376.941406 279.988281 C 378.472656 278.164062 380.265625 276.53125 382.195312 275.226562 C 383.992188 274.347656 385.441406 273.671875 387.011719 272.71875 C 387.65625 272.332031 388.3125 271.902344 389.027344 271.386719 L 389.027344 271.054688 C 385.917969 269.347656 383.027344 270.578125 380.722656 272.851562 C 378.5 275.046875 376.8125 278.210938 375.996094 280.644531 L 376.144531 280.71875 Z M 376.222656 280.863281 "/>
<path style=" stroke:none;fill-rule:nonzero;fill:rgb(13.725281%,12.156677%,12.548828%);fill-opacity:1;" d="M 328.179688 200.894531 L 328.34375 200.945312 C 329.65625 198.570312 331.355469 196.355469 333.316406 194.542969 C 335.625 192.921875 337.304688 191.828125 339.472656 189.6875 L 339.417969 189.359375 C 333.296875 187.148438 329.441406 194.601562 328.238281 199.796875 C 328.039062 197.429688 328.15625 195.019531 328.605469 192.738281 C 329.523438 190.074219 330.242188 188.203125 330.742188 185.199219 L 330.507812 184.960938 C 323.816406 186.890625 325.714844 196.253906 328.023438 200.949219 Z M 328.179688 200.894531 "/>
<path style=" stroke:none;fill-rule:nonzero;fill:rgb(13.725281%,12.156677%,12.548828%);fill-opacity:1;" d="M 255.574219 217.234375 C 255.996094 217.265625 256.425781 217.308594 256.847656 217.363281 C 259.097656 217.644531 261.359375 218.253906 263.476562 219.125 L 263.574219 218.988281 L 263.726562 218.929688 C 263.382812 217.292969 262.832031 215.710938 262.082031 214.226562 C 261.515625 213.09375 260.824219 212.015625 260.019531 211.011719 C 258.683594 209.136719 256.648438 207.382812 254.148438 207.496094 C 253.355469 207.425781 252.515625 207.667969 251.765625 207.992188 L 251.730469 208.316406 C 254.007812 210.355469 255.742188 211.367188 258.128906 212.875 C 258.9375 213.558594 259.710938 214.304688 260.4375 215.097656 C 261.304688 216.042969 262.101562 217.0625 262.824219 218.128906 C 261.703125 217.226562 260.488281 216.449219 259.195312 215.816406 C 258.183594 215.324219 257.117188 214.921875 256.015625 214.613281 C 253.828125 213.878906 251.15625 213.65625 249.191406 215.210938 C 248.515625 215.625 247.976562 216.3125 247.558594 217.011719 L 247.71875 217.296875 C 250.761719 217.613281 252.761719 217.410156 255.574219 217.234375 "/>
</g>
</svg>
