<?xml version="1.0" encoding="UTF-8"?>
<svg xmlns="http://www.w3.org/2000/svg" xmlns:xlink="http://www.w3.org/1999/xlink" width="595.276pt" height="576.002pt" viewBox="0 0 595.276 576.002" version="1.1">
<g id="surface1">
<path style=" stroke:none;fill-rule:nonzero;fill:rgb(13.725281%,12.156677%,12.548828%);fill-opacity:1;" d="M 215.902344 265.097656 C 217.871094 263.894531 220.058594 263.351562 222.179688 263.410156 C 219.28125 276.34375 221.660156 289.703125 228.929688 301.132812 C 235.160156 310.917969 244.347656 318.300781 255.226562 322.371094 C 256.472656 322.839844 257.734375 323.261719 259.023438 323.636719 C 259.871094 323.890625 260.734375 324.121094 261.597656 324.332031 C 261.8125 324.378906 262.027344 324.40625 262.234375 324.40625 C 262.527344 324.40625 262.804688 324.359375 263.074219 324.265625 C 263.925781 323.992188 264.621094 323.289062 264.851562 322.347656 C 264.964844 321.878906 264.949219 321.410156 264.820312 320.972656 C 264.5625 320.070312 263.839844 319.332031 262.871094 319.09375 C 250.570312 316.109375 240.132812 308.703125 233.472656 298.242188 C 227.035156 288.117188 224.878906 276.304688 227.378906 264.867188 C 228.8125 265.691406 230.050781 266.875 230.960938 268.367188 C 231.46875 269.199219 232.355469 269.65625 233.261719 269.65625 C 233.742188 269.65625 234.222656 269.53125 234.660156 269.265625 C 235.933594 268.492188 236.335938 266.835938 235.5625 265.5625 C 230.96875 258.023438 220.890625 255.753906 213.105469 260.5 C 211.832031 261.273438 211.429688 262.925781 212.203125 264.199219 C 212.972656 265.46875 214.632812 265.871094 215.902344 265.097656 "/>
<path style=" stroke:none;fill-rule:nonzero;fill:rgb(13.725281%,12.156677%,12.548828%);fill-opacity:1;" d="M 265.835938 203.917969 C 265.851562 203.933594 265.867188 203.953125 265.882812 203.960938 C 266.246094 204.3125 266.828125 204.105469 267.613281 203.515625 C 268.375 202.941406 269.335938 202.003906 270.480469 200.851562 C 270.527344 200.800781 270.582031 200.746094 270.636719 200.691406 C 275.011719 196.285156 282.019531 188.992188 291.21875 187.125 C 302.910156 184.757812 314.761719 191.839844 319.277344 193.011719 C 320.703125 193.378906 321.394531 193.164062 321.136719 191.890625 C 320.058594 186.558594 304.375 173.152344 289.015625 176.269531 C 273.65625 179.382812 264.4375 197.835938 265.515625 203.167969 C 265.585938 203.515625 265.695312 203.761719 265.835938 203.917969 "/>
<path style=" stroke:none;fill-rule:nonzero;fill:rgb(13.725281%,12.156677%,12.548828%);fill-opacity:1;" d="M 433.203125 245.878906 C 433.632812 246.804688 434.191406 247.671875 434.863281 248.449219 L 433.566406 248.261719 L 431.902344 248.015625 L 408.886719 244.648438 L 405.652344 244.167969 L 394.5 242.535156 L 392.914062 242.304688 L 391.332031 242.074219 L 389.140625 241.753906 C 387.304688 241.496094 385.476562 241.015625 384.046875 240.480469 C 383.351562 240.21875 382.75 239.9375 382.28125 239.65625 C 381.625 239.273438 381.242188 238.890625 381.242188 238.558594 C 381.242188 238.4375 381.257812 238.324219 381.300781 238.21875 C 381.347656 238.074219 381.429688 237.945312 381.546875 237.820312 C 382.007812 237.328125 383.011719 236.972656 384.652344 236.667969 C 385.417969 236.527344 386.320312 236.398438 387.371094 236.269531 C 388.339844 236.15625 389.429688 236.042969 390.65625 235.925781 C 390.824219 235.910156 391.003906 235.894531 391.1875 235.878906 L 392.308594 235.824219 L 393.953125 235.738281 L 429.621094 233.960938 L 431.242188 233.878906 L 432.871094 233.800781 L 435.210938 233.679688 C 434.339844 234.605469 433.625 235.675781 433.113281 236.839844 C 432.585938 238.027344 432.261719 239.320312 432.191406 240.671875 C 432.183594 240.867188 432.175781 241.066406 432.175781 241.265625 C 432.175781 242.90625 432.542969 244.46875 433.203125 245.878906 M 386.933594 244.652344 C 387.640625 244.796875 388.25 244.894531 388.683594 244.953125 L 389.515625 245.078125 C 389.503906 245.089844 389.488281 245.09375 389.472656 245.105469 C 388.464844 245.722656 387.871094 245.738281 386.933594 244.652344 M 431.265625 259.953125 C 430.25 262.375 428.375 264.164062 425.679688 265.273438 C 425.664062 265.28125 425.640625 265.289062 425.625 265.296875 C 424.023438 265.957031 422.394531 266.273438 421.078125 266.425781 C 419.460938 266.617188 418.320312 266.550781 418.304688 266.546875 C 417.414062 266.484375 416.648438 267.160156 416.585938 268.050781 C 416.527344 268.941406 417.199219 269.710938 418.089844 269.769531 C 418.132812 269.773438 418.417969 269.789062 418.886719 269.789062 C 419.488281 269.789062 420.378906 269.765625 421.453125 269.636719 C 422.582031 269.507812 423.902344 269.269531 425.277344 268.847656 C 425.578125 269.996094 425.765625 271.714844 424.847656 273.207031 C 424.117188 274.402344 422.773438 275.339844 420.878906 276 C 418.671875 276.765625 415.707031 277.164062 412.058594 277.164062 C 409.027344 277.164062 406.453125 276.890625 404.378906 276.351562 C 401.78125 275.683594 399.976562 274.597656 399.046875 273.125 C 398.253906 271.875 398.210938 270.476562 398.367188 269.386719 C 400.390625 270.3125 403.011719 270.53125 405.074219 270.53125 L 405.238281 270.53125 C 406.625 270.519531 407.742188 270.425781 408.222656 270.363281 C 409.105469 270.269531 409.746094 269.46875 409.648438 268.582031 C 409.546875 267.695312 408.75 267.066406 407.859375 267.152344 C 407.148438 267.234375 406.328125 267.28125 405.488281 267.289062 C 402.742188 267.320312 399.675781 266.921875 398.679688 265.761719 C 398.625 265.691406 398.566406 265.628906 398.496094 265.578125 C 398.453125 265.535156 398.410156 265.5 398.359375 265.46875 C 398.351562 265.457031 398.339844 265.453125 398.324219 265.445312 C 398.28125 265.414062 398.238281 265.386719 398.1875 265.371094 C 398.171875 265.355469 398.15625 265.351562 398.140625 265.339844 C 398.128906 265.332031 398.125 265.328125 398.113281 265.328125 C 398.011719 265.28125 397.902344 265.242188 397.792969 265.214844 C 397.671875 265.1875 397.550781 265.171875 397.433594 265.179688 C 397.355469 265.179688 397.285156 265.183594 397.210938 265.195312 L 397.207031 265.195312 C 397.15625 265.199219 397.105469 265.210938 397.054688 265.222656 C 396.636719 265.316406 386.773438 267.488281 378.007812 255.511719 C 375.03125 251.433594 372.519531 245.34375 373.734375 242.078125 C 374.171875 240.910156 375.070312 240.207031 376.5625 239.863281 C 377.078125 239.738281 377.53125 239.707031 377.953125 239.75 C 378.042969 239.761719 378.136719 239.769531 378.226562 239.792969 C 378.765625 241.273438 380.25 242.359375 381.972656 243.144531 C 382.175781 243.449219 382.378906 243.765625 382.582031 244.089844 C 384.238281 246.664062 386.734375 250.554688 391.160156 247.859375 C 392.140625 247.257812 392.871094 246.503906 393.402344 245.644531 L 404.929688 247.332031 C 404.414062 250.753906 404.671875 254.871094 406.882812 259.234375 C 407.167969 259.789062 407.730469 260.113281 408.324219 260.113281 C 408.570312 260.113281 408.816406 260.058594 409.054688 259.941406 C 409.847656 259.535156 410.164062 258.5625 409.761719 257.765625 C 407.910156 254.125 407.695312 250.667969 408.125 247.800781 L 432.273438 251.339844 C 432.492188 254.453125 432.304688 257.464844 431.265625 259.953125 M 377.019531 226.324219 C 378.476562 219.519531 382.9375 212.636719 388.644531 212.636719 C 398.230469 212.636719 401.605469 223.214844 402.039062 224.738281 C 399.140625 224.875 397.265625 225.175781 397.171875 225.191406 C 396.292969 225.335938 395.695312 226.164062 395.84375 227.042969 C 395.980469 227.925781 396.8125 228.519531 397.695312 228.382812 C 397.714844 228.375 400.144531 227.988281 403.710938 227.914062 L 403.742188 227.914062 C 407.414062 227.820312 412.886719 228.054688 418.207031 229.703125 C 418.242188 229.71875 418.269531 229.730469 418.300781 229.738281 C 419.539062 230.121094 420.734375 230.582031 421.871094 231.109375 L 392.953125 232.554688 C 392.308594 230.792969 391.695312 229.566406 391.609375 229.390625 C 392.550781 227.28125 393.042969 225.65625 393.070312 225.582031 C 393.328125 224.730469 392.847656 223.828125 391.992188 223.570312 C 391.136719 223.304688 390.234375 223.796875 389.976562 224.648438 C 389.972656 224.671875 389.332031 226.742188 388.152344 229.164062 C 387.480469 230.535156 386.675781 231.96875 385.742188 233.210938 L 385.734375 233.210938 C 382.289062 233.695312 379.726562 234.453125 378.621094 236.230469 C 376.660156 235.097656 376 231.09375 377.019531 226.324219 M 410.878906 204.257812 C 413.601562 198.253906 416.808594 194.238281 419.679688 193.238281 C 420.847656 192.835938 421.96875 192.921875 423.113281 193.511719 C 427.617188 195.824219 426.871094 198.253906 421.054688 209.589844 L 420.699219 210.28125 C 418.003906 215.558594 417.359375 222.574219 417.203125 226.066406 C 412.972656 225.003906 408.8125 224.695312 405.539062 224.675781 C 406.082031 220.835938 407.671875 211.355469 410.878906 204.257812 M 428.660156 209.769531 L 428.976562 209.253906 C 430.066406 207.484375 432.617188 203.351562 435.875 202.714844 C 437.300781 202.433594 438.746094 202.851562 440.285156 203.984375 C 443.949219 206.679688 438.535156 215.496094 436.226562 219.261719 C 435.597656 220.28125 434.992188 221.226562 434.421875 222.117188 C 432.484375 225.136719 430.84375 227.675781 430.078125 230.699219 L 424.878906 230.964844 C 424.902344 230.933594 424.921875 230.890625 424.945312 230.851562 C 425.351562 230.054688 425.039062 229.085938 424.246094 228.675781 C 423.164062 228.121094 422.03125 227.628906 420.863281 227.195312 C 422.296875 223.3125 425.796875 214.230469 428.660156 209.769531 M 361.988281 265.429688 C 361.90625 265.917969 361.8125 266.402344 361.707031 266.886719 C 361.628906 267.308594 361.53125 267.730469 361.433594 268.148438 C 361.257812 268.929688 361.066406 269.710938 360.851562 270.484375 C 360.828125 270.578125 360.800781 270.671875 360.769531 270.769531 C 360.757812 270.816406 360.746094 270.863281 360.730469 270.914062 C 360.625 271.304688 360.511719 271.703125 360.386719 272.089844 C 360.273438 272.480469 360.152344 272.867188 360.023438 273.253906 C 358.675781 277.394531 356.871094 281.363281 354.667969 285.089844 L 354.664062 285.089844 C 354.597656 285.203125 354.535156 285.316406 354.46875 285.421875 C 354.265625 285.773438 354.054688 286.117188 353.832031 286.460938 C 353.652344 286.753906 353.464844 287.046875 353.273438 287.328125 C 353.21875 287.414062 353.160156 287.507812 353.101562 287.597656 C 353.101562 287.605469 353.09375 287.605469 353.09375 287.605469 C 353.066406 287.640625 353.046875 287.679688 353.019531 287.71875 C 352.886719 287.925781 352.746094 288.136719 352.597656 288.339844 C 352.488281 288.5 352.375 288.667969 352.261719 288.828125 C 352.128906 289.027344 351.988281 289.226562 351.84375 289.425781 C 351.257812 290.242188 350.652344 291.046875 350.023438 291.828125 C 349.824219 292.082031 349.625 292.328125 349.425781 292.570312 C 349.390625 292.613281 349.351562 292.65625 349.320312 292.699219 C 349.046875 293.039062 348.761719 293.367188 348.476562 293.695312 C 348.335938 293.859375 348.191406 294.027344 348.046875 294.191406 C 347.5625 294.742188 347.070312 295.273438 346.566406 295.800781 C 342.683594 299.890625 338.183594 303.445312 333.175781 306.308594 C 332.796875 306.535156 332.410156 306.75 332.023438 306.953125 C 331.972656 306.984375 331.925781 307.011719 331.875 307.03125 C 331.652344 307.160156 331.421875 307.285156 331.191406 307.398438 C 330.96875 307.523438 330.742188 307.636719 330.519531 307.746094 C 330.144531 307.941406 329.761719 308.128906 329.375 308.316406 C 328.242188 308.855469 327.085938 309.363281 325.914062 309.84375 C 325.058594 310.191406 324.183594 310.503906 323.304688 310.8125 C 322.847656 310.972656 322.390625 311.128906 321.929688 311.277344 C 321.453125 311.429688 320.972656 311.570312 320.492188 311.714844 C 319.6875 311.949219 318.875 312.171875 318.054688 312.378906 C 317.617188 312.484375 317.179688 312.589844 316.742188 312.6875 C 316.191406 312.8125 315.640625 312.933594 315.09375 313.039062 C 314.121094 313.230469 313.148438 313.40625 312.164062 313.546875 C 311.878906 313.589844 311.59375 313.628906 311.308594 313.664062 C 311.179688 313.6875 311.058594 313.703125 310.929688 313.714844 C 308.488281 314.019531 306.0625 314.171875 303.65625 314.171875 C 299.625 314.171875 295.644531 313.757812 291.777344 312.949219 C 291.304688 312.859375 290.832031 312.757812 290.359375 312.644531 C 290.347656 312.644531 290.339844 312.640625 290.332031 312.640625 C 289.867188 312.53125 289.398438 312.414062 288.933594 312.296875 C 288.535156 312.195312 288.136719 312.085938 287.746094 311.972656 C 287.351562 311.867188 286.960938 311.753906 286.574219 311.628906 C 286.207031 311.527344 285.84375 311.410156 285.484375 311.292969 C 285.441406 311.277344 285.398438 311.265625 285.359375 311.25 C 283.050781 310.496094 280.796875 309.601562 278.597656 308.574219 C 277.867188 308.226562 277.140625 307.867188 276.417969 307.496094 C 275.339844 306.929688 274.277344 306.335938 273.234375 305.710938 C 272.886719 305.507812 272.542969 305.300781 272.199219 305.074219 C 271.945312 304.921875 271.691406 304.761719 271.441406 304.589844 C 271.257812 304.472656 271.070312 304.347656 270.886719 304.226562 C 270.699219 304.101562 270.503906 303.972656 270.316406 303.839844 C 270.179688 303.746094 270.039062 303.648438 269.898438 303.554688 C 269.671875 303.402344 269.453125 303.246094 269.234375 303.085938 C 268.417969 302.5 267.613281 301.894531 266.828125 301.265625 C 266.574219 301.066406 266.328125 300.867188 266.085938 300.671875 C 266.042969 300.632812 266 300.601562 265.957031 300.5625 C 265.617188 300.28125 265.292969 300.003906 264.964844 299.71875 C 264.246094 299.101562 263.546875 298.46875 262.859375 297.808594 C 258.097656 293.285156 254.050781 287.929688 250.980469 281.90625 C 250.824219 281.605469 250.671875 281.300781 250.527344 280.992188 C 250.28125 280.5 250.046875 279.992188 249.816406 279.488281 C 249.460938 278.722656 249.125 277.941406 248.816406 277.160156 C 248.457031 276.273438 248.128906 275.367188 247.8125 274.460938 C 247.671875 274.058594 247.535156 273.65625 247.40625 273.25 C 247.21875 272.671875 247.042969 272.089844 246.875 271.503906 C 246.664062 270.78125 246.46875 270.050781 246.285156 269.3125 C 246.175781 268.871094 246.066406 268.429688 245.96875 267.984375 C 245.84375 267.433594 245.726562 266.882812 245.617188 266.332031 C 245.429688 265.363281 245.25 264.390625 245.109375 263.40625 C 245.066406 263.121094 245.03125 262.835938 244.992188 262.550781 C 244.976562 262.421875 244.960938 262.292969 244.945312 262.171875 C 244.902344 261.820312 244.859375 261.476562 244.824219 261.132812 L 244.792969 260.84375 C 244.746094 260.398438 244.707031 259.953125 244.675781 259.507812 C 244.429688 256.382812 244.433594 253.273438 244.6875 250.210938 L 244.691406 250.210938 C 244.859375 250.230469 245.023438 250.242188 245.195312 250.242188 C 245.59375 250.242188 245.996094 250.1875 246.390625 250.078125 C 251.644531 248.558594 257.070312 247.214844 262.617188 246.054688 C 261.527344 249.339844 260.984375 252.835938 261.085938 256.414062 C 261.460938 256.253906 261.855469 256.121094 262.261719 256.027344 C 265.996094 255.144531 269.738281 257.460938 270.617188 261.191406 C 271.5 264.929688 269.183594 268.667969 265.453125 269.550781 C 265.164062 269.617188 264.871094 269.667969 264.582031 269.699219 C 270.851562 281.589844 284.558594 288.226562 298.25 285 C 314.5 281.164062 324.5625 264.882812 320.730469 248.636719 C 320.050781 245.773438 318.988281 243.105469 317.609375 240.667969 C 332.070312 240.78125 346.425781 242.074219 360.300781 244.519531 C 360.453125 244.546875 360.609375 244.5625 360.765625 244.570312 C 360.859375 244.578125 360.953125 244.582031 361.046875 244.582031 C 361.363281 244.582031 361.675781 244.546875 361.984375 244.480469 C 362.003906 244.582031 362.019531 244.679688 362.035156 244.78125 C 362.089844 245.097656 362.144531 245.410156 362.191406 245.722656 C 362.21875 245.886719 362.246094 246.050781 362.269531 246.210938 C 362.332031 246.613281 362.386719 247.011719 362.433594 247.414062 C 363.230469 253.535156 363.046875 259.597656 361.988281 265.429688 M 303.539062 382.113281 C 307.742188 377.984375 311.632812 376.390625 314.886719 376.046875 C 318.902344 375.617188 321.953125 377.078125 323.445312 378.011719 C 320.101562 382.019531 316.699219 385.277344 314.488281 387.265625 C 312.988281 388.613281 312.042969 389.371094 312.019531 389.390625 C 311.320312 389.945312 311.207031 390.964844 311.761719 391.664062 L 311.765625 391.667969 C 312.085938 392.058594 312.550781 392.269531 313.027344 392.269531 C 313.375 392.269531 313.738281 392.15625 314.03125 391.921875 C 314.289062 391.71875 320.050781 387.105469 325.824219 380.203125 C 325.015625 384.886719 325.125 390.488281 327.988281 395.75 C 323.617188 398.753906 319.378906 400.761719 314.535156 403.054688 C 311.722656 404.390625 308.8125 405.765625 305.574219 407.476562 C 298.5 411.214844 293.636719 415.410156 291.0625 419.941406 C 287.835938 412.226562 292.316406 406.285156 296.722656 402.628906 C 296.851562 402.519531 296.988281 402.414062 297.109375 402.3125 C 299.027344 400.78125 300.597656 399.945312 300.617188 399.933594 C 301.402344 399.515625 301.703125 398.542969 301.28125 397.753906 C 300.863281 396.964844 299.890625 396.664062 299.101562 397.082031 C 299.027344 397.117188 297.527344 397.917969 295.589844 399.402344 C 295.058594 397.757812 294.515625 393.671875 298.828125 387.558594 C 300.003906 385.894531 301.539062 384.074219 303.539062 382.113281 M 332.289062 371.171875 C 332.3125 371.132812 332.332031 371.101562 332.351562 371.066406 L 332.425781 370.933594 C 332.429688 370.929688 332.429688 370.921875 332.429688 370.917969 C 332.441406 370.90625 332.445312 370.902344 332.445312 370.890625 C 336.265625 364.316406 347.148438 349.292969 365.988281 351.160156 C 372.207031 351.773438 377.894531 353.863281 382.523438 357.121094 C 380.457031 356.671875 378.28125 356.515625 376.046875 356.6875 C 369.164062 357.21875 358.539062 361.058594 347.0625 376.300781 C 341.183594 384.097656 335.921875 389.714844 330.628906 393.828125 C 325.636719 384.101562 331.339844 372.910156 332.289062 371.171875 M 389.75 364.472656 C 388.382812 363.570312 387.03125 362.984375 385.804688 362.597656 C 379.058594 360.488281 370.441406 362.820312 362.75 368.835938 C 357.097656 373.242188 352.054688 379.460938 347.601562 384.949219 C 343.796875 389.636719 340.207031 394.070312 336.839844 396.671875 C 332.570312 399.988281 328.714844 402.007812 324.636719 404.144531 C 323.746094 404.609375 322.855469 405.078125 321.957031 405.554688 C 321.820312 405.632812 321.691406 405.726562 321.578125 405.839844 L 321.398438 406.019531 L 316.667969 410.824219 C 314.757812 411.28125 307.605469 413.15625 300.675781 417.171875 C 296.9375 419.335938 294.226562 421.84375 292.574219 424.652344 C 292.769531 423.898438 293.050781 423.164062 293.398438 422.433594 C 295.472656 418.109375 300.074219 414.046875 307.082031 410.335938 C 310.261719 408.652344 313.136719 407.289062 315.917969 405.976562 C 321.324219 403.414062 325.996094 401.195312 331.007812 397.574219 L 331.011719 397.574219 C 331.039062 397.558594 331.0625 397.542969 331.085938 397.523438 C 337.140625 393.132812 343.035156 387.007812 349.640625 378.242188 C 360.394531 363.964844 370.074219 360.390625 376.300781 359.910156 C 381.453125 359.507812 386.230469 361.128906 389.75 364.472656 M 394.535156 376.820312 C 394.902344 379.097656 395.0625 381.492188 395.003906 383.933594 C 394.773438 394.578125 390.003906 404.546875 381.578125 411.996094 C 372.0625 420.410156 358.039062 425.617188 340.992188 427.085938 L 325.152344 407.519531 C 325.480469 407.347656 325.808594 407.175781 326.136719 407.007812 C 330.160156 404.894531 334.320312 402.714844 338.820312 399.230469 C 342.476562 396.394531 346.1875 391.824219 350.109375 386.984375 C 354.664062 381.371094 359.371094 375.5625 364.738281 371.378906 C 371.597656 366.019531 379.109375 363.886719 384.839844 365.683594 C 389.359375 367.097656 392.710938 370.945312 394.535156 376.820312 M 336.574219 433.65625 L 319.644531 412.414062 L 322.558594 409.449219 L 338.417969 429.046875 Z M 313.027344 443.777344 C 304.691406 443.777344 299.359375 442.179688 296.257812 438.765625 C 296.238281 438.742188 296.21875 438.71875 296.199219 438.683594 C 296.1875 438.667969 296.175781 438.652344 296.160156 438.636719 C 296.160156 438.632812 296.148438 438.621094 296.144531 438.609375 C 295.503906 437.671875 293.148438 433.8125 294.125 429.378906 C 294.914062 425.824219 297.65625 422.652344 302.292969 419.96875 C 308.242188 416.523438 314.527344 414.707031 316.871094 414.105469 L 334.863281 436.6875 C 332.441406 438.792969 325.402344 443.777344 313.027344 443.777344 M 227.070312 364.898438 C 223.328125 362.507812 218.351562 363.59375 215.9375 367.328125 C 213.523438 371.078125 214.601562 376.078125 218.351562 378.496094 C 218.902344 378.855469 223.410156 381.683594 229.847656 383.582031 C 228.222656 385.800781 226.03125 387.539062 223.367188 388.675781 C 219.125 386.8125 215.078125 385.816406 212.207031 385.277344 C 205.917969 377.816406 206.476562 368.945312 208.910156 363.542969 C 211.332031 358.164062 215.890625 354.824219 220.804688 354.824219 C 221.609375 354.824219 222.414062 354.9375 223.195312 355.15625 C 223.253906 355.171875 223.3125 355.1875 223.371094 355.210938 C 227.925781 356.585938 231.476562 361.429688 232.722656 367.527344 C 229.429688 366.351562 227.179688 364.960938 227.070312 364.898438 M 240.792969 419.828125 C 240.792969 424.222656 239.277344 428.152344 236.410156 431.199219 C 229.457031 438.625 213.851562 441.011719 198.621094 430.796875 C 191.199219 425.816406 182.628906 417.175781 181.976562 394.363281 C 192.09375 387.105469 207.464844 387.898438 207.621094 387.902344 C 207.632812 387.902344 208.945312 387.984375 211.027344 388.34375 C 211.042969 388.347656 211.0625 388.355469 211.078125 388.355469 C 214 388.863281 218.441406 389.921875 223.023438 392.058594 L 223.027344 392.066406 C 234.808594 397.582031 240.792969 406.914062 240.792969 419.828125 M 232.65625 440.46875 C 229.648438 443.589844 224.84375 445.171875 218.367188 445.171875 C 199.480469 445.171875 184.035156 433.550781 178.058594 414.839844 C 171.953125 395.742188 176.097656 381.878906 176.140625 381.738281 C 176.300781 381.21875 176.183594 380.652344 175.839844 380.234375 C 175.492188 379.8125 174.953125 379.589844 174.410156 379.65625 C 174.390625 379.660156 172.140625 379.886719 170.9375 378.550781 C 169.789062 377.269531 169.992188 374.945312 170.363281 373.222656 C 172.21875 364.703125 179.605469 343.636719 186.875 342.054688 C 187.460938 341.925781 189.070312 341.574219 191.289062 343.863281 C 182.859375 350.082031 178.753906 362.71875 178.753906 382.386719 C 178.753906 383.546875 178.746094 384.765625 178.730469 386.035156 C 178.703125 388.445312 178.675781 390.9375 178.730469 393.585938 L 178.730469 393.617188 C 178.992188 406.710938 181.285156 423.0625 196.820312 433.480469 C 203.492188 437.949219 211.996094 440.832031 220.089844 440.832031 C 225.53125 440.832031 230.78125 439.527344 235.148438 436.519531 C 234.664062 437.789062 233.890625 439.1875 232.65625 440.46875 M 194.527344 345.570312 C 197.75 343.605469 201.613281 342.648438 206.335938 342.648438 C 215.117188 342.648438 219.484375 348.378906 221.238281 351.601562 C 221.09375 351.597656 220.949219 351.597656 220.804688 351.597656 C 214.601562 351.597656 208.914062 355.660156 205.960938 362.210938 C 202.703125 369.453125 203.464844 377.902344 207.777344 384.683594 C 206.78125 384.617188 192.679688 383.976562 181.929688 390.53125 C 181.929688 389.003906 181.945312 387.523438 181.960938 386.066406 C 181.972656 384.789062 181.988281 383.558594 181.988281 382.386719 C 181.988281 363.039062 186.203125 350.648438 194.527344 345.570312 M 149.921875 258.273438 C 147.3125 258.523438 144.988281 258.621094 142.960938 258.546875 C 140.636719 258.46875 138.703125 258.175781 137.191406 257.671875 C 133.972656 256.601562 133.8125 254.929688 133.757812 254.382812 C 133.488281 251.621094 134.777344 250.957031 134.785156 250.953125 C 134.8125 250.941406 134.835938 250.929688 134.863281 250.914062 C 135.695312 251.027344 136.480469 251.070312 137.210938 251.070312 C 139.460938 251.070312 141.167969 250.636719 141.984375 250.382812 C 142.296875 250.28125 142.480469 250.210938 142.511719 250.199219 C 143.332031 249.863281 143.730469 248.925781 143.398438 248.101562 C 143.144531 247.476562 142.539062 247.097656 141.90625 247.089844 C 141.699219 247.089844 141.496094 247.121094 141.296875 247.203125 C 141.273438 247.214844 138.410156 248.320312 134.546875 247.589844 C 134.53125 247.585938 134.511719 247.585938 134.492188 247.578125 C 130.121094 246.742188 126.222656 243.953125 122.90625 239.308594 C 118.925781 233.75 118.511719 227.167969 118.707031 223.242188 C 119.289062 223.828125 119.914062 224.386719 120.5625 224.921875 C 124.839844 228.441406 129.582031 230.285156 133.515625 230.285156 C 136.265625 230.285156 138.625 229.386719 140.15625 227.527344 C 143.554688 223.390625 141.507812 216.121094 135.546875 210.34375 C 137.5 209.160156 139.621094 208.316406 141.867188 207.816406 C 142.851562 207.59375 143.890625 207.433594 144.960938 207.339844 C 145.675781 207.28125 146.378906 207.253906 147.054688 207.253906 C 149.316406 207.253906 151.324219 207.554688 152.867188 207.894531 C 149.757812 210.105469 147.128906 212.625 147.515625 216.589844 C 147.8125 219.632812 149.402344 222.285156 151.996094 224.0625 C 152.789062 224.605469 153.65625 225.050781 154.566406 225.390625 C 151.210938 229.324219 150.410156 234.207031 150.308594 237.484375 C 150.25 239.527344 150.453125 240.945312 150.480469 241.101562 C 150.605469 241.898438 151.292969 242.46875 152.074219 242.46875 C 152.15625 242.46875 152.242188 242.460938 152.324219 242.449219 C 153.203125 242.316406 153.8125 241.488281 153.675781 240.609375 C 153.671875 240.582031 153.542969 239.679688 153.542969 238.292969 C 153.546875 235.222656 154.207031 229.777344 158.304688 226.199219 C 159.113281 226.261719 159.9375 226.25 160.769531 226.167969 C 167.027344 225.5625 173.832031 218.816406 174.121094 218.527344 C 174.75 217.898438 174.75 216.878906 174.121094 216.242188 C 173.488281 215.617188 172.46875 215.617188 171.832031 216.242188 C 171.773438 216.308594 165.554688 222.457031 160.457031 222.949219 C 159.558594 223.042969 158.664062 223.027344 157.808594 222.90625 C 156.339844 222.695312 154.972656 222.183594 153.820312 221.394531 C 152.554688 220.53125 150.984375 218.941406 150.730469 216.277344 C 150.460938 213.484375 152.871094 211.734375 156.828125 209.105469 L 157.515625 208.652344 C 158.105469 208.265625 158.691406 207.867188 159.265625 207.453125 C 160.332031 206.707031 161.222656 205.992188 162.003906 205.351562 C 162.316406 205.105469 162.613281 204.871094 162.902344 204.640625 C 162.949219 204.605469 163.003906 204.570312 163.046875 204.527344 C 164.429688 203.445312 165.523438 202.757812 167.046875 202.464844 C 170.394531 201.8125 173.449219 202.355469 175.640625 203.996094 C 177.3125 205.238281 178.335938 207.035156 178.53125 209.042969 C 178.867188 212.488281 175.929688 219.996094 173.738281 224.222656 C 172.945312 225.742188 172.429688 228.042969 171.839844 230.699219 C 170.839844 235.140625 169.601562 240.679688 166.714844 243.363281 C 166.097656 243.945312 165.3125 244.441406 164.394531 244.863281 C 164.210938 244.941406 164.03125 245.023438 163.835938 245.097656 C 162.011719 245.8125 159.9375 246.136719 158.0625 246.253906 C 154.976562 246.453125 152.417969 246.113281 152.382812 246.109375 C 151.496094 245.972656 150.679688 246.601562 150.5625 247.484375 C 150.4375 248.367188 151.050781 249.183594 151.9375 249.304688 C 152.074219 249.324219 153.746094 249.550781 156.066406 249.550781 C 156.707031 249.550781 157.398438 249.535156 158.117188 249.492188 C 160.039062 249.371094 162.1875 249.066406 164.195312 248.402344 C 164.496094 248.789062 164.875 249.609375 165.023438 251.167969 C 165.082031 251.746094 165.253906 253.511719 162.289062 255.214844 C 161.410156 255.726562 160.339844 256.175781 159.089844 256.574219 C 156.695312 257.34375 153.628906 257.910156 149.921875 258.273438 M 116.746094 208.253906 C 118.296875 206.363281 121.867188 206.164062 125.847656 207.742188 C 127.882812 208.542969 129.933594 209.773438 131.734375 211.25 C 131.78125 211.304688 131.832031 211.351562 131.890625 211.398438 C 137.476562 216.039062 140.117188 222.484375 137.65625 225.46875 C 135.175781 228.488281 128.285156 227.09375 122.621094 222.429688 C 121.171875 221.234375 119.886719 219.902344 118.808594 218.46875 C 118.796875 218.457031 118.785156 218.441406 118.78125 218.429688 C 115.816406 214.457031 115 210.375 116.746094 208.253906 M 122.195312 192.355469 C 122.050781 191.960938 121.875 191.496094 121.679688 190.992188 C 120.542969 188.011719 118.824219 183.519531 117.957031 178.710938 C 117.136719 174.175781 116.796875 166.320312 123.816406 164.785156 C 126.21875 164.265625 128.167969 164.570312 129.769531 165.722656 C 133.894531 168.679688 134.761719 176.460938 135.140625 179.785156 C 135.175781 180.140625 135.214844 180.445312 135.246094 180.703125 C 135.878906 185.671875 137.519531 197.523438 139.527344 205.089844 C 137.207031 205.773438 135.019531 206.796875 132.992188 208.140625 C 131.296875 206.847656 129.472656 205.773438 127.636719 204.984375 C 126.78125 203.203125 124.03125 197.347656 122.195312 192.355469 M 144.570312 163.734375 C 145.777344 162.175781 147.554688 161.332031 150.003906 161.152344 C 157.152344 160.613281 159.074219 168.238281 159.582031 172.824219 C 160.125 177.707031 159.753906 182.523438 159.507812 185.714844 C 159.472656 186.234375 159.433594 186.703125 159.40625 187.121094 C 159.050781 192.554688 159.933594 200.003906 160.277344 202.605469 C 160.179688 202.679688 160.082031 202.757812 159.980469 202.839844 C 159.195312 203.472656 158.386719 204.121094 157.394531 204.820312 C 157.066406 205.058594 156.738281 205.28125 156.40625 205.503906 C 154.796875 204.960938 151.050781 203.914062 146.40625 204.03125 C 146.152344 196.257812 144.371094 184.570312 143.570312 179.65625 C 143.53125 179.398438 143.480469 179.09375 143.414062 178.738281 C 142.828125 175.445312 141.460938 167.734375 144.570312 163.734375 M 302.949219 168.238281 C 303.039062 168.207031 303.128906 168.175781 303.222656 168.148438 C 303.097656 168.324219 302.980469 168.496094 302.867188 168.667969 C 302.894531 168.527344 302.921875 168.386719 302.949219 168.238281 M 249.601562 145.191406 C 249.648438 145.421875 249.6875 145.65625 249.730469 145.894531 C 249.8125 146.394531 249.875 146.898438 249.925781 147.40625 C 250.027344 148.421875 250.066406 149.453125 250.042969 150.480469 C 250.066406 149.453125 250.027344 148.421875 249.925781 147.40625 C 249.875 146.898438 249.8125 146.394531 249.730469 145.894531 C 249.6875 145.65625 249.648438 145.421875 249.601562 145.191406 C 249.417969 144.667969 249.242188 144.175781 249.078125 143.699219 C 249.242188 144.175781 249.417969 144.667969 249.601562 145.191406 M 203.324219 205.875 C 202.9375 205.40625 202.523438 204.960938 202.09375 204.53125 C 202.28125 204.359375 202.472656 204.183594 202.660156 204.015625 C 202.367188 203.269531 202.050781 202.535156 201.710938 201.8125 C 202.050781 202.535156 202.367188 203.269531 202.660156 204.015625 C 202.898438 204.628906 203.121094 205.246094 203.324219 205.875 M 444.761719 230.035156 C 444.753906 230.027344 444.753906 230.027344 444.75 230.027344 C 444.609375 229.996094 444.46875 229.984375 444.328125 229.992188 L 444.152344 230.003906 C 444.046875 229.992188 443.9375 229.992188 443.824219 229.992188 C 443.296875 229.992188 442.777344 230.023438 442.273438 230.09375 L 433.507812 230.527344 C 434.238281 228.371094 435.542969 226.339844 437.140625 223.863281 C 437.726562 222.957031 438.34375 221.996094 438.980469 220.953125 C 441.988281 216.046875 448.261719 205.84375 442.199219 201.386719 C 439.921875 199.710938 437.585938 199.09375 435.261719 199.542969 C 430.609375 200.449219 427.535156 205.429688 426.226562 207.554688 L 425.9375 208.027344 C 424.6875 209.976562 423.355469 212.671875 422.109375 215.476562 C 422.496094 214.183594 422.976562 212.914062 423.574219 211.753906 L 423.929688 211.066406 C 429.1875 200.820312 432.355469 194.632812 424.589844 190.640625 C 422.644531 189.640625 420.636719 189.488281 418.621094 190.1875 C 413.546875 191.949219 409.75 198.925781 407.9375 202.925781 C 405.59375 208.101562 404.078125 214.414062 403.183594 219.128906 C 402.789062 218.390625 402.328125 217.617188 401.804688 216.847656 C 398.460938 211.980469 393.914062 209.402344 388.644531 209.402344 C 380.875 209.402344 375.53125 217.824219 373.863281 225.652344 C 372.84375 230.4375 373.242188 234.453125 374.886719 236.984375 C 372.351562 237.859375 371.214844 239.589844 370.710938 240.957031 C 368.75 246.222656 372.921875 254.023438 375.402344 257.417969 C 382.78125 267.496094 391.078125 268.753906 395.207031 268.652344 C 394.917969 270.347656 394.941406 272.652344 396.296875 274.824219 C 397.671875 277.019531 400.101562 278.566406 403.554688 279.46875 C 402.324219 283.386719 400.367188 286.984375 397.457031 288.289062 C 394.601562 289.574219 385.726562 290.621094 364.996094 272.667969 C 364.914062 272.597656 364.839844 272.535156 364.757812 272.476562 C 364.945312 271.820312 365.125 271.164062 365.289062 270.5 C 365.402344 270.074219 365.503906 269.644531 365.609375 269.214844 C 365.832031 268.253906 366.03125 267.277344 366.203125 266.289062 C 366.21875 266.199219 366.234375 266.105469 366.25 266.015625 C 366.292969 265.789062 366.332031 265.570312 366.363281 265.34375 C 366.929688 261.960938 367.21875 258.492188 367.21875 254.953125 C 367.21875 248.644531 366.273438 242.554688 364.550781 236.800781 C 364.511719 236.664062 364.472656 236.535156 364.433594 236.402344 C 364.214844 235.691406 363.988281 234.988281 363.75 234.289062 C 363.644531 233.992188 363.535156 233.695312 363.429688 233.398438 C 363.222656 232.824219 363.019531 232.253906 362.792969 231.691406 C 362.449219 230.808594 362.085938 229.9375 361.703125 229.078125 C 361.585938 228.804688 361.460938 228.53125 361.332031 228.261719 C 361.210938 227.992188 361.085938 227.726562 360.953125 227.457031 C 360.953125 227.445312 360.945312 227.4375 360.941406 227.425781 C 360.722656 226.964844 360.496094 226.511719 360.257812 226.0625 C 360.027344 225.605469 359.785156 225.152344 359.542969 224.703125 C 356.511719 219.0625 352.65625 213.976562 348.164062 209.574219 C 348.5625 205.59375 348.601562 201.277344 348.277344 198.414062 C 347.355469 190.199219 343.433594 181.910156 337.230469 175.082031 C 330.910156 168.128906 322.886719 163.523438 314.570312 162.078125 C 313.210938 162.519531 311.882812 163.023438 310.585938 163.664062 C 311.882812 163.023438 313.210938 162.519531 314.570312 162.078125 C 317.167969 161.238281 319.878906 160.644531 322.683594 159.839844 L 322.742188 159.523438 C 318.203125 156.726562 313.316406 158.488281 309.269531 161.671875 C 308.570312 161.683594 307.878906 161.726562 307.183594 161.796875 C 306.96875 160.839844 306.722656 159.820312 306.429688 158.75 C 308.324219 155.617188 310.824219 152.941406 313.238281 149.855469 C 313.238281 149.855469 313.097656 149.566406 313.097656 149.5625 C 309.441406 149.835938 306.917969 151.957031 305.242188 154.863281 C 303.914062 150.953125 302.046875 146.695312 299.417969 142.640625 C 293.167969 132.988281 284.644531 127.785156 274.769531 127.609375 C 274.582031 127.601562 274.394531 127.601562 274.207031 127.601562 C 264.734375 127.597656 256.171875 132.09375 250.605469 139.367188 C 250.382812 139.121094 250.136719 138.898438 249.859375 138.691406 C 249.292969 138.160156 248.511719 137.832031 247.746094 137.625 L 247.523438 137.847656 C 247.8125 139.59375 248.175781 140.949219 248.613281 142.308594 C 248.132812 143.097656 247.695312 143.910156 247.285156 144.75 C 246.957031 144.609375 246.628906 144.480469 246.304688 144.363281 C 245.605469 143.449219 244.804688 142.554688 243.6875 142.082031 C 242.242188 141.453125 240.578125 141.28125 239.074219 141.902344 L 239.027344 142.222656 C 239.414062 142.601562 239.789062 142.949219 240.148438 143.273438 C 241.613281 144.589844 242.929688 145.492188 244.539062 146.609375 L 244.546875 146.609375 C 244.703125 146.722656 244.859375 146.828125 245.019531 146.941406 C 244.859375 146.828125 244.703125 146.722656 244.546875 146.609375 L 244.539062 146.609375 C 242.929688 145.492188 241.613281 144.589844 240.148438 143.273438 C 239.632812 143.285156 239.113281 143.316406 238.601562 143.375 C 226.804688 144.734375 221.28125 156.1875 220.359375 166.046875 C 219.3125 166.054688 218.296875 166.167969 217.347656 166.390625 C 211.304688 167.820312 206.261719 172.234375 202.765625 179.15625 C 200.90625 182.839844 199.46875 187.335938 198.652344 191.917969 C 196.691406 189.597656 194.085938 188.039062 190.726562 188.308594 L 190.625 188.621094 C 193.363281 191.28125 195.683594 193.296875 198.097656 195.953125 C 198.234375 196.109375 198.371094 196.265625 198.511719 196.421875 C 198.894531 196.941406 199.257812 197.476562 199.609375 198.019531 C 199.257812 197.476562 198.894531 196.941406 198.511719 196.421875 C 198.371094 196.265625 198.234375 196.109375 198.097656 195.953125 C 198.097656 195.972656 198.09375 195.980469 198.09375 195.996094 C 197.933594 197.699219 197.886719 199.382812 197.945312 201.035156 C 193.375 197.863281 187.15625 195.417969 182.449219 199.433594 L 182.554688 199.742188 C 186.546875 200.320312 189.738281 200.59375 193.519531 201.429688 C 194.496094 201.742188 195.460938 202.109375 196.417969 202.523438 C 197.289062 202.898438 198.148438 203.3125 198.992188 203.769531 C 199.8125 204.210938 200.617188 204.683594 201.402344 205.191406 C 202.164062 205.675781 202.898438 206.195312 203.621094 206.738281 L 203.738281 206.625 L 203.894531 206.605469 C 203.855469 205.476562 203.710938 204.359375 203.507812 203.246094 C 203.507812 203.246094 203.511719 203.246094 203.507812 203.242188 C 203.265625 201.160156 203.226562 198.898438 203.453125 196.503906 C 204.300781 187.503906 208.542969 174.003906 218.582031 171.632812 C 219.167969 171.492188 219.785156 171.429688 220.429688 171.429688 C 222.164062 171.429688 224.058594 171.902344 225.847656 172.675781 C 225.761719 172 225.707031 171.300781 225.660156 170.609375 C 225.070312 162.171875 229.035156 149.894531 239.214844 148.722656 C 239.59375 148.679688 239.972656 148.660156 240.351562 148.660156 C 243.460938 148.660156 246.714844 150.0625 249.363281 152.328125 C 249.0625 151.828125 248.746094 151.339844 248.410156 150.863281 C 248.746094 151.339844 249.0625 151.828125 249.363281 152.328125 C 249.535156 152.605469 249.695312 152.890625 249.859375 153.175781 L 250.007812 153.128906 L 250.164062 153.179688 C 251.070312 151.386719 251.6875 149.464844 251.980469 147.472656 C 252.101562 146.636719 252.167969 145.78125 252.171875 144.925781 C 252.183594 144.695312 252.191406 144.460938 252.1875 144.226562 C 252.191406 144.460938 252.183594 144.695312 252.171875 144.925781 C 252.167969 145.78125 252.101562 146.636719 251.980469 147.472656 C 255.871094 139.152344 263.988281 132.984375 274.207031 132.984375 C 274.355469 132.984375 274.519531 132.984375 274.671875 132.988281 C 291.558594 133.300781 299.933594 151.683594 302.421875 165.371094 C 302.328125 166.800781 302.328125 168.171875 302.410156 169.410156 L 302.570312 169.410156 L 302.699219 169.507812 C 303.335938 168.882812 303.996094 168.28125 304.671875 167.707031 C 305.070312 167.367188 305.480469 167.035156 305.890625 166.714844 C 306.304688 166.394531 306.726562 166.085938 307.152344 165.789062 C 307.503906 165.523438 307.859375 165.269531 308.21875 165.027344 C 307.859375 165.269531 307.503906 165.523438 307.152344 165.789062 C 306.726562 166.085938 306.304688 166.394531 305.890625 166.714844 C 305.480469 167.035156 305.070312 167.367188 304.671875 167.707031 C 306.335938 167.273438 308.074219 167.042969 309.863281 167.042969 C 310.933594 167.042969 312.023438 167.128906 313.113281 167.292969 C 328.644531 169.699219 341.324219 184.742188 342.929688 199.015625 C 343.113281 200.664062 343.15625 202.835938 343.074219 205.089844 C 338.675781 201.609375 333.820312 198.714844 328.628906 196.503906 C 328.621094 196.515625 328.617188 196.519531 328.613281 196.53125 C 328.46875 196.855469 328.316406 197.183594 328.15625 197.511719 C 328 197.820312 327.84375 198.125 327.671875 198.429688 C 327.671875 198.441406 327.667969 198.445312 327.660156 198.457031 C 327.585938 198.597656 327.511719 198.738281 327.429688 198.878906 C 327.15625 199.359375 326.867188 199.839844 326.5625 200.316406 C 326.5625 200.320312 326.554688 200.320312 326.554688 200.320312 C 326.554688 200.328125 326.554688 200.332031 326.550781 200.335938 C 328.519531 201.160156 330.433594 202.101562 332.296875 203.128906 C 332.625 203.3125 332.953125 203.492188 333.277344 203.679688 C 335.171875 204.773438 337.007812 205.96875 338.773438 207.265625 C 339.382812 207.714844 339.984375 208.175781 340.578125 208.648438 C 341.285156 209.210938 341.980469 209.785156 342.660156 210.378906 C 343.480469 211.09375 344.28125 211.828125 345.0625 212.597656 C 345.113281 212.644531 345.167969 212.695312 345.21875 212.742188 C 345.5 213.023438 345.785156 213.308594 346.066406 213.597656 L 346.070312 213.597656 C 346.613281 214.15625 347.144531 214.71875 347.664062 215.292969 C 347.855469 215.503906 348.042969 215.71875 348.222656 215.925781 L 348.230469 215.933594 C 348.453125 216.183594 348.667969 216.445312 348.890625 216.703125 C 349.316406 217.203125 349.734375 217.710938 350.144531 218.230469 C 350.371094 218.515625 350.597656 218.804688 350.816406 219.097656 C 350.890625 219.191406 350.960938 219.289062 351.035156 219.386719 C 351.460938 219.953125 351.878906 220.527344 352.285156 221.109375 C 352.511719 221.425781 352.730469 221.75 352.945312 222.070312 C 353.46875 222.851562 353.960938 223.652344 354.449219 224.460938 C 354.703125 224.882812 354.953125 225.316406 355.199219 225.746094 C 355.417969 226.140625 355.636719 226.535156 355.847656 226.933594 C 358.054688 231.046875 359.8125 235.476562 361.023438 240.191406 C 361.03125 240.21875 361.039062 240.246094 361.046875 240.277344 C 360.613281 240.199219 360.183594 240.125 359.75 240.054688 C 345.578125 237.628906 330.699219 236.351562 315.53125 236.351562 C 315.234375 236.351562 314.933594 236.351562 314.640625 236.355469 C 303.019531 236.386719 291.21875 237.183594 279.421875 238.789062 C 274.398438 239.46875 269.484375 240.285156 264.699219 241.230469 C 257.953125 242.558594 251.449219 244.132812 245.214844 245.929688 C 245.246094 245.730469 245.269531 245.527344 245.300781 245.328125 C 245.582031 243.632812 245.933594 241.953125 246.359375 240.300781 C 246.46875 239.871094 246.582031 239.445312 246.703125 239.019531 C 248.703125 231.882812 252.015625 225.199219 256.441406 219.316406 C 256.5 219.238281 256.558594 219.160156 256.613281 219.085938 C 257.441406 217.996094 258.304688 216.9375 259.207031 215.90625 C 259.324219 215.769531 259.445312 215.644531 259.566406 215.507812 C 259.566406 215.503906 259.5625 215.503906 259.5625 215.503906 C 259.1875 215.117188 258.832031 214.714844 258.503906 214.296875 C 258.386719 214.15625 258.277344 214.011719 258.175781 213.863281 C 258.15625 213.84375 258.140625 213.820312 258.128906 213.800781 C 257.914062 213.515625 257.707031 213.226562 257.519531 212.925781 C 257.328125 212.625 257.144531 212.3125 256.972656 211.992188 C 256.957031 211.96875 256.941406 211.941406 256.9375 211.914062 C 250.304688 219.117188 245.351562 227.863281 242.613281 237.585938 C 242.515625 237.925781 242.417969 238.261719 242.332031 238.601562 C 242.265625 238.851562 242.199219 239.105469 242.136719 239.359375 C 241.9375 240.132812 241.753906 240.914062 241.59375 241.699219 C 241.507812 242.070312 241.433594 242.445312 241.363281 242.820312 C 241.355469 242.859375 241.351562 242.902344 241.339844 242.9375 C 241.195312 243.714844 241.0625 244.496094 240.9375 245.28125 C 240.933594 245.304688 240.9375 245.328125 240.933594 245.355469 C 240.453125 248.484375 240.195312 251.6875 240.195312 254.953125 C 240.195312 289.972656 268.691406 318.460938 303.710938 318.460938 C 318.222656 318.460938 331.613281 313.570312 342.316406 305.34375 C 339.996094 308.863281 336.957031 312.769531 332.972656 316.941406 C 325.5625 324.695312 313.613281 331.589844 299.285156 335.554688 C 292.785156 337.355469 285.800781 338.550781 278.523438 338.941406 C 276.761719 339.046875 274.980469 339.09375 273.1875 339.09375 C 271.859375 339.09375 270.523438 339.066406 269.179688 339.007812 C 262.46875 338.734375 255.59375 337.75 248.703125 335.914062 C 239.480469 333.464844 230.230469 329.496094 221.296875 323.671875 C 205.089844 323.546875 189.382812 302.039062 192.796875 287.867188 C 197.972656 287.164062 201.488281 286.160156 201.691406 286.101562 C 205.96875 284.863281 208.425781 280.402344 207.203125 276.121094 C 205.976562 271.84375 201.511719 269.367188 197.222656 270.578125 C 195.296875 271.128906 192.09375 271.789062 188.335938 272.132812 C 182.140625 256.746094 176.597656 228.90625 201.402344 205.191406 C 200.617188 204.683594 199.8125 204.210938 198.992188 203.769531 C 198.148438 203.3125 197.289062 202.898438 196.417969 202.523438 C 171.539062 227.402344 176.753906 256.144531 182.3125 271.453125 C 182.421875 271.765625 182.535156 272.078125 182.65625 272.378906 C 176.683594 272.320312 170.296875 271.175781 165.738281 267.648438 C 163.21875 265.699219 161.320312 263.03125 160.039062 259.65625 C 161.53125 259.183594 162.820312 258.636719 163.902344 258.019531 C 167.84375 255.753906 168.441406 252.867188 168.242188 250.855469 C 168.074219 249.132812 167.664062 247.910156 167.179688 247.042969 C 167.820312 246.644531 168.402344 246.203125 168.917969 245.726562 C 172.53125 242.359375 173.894531 236.285156 174.992188 231.402344 C 175.511719 229.066406 176.003906 226.867188 176.609375 225.710938 C 178.582031 221.898438 182.203125 213.441406 181.746094 208.730469 C 181.460938 205.804688 179.980469 203.199219 177.574219 201.40625 C 174.640625 199.214844 170.683594 198.464844 166.425781 199.289062 C 165.222656 199.527344 164.21875 199.925781 163.269531 200.464844 C 162.890625 197.207031 162.355469 191.53125 162.628906 187.332031 C 162.65625 186.929688 162.691406 186.472656 162.730469 185.96875 C 162.972656 182.855469 163.371094 177.652344 162.792969 172.472656 C 161.714844 162.695312 156.957031 157.402344 149.761719 157.929688 C 146.398438 158.175781 143.789062 159.464844 142.019531 161.753906 C 138.023438 166.890625 139.574219 175.589844 140.234375 179.308594 C 140.292969 179.640625 140.34375 179.929688 140.386719 180.171875 C 141.175781 185.058594 142.960938 196.738281 143.183594 204.300781 C 143.011719 204.320312 142.839844 204.34375 142.671875 204.375 C 140.707031 197.023438 139.082031 185.21875 138.445312 180.289062 C 138.417969 180.050781 138.386719 179.757812 138.351562 179.425781 C 137.925781 175.675781 136.941406 166.890625 131.648438 163.09375 C 129.296875 161.410156 126.429688 160.914062 123.128906 161.632812 C 116.171875 163.152344 113.050781 169.753906 114.78125 179.285156 C 115.699219 184.386719 117.550781 189.242188 118.664062 192.148438 C 118.851562 192.640625 119.023438 193.089844 119.167969 193.480469 C 120.492188 197.078125 122.234375 201.019531 123.464844 203.703125 C 119.546875 202.984375 116.183594 203.855469 114.253906 206.203125 C 113.152344 207.539062 112.617188 209.226562 112.617188 211.105469 C 112.617188 213.488281 113.480469 216.179688 115.800781 219.824219 C 115.34375 222.613281 114.226562 232.742188 120.277344 241.1875 C 123.464844 245.644531 127.179688 248.628906 131.347656 250.070312 C 130.757812 251.101562 130.335938 252.59375 130.542969 254.695312 C 130.734375 256.660156 131.863281 259.304688 136.167969 260.734375 C 138.15625 261.402344 140.691406 261.75 143.730469 261.789062 C 145.886719 269.625 149.953125 275.871094 155.910156 280.460938 C 162.792969 285.773438 172.148438 288.542969 183.09375 288.542969 C 184.035156 288.542969 184.984375 288.527344 185.945312 288.484375 C 186.382812 288.464844 186.8125 288.441406 187.234375 288.421875 C 186.296875 294.617188 187.84375 301.804688 191.785156 308.828125 C 198.304688 320.425781 209.074219 328.171875 219.613281 328.988281 C 229.914062 335.488281 241.210938 340.027344 253.015625 342.4375 C 256.070312 348.226562 258.601562 356.703125 252.777344 363.625 C 248.65625 368.527344 243.25 370.144531 236.253906 368.558594 C 236.222656 368.554688 236.195312 368.542969 236.164062 368.539062 C 235.078125 360.925781 230.835938 354.59375 225.175781 352.417969 C 224.421875 350.511719 219.488281 339.414062 206.335938 339.414062 C 201.574219 339.414062 197.546875 340.300781 194.078125 342.121094 C 191.648438 339.367188 188.996094 338.28125 186.1875 338.894531 C 174.671875 341.40625 167.273438 372.226562 167.210938 372.535156 C 166.425781 376.136719 166.882812 378.890625 168.558594 380.734375 C 169.746094 382.039062 171.296875 382.570312 172.554688 382.78125 C 171.554688 387.441406 169.851562 399.789062 174.980469 415.824219 C 181.398438 435.917969 198.023438 448.398438 218.367188 448.398438 C 225.78125 448.398438 231.390625 446.472656 235.03125 442.664062 C 238.5625 438.964844 239.121094 434.601562 239.199219 432.929688 C 242.359375 429.351562 244.019531 424.835938 244.019531 419.828125 C 244.019531 403.742188 235.28125 395.066406 226.984375 390.460938 C 229.542969 388.941406 231.636719 386.898438 233.195312 384.429688 C 235.910156 385.007812 238.5625 385.292969 241.136719 385.292969 C 250.578125 385.292969 258.90625 381.433594 265.140625 374.023438 C 273.121094 364.539062 273.574219 353.792969 271.039062 344.453125 C 271.75 344.476562 272.464844 344.480469 273.1875 344.480469 C 277.054688 344.480469 280.925781 344.253906 284.757812 343.820312 C 298.960938 357.230469 299.140625 376.273438 298.78125 382.441406 C 289.5 392.996094 292.222656 400.0625 293.019531 401.613281 C 288.792969 405.699219 284.078125 412.828125 288.46875 422.0625 C 288.710938 422.574219 289.183594 422.894531 289.699219 422.972656 C 288.59375 426.269531 288.621094 429.699219 289.78125 433.207031 C 290.558594 435.546875 291.566406 438.25 293.605469 440.613281 C 293.609375 440.621094 293.621094 440.640625 293.636719 440.648438 C 293.636719 440.660156 293.648438 440.664062 293.652344 440.675781 C 293.664062 440.6875 293.667969 440.699219 293.679688 440.710938 C 293.734375 440.785156 293.785156 440.855469 293.851562 440.914062 C 297.605469 445.070312 303.703125 447.003906 313.027344 447.003906 C 330.195312 447.003906 337.945312 438.261719 338.269531 437.890625 C 338.285156 437.867188 338.300781 437.851562 338.3125 437.832031 C 338.355469 437.78125 338.386719 437.734375 338.417969 437.679688 C 338.484375 437.574219 338.535156 437.460938 338.578125 437.34375 L 341.398438 430.289062 C 359.085938 428.75 373.707031 423.273438 383.722656 414.417969 C 392.828125 406.359375 397.984375 395.5625 398.230469 384.003906 C 398.296875 381.347656 398.125 378.746094 397.722656 376.261719 C 397.710938 376.175781 397.695312 376.089844 397.671875 376.003906 C 397.671875 375.992188 397.667969 375.980469 397.664062 375.964844 C 397.664062 375.960938 397.65625 375.949219 397.65625 375.9375 C 396.828125 370.972656 395.042969 366.464844 392.363281 362.546875 C 392.363281 362.539062 392.355469 362.539062 392.355469 362.535156 C 386.777344 354.34375 377.28125 349.027344 366.304688 347.945312 C 359.394531 347.261719 342.011719 347.980469 329.648438 369.285156 L 329.632812 369.316406 L 329.546875 369.460938 L 329.523438 369.496094 C 329.507812 369.527344 329.488281 369.5625 329.460938 369.605469 C 328.320312 371.523438 326.984375 373.5 325.460938 375.488281 C 323.648438 374.339844 319.734375 372.363281 314.660156 372.839844 C 314.292969 368.789062 313.546875 364.125 312.128906 359.222656 C 310.429688 353.3125 307.605469 346.570312 302.933594 340.097656 C 316.59375 335.996094 328.6875 329.222656 336.867188 320.664062 C 347.585938 309.445312 352.015625 299.90625 353.847656 293.886719 C 355.34375 291.96875 356.726562 289.96875 357.992188 287.886719 C 372.066406 299.417969 384 305.121094 394.109375 305.121094 C 397.671875 305.121094 401.015625 304.414062 404.140625 303 C 414.292969 298.402344 418.503906 287.761719 420.246094 279.542969 C 423.800781 278.660156 426.269531 277.101562 427.621094 274.859375 C 429.234375 272.203125 428.804688 269.339844 428.289062 267.617188 C 431.074219 266.148438 433.074219 263.996094 434.246094 261.199219 C 435.433594 258.355469 435.710938 255.113281 435.539062 251.816406 L 440.34375 252.519531 C 440.425781 252.53125 440.5 252.535156 440.582031 252.535156 C 440.886719 252.535156 441.179688 252.449219 441.425781 252.292969 C 442.199219 252.457031 443.003906 252.535156 443.824219 252.535156 C 450.246094 252.535156 455.472656 247.476562 455.472656 241.265625 C 455.472656 235.351562 450.746094 230.492188 444.761719 230.035156 "/>
<path style=" stroke:none;fill-rule:nonzero;fill:rgb(13.725281%,12.156677%,12.548828%);fill-opacity:1;" d="M 463.039062 154.179688 C 469.949219 155.113281 478.222656 160.769531 476.945312 168.1875 C 475.558594 173.238281 469.054688 177.304688 464.46875 180.234375 C 456.683594 185.125 454.722656 194.304688 458.242188 202.464844 C 464.082031 214.226562 464.667969 221.105469 452.519531 228.578125 C 462.96875 227.902344 469.949219 219.792969 468.136719 209.261719 C 467.683594 205.890625 466.378906 202.898438 465.140625 199.839844 C 462.804688 193.652344 464.179688 188.886719 469.871094 185.457031 C 475.511719 181.421875 481.5625 176.519531 482.609375 169.066406 C 483.515625 158.910156 472.074219 151.96875 463.039062 154.179688 "/>
<path style=" stroke:none;fill-rule:nonzero;fill:rgb(13.725281%,12.156677%,12.548828%);fill-opacity:1;" d="M 192.371094 250.574219 C 191.597656 250.597656 190.8125 250.914062 190.125 251.300781 L 190.121094 251.621094 C 192.53125 253.359375 194.308594 254.15625 196.765625 255.367188 C 198.640625 256.628906 200.371094 258.207031 201.851562 259.964844 C 199.757812 258.605469 197.414062 257.667969 194.910156 257.261719 C 192.722656 256.773438 190.113281 256.839844 188.382812 258.542969 C 187.765625 259.011719 187.316406 259.730469 186.988281 260.453125 L 187.175781 260.714844 C 190.144531 260.703125 192.050781 260.308594 194.753906 259.839844 C 197.351562 259.746094 200.042969 260.109375 202.582031 260.847656 L 202.65625 260.703125 L 202.804688 260.632812 C 201.921875 257.917969 200.445312 255.425781 198.40625 253.367188 C 196.921875 251.691406 194.773438 250.210938 192.371094 250.574219 "/>
<path style=" stroke:none;fill-rule:nonzero;fill:rgb(13.725281%,12.156677%,12.548828%);fill-opacity:1;" d="M 212.78125 292.386719 C 210.777344 290.882812 208.121094 289.730469 205.554688 290.53125 C 204.703125 290.679688 203.898438 291.160156 203.199219 291.675781 L 203.261719 291.992188 C 206.316406 293.210938 208.59375 293.738281 211.535156 294.65625 C 213.957031 295.738281 216.265625 297.242188 218.308594 299.015625 C 215.621094 297.929688 212.734375 297.386719 209.796875 297.480469 C 207.292969 297.4375 204.464844 298.066406 202.847656 300.21875 C 202.25 300.835938 201.878906 301.699219 201.617188 302.527344 L 201.851562 302.746094 C 205.039062 301.941406 207.191406 301.03125 210.117188 300.042969 C 213.011719 299.433594 216.101562 299.332031 219.082031 299.691406 L 219.128906 299.542969 L 219.261719 299.445312 C 217.667969 296.648438 215.476562 294.21875 212.78125 292.386719 "/>
<path style=" stroke:none;fill-rule:nonzero;fill:rgb(13.725281%,12.156677%,12.548828%);fill-opacity:1;" d="M 234.058594 226.640625 C 236.652344 226.828125 239.292969 227.480469 241.742188 228.484375 L 241.835938 228.355469 L 241.984375 228.292969 C 241.398438 225.496094 240.191406 222.855469 238.382812 220.589844 C 237.082031 218.761719 235.101562 217.058594 232.667969 217.167969 C 231.894531 217.101562 231.078125 217.332031 230.347656 217.644531 L 230.316406 217.96875 C 232.527344 219.949219 234.21875 220.9375 236.539062 222.402344 C 238.269531 223.855469 239.820312 225.605469 241.109375 227.515625 C 239.164062 225.949219 236.925781 224.773438 234.480469 224.097656 C 232.355469 223.378906 229.757812 223.160156 227.84375 224.679688 C 227.183594 225.078125 226.660156 225.75 226.253906 226.425781 L 226.417969 226.710938 C 229.371094 227.011719 231.3125 226.816406 234.058594 226.640625 "/>
<path style=" stroke:none;fill-rule:nonzero;fill:rgb(13.725281%,12.156677%,12.548828%);fill-opacity:1;" d="M 249.175781 183.082031 L 249.332031 183.035156 L 249.480469 183.082031 C 250.769531 180.539062 251.480469 177.730469 251.484375 174.828125 C 251.613281 172.59375 251.136719 170.03125 249.171875 168.59375 C 248.613281 168.0625 247.828125 167.734375 247.066406 167.523438 L 246.839844 167.753906 C 247.324219 170.683594 248.019531 172.503906 248.917969 175.09375 C 249.351562 177.304688 249.46875 179.636719 249.28125 181.929688 C 248.75 179.488281 247.742188 177.175781 246.257812 175.125 C 245.394531 173.953125 244.472656 172.605469 243.003906 171.988281 C 241.558594 171.355469 239.894531 171.183594 238.390625 171.804688 L 238.34375 172.128906 C 240.453125 174.210938 242.085938 175.273438 244.332031 176.847656 C 246.238281 178.613281 247.890625 180.769531 249.175781 183.082031 "/>
</g>
</svg>
