<?xml version="1.0" encoding="UTF-8"?>
<svg xmlns="http://www.w3.org/2000/svg" xmlns:xlink="http://www.w3.org/1999/xlink" width="270.766pt" height="255.96pt" viewBox="0 0 270.766 255.96" version="1.1">
<g id="surface1">
<path style="fill:none;stroke-width:12.903;stroke-linecap:round;stroke-linejoin:round;stroke:rgb(0%,0%,0%);stroke-opacity:1;stroke-miterlimit:10;" d="M -0.0012375 -0.00185 C -0.0012375 -0.00185 0.311262 -44.755756 42.881575 -7.888569 " transform="matrix(1,0,0,-1,130.1028,147.7169)"/>
<path style=" stroke:none;fill-rule:nonzero;fill:rgb(100%,100%,100%);fill-opacity:1;" d="M 119.847656 146.03125 C 117.78125 145.1875 115.734375 143.691406 114.644531 141.066406 C 111.855469 134.425781 115.976562 124.003906 115.855469 119.882812 C 115.726562 115.769531 113.480469 113.164062 110.765625 108.742188 C 108.054688 104.332031 104.148438 97.550781 107.863281 94.824219 C 113.792969 90.464844 117.886719 98.050781 118.996094 99.789062 C 121.972656 104.433594 125.679688 114.839844 125.808594 115.195312 C 130.09375 113.851562 134.554688 113.609375 137.84375 113.6875 L 137.84375 113.671875 C 137.84375 113.671875 137.78125 113.164062 137.660156 112.289062 L 137.886719 112.261719 C 137.886719 112.261719 140.671875 101.484375 149.867188 101.484375 C 159.433594 101.484375 164.394531 120.972656 157.859375 123.03125 C 157.730469 123.074219 157.609375 123.109375 157.480469 123.132812 C 153.589844 124.054688 150.71875 119.875 149.101562 116.542969 L 148.664062 116.734375 C 148.664062 116.734375 143.578125 126.789062 148.542969 129.808594 C 152.816406 132.414062 153.417969 124.605469 157.53125 123.3125 C 158.191406 123.097656 158.941406 123.066406 159.820312 123.261719 C 166.105469 124.714844 162.613281 133.40625 159.414062 137.78125 C 151.769531 148.234375 142.847656 146.03125 142.847656 146.03125 C 142.847656 146.03125 147.492188 155.605469 131.167969 155.605469 C 114.839844 155.605469 119.847656 146.03125 119.847656 146.03125 "/>
<path style=" stroke:none;fill-rule:nonzero;fill:rgb(100%,100%,100%);fill-opacity:1;" d="M 137.84375 113.671875 L 137.84375 113.6875 C 134.554688 113.613281 130.09375 113.851562 125.808594 115.195312 C 125.816406 114.867188 125.886719 106.902344 123.117188 101.484375 C 118.703125 92.863281 116.578125 89.011719 121.746094 86.351562 C 126.925781 83.6875 131.289062 91.144531 133.28125 95.546875 C 135.941406 101.40625 137.222656 109.171875 137.660156 112.285156 C 137.78125 113.164062 137.84375 113.671875 137.84375 113.671875 "/>
<path style="fill:none;stroke-width:2.581;stroke-linecap:round;stroke-linejoin:round;stroke:rgb(0%,0%,0%);stroke-opacity:1;stroke-miterlimit:10;" d="M 0.0000125 0.0006125 C 0.0000125 0.0006125 0.52345 -1.737669 1.531262 -3.800169 C 3.14845 -7.1322 6.019544 -11.311887 9.910169 -10.390012 C 10.039075 -10.366575 10.160169 -10.331419 10.289075 -10.28845 C 16.824231 -8.233762 11.863294 11.258425 2.296887 11.258425 C -6.898425 11.258425 -9.683581 0.481081 -9.683581 0.481081 " transform="matrix(1,0,0,-1,147.5703,112.7428)"/>
<path style="fill:none;stroke-width:2.581;stroke-linecap:round;stroke-linejoin:round;stroke:rgb(0%,0%,0%);stroke-opacity:1;stroke-miterlimit:10;" d="M -0.00034375 0.00188125 C -0.00034375 0.00188125 -2.012063 0.3261 -5.00425 0.3886 C -8.293313 0.462819 -12.75425 0.224537 -17.039406 -1.119213 " transform="matrix(1,0,0,-1,142.848,114.0761)"/>
<path style="fill:none;stroke-width:2.581;stroke-linecap:round;stroke-linejoin:round;stroke:rgb(0%,0%,0%);stroke-opacity:1;stroke-miterlimit:10;" d="M -0.0004 -0.00006875 C -0.0004 -0.00006875 6.538662 -0.730537 8.472256 1.57415 C 8.472256 1.57415 17.394131 -0.628975 25.038662 9.82415 C 28.237881 14.19915 31.730069 22.890556 25.444912 24.343681 C 24.566006 24.5429 23.819912 24.507744 23.15585 24.2929 C 19.042569 22.999931 18.441006 15.191338 14.167569 17.796806 C 9.202725 20.816338 14.288662 30.871025 14.288662 30.871025 " transform="matrix(1,0,0,-1,134.3754,147.6054)"/>
<path style="fill:none;stroke-width:2.581;stroke-linecap:round;stroke-linejoin:round;stroke:rgb(0%,0%,0%);stroke-opacity:1;stroke-miterlimit:10;" d="M 0.0000375 -0.000375 C 1.222694 0.628531 2.492225 1.136344 3.785194 1.530875 L 3.785194 1.538688 C 3.656288 1.89025 -0.0507437 12.300406 -3.027306 16.944938 C -4.136681 18.683219 -8.230431 26.269156 -14.156212 21.909781 C -17.874962 19.183219 -13.968712 12.405875 -11.261681 7.991813 C -8.542931 3.569938 -6.296837 0.964469 -6.167931 -3.148812 C -6.046837 -7.269906 -10.167931 -17.695687 -7.378869 -24.332406 C -6.289025 -26.957406 -4.24215 -28.4535 -2.175744 -29.29725 C 0.996131 -30.605844 4.242225 -30.391 4.242225 -30.391 " transform="matrix(1,0,0,-1,122.0234,116.734)"/>
<path style="fill:none;stroke-width:2.581;stroke-linecap:round;stroke-linejoin:round;stroke:rgb(0%,0%,0%);stroke-opacity:1;stroke-miterlimit:10;" d="M 0.00185 -0.000075 C 0.00185 -0.000075 -0.06065 0.507737 -0.181744 1.386644 C -0.619244 4.499925 -1.900494 12.26555 -4.56065 18.124925 C -6.552838 22.527269 -10.916119 29.9843 -16.095806 27.320237 C -21.263775 24.660081 -19.138775 20.808519 -14.724713 12.187425 C -11.955181 6.769456 -12.025494 -1.195388 -12.033306 -1.523513 " transform="matrix(1,0,0,-1,137.8419,113.6718)"/>
<path style="fill:none;stroke-width:2.581;stroke-linecap:round;stroke-linejoin:round;stroke:rgb(0%,0%,0%);stroke-opacity:1;stroke-miterlimit:10;" d="M -0.00034375 0.00005 C -0.00034375 0.00005 4.644187 -9.574169 -11.680031 -9.574169 C -28.008156 -9.574169 -23.000344 0.00005 -23.000344 0.00005 " transform="matrix(1,0,0,-1,142.848,146.0313)"/>
<path style="fill:none;stroke-width:2.581;stroke-linecap:round;stroke-linejoin:round;stroke:rgb(0%,0%,0%);stroke-opacity:1;stroke-miterlimit:10;" d="M 0.0001125 -0.001475 C 0.0001125 -0.001475 5.308706 -7.181162 1.144644 -15.364756 " transform="matrix(1,0,0,-1,133.0077,124.0454)"/>
<path style=" stroke:none;fill-rule:nonzero;fill:rgb(100%,100%,100%);fill-opacity:1;" d="M 147.933594 120.050781 L 105.328125 117.929688 L 108.386719 133.355469 L 149.65625 127.3125 C 149.65625 127.3125 157.074219 126.277344 157.074219 123.480469 C 157.074219 121.027344 154.058594 120.621094 147.933594 120.050781 "/>
<path style="fill:none;stroke-width:2.581;stroke-linecap:round;stroke-linejoin:round;stroke:rgb(0%,0%,0%);stroke-opacity:1;stroke-miterlimit:10;" d="M 0.00129375 0.00131875 L -42.604175 2.122412 L -39.545581 -13.303369 L 1.72395 -7.2604 C 1.72395 -7.2604 9.141919 -6.225244 9.141919 -3.428369 C 9.141919 -0.975244 6.126294 -0.568994 0.00129375 0.00131875 Z M 0.00129375 0.00131875 " transform="matrix(1,0,0,-1,147.9323,120.0521)"/>
<path style=" stroke:none;fill-rule:nonzero;fill:rgb(100%,100%,100%);fill-opacity:1;" d="M 113.8125 125.640625 C 113.8125 129.902344 110.222656 133.355469 105.796875 133.355469 C 101.367188 133.355469 97.78125 129.902344 97.78125 125.640625 C 97.78125 121.382812 101.367188 117.925781 105.796875 117.925781 C 110.222656 117.925781 113.8125 121.382812 113.8125 125.640625 "/>
<path style="fill:none;stroke-width:2.581;stroke-linecap:round;stroke-linejoin:round;stroke:rgb(0%,0%,0%);stroke-opacity:1;stroke-miterlimit:10;" d="M 0.0018 0.000975 C 0.0018 -4.260744 -3.588044 -7.713869 -8.013825 -7.713869 C -12.443512 -7.713869 -16.02945 -4.260744 -16.02945 0.000975 C -16.02945 4.258787 -12.443512 7.715819 -8.013825 7.715819 C -3.588044 7.715819 0.0018 4.258787 0.0018 0.000975 Z M 0.0018 0.000975 " transform="matrix(1,0,0,-1,113.8107,125.6416)"/>
</g>
</svg>
