<?xml version="1.0" encoding="UTF-8"?>
<svg xmlns="http://www.w3.org/2000/svg" xmlns:xlink="http://www.w3.org/1999/xlink" width="270.766pt" height="255.96pt" viewBox="0 0 270.766 255.96" version="1.1">
<g id="surface1">
<path style=" stroke:none;fill-rule:nonzero;fill:rgb(56.079102%,70.980835%,14.117432%);fill-opacity:1;" d="M 135.382812 165.972656 C 118.082031 165.972656 104.007812 151.894531 104.007812 134.59375 C 104.007812 117.292969 118.082031 103.21875 135.382812 103.21875 C 152.683594 103.21875 166.761719 117.292969 166.761719 134.59375 C 166.761719 151.894531 152.683594 165.972656 135.382812 165.972656 "/>
<path style=" stroke:none;fill-rule:nonzero;fill:rgb(0%,0%,0%);fill-opacity:1;" d="M 135.382812 102.117188 C 117.472656 102.117188 102.90625 116.6875 102.90625 134.59375 C 102.90625 152.503906 117.472656 167.074219 135.382812 167.074219 C 153.292969 167.074219 167.859375 152.503906 167.859375 134.59375 C 167.859375 116.6875 153.292969 102.117188 135.382812 102.117188 M 135.382812 104.320312 C 152.105469 104.320312 165.660156 117.875 165.660156 134.59375 C 165.660156 151.316406 152.105469 164.871094 135.382812 164.871094 C 118.660156 164.871094 105.105469 151.316406 105.105469 134.59375 C 105.105469 117.875 118.660156 104.320312 135.382812 104.320312 "/>
<path style=" stroke:none;fill-rule:nonzero;fill:rgb(100%,100%,100%);fill-opacity:1;" d="M 135.410156 165.703125 C 133.007812 165.703125 130.597656 165.421875 128.242188 164.867188 C 111.550781 160.925781 101.175781 144.144531 105.113281 127.453125 C 108.441406 113.34375 120.878906 103.484375 135.355469 103.484375 C 137.757812 103.484375 140.167969 103.769531 142.523438 104.324219 C 159.214844 108.261719 169.589844 125.042969 165.652344 141.734375 C 162.324219 155.847656 149.886719 165.703125 135.410156 165.703125 Z M 135.410156 165.703125 "/>
<path style=" stroke:none;fill-rule:nonzero;fill:rgb(13.725281%,12.156677%,12.548828%);fill-opacity:1;" d="M 135.355469 102.660156 C 120.492188 102.660156 107.726562 112.777344 104.308594 127.261719 C 102.351562 135.5625 103.742188 144.128906 108.226562 151.382812 C 112.710938 158.636719 119.75 163.710938 128.050781 165.667969 C 130.46875 166.238281 132.945312 166.527344 135.410156 166.527344 C 150.273438 166.527344 163.039062 156.410156 166.457031 141.925781 C 168.414062 133.625 167.023438 125.058594 162.539062 117.804688 C 158.054688 110.550781 151.015625 105.476562 142.714844 103.519531 C 140.296875 102.949219 137.820312 102.660156 135.355469 102.660156 M 135.355469 104.3125 C 137.65625 104.3125 139.996094 104.574219 142.335938 105.128906 C 158.609375 108.96875 168.6875 125.273438 164.847656 141.546875 C 161.5625 155.484375 149.132812 164.878906 135.410156 164.878906 C 133.105469 164.878906 130.769531 164.613281 128.429688 164.0625 C 112.15625 160.222656 102.078125 143.917969 105.914062 127.640625 C 109.203125 113.707031 121.632812 104.3125 135.355469 104.3125 "/>
<path style=" stroke:none;fill-rule:nonzero;fill:rgb(13.725281%,12.156677%,12.548828%);fill-opacity:1;" d="M 127.039062 129.84375 C 125.277344 137.308594 129.902344 144.792969 137.371094 146.554688 C 144.835938 148.316406 152.316406 143.691406 154.078125 136.222656 C 155.84375 128.757812 151.21875 121.273438 143.75 119.511719 C 136.28125 117.75 128.800781 122.375 127.039062 129.84375 "/>
<path style=" stroke:none;fill-rule:nonzero;fill:rgb(100%,100%,100%);fill-opacity:1;" d="M 150.070312 135.613281 C 149.664062 137.332031 150.726562 139.050781 152.445312 139.453125 C 154.160156 139.859375 155.878906 138.796875 156.285156 137.082031 C 156.6875 135.363281 155.625 133.644531 153.910156 133.238281 C 152.195312 132.835938 150.472656 133.898438 150.070312 135.613281 "/>
<path style=" stroke:none;fill-rule:nonzero;fill:rgb(100%,100%,100%);fill-opacity:1;" d="M 165.304688 131.085938 C 165.203125 131.085938 165.101562 131.074219 165 131.042969 C 159.503906 129.457031 153.667969 128.238281 147.65625 127.421875 C 141.632812 126.597656 135.46875 126.183594 129.335938 126.183594 C 121.519531 126.183594 113.75 126.855469 106.25 128.175781 C 106.1875 128.1875 106.125 128.191406 106.0625 128.191406 C 105.757812 128.191406 105.464844 128.066406 105.253906 127.839844 C 105 127.5625 104.902344 127.179688 104.992188 126.816406 C 108.546875 112.917969 121.035156 103.210938 135.359375 103.210938 C 137.78125 103.210938 140.210938 103.496094 142.585938 104.054688 C 155.089844 107.003906 164.433594 117.117188 166.394531 129.816406 C 166.453125 130.1875 166.316406 130.5625 166.035156 130.8125 C 165.828125 130.992188 165.570312 131.085938 165.304688 131.085938 "/>
<path style=" stroke:none;fill-rule:nonzero;fill:rgb(0%,0%,0%);fill-opacity:1;" d="M 135.359375 102.109375 L 135.359375 104.3125 L 135.359375 102.109375 C 120.53125 102.109375 107.605469 112.15625 103.925781 126.542969 C 103.742188 127.269531 103.9375 128.039062 104.445312 128.585938 C 104.867188 129.042969 105.453125 129.292969 106.0625 129.292969 C 106.1875 129.292969 106.316406 129.28125 106.441406 129.257812 C 113.878906 127.949219 121.582031 127.285156 129.339844 127.285156 C 135.421875 127.285156 141.535156 127.699219 147.507812 128.511719 C 153.46875 129.324219 159.253906 130.53125 164.695312 132.101562 C 164.894531 132.160156 165.101562 132.1875 165.304688 132.1875 C 165.835938 132.1875 166.351562 131.996094 166.761719 131.640625 C 167.324219 131.144531 167.597656 130.394531 167.480469 129.648438 C 165.453125 116.503906 155.78125 106.035156 142.839844 102.984375 C 140.382812 102.402344 137.863281 102.109375 135.359375 102.109375 M 135.359375 104.3125 C 137.660156 104.3125 140 104.578125 142.335938 105.128906 C 154.699219 108.042969 163.480469 118.160156 165.304688 129.984375 C 159.851562 128.410156 153.996094 127.171875 147.804688 126.328125 C 141.617188 125.484375 135.429688 125.082031 129.339844 125.082031 C 121.339844 125.082031 113.507812 125.777344 106.0625 127.089844 C 109.546875 113.460938 121.820312 104.3125 135.359375 104.3125 "/>
<path style=" stroke:none;fill-rule:nonzero;fill:rgb(100%,100%,100%);fill-opacity:1;" d="M 159.753906 111.59375 C 157.375 118.027344 147.035156 120.136719 136.660156 116.304688 C 126.28125 112.46875 119.796875 104.144531 122.175781 97.707031 C 124.554688 91.273438 134.894531 89.164062 145.269531 92.996094 C 155.648438 96.832031 162.132812 105.15625 159.753906 111.59375 "/>
<path style=" stroke:none;fill-rule:nonzero;fill:rgb(0%,0%,0%);fill-opacity:1;" d="M 154.914062 108.113281 C 154.359375 110.839844 149.625 101.503906 141.769531 99.910156 C 133.914062 98.320312 125.917969 105.074219 126.46875 102.347656 C 127.023438 99.621094 135.042969 92.765625 142.898438 94.359375 C 150.75 95.949219 155.464844 105.386719 154.914062 108.113281 "/>
</g>
</svg>
