<?xml version="1.0" encoding="UTF-8"?>
<svg xmlns="http://www.w3.org/2000/svg" xmlns:xlink="http://www.w3.org/1999/xlink" width="270.766pt" height="255.96pt" viewBox="0 0 270.766 255.96" version="1.1">
<g id="surface1">
<path style=" stroke:none;fill-rule:nonzero;fill:rgb(100%,100%,100%);fill-opacity:1;" d="M 135.382812 162.273438 C 118.082031 162.273438 104.007812 148.199219 104.007812 130.898438 C 104.007812 113.597656 118.082031 99.519531 135.382812 99.519531 C 152.683594 99.519531 166.761719 113.597656 166.761719 130.898438 C 166.761719 148.199219 152.683594 162.273438 135.382812 162.273438 "/>
<path style=" stroke:none;fill-rule:nonzero;fill:rgb(0%,0%,0%);fill-opacity:1;" d="M 135.382812 98.417969 C 117.472656 98.417969 102.90625 112.988281 102.90625 130.898438 C 102.90625 148.804688 117.472656 163.375 135.382812 163.375 C 153.292969 163.375 167.859375 148.804688 167.859375 130.898438 C 167.859375 112.988281 153.292969 98.417969 135.382812 98.417969 M 135.382812 100.621094 C 152.105469 100.621094 165.660156 114.175781 165.660156 130.898438 C 165.660156 147.617188 152.105469 161.171875 135.382812 161.171875 C 118.660156 161.171875 105.105469 147.617188 105.105469 130.898438 C 105.105469 114.175781 118.660156 100.621094 135.382812 100.621094 "/>
<path style=" stroke:none;fill-rule:nonzero;fill:rgb(100%,100%,100%);fill-opacity:1;" d="M 135.382812 162 C 118.234375 162 104.28125 148.046875 104.28125 130.898438 C 104.28125 130.75 104.285156 130.601562 104.289062 130.453125 L 104.3125 129.613281 L 104.894531 129.445312 C 114.121094 126.761719 124.664062 125.34375 135.382812 125.34375 C 146.101562 125.34375 156.644531 126.761719 165.871094 129.445312 L 166.453125 129.613281 L 166.476562 130.453125 C 166.480469 130.601562 166.484375 130.75 166.484375 130.898438 C 166.484375 148.046875 152.53125 162 135.382812 162 "/>
<path style=" stroke:none;fill-rule:nonzero;fill:rgb(13.725281%,12.156677%,12.548828%);fill-opacity:1;" d="M 135.382812 124.515625 C 124.589844 124.515625 113.964844 125.945312 104.664062 128.652344 L 103.5 128.988281 L 103.472656 130.199219 L 103.464844 130.425781 C 103.460938 130.582031 103.453125 130.738281 103.453125 130.898438 C 103.453125 148.503906 117.777344 162.824219 135.382812 162.824219 C 152.988281 162.824219 167.3125 148.503906 167.3125 130.898438 C 167.3125 130.738281 167.304688 130.582031 167.300781 130.425781 L 167.292969 130.199219 L 167.265625 128.988281 L 166.101562 128.652344 C 156.800781 125.945312 146.175781 124.515625 135.382812 124.515625 M 135.382812 126.167969 C 146.410156 126.167969 156.742188 127.648438 165.640625 130.238281 C 165.648438 130.457031 165.65625 130.675781 165.65625 130.898438 C 165.65625 147.617188 152.105469 161.171875 135.382812 161.171875 C 118.660156 161.171875 105.105469 147.617188 105.105469 130.898438 C 105.105469 130.675781 105.117188 130.457031 105.125 130.238281 C 114.023438 127.648438 124.355469 126.167969 135.382812 126.167969 "/>
<path style=" stroke:none;fill-rule:nonzero;fill:rgb(13.725281%,12.156677%,12.548828%);fill-opacity:1;" d="M 121.652344 126.957031 C 121.285156 128.207031 121.082031 129.527344 121.082031 130.898438 C 121.082031 138.566406 127.296875 144.78125 134.964844 144.78125 C 142.632812 144.78125 148.851562 138.566406 148.851562 130.898438 C 148.851562 129.492188 148.640625 128.136719 148.253906 126.863281 C 144.105469 126.410156 139.800781 126.167969 135.382812 126.167969 C 130.660156 126.167969 126.066406 126.441406 121.652344 126.957031 "/>
<path style=" stroke:none;fill-rule:nonzero;fill:rgb(100%,100%,100%);fill-opacity:1;" d="M 149.683594 130.898438 C 149.683594 132.519531 148.367188 133.835938 146.742188 133.835938 C 145.121094 133.835938 143.804688 132.519531 143.804688 130.898438 C 143.804688 129.273438 145.121094 127.957031 146.742188 127.957031 C 148.367188 127.957031 149.683594 129.273438 149.683594 130.898438 "/>
<path style=" stroke:none;fill-rule:nonzero;fill:rgb(100%,100%,100%);fill-opacity:1;" d="M 163.789062 107.3125 C 163.789062 113.832031 151.070312 119.117188 135.382812 119.117188 C 119.695312 119.117188 106.976562 113.832031 106.976562 107.3125 C 106.976562 100.789062 119.695312 95.507812 135.382812 95.507812 C 151.070312 95.507812 163.789062 100.789062 163.789062 107.3125 "/>
<path style=" stroke:none;fill-rule:nonzero;fill:rgb(0%,0%,0%);fill-opacity:1;" d="M 150.128906 105.882812 C 150.128906 108.660156 143.628906 100.453125 135.617188 100.453125 C 127.601562 100.453125 121.105469 108.660156 121.105469 105.882812 C 121.105469 103.101562 127.601562 94.785156 135.617188 94.785156 C 143.628906 94.785156 150.128906 103.101562 150.128906 105.882812 "/>
</g>
</svg>
