<?xml version="1.0" encoding="UTF-8"?>
<svg xmlns="http://www.w3.org/2000/svg" xmlns:xlink="http://www.w3.org/1999/xlink" width="270.766pt" height="255.96pt" viewBox="0 0 270.766 255.96" version="1.1">
<g id="surface1">
<path style=" stroke:none;fill-rule:nonzero;fill:rgb(100%,100%,100%);fill-opacity:1;" d="M 173.429688 115.417969 C 175.042969 122.871094 168.78125 122.113281 168.78125 122.113281 C 168.78125 122.113281 172.328125 133.453125 167.25 149.332031 C 162.171875 165.207031 149.25 174.453125 133.816406 174.453125 C 117.933594 174.453125 118.460938 162.882812 118.460938 162.882812 C 124.863281 169.71875 138.222656 170.855469 150.308594 162.753906 C 162.128906 154.828125 163.980469 142.421875 164.195312 131.945312 C 164.261719 128.71875 164.175781 125.679688 164.175781 123.015625 C 164.175781 104.90625 159.683594 96.257812 153.539062 92.511719 C 162.699219 80.289062 171.804688 107.964844 173.429688 115.417969 "/>
<path style=" stroke:none;fill-rule:nonzero;fill:rgb(100%,100%,100%);fill-opacity:1;" d="M 164.175781 123.011719 C 164.175781 125.679688 164.261719 128.71875 164.195312 131.945312 C 155.640625 125.351562 142.335938 126.132812 142.335938 126.132812 C 142.335938 126.132812 141.21875 126.195312 139.421875 126.511719 C 148.984375 115.699219 142.40625 99.707031 131.871094 99.707031 C 131.097656 99.707031 130.347656 99.816406 129.617188 100.023438 L 129.519531 99.707031 C 129.519531 99.707031 132.792969 89.980469 143.433594 89.980469 C 146.980469 89.980469 150.472656 90.632812 153.539062 92.511719 C 159.683594 96.261719 164.175781 104.90625 164.175781 123.011719 "/>
<path style=" stroke:none;fill-rule:nonzero;fill:rgb(100%,100%,100%);fill-opacity:1;" d="M 164.195312 131.945312 C 163.980469 142.421875 162.128906 154.828125 150.308594 162.753906 C 138.222656 170.855469 124.863281 169.71875 118.460938 162.882812 C 116.046875 160.316406 114.621094 156.933594 114.621094 152.925781 C 114.621094 139.699219 122.289062 132.976562 129.554688 129.570312 C 133.332031 127.804688 137 126.933594 139.421875 126.511719 C 141.21875 126.195312 142.332031 126.132812 142.332031 126.132812 C 142.332031 126.132812 155.640625 125.351562 164.195312 131.945312 "/>
<path style=" stroke:none;fill-rule:nonzero;fill:rgb(100%,100%,100%);fill-opacity:1;" d="M 120.945312 118.265625 C 120.773438 117.242188 120.679688 116.160156 120.679688 115.03125 C 120.679688 107.625 124.519531 101.445312 129.617188 100.023438 C 130.347656 99.8125 131.097656 99.707031 131.871094 99.707031 C 142.40625 99.707031 148.984375 115.699219 139.421875 126.511719 C 137 126.933594 133.328125 127.804688 129.554688 129.570312 L 129.402344 129.265625 C 124.925781 127.375 121.839844 123.5 120.945312 118.265625 "/>
<path style="fill:none;stroke-width:2.581;stroke-linecap:round;stroke-linejoin:round;stroke:rgb(0%,0%,0%);stroke-opacity:1;stroke-miterlimit:10;" d="M 0.00113125 0.00006875 C 0.00113125 0.00006875 3.274569 9.726631 13.915194 9.726631 C 17.462069 9.726631 20.954256 9.074287 24.020662 7.195381 C 30.165194 3.445381 34.657381 -5.19915 34.657381 -23.304619 C 34.657381 -25.972588 34.739412 -29.01165 34.676912 -32.238213 C 34.462069 -42.714775 32.610506 -55.124931 20.790194 -63.046806 C 8.704256 -71.148369 -4.655119 -70.01165 -11.057463 -63.175713 C -13.471525 -60.609306 -14.897306 -57.226494 -14.897306 -53.222588 C -14.897306 -39.992119 -7.229338 -33.269463 0.0362875 -29.863213 C 3.813631 -28.097588 7.4816 -27.226494 9.903475 -26.804619 C 11.70035 -26.488213 12.813631 -26.425713 12.813631 -26.425713 C 12.813631 -26.425713 26.122225 -25.644463 34.676912 -32.238213 " transform="matrix(1,0,0,-1,129.5184,99.7071)"/>
<path style="fill:none;stroke-width:2.581;stroke-linecap:round;stroke-linejoin:round;stroke:rgb(0%,0%,0%);stroke-opacity:1;stroke-miterlimit:10;" d="M -0.00165625 -0.001825 C -4.478219 1.8888 -7.564156 5.7638 -8.458687 10.998175 C -8.630562 12.021613 -8.724312 13.099738 -8.724312 14.23255 C -8.724312 21.6388 -4.884469 27.818488 0.213188 29.240363 C 0.943656 29.447394 1.693656 29.556769 2.467094 29.556769 C 13.00225 29.556769 19.580375 13.564581 10.017875 2.752081 " transform="matrix(1,0,0,-1,129.404,129.2638)"/>
<path style="fill:none;stroke-width:2.581;stroke-linecap:round;stroke-linejoin:round;stroke:rgb(0%,0%,0%);stroke-opacity:1;stroke-miterlimit:10;" d="M -0.0013625 -0.0003125 C -0.0013625 -0.0003125 -0.528706 -11.570625 15.354106 -11.570625 C 30.7877 -11.570625 43.709575 -2.324531 48.7877 13.550469 C 53.865825 29.429375 50.31895 40.769219 50.31895 40.769219 C 50.31895 40.769219 56.580669 40.011406 54.967388 47.464531 C 53.342388 54.917656 44.240825 82.589531 35.076763 70.370781 " transform="matrix(1,0,0,-1,118.4623,162.8825)"/>
<path style="fill:none;stroke-width:12.903;stroke-linecap:round;stroke-linejoin:round;stroke:rgb(0%,0%,0%);stroke-opacity:1;stroke-miterlimit:10;" d="M -0.00156875 0.00143125 C -0.00156875 0.00143125 -3.982037 -2.572788 -9.388287 -3.783725 C -15.317975 -5.119663 -22.954694 -4.811069 -28.942975 2.302212 C -40.384381 15.911587 -25.478131 32.974087 -25.478131 32.974087 " transform="matrix(1,0,0,-1,130.3336,114.4819)"/>
</g>
</svg>
