<?xml version="1.0" encoding="UTF-8"?>
<svg xmlns="http://www.w3.org/2000/svg" xmlns:xlink="http://www.w3.org/1999/xlink" width="349.643pt" height="341.112pt" viewBox="0 0 349.643 341.112" version="1.1">
<g id="surface1">
<path style=" stroke:none;fill-rule:nonzero;fill:rgb(83.529663%,75.294495%,99.215698%);fill-opacity:1;" d="M 268.59375 156.167969 C 264.332031 136.984375 249.601562 121.746094 230.703125 116.757812 C 232.289062 114.542969 233.671875 112.460938 234.808594 110.570312 C 238.195312 104.929688 236.503906 97.605469 230.953125 94.074219 C 214.378906 83.523438 193.1875 83.167969 176.296875 93 C 175.847656 90.316406 175.355469 87.863281 174.820312 85.71875 C 173.226562 79.339844 166.851562 75.359375 160.429688 76.785156 C 141.25 81.042969 126.011719 95.777344 121.023438 114.671875 C 118.808594 113.089844 116.726562 111.707031 114.832031 110.570312 C 109.195312 107.183594 101.871094 108.875 98.339844 114.425781 C 87.789062 131 87.429688 152.191406 97.265625 169.082031 C 94.578125 169.527344 92.128906 170.019531 89.984375 170.554688 C 83.605469 172.152344 79.621094 178.523438 81.046875 184.945312 C 85.308594 204.128906 100.042969 219.363281 118.9375 224.351562 C 117.355469 226.570312 115.96875 228.652344 114.832031 230.542969 C 111.449219 236.183594 113.140625 243.507812 118.691406 247.039062 C 135.265625 257.589844 156.457031 257.945312 173.347656 248.113281 C 173.792969 250.796875 174.285156 253.25 174.820312 255.390625 C 176.414062 261.773438 182.789062 265.753906 189.210938 264.328125 C 208.394531 260.070312 223.628906 245.335938 228.617188 226.4375 C 230.832031 228.023438 232.914062 229.40625 234.808594 230.542969 C 240.449219 233.929688 247.773438 232.238281 251.304688 226.6875 C 261.855469 210.113281 262.210938 188.921875 252.375 172.03125 C 255.0625 171.585938 257.511719 171.089844 259.65625 170.554688 C 266.039062 168.960938 270.019531 162.585938 268.59375 156.167969 "/>
</g>
</svg>
