<?xml version="1.0" encoding="UTF-8"?>
<svg xmlns="http://www.w3.org/2000/svg" xmlns:xlink="http://www.w3.org/1999/xlink" width="270.766pt" height="255.96pt" viewBox="0 0 270.766 255.96" version="1.1">
<g id="surface1">
<path style=" stroke:none;fill-rule:nonzero;fill:rgb(100%,100%,100%);fill-opacity:1;" d="M 135.777344 182.320312 C 122.445312 182.320312 109.851562 177.628906 103.503906 170.332031 C 99.527344 169.355469 96.160156 166.425781 94.433594 162.402344 C 93.160156 159.429688 93.007812 156.414062 93.972656 154.089844 C 89.582031 149.640625 87.40625 141.410156 88.402344 132.710938 C 89.363281 124.304688 92.96875 117.515625 98.136719 114.277344 C 97.695312 112.425781 97.582031 110.53125 97.792969 108.632812 C 98.734375 100.273438 106.09375 92.457031 114.199219 91.199219 C 114.820312 91.105469 115.449219 91.054688 116.070312 91.054688 C 116.90625 91.054688 117.726562 91.140625 118.527344 91.308594 C 119 88.722656 120.097656 84.511719 122.566406 80.703125 C 125.503906 76.167969 129.472656 73.726562 134.042969 73.640625 L 134.304688 73.640625 C 140.179688 73.640625 145.308594 77.371094 147.390625 82.929688 C 148.730469 82.105469 150.203125 81.65625 151.617188 81.65625 C 151.863281 81.65625 152.113281 81.667969 152.355469 81.695312 C 158.148438 82.363281 160.539062 88.660156 160.539062 93.417969 C 160.972656 93.339844 161.398438 93.300781 161.804688 93.300781 C 162.25 93.300781 162.671875 93.347656 163.066406 93.441406 C 168.710938 94.773438 171.328125 101.777344 171.855469 107.367188 C 171.953125 108.394531 171.964844 109.40625 171.894531 110.386719 C 185.46875 122.847656 182.816406 137.625 179.996094 145.382812 C 179.121094 147.792969 178.171875 149.695312 177.53125 150.867188 C 177.207031 151.460938 176.941406 151.925781 176.71875 152.285156 C 178.199219 155.550781 177.679688 159.945312 175.253906 164.261719 C 172.65625 168.882812 167.566406 173.5625 161.914062 173.886719 C 155.804688 179.328125 146.546875 182.320312 135.777344 182.320312 Z M 135.777344 182.320312 "/>
<path style=" stroke:none;fill-rule:nonzero;fill:rgb(0%,0%,0%);fill-opacity:1;" d="M 134.308594 72.261719 C 134.210938 72.261719 134.113281 72.265625 134.015625 72.265625 C 128.96875 72.359375 124.609375 75.015625 121.410156 79.953125 C 119.207031 83.359375 118.042969 87.054688 117.441406 89.75 C 116.988281 89.703125 116.53125 89.679688 116.070312 89.679688 C 115.378906 89.679688 114.679688 89.734375 113.988281 89.839844 C 105.308594 91.183594 97.429688 99.546875 96.425781 108.476562 C 96.230469 110.214844 96.289062 111.949219 96.597656 113.652344 C 91.511719 117.289062 87.992188 124.167969 87.03125 132.550781 C 86.019531 141.40625 88.058594 149.550781 92.398438 154.421875 C 91.644531 156.941406 91.898438 159.980469 93.167969 162.945312 C 95.003906 167.222656 98.542969 170.382812 102.75 171.554688 C 109.4375 178.957031 122.261719 183.699219 135.773438 183.699219 C 146.683594 183.699219 156.113281 180.695312 162.476562 175.222656 C 167.78125 174.707031 173.171875 170.777344 176.453125 164.9375 C 178.933594 160.523438 179.5625 155.976562 178.253906 152.40625 C 178.410156 152.128906 178.570312 151.832031 178.742188 151.519531 C 179.410156 150.300781 180.394531 148.324219 181.300781 145.824219 C 184.199219 137.839844 186.914062 122.710938 173.304688 109.820312 C 173.335938 108.972656 173.308594 108.109375 173.226562 107.238281 C 172.65625 101.191406 169.738281 93.601562 163.382812 92.101562 C 162.894531 91.984375 162.378906 91.925781 161.839844 91.921875 C 161.367188 86.882812 158.546875 81.023438 152.515625 80.328125 C 152.21875 80.296875 151.917969 80.277344 151.617188 80.277344 C 150.4375 80.277344 149.230469 80.542969 148.074219 81.035156 C 145.5 75.726562 140.253906 72.261719 134.308594 72.261719 M 134.308594 75.015625 C 140.632812 75.015625 145.382812 79.640625 146.644531 85.234375 C 148.058594 83.886719 149.878906 83.03125 151.617188 83.03125 C 151.8125 83.03125 152.007812 83.042969 152.199219 83.066406 C 157.40625 83.664062 159.433594 89.941406 159.132812 94.257812 C 159.105469 94.609375 159.078125 94.96875 159.035156 95.3125 C 159.949219 94.917969 160.917969 94.675781 161.804688 94.675781 C 162.136719 94.675781 162.453125 94.710938 162.75 94.78125 C 167.882812 95.992188 170.050781 102.894531 170.484375 107.496094 C 170.601562 108.722656 170.582031 109.882812 170.460938 110.949219 C 190.75 128.933594 175.285156 152.167969 175.109375 152.171875 C 179.285156 159.160156 170.476562 172.457031 161.359375 172.527344 C 155.128906 178.3125 145.53125 180.941406 135.773438 180.941406 C 123.28125 180.941406 110.527344 176.628906 104.253906 169.085938 C 96.5 167.515625 92.875 158.25 95.671875 153.789062 C 86.105469 145.585938 87.933594 121.105469 99.742188 114.941406 C 99.164062 113.066406 98.914062 110.992188 99.164062 108.785156 C 99.984375 101.484375 106.46875 93.792969 114.410156 92.5625 C 114.96875 92.476562 115.523438 92.433594 116.070312 92.433594 C 117.320312 92.433594 118.527344 92.652344 119.644531 93.058594 C 120.550781 85.988281 124.804688 75.1875 134.066406 75.019531 C 134.148438 75.015625 134.226562 75.015625 134.308594 75.015625 "/>
<path style=" stroke:none;fill-rule:nonzero;fill:rgb(13.725281%,12.156677%,12.548828%);fill-opacity:1;" d="M 146.949219 100.636719 C 145.796875 98.242188 144.835938 93.71875 148.183594 92.679688 C 148.183594 92.679688 148.300781 92.796875 148.300781 92.796875 C 148.042969 94.316406 147.710938 95.195312 147.238281 96.550781 C 146.996094 97.8125 146.933594 99.199219 147.105469 100.582031 Z M 146.949219 100.636719 "/>
<path style=" stroke:none;fill-rule:nonzero;fill:rgb(13.725281%,12.156677%,12.548828%);fill-opacity:1;" d="M 146.949219 100.585938 C 147.417969 97.96875 149.300781 93.746094 152.621094 94.867188 C 152.621094 94.867188 152.644531 95.03125 152.644531 95.03125 C 151.546875 96.113281 150.761719 96.625 149.582031 97.445312 C 148.644531 98.324219 147.777344 99.414062 147.105469 100.632812 Z M 146.949219 100.585938 "/>
<path style=" stroke:none;fill-rule:nonzero;fill:rgb(13.725281%,12.156677%,12.548828%);fill-opacity:1;" d="M 170.820312 140.292969 C 171.6875 137.78125 174.199219 133.898438 177.304688 135.519531 C 177.304688 135.519531 177.304688 135.6875 177.304688 135.6875 C 176.050781 136.582031 175.195312 136.96875 173.90625 137.597656 C 172.84375 138.324219 171.820312 139.261719 170.96875 140.367188 Z M 170.820312 140.292969 "/>
<path style=" stroke:none;fill-rule:nonzero;fill:rgb(13.725281%,12.156677%,12.548828%);fill-opacity:1;" d="M 170.855469 140.257812 C 173.03125 138.734375 177.34375 137.0625 178.90625 140.199219 C 178.90625 140.199219 178.808594 140.332031 178.808594 140.332031 C 177.269531 140.324219 176.347656 140.136719 174.933594 139.886719 C 173.648438 139.847656 172.269531 140.007812 170.933594 140.402344 Z M 170.855469 140.257812 "/>
<path style=" stroke:none;fill-rule:nonzero;fill:rgb(13.725281%,12.156677%,12.548828%);fill-opacity:1;" d="M 146.601562 85.34375 C 145.445312 82.949219 144.488281 78.425781 147.835938 77.386719 C 147.835938 77.386719 147.953125 77.503906 147.953125 77.503906 C 147.695312 79.023438 147.363281 79.902344 146.886719 81.257812 C 146.644531 82.519531 146.582031 83.910156 146.757812 85.289062 Z M 146.601562 85.34375 "/>
<path style=" stroke:none;fill-rule:nonzero;fill:rgb(13.725281%,12.156677%,12.548828%);fill-opacity:1;" d="M 146.601562 85.292969 C 147.070312 82.675781 148.949219 78.453125 152.269531 79.578125 C 152.269531 79.578125 152.296875 79.738281 152.296875 79.738281 C 151.195312 80.820312 150.410156 81.335938 149.230469 82.15625 C 148.292969 83.035156 147.429688 84.121094 146.757812 85.339844 Z M 146.601562 85.292969 "/>
<path style=" stroke:none;fill-rule:nonzero;fill:rgb(13.725281%,12.156677%,12.548828%);fill-opacity:1;" d="M 114.796875 109.640625 C 114.070312 108.449219 113.148438 107.40625 112.167969 106.570312 C 110.949219 105.804688 110.136719 105.328125 108.984375 104.304688 C 108.984375 104.304688 109.003906 104.136719 109.003906 104.136719 C 109.757812 103.789062 110.621094 103.832031 111.367188 104.117188 C 113.363281 105.179688 114.449219 107.484375 114.953125 109.582031 C 114.953125 109.582031 114.796875 109.640625 114.796875 109.640625 "/>
<path style=" stroke:none;fill-rule:nonzero;fill:rgb(13.725281%,12.156677%,12.548828%);fill-opacity:1;" d="M 114.828125 109.679688 C 113.539062 109.144531 112.179688 108.835938 110.898438 108.738281 C 109.460938 108.835938 108.523438 108.925781 106.988281 108.773438 C 106.988281 108.773438 106.90625 108.628906 106.90625 108.628906 C 107.3125 107.902344 108.039062 107.429688 108.808594 107.222656 C 111.046875 106.914062 113.28125 108.140625 114.921875 109.542969 C 114.921875 109.542969 114.828125 109.679688 114.828125 109.679688 "/>
<path style=" stroke:none;fill-rule:nonzero;fill:rgb(13.725281%,12.156677%,12.548828%);fill-opacity:1;" d="M 99.882812 115.398438 C 99.152344 114.207031 98.234375 113.160156 97.253906 112.328125 C 96.035156 111.5625 95.222656 111.085938 94.070312 110.0625 C 94.070312 110.0625 94.085938 109.894531 94.085938 109.894531 C 94.84375 109.546875 95.707031 109.589844 96.453125 109.875 C 98.445312 110.9375 99.53125 113.242188 100.039062 115.339844 C 100.039062 115.339844 99.882812 115.398438 99.882812 115.398438 "/>
<path style=" stroke:none;fill-rule:nonzero;fill:rgb(13.725281%,12.156677%,12.548828%);fill-opacity:1;" d="M 99.914062 115.4375 C 98.625 114.902344 97.265625 114.59375 95.984375 114.496094 C 94.546875 114.59375 93.609375 114.683594 92.074219 114.53125 C 92.074219 114.53125 91.992188 114.386719 91.992188 114.386719 C 92.398438 113.660156 93.125 113.1875 93.894531 112.980469 C 96.136719 112.671875 98.367188 113.898438 100.007812 115.300781 C 100.007812 115.300781 99.914062 115.4375 99.914062 115.4375 "/>
<path style=" stroke:none;fill-rule:nonzero;fill:rgb(13.725281%,12.156677%,12.548828%);fill-opacity:1;" d="M 100.359375 152.035156 C 99.207031 150.960938 97.882812 150.097656 96.542969 149.488281 C 95.003906 149.015625 93.894531 148.757812 92.308594 148.128906 C 92.308594 148.128906 92.28125 147.964844 92.28125 147.964844 C 93.75 146.78125 95.832031 147.230469 97.179688 148.332031 C 98.558594 149.265625 99.679688 150.507812 100.492188 151.9375 C 100.492188 151.9375 100.359375 152.035156 100.359375 152.035156 "/>
<path style=" stroke:none;fill-rule:nonzero;fill:rgb(13.725281%,12.156677%,12.548828%);fill-opacity:1;" d="M 100.402344 152.066406 C 98.835938 151.875 97.257812 151.949219 95.816406 152.246094 C 94.289062 152.765625 93.242188 153.207031 91.589844 153.628906 C 91.589844 153.628906 91.472656 153.515625 91.472656 153.515625 C 91.71875 152.636719 92.351562 151.921875 93.117188 151.464844 C 95.429688 150.414062 98.210938 150.964844 100.453125 151.910156 C 100.453125 151.910156 100.402344 152.066406 100.402344 152.066406 "/>
<path style=" stroke:none;fill-rule:nonzero;fill:rgb(13.725281%,12.156677%,12.548828%);fill-opacity:1;" d="M 119.71875 93.644531 C 119.394531 91.675781 118.734375 89.785156 117.828125 88.125 C 116.691406 86.464844 115.640625 85.28125 114.347656 83.644531 C 114.347656 83.644531 114.417969 83.496094 114.417969 83.496094 C 116.699219 83.582031 118.398438 85.507812 119.023438 87.558594 C 119.765625 89.507812 120.042969 91.585938 119.882812 93.644531 C 119.882812 93.644531 119.71875 93.644531 119.71875 93.644531 "/>
<path style=" stroke:none;fill-rule:nonzero;fill:rgb(13.725281%,12.156677%,12.548828%);fill-opacity:1;" d="M 119.734375 93.691406 C 118.316406 92.289062 116.671875 91.148438 114.964844 90.332031 C 113.070312 89.65625 111.523438 89.316406 109.515625 88.75 C 109.515625 88.75 109.484375 88.585938 109.484375 88.585938 C 111.378906 87.320312 113.890625 87.878906 115.601562 89.171875 C 117.34375 90.3125 118.789062 91.835938 119.867188 93.59375 C 119.867188 93.59375 119.734375 93.691406 119.734375 93.691406 "/>
<path style=" stroke:none;fill-rule:nonzero;fill:rgb(13.725281%,12.156677%,12.548828%);fill-opacity:1;" d="M 170.261719 112.664062 C 170.546875 108.859375 172.308594 103.132812 176.996094 103.308594 C 176.996094 103.308594 177.046875 103.464844 177.046875 103.464844 C 175.550781 104.917969 174.355469 105.957031 173.011719 107.457031 C 171.898438 108.988281 171 110.777344 170.425781 112.683594 Z M 170.261719 112.664062 "/>
<path style=" stroke:none;fill-rule:nonzero;fill:rgb(13.725281%,12.156677%,12.548828%);fill-opacity:1;" d="M 170.285156 112.617188 C 172.746094 109.707031 177.535156 106.105469 181.226562 108.996094 C 181.226562 108.996094 181.175781 109.152344 181.175781 109.152344 C 179.113281 109.453125 177.535156 109.589844 175.566406 110.019531 C 173.769531 110.601562 171.988281 111.523438 170.402344 112.730469 Z M 170.285156 112.617188 "/>
</g>
</svg>
