<?xml version="1.0" encoding="UTF-8"?>
<svg xmlns="http://www.w3.org/2000/svg" xmlns:xlink="http://www.w3.org/1999/xlink" width="270.766pt" height="255.96pt" viewBox="0 0 270.766 255.96" version="1.1">
<g id="surface1">
<path style="fill:none;stroke-width:12.903;stroke-linecap:round;stroke-linejoin:round;stroke:rgb(0%,0%,0%);stroke-opacity:1;stroke-miterlimit:10;" d="M -0.0012 0.0002375 C -0.0012 0.0002375 -4.723856 35.343988 28.537863 47.250238 " transform="matrix(1,0,0,-1,157.0637,127.6643)"/>
<path style=" stroke:none;fill-rule:nonzero;fill:rgb(100%,100%,100%);fill-opacity:1;" d="M 141.765625 121.492188 L 141.988281 121.320312 C 141.988281 121.320312 150.285156 114.125 160.433594 124.082031 C 170.574219 134.046875 166.707031 140.132812 166.707031 140.132812 L 165.785156 140.394531 C 169.316406 143.324219 173.929688 148.917969 170.390625 156.363281 L 168.78125 156.652344 C 167.203125 153.355469 163.78125 149.835938 157.296875 146.40625 C 149.820312 142.449219 144.257812 140.597656 138.285156 136.265625 C 143.945312 127.453125 138.382812 116.886719 137.636719 115.550781 C 138.875 117.664062 140.300781 119.660156 141.765625 121.492188 "/>
<path style=" stroke:none;fill-rule:nonzero;fill:rgb(100%,100%,100%);fill-opacity:1;" d="M 168.78125 156.652344 C 170.34375 159.898438 170.109375 162.925781 169.285156 165.40625 C 168.644531 167.324219 167.898438 169.273438 166.4375 170.941406 C 167.261719 169.777344 172.941406 160.945312 161.164062 154.121094 C 154.949219 150.515625 148.375 149.109375 148.375 149.109375 L 144.207031 144.863281 C 144.148438 144.835938 144.101562 144.804688 144.042969 144.777344 C 140.164062 142.703125 136.355469 140.917969 132.140625 137.652344 C 126.082031 132.96875 119.632812 121.8125 111.441406 115.414062 C 101.75 107.84375 89.640625 107.367188 85.589844 120.417969 C 86.246094 116.421875 87.671875 112.980469 89.640625 110.09375 L 89.652344 110.082031 C 96.554688 103.402344 110.269531 103.25 123.726562 121.132812 C 129.394531 128.667969 133.953125 133.125 138.285156 136.265625 C 144.257812 140.597656 149.820312 142.449219 157.292969 146.40625 C 163.78125 149.835938 167.203125 153.355469 168.78125 156.652344 "/>
<path style=" stroke:none;fill-rule:nonzero;fill:rgb(100%,100%,100%);fill-opacity:1;" d="M 161.164062 154.121094 C 172.941406 160.945312 167.257812 169.777344 166.433594 170.941406 C 166.433594 170.949219 166.425781 170.96875 166.40625 170.980469 C 166.386719 171.007812 166.367188 171.039062 166.339844 171.066406 C 164.023438 173.65625 159.96875 175.546875 151.945312 175.546875 C 138.664062 175.546875 132.757812 168.710938 132.757812 168.710938 L 148.375 149.109375 C 148.375 149.109375 154.949219 150.515625 161.164062 154.121094 "/>
<path style=" stroke:none;fill-rule:nonzero;fill:rgb(100%,100%,100%);fill-opacity:1;" d="M 144.207031 144.863281 L 148.375 149.109375 L 132.761719 168.710938 L 130.179688 162.265625 L 143.492188 145.832031 L 144.042969 144.777344 C 144.101562 144.804688 144.148438 144.835938 144.207031 144.863281 "/>
<path style=" stroke:none;fill-rule:nonzero;fill:rgb(100%,100%,100%);fill-opacity:1;" d="M 144.042969 144.777344 L 143.488281 145.835938 L 130.179688 162.265625 C 99.558594 159.871094 85.542969 143.449219 85.171875 126.484375 C 85.125 124.351562 85.269531 122.335938 85.578125 120.445312 C 85.578125 120.4375 85.578125 120.425781 85.589844 120.417969 C 89.640625 107.367188 101.75 107.84375 111.441406 115.414062 C 119.632812 121.8125 126.082031 132.96875 132.140625 137.652344 C 136.355469 140.917969 140.164062 142.703125 144.042969 144.777344 "/>
<path style=" stroke:none;fill-rule:nonzero;fill:rgb(100%,100%,100%);fill-opacity:1;" d="M 137.636719 115.550781 C 138.382812 116.886719 143.945312 127.453125 138.285156 136.265625 C 133.953125 133.125 129.394531 128.667969 123.722656 121.132812 C 110.269531 103.25 96.550781 103.402344 89.652344 110.082031 C 94.160156 103.492188 101.574219 99.777344 109.523438 98.992188 C 122.621094 97.703125 132.207031 106.1875 137.558594 115.414062 C 137.558594 115.414062 137.585938 115.464844 137.636719 115.550781 "/>
<path style="fill:none;stroke-width:2.581;stroke-linecap:round;stroke-linejoin:round;stroke:rgb(0%,0%,0%);stroke-opacity:1;stroke-miterlimit:10;" d="M 0.00028125 0.00159375 C 0.00028125 0.00159375 8.297156 7.193 18.445594 -2.764031 C 28.586219 -12.728875 24.719031 -18.814812 24.719031 -18.814812 " transform="matrix(1,0,0,-1,141.988,121.318)"/>
<path style="fill:none;stroke-width:2.581;stroke-linecap:round;stroke-linejoin:round;stroke:rgb(0%,0%,0%);stroke-opacity:1;stroke-miterlimit:10;" d="M -0.0004625 0.00044375 C -0.0004625 0.00044375 1.522975 -0.804244 3.323756 -2.296431 C 6.855006 -5.226119 11.468287 -10.819869 7.929225 -18.261275 " transform="matrix(1,0,0,-1,162.4614,138.0981)"/>
<path style="fill:none;stroke-width:2.581;stroke-linecap:round;stroke-linejoin:round;stroke:rgb(0%,0%,0%);stroke-opacity:1;stroke-miterlimit:10;" d="M 0.0016 -0.00050625 C 1.462537 1.667462 2.208631 3.616681 2.849256 5.53465 C 3.673475 8.015119 3.90785 11.042462 2.34535 14.288556 C 0.767225 17.585431 -2.65465 21.104962 -9.142931 24.53465 C -16.615588 28.491681 -22.178088 30.343244 -28.150744 34.675275 C -32.482775 37.8159 -37.041369 42.276837 -42.709338 49.808087 C -56.166369 67.6909 -69.881213 67.538556 -76.783556 60.858869 " transform="matrix(1,0,0,-1,166.4359,170.9409)"/>
<path style="fill:none;stroke-width:2.581;stroke-linecap:round;stroke-linejoin:round;stroke:rgb(0%,0%,0%);stroke-opacity:1;stroke-miterlimit:10;" d="M -0.001275 0.0001875 C -0.309869 -1.890437 -0.4544 -3.906062 -0.407525 -6.038875 C -0.0403375 -23.003719 13.979194 -39.425594 44.600288 -41.820125 L 47.178413 -48.265437 C 47.178413 -48.265437 53.084663 -55.101375 66.365913 -55.101375 C 74.38935 -55.101375 78.444038 -53.21075 80.760444 -50.620906 C 80.787788 -50.593562 80.807319 -50.562312 80.82685 -50.534969 " transform="matrix(1,0,0,-1,85.5794,120.4455)"/>
<path style="fill:none;stroke-width:2.581;stroke-linecap:round;stroke-linejoin:round;stroke:rgb(0%,0%,0%);stroke-opacity:1;stroke-miterlimit:10;" d="M 0.00069375 0.0003375 C -5.350869 9.230806 -14.936806 17.711275 -28.034463 16.422213 C -35.983681 15.637056 -43.397744 11.922213 -47.905556 5.332369 L -47.917275 5.32065 C -49.886025 2.433931 -51.311806 -1.007475 -51.968056 -5.003569 " transform="matrix(1,0,0,-1,137.5579,115.4144)"/>
<path style="fill:none;stroke-width:2.581;stroke-linecap:round;stroke-linejoin:round;stroke:rgb(0%,0%,0%);stroke-opacity:1;stroke-miterlimit:10;" d="M 0.0017125 0.00188125 C 0.0017125 0.00188125 -5.291256 4.216725 -10.177975 10.333912 C -11.642819 12.165944 -13.0686 14.162037 -14.306881 16.275319 " transform="matrix(1,0,0,-1,151.9436,131.8261)"/>
<path style="fill:none;stroke-width:2.581;stroke-linecap:round;stroke-linejoin:round;stroke:rgb(0%,0%,0%);stroke-opacity:1;stroke-miterlimit:10;" d="M 0.00084375 0.00049375 C 0.00084375 0.00049375 0.020375 0.0278375 0.06725 0.0864313 C 0.0867813 0.09815 0.0985 0.117681 0.0985 0.125494 C 0.922719 1.289556 6.602406 10.121588 -5.178844 16.945806 C -11.389781 20.551275 -17.964 21.957525 -17.964 21.957525 L -22.131969 26.203619 C -22.190562 26.230963 -22.237437 26.262213 -22.296031 26.289556 C -26.174937 28.363775 -29.983531 30.148931 -34.198375 33.414556 C -40.260875 38.09815 -46.706187 49.2544 -54.897594 55.652838 C -64.589 63.22315 -76.698375 63.699713 -80.749156 50.648931 C -80.760875 50.641119 -80.760875 50.6294 -80.760875 50.621588 " transform="matrix(1,0,0,-1,166.339,171.0669)"/>
<path style="fill:none;stroke-width:2.581;stroke-linecap:round;stroke-linejoin:round;stroke:rgb(0%,0%,0%);stroke-opacity:1;stroke-miterlimit:10;" d="M -0.0012 0.000925 L -15.618388 -19.600638 " transform="matrix(1,0,0,-1,148.3762,149.1103)"/>
<path style="fill:none;stroke-width:2.581;stroke-linecap:round;stroke-linejoin:round;stroke:rgb(0%,0%,0%);stroke-opacity:1;stroke-miterlimit:10;" d="M -0.0011125 -0.000725 L 13.311387 16.432869 " transform="matrix(1,0,0,-1,130.1808,162.2649)"/>
<path style="fill:none;stroke-width:2.581;stroke-linecap:round;stroke-linejoin:round;stroke:rgb(0%,0%,0%);stroke-opacity:1;stroke-miterlimit:10;" d="M 0.00069375 0.0003375 C 0.00069375 0.0003375 0.0280375 -0.0465375 0.0788187 -0.136381 C 0.824912 -1.472319 6.387412 -12.038725 0.727256 -20.851225 " transform="matrix(1,0,0,-1,137.5579,115.4144)"/>
</g>
</svg>
