<?xml version="1.0" encoding="UTF-8"?>
<svg xmlns="http://www.w3.org/2000/svg" xmlns:xlink="http://www.w3.org/1999/xlink" width="270.766pt" height="255.96pt" viewBox="0 0 270.766 255.96" version="1.1">
<g id="surface1">
<path style=" stroke:none;fill-rule:nonzero;fill:rgb(100%,100%,100%);fill-opacity:1;" d="M 170.589844 136.480469 C 171.078125 139.59375 169.75 142.832031 166.628906 145.160156 C 165.25 146.203125 163.519531 147.0625 161.4375 147.660156 C 154.660156 149.601562 149.148438 149.253906 149.148438 149.253906 C 149.589844 147.453125 149.839844 145.582031 149.859375 143.652344 C 151.089844 142.292969 152.046875 140.472656 152.636719 138.070312 C 152.699219 137.8125 152.757812 137.542969 152.808594 137.273438 C 158.699219 136.453125 163.289062 134.632812 165.789062 132.121094 C 165.789062 132.121094 169.886719 132.003906 170.589844 136.480469 "/>
<path style=" stroke:none;fill-rule:nonzero;fill:rgb(100%,100%,100%);fill-opacity:1;" d="M 166.636719 145.171875 C 166.636719 145.171875 169.359375 146.160156 169.179688 149.773438 C 168.476562 164.121094 142.167969 161.300781 142.167969 161.300781 C 145.539062 158.082031 148 153.921875 149.148438 149.253906 C 149.148438 149.253906 154.660156 149.601562 161.4375 147.660156 C 163.519531 147.0625 165.25 146.203125 166.628906 145.160156 Z M 166.636719 145.171875 "/>
<path style=" stroke:none;fill-rule:nonzero;fill:rgb(100%,100%,100%);fill-opacity:1;" d="M 166.808594 123.722656 C 168.609375 126.953125 168.066406 129.832031 165.789062 132.121094 C 163.289062 134.632812 158.699219 136.453125 152.808594 137.273438 C 153.5 133.503906 152.667969 129.230469 150.886719 125.351562 C 150.886719 125.351562 163.019531 116.953125 166.808594 123.722656 "/>
<path style=" stroke:none;fill-rule:nonzero;fill:rgb(100%,100%,100%);fill-opacity:1;" d="M 149.859375 143.652344 C 149.839844 145.582031 149.589844 147.453125 149.148438 149.253906 C 148 153.921875 145.539062 158.082031 142.167969 161.300781 C 137.707031 165.5625 131.648438 168.191406 124.976562 168.191406 C 111.226562 168.191406 100.078125 157.042969 100.078125 143.292969 C 100.078125 129.542969 111.226562 118.390625 124.976562 118.390625 L 125.097656 118.492188 C 128.609375 113.992188 133.816406 111.800781 139.4375 113.683594 C 141.6875 114.433594 143.867188 115.921875 145.796875 117.882812 C 147.847656 119.953125 149.617188 122.550781 150.886719 125.351562 C 152.667969 129.230469 153.5 133.503906 152.808594 137.273438 C 152.757812 137.542969 152.699219 137.8125 152.636719 138.070312 C 152.046875 140.472656 151.089844 142.292969 149.859375 143.652344 "/>
<path style="fill:none;stroke-width:2.581;stroke-linecap:round;stroke-linejoin:round;stroke:rgb(0%,0%,0%);stroke-opacity:1;stroke-miterlimit:10;" d="M -0.0011125 -0.00086875 C -0.0011125 -0.118056 -0.0011125 -0.23915 -0.008925 -0.360244 C -0.0284563 -2.289931 -0.278456 -4.161025 -0.719863 -5.961806 C -1.8683 -10.629775 -4.329238 -14.789931 -7.700331 -18.008681 C -12.161269 -22.2704 -18.219863 -24.899306 -24.891738 -24.899306 C -38.641738 -24.899306 -49.790175 -13.750869 -49.790175 -0.00086875 C -49.790175 13.749131 -38.641738 24.901475 -24.891738 24.901475 " transform="matrix(1,0,0,-1,149.8683,143.2921)"/>
<path style="fill:none;stroke-width:2.581;stroke-linecap:round;stroke-linejoin:round;stroke:rgb(0%,0%,0%);stroke-opacity:1;stroke-miterlimit:10;" d="M -0.00001875 0.001475 C 0.769513 2.841319 2.0117 5.36085 3.609356 7.399912 C 7.121075 11.899912 12.328106 14.091319 17.9492 12.208506 C 20.1992 11.458506 22.378888 9.970225 24.308575 8.009287 C 26.359356 5.938975 28.128888 3.341319 29.398419 0.540537 C 31.179669 -3.338369 32.0117 -7.611806 31.320294 -11.381338 C 31.269513 -11.650869 31.210919 -11.9204 31.148419 -12.178213 C 30.558575 -14.580556 29.601544 -16.400869 28.371075 -17.760244 C 23.839825 -22.779775 15.679669 -21.459463 9.238263 -19.311025 " transform="matrix(1,0,0,-1,121.4883,125.8921)"/>
<path style="fill:none;stroke-width:2.581;stroke-linecap:round;stroke-linejoin:round;stroke:rgb(0%,0%,0%);stroke-opacity:1;stroke-miterlimit:10;" d="M -0.00158125 0.0005375 C -0.00158125 0.0005375 12.131231 8.398975 15.920294 1.629444 C 17.721075 -1.601025 17.178106 -4.479931 14.900762 -6.768994 C 12.400762 -9.280712 7.810919 -11.101025 1.920294 -11.921337 " transform="matrix(1,0,0,-1,150.8883,125.3521)"/>
<path style="fill:none;stroke-width:2.581;stroke-linecap:round;stroke-linejoin:round;stroke:rgb(0%,0%,0%);stroke-opacity:1;stroke-miterlimit:10;" d="M 0.0007625 0.00100625 C 0.0007625 0.00100625 4.098419 0.118194 4.801544 -4.358369 C 5.289825 -7.47165 3.9617 -10.709931 0.840606 -13.038056 C -0.5383 -14.081025 -2.268769 -14.9404 -4.3508 -15.538056 C -11.128144 -17.479463 -16.639863 -17.131806 -16.639863 -17.131806 " transform="matrix(1,0,0,-1,165.7883,132.1221)"/>
<path style="fill:none;stroke-width:2.581;stroke-linecap:round;stroke-linejoin:round;stroke:rgb(0%,0%,0%);stroke-opacity:1;stroke-miterlimit:10;" d="M -0.00158125 0.000225 C -0.00158125 0.000225 2.721075 -0.988056 2.541387 -4.601337 C 1.838262 -18.948994 -24.470331 -16.128681 -24.470331 -16.128681 " transform="matrix(1,0,0,-1,166.6383,145.1721)"/>
<path style="fill:none;stroke-width:12.903;stroke-linecap:round;stroke-linejoin:round;stroke:rgb(0%,0%,0%);stroke-opacity:1;stroke-miterlimit:10;" d="M 0.0007625 -0.001025 C 0.0007625 -0.001025 24.9617 5.491163 31.000763 -10.149462 C 33.719513 -17.200244 32.559356 -23.840869 30.258575 -29.180712 C 27.4617 -35.688525 22.9617 -40.278369 21.731231 -41.3604 " transform="matrix(1,0,0,-1,115.5383,88.7021)"/>
</g>
</svg>
