<?xml version="1.0" encoding="UTF-8"?>
<svg xmlns="http://www.w3.org/2000/svg" xmlns:xlink="http://www.w3.org/1999/xlink" width="270.766pt" height="255.96pt" viewBox="0 0 270.766 255.96" version="1.1">
<g id="surface1">
<path style="fill:none;stroke-width:12.903;stroke-linecap:round;stroke-linejoin:round;stroke:rgb(0%,0%,0%);stroke-opacity:1;stroke-miterlimit:10;" d="M 0.001775 0.00135625 C 0.001775 0.00135625 -40.404475 -11.674425 -39.494319 26.192763 " transform="matrix(1,0,0,-1,169.4201,174.5912)"/>
<path style=" stroke:none;fill-rule:nonzero;fill:rgb(100%,100%,100%);fill-opacity:1;" d="M 102.367188 117.785156 C 100.503906 120.050781 101.28125 123.941406 103.976562 127.539062 C 104.867188 128.722656 105.957031 129.875 107.234375 130.925781 C 112.390625 135.171875 118.589844 136.1875 121.0625 133.179688 C 123.519531 130.1875 121.378906 124.363281 116.28125 120.125 C 116.253906 120.097656 116.226562 120.074219 116.1875 120.042969 C 114.542969 118.6875 112.792969 117.660156 111.09375 116.988281 C 107.457031 115.554688 104.046875 115.742188 102.367188 117.785156 "/>
<path style=" stroke:none;fill-rule:nonzero;fill:rgb(100%,100%,100%);fill-opacity:1;" d="M 135.21875 117.847656 C 135.21875 117.847656 131.0625 116.140625 125.78125 116.59375 C 124.921875 116.667969 124.039062 116.796875 123.140625 117.003906 C 120.894531 117.5 118.542969 118.460938 116.289062 120.117188 L 116.28125 120.128906 C 121.378906 124.363281 123.519531 130.1875 121.0625 133.179688 C 118.589844 136.1875 112.390625 135.171875 107.230469 130.925781 C 105.957031 129.875 104.867188 128.722656 103.976562 127.539062 C 103.976562 127.539062 101.957031 136.796875 107.234375 144.164062 C 110.628906 148.921875 114.335938 150.730469 117.34375 151.296875 L 117.296875 151.515625 C 117.296875 151.515625 115.335938 152.28125 115.65625 155.578125 C 115.976562 158.882812 120.222656 160.792969 129.980469 159.84375 C 139.75 158.894531 143.542969 156.207031 143.210938 152.757812 C 142.945312 150.035156 141.878906 149.382812 141.449219 149.238281 C 142.457031 148.839844 143.390625 148.308594 144.15625 147.597656 C 148.140625 143.882812 148.4375 135.015625 150.023438 131.960938 C 151.613281 128.90625 154.320312 122.414062 153.996094 119.113281 C 153.578125 114.796875 149.265625 111.558594 143.289062 112.714844 C 141.769531 113.007812 140.703125 113.707031 139.511719 114.640625 L 139.511719 114.648438 C 138.671875 115.300781 137.761719 116.078125 136.574219 116.914062 C 136.121094 117.230469 135.664062 117.546875 135.21875 117.847656 "/>
<path style=" stroke:none;fill-rule:nonzero;fill:rgb(100%,100%,100%);fill-opacity:1;" d="M 108.738281 82.628906 C 103.003906 83.882812 102.039062 89.597656 103.054688 95.242188 C 103.894531 99.867188 105.691406 104.175781 106.496094 106.359375 C 108.296875 111.214844 111.09375 116.988281 111.09375 116.988281 C 112.792969 117.65625 114.542969 118.6875 116.1875 120.042969 C 116.226562 120.074219 116.253906 120.097656 116.28125 120.128906 L 116.289062 120.117188 C 118.542969 118.460938 120.894531 117.5 123.140625 117.003906 L 123.109375 116.851562 C 121.648438 111.890625 120.292969 103.25 119.417969 96.4375 C 119.03125 93.402344 118.269531 80.554688 108.738281 82.628906 "/>
<path style=" stroke:none;fill-rule:nonzero;fill:rgb(100%,100%,100%);fill-opacity:1;" d="M 129.832031 79.695312 C 120.109375 80.410156 123.027344 92.945312 123.515625 95.96875 C 124.617188 102.753906 125.773438 111.421875 125.78125 116.59375 C 131.0625 116.140625 135.21875 117.847656 135.21875 117.847656 C 135.667969 117.546875 136.121094 117.230469 136.574219 116.914062 C 137.761719 116.078125 138.671875 115.300781 139.511719 114.648438 L 139.507812 114.640625 C 139.464844 114.335938 138.390625 106.863281 138.722656 101.8125 C 138.878906 99.480469 139.382812 94.839844 138.859375 90.167969 C 138.230469 84.46875 135.683594 79.261719 129.832031 79.695312 "/>
<path style="fill:none;stroke-width:2.581;stroke-linecap:round;stroke-linejoin:round;stroke:rgb(0%,0%,0%);stroke-opacity:1;stroke-miterlimit:10;" d="M 0.001125 -0.0004 C 0.001125 -0.0004 0.0675313 -0.0082125 0.184719 -0.0511812 C 0.614406 -0.195712 1.680813 -0.848056 1.946438 -3.570712 C 2.282375 -7.019931 -1.5145 -9.707431 -11.284031 -10.65665 C -21.041844 -11.605869 -25.287937 -9.695712 -25.60825 -6.391025 C -25.928562 -3.09415 -23.967625 -2.328525 -23.967625 -2.328525 " transform="matrix(1,0,0,-1,141.2645,149.1871)"/>
<path style="fill:none;stroke-width:2.581;stroke-linecap:round;stroke-linejoin:round;stroke:rgb(0%,0%,0%);stroke-opacity:1;stroke-miterlimit:10;" d="M 0.00101875 -0.0006375 C -0.838825 -0.649075 -1.748981 -1.430325 -2.936481 -2.266263 C -3.389606 -2.582669 -3.842731 -2.899075 -4.29195 -3.199856 C -7.545856 -5.367825 -10.608356 -7.188138 -10.288044 -10.492825 C -9.870075 -14.797513 -5.6982 -17.430325 -1.108356 -16.985013 C 3.485394 -16.5397 8.766644 -11.254544 8.766644 -11.254544 " transform="matrix(1,0,0,-1,139.5107,114.6478)"/>
<path style="fill:none;stroke-width:2.581;stroke-linecap:round;stroke-linejoin:round;stroke:rgb(0%,0%,0%);stroke-opacity:1;stroke-miterlimit:10;" d="M 0.0000375 -0.00049375 C 0.0000375 -0.00049375 5.562537 -0.777837 9.800819 0.882319 C 10.808631 1.280756 11.742225 1.812006 12.50785 2.522944 C 16.492225 6.237788 16.7891 15.104975 18.375037 18.159663 C 19.964881 21.21435 22.671912 27.706538 22.3516 31.007319 C 21.929725 35.323725 17.617225 38.565913 11.640662 37.405756 C 10.117225 37.112788 9.054725 36.413569 7.863319 35.479975 " transform="matrix(1,0,0,-1,131.6484,150.1206)"/>
<path style="fill:none;stroke-width:2.581;stroke-linecap:round;stroke-linejoin:round;stroke:rgb(0%,0%,0%);stroke-opacity:1;stroke-miterlimit:10;" d="M 0.0009375 -0.0003375 C 0.0009375 -0.0003375 -1.264688 8.128569 4.262656 12.800444 " transform="matrix(1,0,0,-1,131.585,144.6481)"/>
<path style="fill:none;stroke-width:2.581;stroke-linecap:round;stroke-linejoin:round;stroke:rgb(0%,0%,0%);stroke-opacity:1;stroke-miterlimit:10;" d="M -0.00005 -0.00125625 C -0.00005 -0.00125625 -4.1563 1.705775 -9.43755 1.25265 C -10.296925 1.178431 -11.179737 1.049525 -12.078175 0.842494 C -14.324269 0.3464 -16.675831 -0.614537 -18.929737 -2.270787 " transform="matrix(1,0,0,-1,135.2188,117.8464)"/>
<path style="fill:none;stroke-width:2.581;stroke-linecap:round;stroke-linejoin:round;stroke:rgb(0%,0%,0%);stroke-opacity:1;stroke-miterlimit:10;" d="M -0.0005375 0.0014375 C 0.890087 -1.182156 1.979931 -2.3345 3.253369 -3.385281 C 8.413525 -7.631375 14.612744 -8.643094 17.0854 -5.639187 C 19.542431 -2.647 17.401806 3.177219 12.30415 7.411594 C 12.276806 7.44675 12.249462 7.466281 12.2104 7.497531 C 10.565869 8.853 8.815869 9.880344 7.11665 10.552219 C 3.479931 11.985813 0.069775 11.798313 -1.609913 9.755344 C -3.473194 7.489719 -2.699756 3.599094 -0.0005375 0.0014375 Z M -0.0005375 0.0014375 " transform="matrix(1,0,0,-1,103.9771,127.5405)"/>
<path style="fill:none;stroke-width:2.581;stroke-linecap:round;stroke-linejoin:round;stroke:rgb(0%,0%,0%);stroke-opacity:1;stroke-miterlimit:10;" d="M 0.00053125 0.0018375 C 0.00053125 0.0018375 -2.577594 -1.048944 -6.11275 -0.380975 C -9.120563 0.185431 -12.827594 1.997931 -16.222125 6.755744 C -21.499469 14.119025 -19.479938 23.376837 -19.479938 23.376837 " transform="matrix(1,0,0,-1,123.4565,150.9159)"/>
<path style="fill:none;stroke-width:2.581;stroke-linecap:round;stroke-linejoin:round;stroke:rgb(0%,0%,0%);stroke-opacity:1;stroke-miterlimit:10;" d="M 0.00101875 -0.0006375 L -0.0028875 0.007175 C -0.0458562 0.311862 -1.120075 7.784519 -0.788044 12.839206 C -0.631794 15.167331 -0.127887 19.807956 -0.651325 24.479831 C -1.280231 30.17905 -3.827106 35.382175 -9.678669 34.952487 C -19.401325 34.237644 -16.483356 21.702487 -15.995075 18.675144 C -14.893512 11.893894 -13.737262 3.225925 -13.72945 -1.94595 " transform="matrix(1,0,0,-1,139.5107,114.6478)"/>
<path style="fill:none;stroke-width:2.581;stroke-linecap:round;stroke-linejoin:round;stroke:rgb(0%,0%,0%);stroke-opacity:1;stroke-miterlimit:10;" d="M -0.00045 0.00141875 C -0.00045 0.00141875 -2.797325 5.778762 -4.598106 10.630325 C -5.402794 12.813919 -7.199669 17.122512 -8.039513 21.747512 C -9.055138 27.388137 -8.090294 33.106887 -2.359825 34.360794 C 7.171425 36.435012 7.93705 23.587356 8.323769 20.5522 C 9.198769 13.7397 10.554237 5.099075 12.015175 0.138137 " transform="matrix(1,0,0,-1,111.0942,116.9897)"/>
</g>
</svg>
