<?xml version="1.0" encoding="UTF-8"?>
<svg xmlns="http://www.w3.org/2000/svg" xmlns:xlink="http://www.w3.org/1999/xlink" width="270.766pt" height="255.96pt" viewBox="0 0 270.766 255.96" version="1.1">
<g id="surface1">
<path style="fill:none;stroke-width:12.903;stroke-linecap:round;stroke-linejoin:round;stroke:rgb(0%,0%,0%);stroke-opacity:1;stroke-miterlimit:10;" d="M 0.00031875 -0.00078125 C 0.00031875 -0.00078125 41.441725 7.729688 36.9886 -43.309375 " transform="matrix(1,0,0,-1,104.2614,83.55)"/>
<path style=" stroke:none;fill-rule:nonzero;fill:rgb(100%,100%,100%);fill-opacity:1;" d="M 118.804688 159.402344 L 117.765625 159.5 C 109.726562 160.640625 105.878906 149.765625 116.371094 136.777344 C 120.914062 131.148438 125.628906 128.378906 129.539062 127.066406 C 129.539062 127.066406 127.152344 126.132812 126.925781 123.402344 C 126.699219 120.683594 130.261719 117.386719 141.308594 116.441406 C 153.882812 115.355469 157.140625 121.84375 153.511719 125.804688 C 168.335938 131.191406 166.414062 159.160156 166.429688 160.75 C 166.433594 162.535156 166.710938 169.101562 160.066406 170.0625 C 153.414062 171.035156 151.496094 164.464844 151.496094 164.464844 C 151.65625 166.375 151.175781 172.175781 143.816406 172.789062 C 136.453125 173.40625 134.488281 166.300781 134.488281 166.300781 C 133.546875 171.453125 127.839844 172.207031 127.839844 172.207031 C 127.839844 172.207031 120.546875 173.632812 119.003906 161.6875 C 118.90625 160.910156 118.84375 160.148438 118.804688 159.402344 "/>
<path style="fill:none;stroke-width:2.581;stroke-linecap:round;stroke-linejoin:round;stroke:rgb(0%,0%,0%);stroke-opacity:1;stroke-miterlimit:10;" d="M 0.0007 -0.0002125 C 0.0007 -0.0002125 -3.84305 0.863069 -9.147738 -0.933806 C -13.057894 -2.246306 -17.772738 -5.015838 -22.315706 -10.644744 C -32.807894 -23.633025 -28.960238 -34.504119 -20.921175 -33.3674 C -20.761019 -33.343963 -20.59305 -33.312713 -20.425081 -33.281463 " transform="matrix(1,0,0,-1,138.6868,126.1326)"/>
<path style="fill:none;stroke-width:2.581;stroke-linecap:round;stroke-linejoin:round;stroke:rgb(0%,0%,0%);stroke-opacity:1;stroke-miterlimit:10;" d="M -0.00080625 -0.00158125 C -0.00080625 -0.00158125 -6.106275 -8.204706 -5.629713 -19.040644 C -5.59065 -19.786737 -5.52815 -20.548456 -5.430494 -21.321894 C -3.887525 -33.271112 3.405444 -31.845331 3.405444 -31.845331 C 3.405444 -31.845331 9.112475 -31.091425 10.053881 -25.939081 C 10.053881 -25.939081 12.018725 -33.04455 19.3781 -32.427362 C 26.741381 -31.814081 27.22185 -26.0133 27.061694 -24.103144 C 27.061694 -24.103144 28.979662 -30.673456 35.632006 -29.7008 C 42.276537 -28.739862 41.999194 -22.173456 41.995287 -20.3883 C 41.983569 -18.798456 43.901537 9.170294 29.077319 14.557013 C 27.2531 15.213263 25.174975 15.533575 22.799975 15.420294 " transform="matrix(1,0,0,-1,124.4344,140.3617)"/>
<path style="fill:none;stroke-width:2.581;stroke-linecap:round;stroke-linejoin:round;stroke:rgb(0%,0%,0%);stroke-opacity:1;stroke-miterlimit:10;" d="M 0.0008625 -0.00010625 C 0.0008625 -0.00010625 -2.385856 0.933488 -2.612419 3.663956 C -2.838981 6.386613 0.723519 9.679581 11.770394 10.624894 C 24.344612 11.710831 27.602425 5.22255 23.973519 1.261613 " transform="matrix(1,0,0,-1,129.5382,127.0663)"/>
</g>
</svg>
